<svg width="696" height="569" viewBox="0 0 696 569" fill="none" xmlns="http://www.w3.org/2000/svg">
<g filter="url(#filter0_d_162_199)">
<path d="M111.53 80.0908H584.471C601.449 80.0908 615.212 93.8478 615.212 110.818V457.485C615.212 474.456 601.449 488.212 584.471 488.212H111.53C94.5516 488.212 80.7883 474.456 80.7883 457.485V110.818C80.7883 93.8478 94.5516 80.0908 111.53 80.0908Z" fill="white"/>
</g>
<path d="M111.53 80.0908H584.471C601.449 80.0908 615.212 93.8478 615.212 110.818V457.485C615.212 474.456 601.449 488.212 584.471 488.212H111.53C94.5516 488.212 80.7883 474.456 80.7883 457.485V110.818C80.7883 93.8478 94.5516 80.0908 111.53 80.0908Z" stroke="#E5E5E5"/>
<mask id="mask0_162_199" style="mask-type:luminance" maskUnits="userSpaceOnUse" x="95" y="118" width="238" height="96">
<path d="M300.706 118.697H127.294C109.881 118.697 95.7646 132.807 95.7646 150.212V181.727C95.7646 199.132 109.881 213.242 127.294 213.242H300.706C318.119 213.242 332.235 199.132 332.235 181.727V150.212C332.235 132.807 318.119 118.697 300.706 118.697Z" fill="white"/>
</mask>
<g mask="url(#mask0_162_199)">
<path d="M300.706 118.697H127.294C109.881 118.697 95.7646 132.807 95.7646 150.212V181.727C95.7646 199.132 109.881 213.242 127.294 213.242H300.706C318.119 213.242 332.235 199.132 332.235 181.727V150.212C332.235 132.807 318.119 118.697 300.706 118.697Z" fill="#F9FAFB"/>
<path d="M177.39 162.362C177.318 161.639 177.01 161.078 176.467 160.678C175.924 160.279 175.186 160.079 174.255 160.079C173.621 160.079 173.087 160.168 172.651 160.347C172.215 160.52 171.881 160.762 171.648 161.072C171.421 161.383 171.308 161.735 171.308 162.129C171.296 162.457 171.364 162.744 171.514 162.988C171.669 163.233 171.881 163.445 172.15 163.624C172.418 163.797 172.729 163.949 173.081 164.081C173.433 164.206 173.81 164.313 174.21 164.403L175.858 164.797C176.658 164.976 177.393 165.215 178.061 165.513C178.73 165.811 179.309 166.179 179.799 166.614C180.289 167.05 180.668 167.563 180.937 168.154C181.211 168.745 181.352 169.423 181.358 170.187C181.352 171.309 181.065 172.282 180.498 173.105C179.936 173.923 179.124 174.559 178.061 175.012C177.004 175.46 175.73 175.684 174.237 175.684C172.756 175.684 171.466 175.457 170.367 175.004C169.274 174.55 168.42 173.878 167.805 172.989C167.196 172.094 166.877 170.986 166.847 169.667H170.6C170.642 170.282 170.818 170.795 171.128 171.207C171.445 171.613 171.866 171.921 172.391 172.13C172.923 172.332 173.523 172.434 174.192 172.434C174.849 172.434 175.419 172.338 175.903 172.147C176.392 171.956 176.771 171.691 177.04 171.351C177.309 171.01 177.443 170.619 177.443 170.178C177.443 169.766 177.321 169.42 177.076 169.139C176.837 168.859 176.485 168.62 176.019 168.423C175.559 168.226 174.995 168.047 174.326 167.886L172.329 167.384C170.782 167.008 169.561 166.42 168.665 165.621C167.769 164.821 167.325 163.743 167.331 162.388C167.325 161.278 167.62 160.308 168.217 159.479C168.821 158.649 169.648 158.001 170.699 157.536C171.749 157.07 172.944 156.837 174.281 156.837C175.643 156.837 176.831 157.07 177.846 157.536C178.868 158.001 179.662 158.649 180.229 159.479C180.796 160.308 181.089 161.269 181.107 162.362H177.39ZM183.895 175.424V161.672H187.531V164.098H187.693C187.979 163.293 188.457 162.657 189.126 162.192C189.795 161.726 190.595 161.493 191.526 161.493C192.47 161.493 193.273 161.729 193.936 162.2C194.599 162.666 195.041 163.299 195.261 164.098H195.405C195.685 163.311 196.193 162.681 196.928 162.209C197.668 161.732 198.543 161.493 199.552 161.493C200.836 161.493 201.878 161.902 202.678 162.72C203.484 163.532 203.887 164.683 203.887 166.176V175.424H200.081V166.928C200.081 166.164 199.877 165.591 199.471 165.209C199.065 164.827 198.558 164.636 197.949 164.636C197.256 164.636 196.716 164.857 196.327 165.298C195.939 165.734 195.745 166.31 195.745 167.026V175.424H192.046V166.847C192.046 166.173 191.852 165.635 191.464 165.236C191.081 164.836 190.577 164.636 189.95 164.636C189.526 164.636 189.144 164.743 188.803 164.958C188.469 165.167 188.203 165.462 188.006 165.844C187.809 166.22 187.711 166.662 187.711 167.169V175.424H183.895ZM213.118 175.693C211.726 175.693 210.523 175.397 209.508 174.807C208.499 174.21 207.719 173.38 207.17 172.317C206.621 171.249 206.346 170.011 206.346 168.602C206.346 167.181 206.621 165.94 207.17 164.877C207.719 163.809 208.499 162.979 209.508 162.388C210.523 161.792 211.726 161.493 213.118 161.493C214.509 161.493 215.709 161.792 216.718 162.388C217.734 162.979 218.516 163.809 219.065 164.877C219.615 165.94 219.889 167.181 219.889 168.602C219.889 170.011 219.615 171.249 219.065 172.317C218.516 173.38 217.734 174.21 216.718 174.807C215.709 175.397 214.509 175.693 213.118 175.693ZM213.136 172.738C213.769 172.738 214.297 172.559 214.721 172.201C215.145 171.837 215.464 171.342 215.679 170.715C215.9 170.088 216.011 169.375 216.011 168.575C216.011 167.775 215.9 167.062 215.679 166.435C215.464 165.809 215.145 165.313 214.721 164.949C214.297 164.585 213.769 164.403 213.136 164.403C212.497 164.403 211.959 164.585 211.523 164.949C211.093 165.313 210.768 165.809 210.547 166.435C210.332 167.062 210.224 167.775 210.224 168.575C210.224 169.375 210.332 170.088 210.547 170.715C210.768 171.342 211.093 171.837 211.523 172.201C211.959 172.559 212.497 172.738 213.136 172.738ZM228.587 175.693C227.195 175.693 225.992 175.397 224.977 174.807C223.968 174.21 223.189 173.38 222.639 172.317C222.09 171.249 221.815 170.011 221.815 168.602C221.815 167.181 222.09 165.94 222.639 164.877C223.189 163.809 223.968 162.979 224.977 162.388C225.992 161.792 227.195 161.493 228.587 161.493C229.978 161.493 231.178 161.792 232.188 162.388C233.203 162.979 233.985 163.809 234.534 164.877C235.084 165.94 235.358 167.181 235.358 168.602C235.358 170.011 235.084 171.249 234.534 172.317C233.985 173.38 233.203 174.21 232.188 174.807C231.178 175.397 229.978 175.693 228.587 175.693ZM228.605 172.738C229.238 172.738 229.766 172.559 230.19 172.201C230.614 171.837 230.934 171.342 231.148 170.715C231.369 170.088 231.48 169.375 231.48 168.575C231.48 167.775 231.369 167.062 231.148 166.435C230.934 165.809 230.614 165.313 230.19 164.949C229.766 164.585 229.238 164.403 228.605 164.403C227.966 164.403 227.428 164.585 226.992 164.949C226.563 165.313 226.237 165.809 226.016 166.435C225.801 167.062 225.694 167.775 225.694 168.575C225.694 169.375 225.801 170.088 226.016 170.715C226.237 171.342 226.563 171.837 226.992 172.201C227.428 172.559 227.966 172.738 228.605 172.738ZM245.157 161.672V164.537H236.872V161.672H245.157ZM238.754 158.377H242.569V171.198C242.569 171.551 242.622 171.825 242.73 172.022C242.838 172.213 242.987 172.347 243.179 172.425C243.376 172.502 243.601 172.541 243.858 172.541C244.038 172.541 244.218 172.526 244.396 172.496C244.576 172.461 244.713 172.434 244.809 172.416L245.408 175.254C245.217 175.314 244.949 175.382 244.602 175.46C244.256 175.544 243.835 175.594 243.34 175.612C242.419 175.648 241.613 175.526 240.921 175.245C240.234 174.965 239.7 174.529 239.318 173.938C238.935 173.347 238.747 172.601 238.754 171.7V158.377ZM251.755 167.474V175.424H247.938V157.088H251.648V164.098H251.808C252.119 163.287 252.62 162.651 253.314 162.192C254.006 161.726 254.875 161.493 255.92 161.493C256.875 161.493 257.708 161.702 258.419 162.12C259.136 162.532 259.691 163.126 260.085 163.902C260.485 164.671 260.682 165.594 260.676 166.668V175.424H256.861V167.348C256.866 166.501 256.651 165.841 256.215 165.37C255.786 164.898 255.182 164.663 254.406 164.663C253.886 164.663 253.426 164.773 253.027 164.994C252.633 165.215 252.322 165.537 252.095 165.961C251.875 166.379 251.761 166.883 251.755 167.474Z" fill="#6B7280"/>
</g>
<path d="M300.706 122.636H127.294C112.057 122.636 99.7058 134.982 99.7058 150.212V181.727C99.7058 196.957 112.057 209.303 127.294 209.303H300.706C315.942 209.303 328.294 196.957 328.294 181.727V150.212C328.294 134.982 315.942 122.636 300.706 122.636Z" stroke="#D1D5DB" stroke-width="5"/>
<mask id="mask1_162_199" style="mask-type:luminance" maskUnits="userSpaceOnUse" x="355" y="118" width="238" height="96">
<path d="M560.823 118.697H387.412C369.999 118.697 355.882 132.807 355.882 150.212V181.727C355.882 199.132 369.999 213.242 387.412 213.242H560.823C578.237 213.242 592.353 199.132 592.353 181.727V150.212C592.353 132.807 578.237 118.697 560.823 118.697Z" fill="white"/>
</mask>
<g mask="url(#mask1_162_199)">
<path d="M560.823 118.697H387.412C369.999 118.697 355.882 132.807 355.882 150.212V181.727C355.882 199.132 369.999 213.242 387.412 213.242H560.823C578.237 213.242 592.353 199.132 592.353 181.727V150.212C592.353 132.807 578.237 118.697 560.823 118.697Z" fill="#F9FAFB"/>
<path d="M444.368 162.362C444.296 161.639 443.988 161.078 443.444 160.678C442.902 160.279 442.164 160.079 441.233 160.079C440.599 160.079 440.064 160.168 439.629 160.347C439.193 160.52 438.858 160.762 438.627 161.072C438.4 161.383 438.286 161.735 438.286 162.129C438.274 162.457 438.343 162.744 438.491 162.988C438.647 163.233 438.858 163.445 439.128 163.624C439.396 163.797 439.707 163.949 440.06 164.081C440.411 164.206 440.788 164.313 441.188 164.403L442.836 164.797C443.637 164.976 444.37 165.215 445.04 165.513C445.708 165.811 446.287 166.179 446.777 166.614C447.267 167.05 447.646 167.563 447.915 168.154C448.19 168.745 448.33 169.423 448.336 170.187C448.33 171.309 448.043 172.282 447.475 173.105C446.914 173.923 446.102 174.559 445.04 175.012C443.982 175.46 442.708 175.684 441.215 175.684C439.733 175.684 438.444 175.457 437.345 175.004C436.252 174.55 435.398 173.878 434.783 172.989C434.175 172.094 433.855 170.986 433.825 169.667H437.578C437.619 170.282 437.796 170.795 438.106 171.207C438.423 171.613 438.844 171.921 439.369 172.13C439.9 172.332 440.501 172.434 441.17 172.434C441.827 172.434 442.398 172.338 442.88 172.147C443.37 171.956 443.75 171.691 444.018 171.351C444.286 171.01 444.422 170.619 444.422 170.178C444.422 169.766 444.299 169.42 444.054 169.139C443.815 168.859 443.463 168.62 442.997 168.423C442.538 168.226 441.973 168.047 441.303 167.886L439.306 167.384C437.76 167.008 436.539 166.42 435.642 165.621C434.747 164.821 434.302 163.743 434.309 162.388C434.302 161.278 434.599 160.308 435.195 159.479C435.798 158.649 436.626 158.001 437.676 157.536C438.728 157.07 439.921 156.837 441.259 156.837C442.621 156.837 443.809 157.07 444.824 157.536C445.845 158.001 446.64 158.649 447.207 159.479C447.775 160.308 448.067 161.269 448.085 162.362H444.368ZM458.191 161.672V164.537H449.905V161.672H458.191ZM451.787 158.377H455.602V171.198C455.602 171.551 455.656 171.825 455.763 172.022C455.87 172.213 456.02 172.347 456.211 172.425C456.408 172.502 456.635 172.541 456.892 172.541C457.071 172.541 457.249 172.526 457.429 172.496C457.609 172.461 457.746 172.434 457.841 172.416L458.441 175.254C458.251 175.314 457.981 175.382 457.636 175.46C457.289 175.544 456.868 175.594 456.373 175.612C455.452 175.648 454.647 175.526 453.955 175.245C453.267 174.965 452.733 174.529 452.35 173.938C451.968 173.347 451.781 172.601 451.787 171.7V158.377ZM460.677 175.424V161.672H464.375V164.072H464.519C464.769 163.218 465.19 162.573 465.781 162.138C466.373 161.696 467.054 161.475 467.824 161.475C468.015 161.475 468.222 161.487 468.442 161.511C468.663 161.535 468.857 161.568 469.024 161.61V164.994C468.846 164.94 468.597 164.892 468.282 164.851C467.965 164.809 467.675 164.788 467.411 164.788C466.85 164.788 466.349 164.91 465.907 165.155C465.471 165.394 465.126 165.728 464.869 166.158C464.618 166.587 464.492 167.083 464.492 167.644V175.424H460.677ZM476.574 175.693C475.182 175.693 473.979 175.397 472.964 174.807C471.955 174.21 471.174 173.38 470.626 172.317C470.076 171.249 469.801 170.011 469.801 168.602C469.801 167.181 470.076 165.94 470.626 164.877C471.174 163.809 471.955 162.979 472.964 162.388C473.979 161.792 475.182 161.493 476.574 161.493C477.964 161.493 479.164 161.792 480.175 162.388C481.19 162.979 481.972 163.809 482.52 164.877C483.071 165.94 483.345 167.181 483.345 168.602C483.345 170.011 483.071 171.249 482.52 172.317C481.972 173.38 481.19 174.21 480.175 174.807C479.164 175.397 477.964 175.693 476.574 175.693ZM476.591 172.738C477.223 172.738 477.753 172.559 478.177 172.201C478.601 171.837 478.92 171.342 479.136 170.715C479.356 170.088 479.467 169.375 479.467 168.575C479.467 167.775 479.356 167.062 479.136 166.435C478.92 165.809 478.601 165.313 478.177 164.949C477.753 164.585 477.223 164.403 476.591 164.403C475.953 164.403 475.415 164.585 474.978 164.949C474.548 165.313 474.223 165.809 474.003 166.435C473.787 167.062 473.679 167.775 473.679 168.575C473.679 169.375 473.787 170.088 474.003 170.715C474.223 171.342 474.548 171.837 474.978 172.201C475.415 172.559 475.953 172.738 476.591 172.738ZM485.897 175.424V157.088H489.714V163.982H489.83C489.998 163.612 490.239 163.236 490.556 162.854C490.877 162.466 491.297 162.144 491.809 161.887C492.329 161.624 492.974 161.493 493.745 161.493C494.747 161.493 495.673 161.756 496.521 162.281C497.369 162.8 498.047 163.585 498.555 164.636C499.062 165.68 499.316 166.99 499.316 168.566C499.316 170.1 499.067 171.395 498.572 172.452C498.082 173.502 497.413 174.299 496.565 174.842C495.723 175.379 494.781 175.648 493.735 175.648C492.994 175.648 492.365 175.526 491.845 175.281C491.331 175.036 490.91 174.729 490.582 174.359C490.254 173.983 490.002 173.604 489.83 173.222H489.66V175.424H485.897ZM489.633 168.548C489.633 169.366 489.747 170.079 489.974 170.688C490.199 171.297 490.529 171.771 490.959 172.112C491.388 172.446 491.911 172.613 492.526 172.613C493.147 172.613 493.672 172.443 494.103 172.103C494.533 171.756 494.858 171.279 495.078 170.67C495.305 170.055 495.419 169.348 495.419 168.548C495.419 167.754 495.309 167.056 495.088 166.453C494.867 165.85 494.541 165.379 494.112 165.039C493.682 164.698 493.154 164.528 492.526 164.528C491.905 164.528 491.38 164.692 490.95 165.021C490.526 165.349 490.199 165.815 489.974 166.417C489.747 167.02 489.633 167.73 489.633 168.548ZM508.132 175.693C506.716 175.693 505.499 175.406 504.477 174.833C503.462 174.254 502.68 173.437 502.13 172.38C501.581 171.318 501.306 170.061 501.306 168.611C501.306 167.196 501.581 165.955 502.13 164.886C502.68 163.818 503.453 162.985 504.451 162.388C505.453 161.792 506.629 161.493 507.979 161.493C508.887 161.493 509.732 161.639 510.514 161.932C511.302 162.218 511.989 162.651 512.574 163.23C513.165 163.809 513.626 164.537 513.954 165.415C514.283 166.286 514.447 167.307 514.447 168.477V169.524H502.828V167.161H510.854C510.854 166.611 510.736 166.125 510.496 165.701C510.257 165.277 509.926 164.946 509.502 164.707C509.084 164.463 508.597 164.34 508.042 164.34C507.463 164.34 506.949 164.474 506.502 164.743C506.06 165.006 505.713 165.361 505.463 165.809C505.212 166.25 505.083 166.743 505.076 167.286V169.533C505.076 170.214 505.203 170.801 505.453 171.297C505.71 171.792 506.071 172.174 506.538 172.443C507.003 172.711 507.555 172.846 508.195 172.846C508.619 172.846 509.007 172.786 509.358 172.667C509.711 172.547 510.012 172.368 510.263 172.13C510.514 171.891 510.706 171.598 510.837 171.252L514.367 171.485C514.187 172.332 513.82 173.073 513.265 173.705C512.714 174.332 512.003 174.821 511.132 175.174C510.266 175.52 509.267 175.693 508.132 175.693Z" fill="#6B7280"/>
</g>
<path d="M560.823 122.636H387.412C372.175 122.636 359.823 134.982 359.823 150.212V181.727C359.823 196.957 372.175 209.303 387.412 209.303H560.823C576.06 209.303 588.412 196.957 588.412 181.727V150.212C588.412 134.982 576.06 122.636 560.823 122.636Z" stroke="#D1D5DB" stroke-width="5"/>
<mask id="mask2_162_199" style="mask-type:luminance" maskUnits="userSpaceOnUse" x="95" y="236" width="238" height="96">
<path d="M300.706 236.879H127.294C109.881 236.879 95.7646 250.989 95.7646 268.394V299.909C95.7646 317.315 109.881 331.424 127.294 331.424H300.706C318.119 331.424 332.235 317.315 332.235 299.909V268.394C332.235 250.989 318.119 236.879 300.706 236.879Z" fill="white"/>
</mask>
<g mask="url(#mask2_162_199)">
<path d="M300.706 236.879H127.294C109.881 236.879 95.7646 250.989 95.7646 268.394V299.909C95.7646 317.315 109.881 331.424 127.294 331.424H300.706C318.119 331.424 332.235 317.315 332.235 299.909V268.394C332.235 250.989 318.119 236.879 300.706 236.879Z" fill="#F9FAFB"/>
<path d="M184.25 293.606V275.271H188.128V290.41H195.993V293.606H184.25ZM198.489 293.606V279.854H202.305V293.606H198.489ZM200.406 278.082C199.839 278.082 199.352 277.893 198.946 277.518C198.546 277.135 198.346 276.679 198.346 276.147C198.346 275.622 198.546 275.171 198.946 274.795C199.352 274.413 199.839 274.223 200.406 274.223C200.974 274.223 201.457 274.413 201.857 274.795C202.263 275.171 202.466 275.622 202.466 276.147C202.466 276.679 202.263 277.135 201.857 277.518C201.457 277.893 200.974 278.082 200.406 278.082ZM211.56 299.05C210.324 299.05 209.264 298.88 208.38 298.54C207.503 298.206 206.804 297.749 206.284 297.169C205.765 296.591 205.428 295.94 205.272 295.218L208.801 294.744C208.909 295.018 209.079 295.275 209.312 295.513C209.545 295.752 209.852 295.943 210.235 296.086C210.623 296.236 211.095 296.31 211.65 296.31C212.48 296.31 213.164 296.107 213.701 295.702C214.244 295.302 214.516 294.63 214.516 293.686V291.172H214.355C214.188 291.553 213.937 291.914 213.603 292.254C213.268 292.594 212.838 292.872 212.313 293.086C211.787 293.302 211.16 293.409 210.432 293.409C209.399 293.409 208.458 293.17 207.61 292.692C206.768 292.21 206.096 291.472 205.595 290.481C205.099 289.484 204.851 288.225 204.851 286.703C204.851 285.146 205.105 283.844 205.613 282.799C206.12 281.755 206.795 280.973 207.637 280.453C208.485 279.935 209.414 279.675 210.423 279.675C211.193 279.675 211.838 279.806 212.357 280.069C212.877 280.326 213.295 280.649 213.612 281.036C213.934 281.418 214.182 281.794 214.355 282.164H214.498V279.854H218.287V293.74C218.287 294.911 218 295.889 217.427 296.677C216.854 297.465 216.06 298.056 215.045 298.45C214.035 298.85 212.874 299.05 211.56 299.05ZM211.641 290.544C212.256 290.544 212.775 290.391 213.199 290.087C213.629 289.777 213.958 289.336 214.185 288.762C214.418 288.184 214.534 287.491 214.534 286.685C214.534 285.88 214.421 285.18 214.194 284.59C213.967 283.994 213.638 283.531 213.208 283.203C212.778 282.874 212.256 282.71 211.641 282.71C211.014 282.71 210.485 282.88 210.055 283.22C209.625 283.554 209.3 284.021 209.079 284.616C208.858 285.214 208.748 285.904 208.748 286.685C208.748 287.479 208.858 288.165 209.079 288.745C209.306 289.317 209.631 289.763 210.055 290.078C210.485 290.388 211.014 290.544 211.641 290.544ZM225.139 285.656V293.606H221.324V275.271H225.032V282.279H225.193C225.504 281.468 226.005 280.833 226.698 280.373C227.391 279.908 228.259 279.675 229.304 279.675C230.26 279.675 231.093 279.884 231.804 280.302C232.52 280.713 233.075 281.307 233.47 282.084C233.87 282.853 234.067 283.775 234.061 284.85V293.606H230.245V285.53C230.251 284.683 230.036 284.024 229.6 283.551C229.17 283.08 228.567 282.844 227.791 282.844C227.271 282.844 226.811 282.955 226.411 283.176C226.017 283.397 225.707 283.718 225.48 284.142C225.259 284.56 225.145 285.065 225.139 285.656ZM244.382 279.854V282.719H236.096V279.854H244.382ZM237.978 276.56H241.793V289.38C241.793 289.733 241.847 290.007 241.954 290.204C242.061 290.395 242.211 290.529 242.402 290.607C242.599 290.685 242.826 290.722 243.083 290.722C243.262 290.722 243.441 290.708 243.62 290.678C243.8 290.642 243.937 290.615 244.032 290.598L244.632 293.436C244.442 293.496 244.172 293.563 243.827 293.642C243.48 293.726 243.059 293.776 242.564 293.794C241.643 293.83 240.838 293.707 240.146 293.426C239.458 293.146 238.924 292.711 238.541 292.12C238.159 291.529 237.972 290.782 237.978 289.881V276.56Z" fill="#6B7280"/>
</g>
<path d="M300.706 240.818H127.294C112.057 240.818 99.7058 253.164 99.7058 268.394V299.909C99.7058 315.139 112.057 327.485 127.294 327.485H300.706C315.942 327.485 328.294 315.139 328.294 299.909V268.394C328.294 253.164 315.942 240.818 300.706 240.818Z" stroke="#D1D5DB" stroke-width="5"/>
<mask id="mask3_162_199" style="mask-type:luminance" maskUnits="userSpaceOnUse" x="355" y="236" width="238" height="96">
<path d="M560.823 236.879H387.412C369.999 236.879 355.882 250.989 355.882 268.394V299.909C355.882 317.315 369.999 331.424 387.412 331.424H560.823C578.237 331.424 592.353 317.315 592.353 299.909V268.394C592.353 250.989 578.237 236.879 560.823 236.879Z" fill="white"/>
</mask>
<g mask="url(#mask3_162_199)">
<path d="M560.823 236.879H387.412C369.999 236.879 355.882 250.989 355.882 268.394V299.909C355.882 317.315 369.999 331.424 387.412 331.424H560.823C578.237 331.424 592.353 317.315 592.353 299.909V268.394C592.353 250.989 578.237 236.879 560.823 236.879Z" fill="#E7F3FB"/>
<path d="M441.857 281.69H437.935C437.862 281.183 437.715 280.732 437.495 280.338C437.274 279.938 436.99 279.598 436.643 279.317C436.298 279.037 435.898 278.821 435.444 278.673C434.996 278.523 434.509 278.449 433.984 278.449C433.035 278.449 432.207 278.684 431.503 279.156C430.798 279.621 430.251 280.302 429.863 281.197C429.475 282.086 429.281 283.167 429.281 284.438C429.281 285.745 429.475 286.843 429.863 287.733C430.257 288.622 430.807 289.293 431.512 289.747C432.217 290.201 433.032 290.428 433.957 290.428C434.476 290.428 434.957 290.358 435.4 290.221C435.847 290.084 436.245 289.884 436.59 289.623C436.937 289.353 437.224 289.028 437.451 288.646C437.682 288.264 437.845 287.828 437.935 287.339L441.857 287.357C441.756 288.198 441.502 289.01 441.095 289.793C440.695 290.568 440.156 291.263 439.475 291.877C438.8 292.487 437.993 292.971 437.056 293.329C436.125 293.68 435.07 293.857 433.894 293.857C432.258 293.857 430.795 293.486 429.505 292.747C428.222 292.007 427.207 290.935 426.459 289.533C425.718 288.13 425.35 286.432 425.35 284.438C425.35 282.439 425.725 280.737 426.478 279.334C427.23 277.932 428.252 276.864 429.541 276.129C430.831 275.389 432.281 275.02 433.894 275.02C434.957 275.02 435.942 275.168 436.85 275.467C437.764 275.765 438.573 276.202 439.278 276.774C439.982 277.341 440.555 278.036 440.998 278.86C441.445 279.684 441.732 280.627 441.857 281.69ZM450.783 293.874C449.392 293.874 448.188 293.579 447.173 292.988C446.164 292.391 445.385 291.562 444.835 290.499C444.286 289.43 444.012 288.192 444.012 286.783C444.012 285.363 444.286 284.122 444.835 283.06C445.385 281.991 446.164 281.161 447.173 280.57C448.188 279.973 449.392 279.675 450.783 279.675C452.175 279.675 453.375 279.973 454.383 280.57C455.399 281.161 456.181 281.991 456.731 283.06C457.279 284.122 457.555 285.363 457.555 286.783C457.555 288.192 457.279 289.43 456.731 290.499C456.181 291.562 455.399 292.391 454.383 292.988C453.375 293.579 452.175 293.874 450.783 293.874ZM450.802 290.919C451.434 290.919 451.962 290.741 452.386 290.384C452.81 290.018 453.13 289.523 453.345 288.896C453.565 288.271 453.676 287.557 453.676 286.756C453.676 285.957 453.565 285.243 453.345 284.616C453.13 283.991 452.81 283.494 452.386 283.13C451.962 282.766 451.434 282.585 450.802 282.585C450.162 282.585 449.624 282.766 449.189 283.13C448.759 283.494 448.434 283.991 448.212 284.616C447.997 285.243 447.89 285.957 447.89 286.756C447.89 287.557 447.997 288.271 448.212 288.896C448.434 289.523 448.759 290.018 449.189 290.384C449.624 290.741 450.162 290.919 450.802 290.919ZM463.852 275.271V293.606H460.035V275.271H463.852ZM473.125 293.874C471.733 293.874 470.53 293.579 469.514 292.988C468.505 292.391 467.727 291.562 467.177 290.499C466.628 289.43 466.354 288.192 466.354 286.783C466.354 285.363 466.628 284.122 467.177 283.06C467.727 281.991 468.505 281.161 469.514 280.57C470.53 279.973 471.733 279.675 473.125 279.675C474.517 279.675 475.716 279.973 476.725 280.57C477.74 281.161 478.522 281.991 479.073 283.06C479.621 284.122 479.895 285.363 479.895 286.783C479.895 288.192 479.621 289.43 479.073 290.499C478.522 291.562 477.74 292.391 476.725 292.988C475.716 293.579 474.517 293.874 473.125 293.874ZM473.142 290.919C473.776 290.919 474.304 290.741 474.728 290.384C475.152 290.018 475.472 289.523 475.686 288.896C475.907 288.271 476.017 287.557 476.017 286.756C476.017 285.957 475.907 285.243 475.686 284.616C475.472 283.991 475.152 283.494 474.728 283.13C474.304 282.766 473.776 282.585 473.142 282.585C472.503 282.585 471.966 282.766 471.531 283.13C471.1 283.494 470.774 283.991 470.553 284.616C470.339 285.243 470.232 285.957 470.232 286.756C470.232 287.557 470.339 288.271 470.553 288.896C470.774 289.523 471.1 290.018 471.531 290.384C471.966 290.741 472.503 290.919 473.142 290.919ZM482.377 293.606V279.854H486.077V282.253H486.22C486.471 281.4 486.892 280.756 487.483 280.319C488.074 279.878 488.755 279.657 489.525 279.657C489.717 279.657 489.922 279.668 490.143 279.692C490.365 279.717 490.559 279.749 490.726 279.791V283.176C490.546 283.123 490.299 283.074 489.982 283.033C489.665 282.99 489.376 282.97 489.113 282.97C488.552 282.97 488.051 283.093 487.609 283.337C487.172 283.575 486.826 283.91 486.569 284.339C486.318 284.769 486.193 285.264 486.193 285.825V293.606H482.377ZM500.787 279.854V282.719H492.296V279.854H500.787ZM494.238 293.606V278.86C494.238 277.863 494.434 277.037 494.822 276.38C495.216 275.724 495.753 275.231 496.434 274.903C497.114 274.574 497.888 274.41 498.753 274.41C499.338 274.41 499.873 274.456 500.357 274.544C500.847 274.634 501.211 274.714 501.449 274.787L500.77 277.652C500.62 277.604 500.434 277.559 500.213 277.518C499.999 277.475 499.778 277.455 499.551 277.455C498.99 277.455 498.599 277.585 498.376 277.848C498.156 278.105 498.045 278.466 498.045 278.933V293.606H494.238ZM511.94 287.751V279.854H515.757V293.606H512.093V291.108H511.95C511.639 291.914 511.122 292.561 510.4 293.051C509.683 293.54 508.808 293.786 507.775 293.786C506.856 293.786 506.048 293.576 505.348 293.159C504.649 292.741 504.104 292.147 503.71 291.376C503.32 290.607 503.123 289.684 503.118 288.611V279.854H506.934V287.93C506.94 288.742 507.157 289.383 507.588 289.854C508.018 290.327 508.594 290.562 509.316 290.562C509.776 290.562 510.206 290.458 510.607 290.248C511.006 290.034 511.329 289.717 511.573 289.299C511.824 288.882 511.947 288.365 511.94 287.751ZM522.624 275.271V293.606H518.809V275.271H522.624Z" fill="#6B7280"/>
</g>
<path d="M560.823 240.818H387.412C372.175 240.818 359.823 253.164 359.823 268.394V299.909C359.823 315.139 372.175 327.485 387.412 327.485H560.823C576.06 327.485 588.412 315.139 588.412 299.909V268.394C588.412 253.164 576.06 240.818 560.823 240.818Z" stroke="#9AC8EB" stroke-width="5"/>
<mask id="mask4_162_199" style="mask-type:luminance" maskUnits="userSpaceOnUse" x="95" y="355" width="490" height="95">
<path d="M552.941 355.061H127.294C109.881 355.061 95.7646 369.17 95.7646 386.576V418.091C95.7646 435.496 109.881 449.606 127.294 449.606H552.941C570.354 449.606 584.47 435.496 584.47 418.091V386.576C584.47 369.17 570.354 355.061 552.941 355.061Z" fill="white"/>
</mask>
<g mask="url(#mask4_162_199)">
<path d="M552.941 355.061H127.294C109.881 355.061 95.7646 369.17 95.7646 386.576V418.091C95.7646 435.496 109.881 449.606 127.294 449.606H552.941C570.354 449.606 584.47 435.496 584.47 418.091V386.576C584.47 369.17 570.354 355.061 552.941 355.061Z" fill="#F9FAFB"/>
<path d="M330.236 399.872H326.313C326.24 399.364 326.095 398.914 325.873 398.52C325.652 398.12 325.368 397.779 325.023 397.499C324.676 397.218 324.276 397.002 323.822 396.854C323.374 396.705 322.888 396.63 322.362 396.63C321.413 396.63 320.585 396.865 319.881 397.338C319.176 397.803 318.63 398.484 318.243 399.379C317.853 400.267 317.659 401.348 317.659 402.62C317.659 403.926 317.853 405.025 318.243 405.915C318.637 406.804 319.185 407.475 319.89 407.929C320.595 408.382 321.41 408.609 322.335 408.609C322.855 408.609 323.336 408.54 323.778 408.403C324.225 408.266 324.623 408.066 324.969 407.804C325.315 407.535 325.602 407.21 325.829 406.827C326.062 406.446 326.223 406.009 326.313 405.521L330.236 405.538C330.134 406.38 329.88 407.191 329.475 407.974C329.074 408.75 328.534 409.445 327.853 410.059C327.178 410.669 326.372 411.153 325.434 411.51C324.503 411.862 323.45 412.038 322.272 412.038C320.637 412.038 319.173 411.668 317.883 410.929C316.6 410.188 315.585 409.117 314.837 407.714C314.098 406.312 313.728 404.613 313.728 402.62C313.728 400.62 314.104 398.918 314.856 397.516C315.608 396.114 316.63 395.045 317.919 394.311C319.209 393.57 320.661 393.202 322.272 393.202C323.336 393.202 324.321 393.35 325.228 393.649C326.142 393.947 326.951 394.383 327.656 394.955C328.36 395.523 328.934 396.218 329.376 397.042C329.823 397.866 330.11 398.808 330.236 399.872ZM336.761 403.838V411.788H332.945V393.452H336.654V400.461H336.815C337.126 399.65 337.627 399.015 338.319 398.554C339.013 398.09 339.881 397.856 340.926 397.856C341.882 397.856 342.714 398.066 343.425 398.484C344.142 398.895 344.697 399.489 345.091 400.266C345.492 401.035 345.689 401.957 345.683 403.031V411.788H341.866V403.712C341.872 402.864 341.658 402.206 341.221 401.733C340.792 401.262 340.189 401.025 339.413 401.025C338.893 401.025 338.432 401.137 338.034 401.358C337.639 401.578 337.329 401.9 337.102 402.324C336.88 402.741 336.768 403.247 336.761 403.838ZM348.686 411.788V398.036H352.501V411.788H348.686ZM350.603 396.263C350.035 396.263 349.548 396.074 349.141 395.699C348.743 395.316 348.542 394.861 348.542 394.328C348.542 393.804 348.743 393.353 349.141 392.976C349.548 392.595 350.035 392.404 350.603 392.404C351.169 392.404 351.653 392.595 352.053 392.976C352.46 393.353 352.662 393.804 352.662 394.328C352.662 394.861 352.46 395.316 352.053 395.699C351.653 396.074 351.169 396.263 350.603 396.263ZM359.373 393.452V411.788H355.558V393.452H359.373ZM366.246 393.452V411.788H362.429V393.452H366.246Z" fill="#6B7280"/>
</g>
<path d="M552.941 359H127.294C112.057 359 99.7058 371.346 99.7058 386.576V418.091C99.7058 433.321 112.057 445.667 127.294 445.667H552.941C568.178 445.667 580.529 433.321 580.529 418.091V386.576C580.529 371.346 568.178 359 552.941 359Z" stroke="#D1D5DB" stroke-width="5"/>
<g filter="url(#filter1_d_162_199)">
<mask id="mask5_162_199" style="mask-type:luminance" maskUnits="userSpaceOnUse" x="111" y="24" width="466" height="72">
<path d="M545.059 24.1514H143.059C125.645 24.1514 111.529 38.2612 111.529 55.6665V63.5453C111.529 80.9506 125.645 95.0605 143.059 95.0605H545.059C562.472 95.0605 576.588 80.9506 576.588 63.5453V55.6665C576.588 38.2612 562.472 24.1514 545.059 24.1514Z" fill="white"/>
</mask>
<g mask="url(#mask5_162_199)">
<path d="M545.059 24.1514H143.059C125.645 24.1514 111.529 38.2612 111.529 55.6665V63.5453C111.529 80.9506 125.645 95.0605 143.059 95.0605H545.059C562.472 95.0605 576.588 80.9506 576.588 63.5453V55.6665C576.588 38.2612 562.472 24.1514 545.059 24.1514Z" fill="#B9DBF2"/>
<path d="M301.406 55.0956C301.316 54.1928 300.931 53.4914 300.252 52.9916C299.572 52.4916 298.652 52.2417 297.487 52.2417C296.695 52.2417 296.027 52.3536 295.483 52.5775C294.937 52.7939 294.52 53.0959 294.228 53.484C293.944 53.872 293.802 54.3121 293.802 54.8045C293.788 55.2148 293.873 55.573 294.061 55.8789C294.255 56.1849 294.52 56.4498 294.856 56.6735C295.191 56.8899 295.579 57.0802 296.021 57.2443C296.46 57.401 296.93 57.5353 297.431 57.6472L299.49 58.1396C300.491 58.3634 301.409 58.6618 302.246 59.035C303.082 59.4079 303.805 59.8668 304.417 60.4115C305.03 60.9561 305.503 61.5978 305.839 62.3365C306.182 63.075 306.357 63.9218 306.365 64.8769C306.357 66.2795 306 67.4957 305.29 68.5253C304.589 69.5475 303.573 70.342 302.246 70.9091C300.923 71.4686 299.331 71.7485 297.465 71.7485C295.614 71.7485 294.001 71.4648 292.628 70.8979C291.261 70.3308 290.194 69.4915 289.425 68.3798C288.665 67.2607 288.264 65.8766 288.228 64.2277H292.918C292.972 64.9962 293.191 65.6379 293.579 66.1527C293.974 66.66 294.501 67.0442 295.158 67.3055C295.822 67.559 296.572 67.6859 297.408 67.6859C298.229 67.6859 298.942 67.5666 299.547 67.3279C300.159 67.0891 300.633 66.7571 300.969 66.3318C301.305 65.9065 301.474 65.4177 301.474 64.8657C301.474 64.3509 301.319 63.9181 301.013 63.5675C300.715 63.2169 300.275 62.9184 299.692 62.6721C299.118 62.426 298.412 62.2021 297.576 62.0007L295.079 61.374C293.147 60.904 291.621 60.169 290.5 59.1692C289.38 58.1694 288.824 56.8227 288.832 55.1291C288.824 53.7414 289.194 52.529 289.94 51.492C290.694 50.4548 291.728 49.6453 293.041 49.0634C294.356 48.4813 295.849 48.1904 297.52 48.1904C299.222 48.1904 300.707 48.4813 301.976 49.0634C303.253 49.6453 304.247 50.4548 304.954 51.492C305.664 52.529 306.03 53.7302 306.052 55.0956H301.406ZM317.308 71.7597C315.545 71.7597 314.03 71.3865 312.761 70.6404C311.5 69.8869 310.53 68.8423 309.851 67.5069C309.179 66.1714 308.844 64.6344 308.844 62.896C308.844 61.1351 309.182 59.5907 309.862 58.2627C310.548 56.9272 311.522 55.8864 312.785 55.1403C314.046 54.3868 315.545 54.01 317.286 54.01C318.785 54.01 320.1 54.2823 321.227 54.8269C322.354 55.3716 323.245 56.1363 323.902 57.1212C324.559 58.106 324.92 59.2625 324.988 60.5905H320.487C320.36 59.7325 320.024 59.0424 319.48 58.5202C318.942 57.9904 318.236 57.7255 317.363 57.7255C316.625 57.7255 315.979 57.927 315.427 58.3298C314.881 58.7253 314.456 59.3035 314.15 60.0646C313.844 60.8255 313.691 61.747 313.691 62.8289C313.691 63.9256 313.841 64.8582 314.139 65.6267C314.445 66.3952 314.874 66.9809 315.427 67.3838C315.979 67.7867 316.625 67.9881 317.363 67.9881C317.908 67.9881 318.397 67.8762 318.83 67.6523C319.27 67.4285 319.633 67.1039 319.917 66.6786C320.207 66.2459 320.397 65.7274 320.487 65.123H324.988C324.914 66.4363 324.555 67.5927 323.913 68.5924C323.279 69.5848 322.401 70.3607 321.282 70.9203C320.163 71.4798 318.838 71.7597 317.308 71.7597ZM335.88 71.7597C334.111 71.7597 332.588 71.4015 331.311 70.6852C330.042 69.9616 329.065 68.9394 328.378 67.6187C327.692 66.2907 327.348 64.7201 327.348 62.9072C327.348 61.1389 327.692 59.5871 328.378 58.2515C329.065 56.916 330.031 55.8752 331.278 55.1291C332.532 54.383 334.002 54.01 335.689 54.01C336.824 54.01 337.881 54.1928 338.858 54.5584C339.843 54.9164 340.702 55.4574 341.434 56.1811C342.172 56.9048 342.747 57.815 343.157 58.9119C343.568 60.001 343.773 61.2769 343.773 62.7392V64.0487H329.251V61.0942H339.284C339.284 60.4078 339.134 59.7997 338.836 59.2699C338.536 58.7403 338.123 58.3262 337.592 58.0277C337.07 57.7219 336.462 57.5689 335.768 57.5689C335.043 57.5689 334.401 57.7367 333.842 58.0725C333.29 58.4007 332.856 58.8446 332.543 59.4043C332.229 59.9563 332.07 60.5719 332.062 61.2508V64.0599C332.062 64.9105 332.218 65.6454 332.532 66.2647C332.853 66.8838 333.304 67.3614 333.887 67.697C334.469 68.0328 335.16 68.2007 335.959 68.2007C336.489 68.2007 336.972 68.1261 337.414 67.9769C337.854 67.8277 338.231 67.6039 338.544 67.3055C338.858 67.007 339.098 66.6414 339.262 66.2086L343.672 66.4996C343.449 67.559 342.99 68.4843 342.295 69.2752C341.609 70.0585 340.72 70.6703 339.63 71.1105C338.547 71.5433 337.297 71.7597 335.88 71.7597ZM351.656 61.4859V71.4239H346.885V54.2338H351.432V57.2666H351.634C352.014 56.267 352.652 55.4761 353.547 54.894C354.443 54.3047 355.529 54.01 356.806 54.01C358.001 54.01 359.042 54.2711 359.929 54.7933C360.818 55.3157 361.509 56.0617 362.001 57.0317C362.494 57.9942 362.74 59.1431 362.74 60.4787V71.4239H357.971V61.3293C357.977 60.2771 357.709 59.4565 357.164 58.867C356.62 58.2702 355.87 57.9718 354.914 57.9718C354.271 57.9718 353.705 58.1098 353.212 58.3859C352.726 58.6618 352.346 59.0647 352.07 59.5945C351.801 60.1167 351.664 60.7472 351.656 61.4859ZM374.336 71.7597C372.568 71.7597 371.045 71.4015 369.769 70.6852C368.5 69.9616 367.521 68.9394 366.836 67.6187C366.148 66.2907 365.805 64.7201 365.805 62.9072C365.805 61.1389 366.148 59.5871 366.836 58.2515C367.521 56.916 368.489 55.8752 369.735 55.1291C370.99 54.383 372.46 54.01 374.147 54.01C375.281 54.01 376.337 54.1928 377.316 54.5584C378.301 54.9164 379.159 55.4574 379.89 56.1811C380.63 56.9048 381.204 57.815 381.615 58.9119C382.025 60.001 382.23 61.2769 382.23 62.7392V64.0487H367.709V61.0942H377.74C377.74 60.4078 377.592 59.7997 377.292 59.2699C376.994 58.7403 376.58 58.3262 376.05 58.0277C375.528 57.7219 374.92 57.5689 374.224 57.5689C373.501 57.5689 372.859 57.7367 372.3 58.0725C371.746 58.4007 371.314 58.8446 371.001 59.4043C370.687 59.9563 370.526 60.5719 370.518 61.2508V64.0599C370.518 64.9105 370.676 65.6454 370.99 66.2647C371.31 66.8838 371.762 67.3614 372.344 67.697C372.925 68.0328 373.616 68.2007 374.415 68.2007C374.945 68.2007 375.43 68.1261 375.87 67.9769C376.312 67.8277 376.689 67.6039 377.002 67.3055C377.316 67.007 377.554 66.6414 377.718 66.2086L382.13 66.4996C381.905 67.559 381.446 68.4843 380.753 69.2752C380.065 70.0585 379.178 70.6703 378.088 71.1105C377.005 71.5433 375.755 71.7597 374.336 71.7597ZM399.653 59.1356L395.286 59.4043C395.21 59.0312 395.051 58.6954 394.804 58.3971C394.558 58.0911 394.233 57.8486 393.829 57.6696C393.434 57.483 392.961 57.3899 392.408 57.3899C391.67 57.3899 391.045 57.5465 390.538 57.8598C390.03 58.1658 389.776 58.5761 389.776 59.0909C389.776 59.5012 389.942 59.8482 390.27 60.1317C390.598 60.4152 391.162 60.6427 391.96 60.8143L395.073 61.4411C396.744 61.7843 397.991 62.3365 398.813 63.0974C399.634 63.8585 400.044 64.8582 400.044 66.0967C400.044 67.2234 399.711 68.2118 399.048 69.0624C398.39 69.913 397.487 70.5771 396.338 71.0545C395.196 71.5246 393.878 71.7597 392.385 71.7597C390.109 71.7597 388.294 71.2858 386.943 70.3383C385.6 69.3833 384.814 68.0852 384.582 66.4437L389.273 66.1974C389.415 66.8914 389.759 67.4211 390.303 67.7867C390.848 68.1447 391.547 68.3239 392.396 68.3239C393.234 68.3239 393.905 68.1635 394.413 67.8427C394.927 67.5143 395.188 67.0927 395.196 66.5779C395.188 66.1452 395.006 65.7909 394.648 65.5148C394.29 65.2313 393.736 65.015 392.991 64.8657L390.013 64.2725C388.332 63.9368 387.082 63.3549 386.261 62.5267C385.447 61.6985 385.041 60.6427 385.041 59.3596C385.041 58.2553 385.339 57.304 385.936 56.5057C386.541 55.7073 387.388 55.0918 388.477 54.6591C389.576 54.2264 390.859 54.01 392.33 54.01C394.503 54.01 396.212 54.4689 397.459 55.3864C398.712 56.3042 399.443 57.5539 399.653 59.1356Z" fill="#274765"/>
</g>
<path d="M545.059 24.9395H143.059C126.081 24.9395 112.318 38.6965 112.318 55.6667V63.5455C112.318 80.5157 126.081 94.2728 143.059 94.2728H545.059C562.037 94.2728 575.8 80.5157 575.8 63.5455V55.6667C575.8 38.6965 562.037 24.9395 545.059 24.9395Z" stroke="#E7E7EA"/>
</g>
<defs>
<filter id="filter0_d_162_199" x="0.78833" y="0.0908203" width="694.424" height="568.121" filterUnits="userSpaceOnUse" color-interpolation-filters="sRGB">
<feFlood flood-opacity="0" result="BackgroundImageFix"/>
<feColorMatrix in="SourceAlpha" type="matrix" values="0 0 0 0 0 0 0 0 0 0 0 0 0 0 0 0 0 0 127 0" result="hardAlpha"/>
<feOffset/>
<feGaussianBlur stdDeviation="40"/>
<feComposite in2="hardAlpha" operator="out"/>
<feColorMatrix type="matrix" values="0 0 0 0 0.603922 0 0 0 0 0.784314 0 0 0 0 0.921569 0 0 0 1 0"/>
<feBlend mode="normal" in2="BackgroundImageFix" result="effect1_dropShadow_162_199"/>
<feBlend mode="normal" in="SourceGraphic" in2="effect1_dropShadow_162_199" result="shape"/>
</filter>
<filter id="filter1_d_162_199" x="106.529" y="22.1514" width="475.059" height="80.9092" filterUnits="userSpaceOnUse" color-interpolation-filters="sRGB">
<feFlood flood-opacity="0" result="BackgroundImageFix"/>
<feColorMatrix in="SourceAlpha" type="matrix" values="0 0 0 0 0 0 0 0 0 0 0 0 0 0 0 0 0 0 127 0" result="hardAlpha"/>
<feOffset dy="3"/>
<feGaussianBlur stdDeviation="2.5"/>
<feComposite in2="hardAlpha" operator="out"/>
<feColorMatrix type="matrix" values="0 0 0 0 0.804769 0 0 0 0 0.804769 0 0 0 0 0.804769 0 0 0 0.25 0"/>
<feBlend mode="normal" in2="BackgroundImageFix" result="effect1_dropShadow_162_199"/>
<feBlend mode="normal" in="SourceGraphic" in2="effect1_dropShadow_162_199" result="shape"/>
</filter>
</defs>
</svg>
