<svg width="696" height="576" viewBox="0 0 696 576" fill="none" xmlns="http://www.w3.org/2000/svg">
<g filter="url(#filter0_d_159_258)">
<path d="M108.211 80.8613H587.789C602.981 80.8613 615.295 93.168 615.295 108.349V467.807C615.295 482.989 602.981 495.295 587.789 495.295H108.211C93.0198 495.295 80.7053 482.989 80.7053 467.807V108.349C80.7053 93.168 93.0198 80.8613 108.211 80.8613Z" fill="white"/>
</g>
<path d="M108.211 80.8613H587.789C602.981 80.8613 615.295 93.168 615.295 108.349V467.807C615.295 482.989 602.981 495.295 587.789 495.295H108.211C93.0198 495.295 80.7053 482.989 80.7053 467.807V108.349C80.7053 93.168 93.0198 80.8613 108.211 80.8613Z" stroke="#E5E5E5"/>
<mask id="mask0_159_258" style="mask-type:luminance" maskUnits="userSpaceOnUse" x="101" y="115" width="494" height="346">
<path d="M594.842 115.398H101.158V460.759H594.842V115.398Z" fill="white"/>
</mask>
<g mask="url(#mask0_159_258)">
<path d="M566.632 133.018H129.368C115.736 133.018 104.684 144.063 104.684 157.687V432.566C104.684 446.19 115.736 457.235 129.368 457.235H566.632C580.264 457.235 591.316 446.19 591.316 432.566V157.687C591.316 144.063 580.264 133.018 566.632 133.018Z" fill="#E7F3FB"/>
<path d="M566.632 133.018H129.368C115.736 133.018 104.684 144.063 104.684 157.687V432.566C104.684 446.19 115.736 457.235 129.368 457.235H566.632C580.264 457.235 591.316 446.19 591.316 432.566V157.687C591.316 144.063 580.264 133.018 566.632 133.018Z" stroke="#9AC8EB" stroke-width="5"/>
<mask id="mask1_159_258" style="mask-type:luminance" maskUnits="userSpaceOnUse" x="150" y="171" width="396" height="72">
<path d="M545.474 171.783H150.526V242.265H545.474V171.783Z" fill="white"/>
</mask>
<g mask="url(#mask1_159_258)">
<path d="M150.526 207.024C150.526 200.474 150.526 197.199 151.068 194.476C153.294 183.291 162.042 174.549 173.233 172.325C175.958 171.783 179.235 171.783 185.789 171.783H297.221V242.265H185.789C179.235 242.265 175.958 242.265 173.233 241.724C162.042 239.499 153.294 230.757 151.068 219.573C150.526 216.849 150.526 213.575 150.526 207.024Z" fill="#3D77A2"/>
<path d="M169.637 212.663H166.439L170.592 200.361H174.553L178.707 212.663H175.509L172.618 203.461H172.522L169.637 212.663ZM169.21 207.821H175.894V210.08H169.21V207.821ZM182.971 207.401V212.663H180.032V203.437H182.827V205.13H182.929C183.134 204.566 183.482 204.123 183.975 203.802C184.468 203.478 185.055 203.315 185.736 203.315C186.386 203.315 186.948 203.462 187.425 203.754C187.906 204.043 188.279 204.447 188.543 204.968C188.812 205.485 188.944 206.09 188.94 206.782V212.663H186.001V207.358C186.005 206.847 185.875 206.445 185.61 206.157C185.35 205.868 184.987 205.724 184.522 205.724C184.214 205.724 183.941 205.792 183.705 205.929C183.472 206.061 183.292 206.252 183.164 206.5C183.039 206.748 182.975 207.048 182.971 207.401ZM190.76 212.663V203.437H193.699V212.663H190.76ZM192.232 202.361C191.82 202.361 191.465 202.224 191.169 201.952C190.872 201.676 190.724 201.343 190.724 200.956C190.724 200.571 190.872 200.242 191.169 199.97C191.465 199.694 191.82 199.556 192.232 199.556C192.649 199.556 193.004 199.694 193.296 199.97C193.593 200.242 193.741 200.571 193.741 200.956C193.741 201.343 193.593 201.676 193.296 201.952C193.004 202.224 192.649 202.361 192.232 202.361ZM195.57 212.663V203.437H198.365V205.13H198.467C198.66 204.57 198.984 204.127 199.441 203.802C199.898 203.478 200.443 203.315 201.076 203.315C201.717 203.315 202.266 203.48 202.723 203.809C203.18 204.137 203.47 204.577 203.594 205.13H203.691C203.863 204.581 204.199 204.143 204.7 203.814C205.201 203.482 205.792 203.315 206.474 203.315C207.347 203.315 208.056 203.596 208.601 204.157C209.146 204.714 209.419 205.478 209.419 206.452V212.663H206.479V207.124C206.479 206.663 206.361 206.314 206.125 206.073C205.888 205.829 205.582 205.706 205.205 205.706C204.801 205.706 204.482 205.839 204.25 206.104C204.021 206.363 203.907 206.714 203.907 207.154V212.663H201.082V207.095C201.082 206.666 200.966 206.328 200.733 206.08C200.501 205.83 200.194 205.706 199.814 205.706C199.557 205.706 199.331 205.768 199.134 205.892C198.938 206.013 198.784 206.185 198.671 206.41C198.563 206.634 198.509 206.899 198.509 207.202V212.663H195.57ZM213.843 212.819C213.254 212.819 212.731 212.721 212.274 212.525C211.821 212.324 211.462 212.024 211.198 211.624C210.937 211.219 210.807 210.712 210.807 210.104C210.807 209.591 210.897 209.158 211.078 208.806C211.258 208.454 211.506 208.167 211.823 207.947C212.14 207.728 212.504 207.561 212.917 207.448C213.33 207.333 213.771 207.254 214.239 207.214C214.764 207.167 215.187 207.116 215.508 207.064C215.828 207.009 216.061 206.93 216.205 206.83C216.353 206.725 216.427 206.58 216.427 206.391V206.362C216.427 206.053 216.321 205.815 216.109 205.647C215.896 205.478 215.61 205.395 215.249 205.395C214.861 205.395 214.548 205.478 214.312 205.647C214.075 205.815 213.925 206.047 213.861 206.343L211.15 206.247C211.23 205.686 211.436 205.186 211.769 204.746C212.106 204.301 212.566 203.953 213.151 203.7C213.741 203.444 214.448 203.315 215.273 203.315C215.862 203.315 216.405 203.386 216.902 203.525C217.399 203.662 217.832 203.862 218.201 204.127C218.569 204.387 218.854 204.708 219.054 205.087C219.258 205.468 219.361 205.904 219.361 206.391V212.663H216.596V211.377H216.524C216.359 211.69 216.149 211.954 215.892 212.171C215.64 212.386 215.341 212.549 214.997 212.657C214.656 212.764 214.271 212.819 213.843 212.819ZM214.75 210.896C215.067 210.896 215.351 210.833 215.604 210.705C215.86 210.576 216.065 210.4 216.217 210.176C216.369 209.948 216.445 209.683 216.445 209.383V208.506C216.361 208.549 216.259 208.59 216.139 208.626C216.023 208.662 215.894 208.696 215.754 208.728C215.614 208.761 215.47 208.788 215.321 208.812C215.173 208.837 215.031 208.858 214.895 208.878C214.618 208.923 214.382 208.991 214.185 209.082C213.993 209.175 213.845 209.295 213.741 209.443C213.64 209.587 213.59 209.759 213.59 209.959C213.59 210.264 213.698 210.496 213.915 210.657C214.135 210.816 214.414 210.896 214.75 210.896ZM226.369 203.437V205.599H220.545V203.437H226.369ZM221.765 201.225H224.704V209.762C224.704 209.942 224.733 210.087 224.788 210.2C224.848 210.309 224.934 210.386 225.047 210.434C225.159 210.478 225.293 210.5 225.449 210.5C225.562 210.5 225.681 210.49 225.805 210.471C225.933 210.447 226.029 210.426 226.092 210.41L226.537 212.53C226.397 212.571 226.198 212.62 225.943 212.681C225.69 212.74 225.387 212.778 225.035 212.795C224.346 212.826 223.754 212.747 223.261 212.554C222.772 212.358 222.398 212.054 222.137 211.642C221.881 211.229 221.756 210.71 221.765 210.086V201.225ZM227.868 212.663V203.437H230.808V212.663H227.868ZM229.341 202.361C228.929 202.361 228.574 202.224 228.277 201.952C227.981 201.676 227.833 201.343 227.833 200.956C227.833 200.571 227.981 200.242 228.277 199.97C228.574 199.694 228.929 199.556 229.341 199.556C229.758 199.556 230.112 199.694 230.406 199.97C230.702 200.242 230.85 200.571 230.85 200.956C230.85 201.343 230.702 201.676 230.406 201.952C230.112 202.224 229.758 202.361 229.341 202.361ZM236.989 212.838C236.018 212.838 235.186 212.639 234.488 212.243C233.795 211.842 233.259 211.286 232.883 210.572C232.51 209.856 232.324 209.024 232.324 208.08C232.324 207.13 232.51 206.3 232.883 205.586C233.259 204.87 233.795 204.313 234.488 203.916C235.186 203.516 236.018 203.315 236.989 203.315C237.958 203.315 238.79 203.516 239.483 203.916C240.181 204.313 240.715 204.87 241.088 205.586C241.464 206.3 241.653 207.13 241.653 208.08C241.653 209.024 241.464 209.856 241.088 210.572C240.715 211.286 240.181 211.842 239.483 212.243C238.79 212.639 237.958 212.838 236.989 212.838ZM237.007 210.62C237.36 210.62 237.657 210.512 237.903 210.296C238.147 210.08 238.333 209.78 238.461 209.395C238.594 209.01 238.66 208.566 238.66 208.062C238.66 207.549 238.594 207.1 238.461 206.715C238.333 206.332 238.147 206.03 237.903 205.815C237.657 205.599 237.36 205.49 237.007 205.49C236.642 205.49 236.333 205.599 236.08 205.815C235.832 206.03 235.642 206.332 235.51 206.715C235.382 207.1 235.317 207.549 235.317 208.062C235.317 208.566 235.382 209.01 235.51 209.395C235.642 209.78 235.832 210.08 236.08 210.296C236.333 210.512 236.642 210.62 237.007 210.62ZM246.098 207.401V212.663H243.158V203.437H245.954V205.13H246.056C246.26 204.566 246.609 204.123 247.102 203.802C247.594 203.478 248.181 203.315 248.863 203.315C249.511 203.315 250.076 203.462 250.552 203.754C251.033 204.043 251.406 204.447 251.669 204.968C251.939 205.485 252.07 206.09 252.067 206.782V212.663H249.128V207.358C249.132 206.847 249.001 206.445 248.737 206.157C248.476 205.868 248.114 205.724 247.648 205.724C247.341 205.724 247.068 205.792 246.831 205.929C246.599 206.061 246.418 206.252 246.29 206.5C246.166 206.748 246.102 207.048 246.098 207.401Z" fill="#E7F3FB"/>
<mask id="mask2_159_258" style="mask-type:luminance" maskUnits="userSpaceOnUse" x="253" y="171" width="293" height="72">
<path d="M517.263 171.783H281.705C266.125 171.783 253.495 184.406 253.495 199.976V214.072C253.495 229.643 266.125 242.265 281.705 242.265H517.263C532.843 242.265 545.474 229.643 545.474 214.072V199.976C545.474 184.406 532.843 171.783 517.263 171.783Z" fill="white"/>
</mask>
<g mask="url(#mask2_159_258)">
<path d="M510.211 175.307H288.758C271.23 175.307 257.021 189.507 257.021 207.024C257.021 224.541 271.23 238.741 288.758 238.741H510.211C527.738 238.741 541.947 224.541 541.947 207.024C541.947 189.507 527.738 175.307 510.211 175.307Z" fill="#E7F3FB"/>
<path d="M510.211 175.307H288.758C271.23 175.307 257.021 189.507 257.021 207.024C257.021 224.541 271.23 238.741 288.758 238.741H510.211C527.738 238.741 541.947 224.541 541.947 207.024C541.947 189.507 527.738 175.307 510.211 175.307Z" stroke="#3D77A2" stroke-width="5"/>
<path d="M322.287 215.482V201.129H332.091V203.947H325.759V206.89H331.466V209.714H325.759V215.482H322.287ZM336.702 215.664C336.013 215.664 335.404 215.55 334.871 215.321C334.343 215.087 333.924 214.736 333.615 214.27C333.312 213.798 333.16 213.207 333.16 212.496C333.16 211.899 333.266 211.394 333.476 210.983C333.686 210.572 333.975 210.238 334.345 209.98C334.714 209.724 335.14 209.529 335.621 209.399C336.102 209.264 336.617 209.173 337.164 209.126C337.776 209.07 338.27 209.012 338.644 208.95C339.018 208.885 339.289 208.793 339.458 208.678C339.63 208.555 339.716 208.385 339.716 208.166V208.131C339.716 207.771 339.593 207.492 339.345 207.296C339.097 207.1 338.762 207.002 338.342 207.002C337.889 207.002 337.524 207.1 337.248 207.296C336.972 207.492 336.798 207.764 336.723 208.11L333.559 207.997C333.653 207.343 333.893 206.759 334.283 206.245C334.675 205.727 335.212 205.32 335.895 205.025C336.582 204.727 337.407 204.577 338.37 204.577C339.057 204.577 339.691 204.659 340.27 204.822C340.85 204.982 341.355 205.216 341.785 205.523C342.215 205.827 342.547 206.201 342.781 206.645C343.019 207.089 343.139 207.595 343.139 208.166V215.482H339.913V213.982H339.829C339.637 214.347 339.392 214.655 339.092 214.907C338.798 215.159 338.449 215.35 338.047 215.475C337.651 215.602 337.201 215.664 336.702 215.664ZM337.76 213.421C338.129 213.421 338.462 213.346 338.755 213.197C339.054 213.048 339.294 212.842 339.471 212.581C339.648 212.315 339.737 212.006 339.737 211.656V210.633C339.64 210.684 339.52 210.73 339.38 210.772C339.245 210.815 339.095 210.854 338.932 210.892C338.768 210.929 338.599 210.961 338.427 210.99C338.253 211.018 338.087 211.043 337.929 211.067C337.606 211.118 337.329 211.198 337.101 211.305C336.877 211.412 336.703 211.553 336.582 211.725C336.465 211.895 336.407 212.095 336.407 212.329C336.407 212.684 336.532 212.955 336.785 213.141C337.043 213.328 337.367 213.421 337.76 213.421ZM354.639 208.004L351.491 208.089C351.459 207.864 351.37 207.666 351.224 207.492C351.079 207.315 350.89 207.178 350.656 207.079C350.427 206.976 350.161 206.926 349.856 206.926C349.46 206.926 349.12 207.005 348.841 207.164C348.564 207.322 348.429 207.537 348.433 207.808C348.429 208.018 348.513 208.201 348.685 208.355C348.863 208.509 349.179 208.633 349.632 208.726L351.708 209.119C352.783 209.325 353.583 209.666 354.106 210.142C354.635 210.619 354.902 211.249 354.906 212.034C354.902 212.773 354.682 213.414 354.247 213.961C353.817 214.508 353.227 214.934 352.48 215.237C351.731 215.536 350.876 215.685 349.913 215.685C348.375 215.685 347.162 215.369 346.273 214.739C345.39 214.103 344.886 213.253 344.759 212.188L348.145 212.105C348.22 212.496 348.415 212.795 348.728 213.001C349.041 213.207 349.44 213.31 349.927 213.31C350.367 213.31 350.724 213.228 351 213.065C351.275 212.901 351.416 212.684 351.42 212.412C351.416 212.169 351.309 211.976 351.097 211.831C350.887 211.682 350.559 211.565 350.109 211.48L348.23 211.123C347.149 210.926 346.345 210.565 345.818 210.037C345.289 209.504 345.028 208.827 345.032 208.004C345.028 207.285 345.22 206.67 345.608 206.162C345.996 205.647 346.547 205.255 347.262 204.985C347.977 204.712 348.821 204.577 349.794 204.577C351.253 204.577 352.402 204.883 353.244 205.495C354.085 206.102 354.55 206.94 354.639 208.004ZM362.674 204.718V207.24H355.879V204.718H362.674ZM357.302 202.138H360.731V212.098C360.731 212.308 360.764 212.478 360.83 212.609C360.899 212.735 361.001 212.826 361.131 212.883C361.262 212.933 361.418 212.959 361.602 212.959C361.731 212.959 361.87 212.948 362.015 212.924C362.164 212.895 362.277 212.873 362.352 212.855L362.87 215.328C362.706 215.375 362.475 215.433 362.176 215.503C361.881 215.574 361.528 215.617 361.118 215.636C360.312 215.674 359.624 215.581 359.049 215.357C358.479 215.127 358.042 214.772 357.737 214.291C357.438 213.809 357.293 213.204 357.302 212.475V202.138Z" fill="#3D77A2"/>
<path d="M511.627 209.822L522.293 200.493C523.083 199.804 524.359 199.804 525.141 200.493C525.921 201.184 525.921 202.299 525.141 202.99L513.054 213.559C512.29 214.227 511.064 214.242 510.274 213.61L498.104 202.997C497.709 202.651 497.516 202.196 497.516 201.749C497.516 201.301 497.709 200.846 498.104 200.5C498.894 199.811 500.17 199.811 500.95 200.5L511.627 209.822Z" fill="#3D77A2"/>
<path d="M302.608 203.012L301.017 205.403C301.784 206.933 302.159 208.627 302.11 210.337C302.061 212.045 301.588 213.716 300.733 215.199H282.813C281.702 213.273 281.241 211.042 281.499 208.834C281.759 206.627 282.722 204.562 284.247 202.945C285.772 201.328 287.778 200.245 289.967 199.858C292.157 199.468 294.413 199.796 296.402 200.791L298.794 199.201C296.358 197.64 293.469 196.941 290.589 197.214C287.71 197.488 285.004 198.72 282.907 200.712C280.81 202.704 279.441 205.34 279.021 208.201C278.601 211.061 279.152 213.979 280.588 216.49C280.814 216.88 281.138 217.206 281.528 217.432C281.918 217.658 282.361 217.78 282.813 217.783H300.721C301.176 217.784 301.623 217.666 302.018 217.439C302.415 217.212 302.742 216.885 302.97 216.49C304.161 214.428 304.759 212.076 304.697 209.695C304.636 207.316 303.917 204.998 302.621 203L302.608 203.012ZM289.95 211.851C290.19 212.092 290.475 212.282 290.789 212.412C291.102 212.543 291.439 212.609 291.779 212.609C292.119 212.609 292.455 212.543 292.769 212.412C293.083 212.282 293.369 212.092 293.609 211.851L300.927 200.881L289.95 208.194C289.709 208.434 289.518 208.72 289.388 209.033C289.259 209.347 289.191 209.683 289.191 210.022C289.191 210.362 289.259 210.699 289.388 211.012C289.518 211.326 289.709 211.611 289.95 211.851Z" fill="#3D77A2"/>
</g>
</g>
<mask id="mask3_159_258" style="mask-type:luminance" maskUnits="userSpaceOnUse" x="150" y="263" width="396" height="71">
<path d="M545.474 263.41H150.526V333.892H545.474V263.41Z" fill="white"/>
</mask>
<g mask="url(#mask3_159_258)">
<path d="M150.526 298.651C150.526 292.1 150.526 288.825 151.068 286.102C153.294 274.918 162.042 266.175 173.233 263.951C175.958 263.41 179.235 263.41 185.789 263.41H297.221V333.892H185.789C179.235 333.892 175.958 333.892 173.233 333.35C162.042 331.126 153.294 322.383 151.068 311.199C150.526 308.476 150.526 305.201 150.526 298.651Z" fill="#3D77A2"/>
<path d="M171.524 304.289H166.974V291.987H171.518C172.772 291.987 173.852 292.233 174.758 292.726C175.667 293.214 176.369 293.919 176.862 294.84C177.354 295.757 177.601 296.855 177.601 298.132C177.601 299.413 177.354 300.514 176.862 301.436C176.373 302.357 175.673 303.064 174.764 303.556C173.854 304.045 172.774 304.289 171.524 304.289ZM169.949 301.755H171.41C172.099 301.755 172.682 301.638 173.159 301.407C173.64 301.17 174.002 300.788 174.247 300.259C174.495 299.726 174.62 299.017 174.62 298.132C174.62 297.247 174.495 296.542 174.247 296.017C173.998 295.489 173.632 295.108 173.147 294.876C172.666 294.64 172.073 294.522 171.368 294.522H169.949V301.755ZM183.654 304.464C182.688 304.464 181.854 304.274 181.153 303.893C180.456 303.508 179.919 302.961 179.542 302.252C179.17 301.54 178.983 300.693 178.983 299.712C178.983 298.759 179.172 297.926 179.548 297.213C179.925 296.497 180.456 295.94 181.141 295.542C181.826 295.142 182.634 294.942 183.564 294.942C184.221 294.942 184.822 295.045 185.367 295.249C185.912 295.454 186.383 295.755 186.779 296.156C187.176 296.556 187.485 297.051 187.705 297.64C187.925 298.224 188.035 298.895 188.035 299.652V300.385H180.011V298.679H185.301C185.297 298.366 185.222 298.088 185.078 297.844C184.934 297.599 184.736 297.409 184.483 297.273C184.235 297.132 183.948 297.063 183.624 297.063C183.295 297.063 183 297.137 182.74 297.285C182.48 297.43 182.273 297.627 182.121 297.88C181.969 298.128 181.889 298.411 181.88 298.727V300.463C181.88 300.84 181.955 301.17 182.103 301.454C182.251 301.734 182.461 301.952 182.734 302.109C183.007 302.265 183.331 302.343 183.708 302.343C183.968 302.343 184.205 302.307 184.417 302.235C184.629 302.162 184.812 302.056 184.964 301.917C185.116 301.776 185.23 301.604 185.307 301.399L188.005 301.478C187.893 302.083 187.647 302.609 187.266 303.057C186.889 303.503 186.395 303.848 185.781 304.098C185.168 304.341 184.459 304.464 183.654 304.464ZM194.748 295.063V297.226H188.924V295.063H194.748ZM190.144 292.851H193.083V301.388C193.083 301.569 193.111 301.714 193.167 301.827C193.227 301.935 193.313 302.013 193.426 302.061C193.538 302.104 193.672 302.127 193.828 302.127C193.941 302.127 194.059 302.117 194.183 302.097C194.311 302.073 194.407 302.052 194.472 302.037L194.916 304.157C194.776 304.198 194.578 304.247 194.321 304.308C194.069 304.367 193.766 304.405 193.414 304.422C192.724 304.453 192.133 304.374 191.64 304.181C191.152 303.985 190.777 303.68 190.516 303.269C190.26 302.856 190.136 302.337 190.144 301.712V292.851ZM200.464 304.464C199.499 304.464 198.665 304.274 197.964 303.893C197.266 303.508 196.73 302.961 196.353 302.252C195.98 301.54 195.794 300.693 195.794 299.712C195.794 298.759 195.982 297.926 196.359 297.213C196.736 296.497 197.266 295.94 197.952 295.542C198.637 295.142 199.444 294.942 200.374 294.942C201.031 294.942 201.632 295.045 202.177 295.249C202.722 295.454 203.193 295.755 203.59 296.156C203.987 296.556 204.295 297.051 204.515 297.64C204.736 298.224 204.846 298.895 204.846 299.652V300.385H196.822V298.679H202.111C202.107 298.366 202.033 298.088 201.889 297.844C201.744 297.599 201.546 297.409 201.294 297.273C201.045 297.132 200.759 297.063 200.434 297.063C200.106 297.063 199.811 297.137 199.551 297.285C199.29 297.43 199.084 297.627 198.931 297.88C198.779 298.128 198.699 298.411 198.691 298.727V300.463C198.691 300.84 198.765 301.17 198.913 301.454C199.062 301.734 199.272 301.952 199.545 302.109C199.817 302.265 200.142 302.343 200.518 302.343C200.779 302.343 201.015 302.307 201.228 302.235C201.44 302.162 201.622 302.056 201.775 301.917C201.927 301.776 202.041 301.604 202.117 301.399L204.816 301.478C204.704 302.083 204.457 302.609 204.077 303.057C203.7 303.503 203.205 303.848 202.592 304.098C201.979 304.341 201.27 304.464 200.464 304.464ZM210.657 304.464C209.683 304.464 208.848 304.264 208.151 303.862C207.457 303.462 206.924 302.905 206.552 302.193C206.179 301.476 205.993 300.647 205.993 299.706C205.993 298.761 206.179 297.932 206.552 297.218C206.928 296.502 207.463 295.944 208.156 295.542C208.854 295.142 209.685 294.942 210.651 294.942C211.504 294.942 212.248 295.097 212.881 295.404C213.518 295.713 214.015 296.15 214.372 296.714C214.732 297.275 214.923 297.933 214.943 298.69H212.196C212.14 298.218 211.979 297.847 211.715 297.579C211.454 297.312 211.114 297.178 210.693 297.178C210.353 297.178 210.054 297.273 209.797 297.465C209.541 297.654 209.341 297.933 209.196 298.307C209.056 298.675 208.986 299.131 208.986 299.675C208.986 300.221 209.056 300.681 209.196 301.057C209.341 301.43 209.541 301.712 209.797 301.904C210.054 302.093 210.353 302.187 210.693 302.187C210.966 302.187 211.206 302.128 211.414 302.013C211.627 301.897 211.801 301.726 211.937 301.502C212.073 301.274 212.16 300.998 212.196 300.674H214.943C214.915 301.433 214.724 302.099 214.372 302.667C214.023 303.236 213.532 303.679 212.899 303.995C212.27 304.308 211.523 304.464 210.657 304.464ZM221.658 295.063V297.226H215.834V295.063H221.658ZM217.054 292.851H219.993V301.388C219.993 301.569 220.021 301.714 220.077 301.827C220.137 301.935 220.224 302.013 220.336 302.061C220.448 302.104 220.582 302.127 220.739 302.127C220.851 302.127 220.969 302.117 221.094 302.097C221.222 302.073 221.318 302.052 221.381 302.037L221.827 304.157C221.686 304.198 221.488 304.247 221.232 304.308C220.979 304.367 220.676 304.405 220.324 304.422C219.635 304.453 219.043 304.374 218.551 304.181C218.062 303.985 217.687 303.68 217.427 303.269C217.17 302.856 217.046 302.337 217.054 301.712V292.851ZM227.369 304.464C226.399 304.464 225.565 304.265 224.868 303.869C224.174 303.469 223.64 302.912 223.263 302.199C222.891 301.483 222.704 300.651 222.704 299.706C222.704 298.756 222.891 297.926 223.263 297.213C223.64 296.497 224.174 295.94 224.868 295.542C225.565 295.142 226.399 294.942 227.369 294.942C228.338 294.942 229.17 295.142 229.863 295.542C230.56 295.94 231.096 296.497 231.468 297.213C231.845 297.926 232.032 298.756 232.032 299.706C232.032 300.651 231.845 301.483 231.468 302.199C231.096 302.912 230.56 303.469 229.863 303.869C229.17 304.265 228.338 304.464 227.369 304.464ZM227.386 302.247C227.739 302.247 228.038 302.138 228.282 301.922C228.527 301.707 228.713 301.407 228.842 301.022C228.973 300.637 229.039 300.193 229.039 299.688C229.039 299.175 228.973 298.727 228.842 298.342C228.713 297.959 228.527 297.657 228.282 297.441C228.038 297.226 227.739 297.117 227.386 297.117C227.022 297.117 226.713 297.226 226.461 297.441C226.212 297.657 226.022 297.959 225.889 298.342C225.761 298.727 225.697 299.175 225.697 299.688C225.697 300.193 225.761 300.637 225.889 301.022C226.022 301.407 226.212 301.707 226.461 301.922C226.713 302.138 227.022 302.247 227.386 302.247ZM233.539 304.289V295.063H236.394V296.745H236.489C236.659 296.136 236.932 295.683 237.313 295.387C237.694 295.087 238.137 294.936 238.642 294.936C238.777 294.936 238.918 294.946 239.062 294.966C239.206 294.983 239.342 295.008 239.466 295.045V297.598C239.325 297.55 239.141 297.512 238.913 297.483C238.687 297.455 238.487 297.441 238.31 297.441C237.962 297.441 237.647 297.519 237.367 297.675C237.09 297.827 236.873 298.042 236.712 298.318C236.556 298.59 236.478 298.911 236.478 299.279V304.289H233.539Z" fill="#E7F3FB"/>
<mask id="mask4_159_258" style="mask-type:luminance" maskUnits="userSpaceOnUse" x="253" y="263" width="293" height="71">
<path d="M517.263 263.41H281.705C266.125 263.41 253.495 276.032 253.495 291.602V305.699C253.495 321.269 266.125 333.892 281.705 333.892H517.263C532.843 333.892 545.474 321.269 545.474 305.699V291.602C545.474 276.032 532.843 263.41 517.263 263.41Z" fill="white"/>
</mask>
<g mask="url(#mask4_159_258)">
<path d="M510.211 266.934H288.758C271.23 266.934 257.021 281.134 257.021 298.651C257.021 316.167 271.23 330.368 288.758 330.368H510.211C527.738 330.368 541.947 316.167 541.947 298.651C541.947 281.134 527.738 266.934 510.211 266.934Z" fill="#E7F3FB"/>
<path d="M510.211 266.934H288.758C271.23 266.934 257.021 281.134 257.021 298.651C257.021 316.167 271.23 330.368 288.758 330.368H510.211C527.738 330.368 541.947 316.167 541.947 298.651C541.947 281.134 527.738 266.934 510.211 266.934Z" stroke="#3D77A2" stroke-width="5"/>
<path d="M322.287 307.108V292.755H325.759V298.825H325.948L330.696 292.755H334.783L329.693 299.161L334.875 307.108H330.722L327.147 301.467L325.759 303.219V307.108H322.287ZM336.827 307.108V296.344H340.256V307.108H336.827ZM338.545 295.09C338.064 295.09 337.651 294.931 337.304 294.613C336.958 294.291 336.785 293.903 336.785 293.449C336.785 293.001 336.958 292.617 337.304 292.3C337.651 291.977 338.064 291.817 338.545 291.817C339.032 291.817 339.445 291.977 339.786 292.3C340.132 292.617 340.306 293.001 340.306 293.449C340.306 293.903 340.132 294.291 339.786 294.613C339.445 294.931 339.032 295.09 338.545 295.09ZM347.467 307.311C346.331 307.311 345.357 307.077 344.543 306.611C343.735 306.144 343.112 305.494 342.678 304.663C342.244 303.827 342.025 302.86 342.025 301.762C342.025 300.658 342.244 299.691 342.678 298.859C343.117 298.023 343.742 297.372 344.55 296.904C345.364 296.437 346.334 296.203 347.46 296.203C348.456 296.203 349.323 296.384 350.062 296.743C350.806 297.103 351.385 297.612 351.801 298.271C352.222 298.925 352.445 299.694 352.467 300.576H349.262C349.198 300.025 349.01 299.594 348.701 299.281C348.398 298.968 348 298.811 347.509 298.811C347.111 298.811 346.764 298.923 346.464 299.147C346.165 299.367 345.932 299.694 345.763 300.128C345.599 300.558 345.517 301.091 345.517 301.726C345.517 302.362 345.599 302.899 345.763 303.338C345.932 303.773 346.165 304.102 346.464 304.326C346.764 304.546 347.111 304.656 347.509 304.656C347.828 304.656 348.107 304.588 348.351 304.453C348.598 304.317 348.803 304.119 348.961 303.856C349.12 303.59 349.22 303.269 349.262 302.889H352.467C352.435 303.777 352.212 304.553 351.801 305.217C351.394 305.879 350.821 306.397 350.083 306.764C349.348 307.13 348.477 307.311 347.467 307.311ZM357.315 304.284L357.329 300.198H357.806L360.834 296.344H364.72L360.218 301.866H359.314L357.315 304.284ZM354.222 307.108V292.755H357.651V307.108H354.222ZM360.912 307.108L358.094 302.637L360.351 300.205L364.874 307.108H360.912Z" fill="#3D77A2"/>
<path d="M511.627 301.449L522.293 292.12C523.083 291.43 524.359 291.43 525.141 292.12C525.921 292.81 525.921 293.926 525.141 294.616L513.054 305.186C512.29 305.854 511.064 305.868 510.274 305.236L498.104 294.623C497.709 294.278 497.516 293.823 497.516 293.376C497.516 292.927 497.709 292.472 498.104 292.127C498.894 291.437 500.17 291.437 500.95 292.127L511.627 301.449Z" fill="#3D77A2"/>
</g>
</g>
<g filter="url(#filter1_d_159_258)">
<mask id="mask5_159_258" style="mask-type:luminance" maskUnits="userSpaceOnUse" x="164" y="362" width="368" height="57">
<path d="M503.158 362.084H192.842C177.262 362.084 164.632 374.707 164.632 390.277C164.632 405.848 177.262 418.47 192.842 418.47H503.158C518.738 418.47 531.368 405.848 531.368 390.277C531.368 374.707 518.738 362.084 503.158 362.084Z" fill="white"/>
</mask>
<g mask="url(#mask5_159_258)">
<path d="M164.632 390.277C164.632 374.706 177.262 362.084 192.842 362.084H474.947V418.47H192.842C177.262 418.47 164.632 405.848 164.632 390.277Z" fill="#FAB800"/>
<path d="M474.947 362.084H503.158C518.738 362.084 531.368 374.706 531.368 390.277C531.368 405.848 518.738 418.47 503.158 418.47H474.947V362.084Z" fill="#3D77A2"/>
<path d="M496.877 376.732H496.545C496.727 376.732 496.877 376.583 496.877 376.401V376.732H509.439V376.401C509.439 376.583 509.588 376.732 509.77 376.732H509.439V379.705H512.414V376.401C512.414 374.943 511.229 373.758 509.77 373.758H496.545C495.087 373.758 493.902 374.943 493.902 376.401V379.705H496.877V376.732ZM517.703 379.705H488.612C487.88 379.705 487.289 380.296 487.289 381.027V382.348C487.289 382.53 487.438 382.678 487.62 382.678H490.116L491.137 404.278C491.202 405.686 492.369 406.797 493.778 406.797H512.538C513.951 406.797 515.113 405.69 515.178 404.278L516.2 382.678H518.696C518.878 382.678 519.026 382.53 519.026 382.348V381.027C519.026 380.296 518.435 379.705 517.703 379.705ZM512.22 403.823H494.095L493.095 382.678H513.221L512.22 403.823Z" fill="#E7F3FB"/>
</g>
<path d="M503.158 358.56H192.842C175.314 358.56 161.105 372.76 161.105 390.277C161.105 407.794 175.314 421.994 192.842 421.994H503.158C520.686 421.994 534.895 407.794 534.895 390.277C534.895 372.76 520.686 358.56 503.158 358.56Z" stroke="#3D77A2" stroke-width="5"/>
</g>
<g filter="url(#filter2_d_159_258)">
<path d="M300.747 115.398H130.074C121.894 115.398 115.263 122.024 115.263 130.199C115.263 138.373 121.894 145 130.074 145H300.747C308.927 145 315.558 138.373 315.558 130.199C315.558 122.024 308.927 115.398 300.747 115.398Z" fill="#3D77A2"/>
<path d="M126.068 136.542V124.24H131.154C132.075 124.24 132.871 124.42 133.54 124.781C134.213 125.137 134.732 125.636 135.097 126.276C135.461 126.913 135.644 127.654 135.644 128.499C135.644 129.348 135.457 130.091 135.085 130.728C134.716 131.36 134.189 131.851 133.504 132.199C132.819 132.548 132.005 132.722 131.063 132.722H127.926V130.379H130.511C130.959 130.379 131.334 130.301 131.634 130.145C131.939 129.989 132.169 129.77 132.326 129.49C132.482 129.206 132.56 128.875 132.56 128.499C132.56 128.118 132.482 127.79 132.326 127.514C132.169 127.233 131.939 127.017 131.634 126.865C131.33 126.713 130.955 126.637 130.511 126.637H129.044V136.542H126.068ZM137.11 136.542V127.316H139.965V128.997H140.062C140.23 128.389 140.504 127.936 140.885 127.64C141.266 127.34 141.709 127.189 142.213 127.189C142.35 127.189 142.49 127.199 142.634 127.22C142.778 127.235 142.913 127.262 143.037 127.298V129.85C142.897 129.802 142.712 129.764 142.484 129.736C142.259 129.708 142.059 129.694 141.883 129.694C141.534 129.694 141.22 129.772 140.939 129.929C140.663 130.081 140.444 130.295 140.284 130.571C140.128 130.844 140.049 131.164 140.049 131.532V136.542H137.11ZM144.235 136.542V127.316H147.174V136.542H144.235ZM145.707 126.24C145.294 126.24 144.94 126.104 144.643 125.832C144.347 125.556 144.198 125.223 144.198 124.835C144.198 124.45 144.347 124.122 144.643 123.849C144.94 123.573 145.294 123.435 145.707 123.435C146.124 123.435 146.479 123.573 146.771 123.849C147.068 124.122 147.216 124.45 147.216 124.835C147.216 125.223 147.068 125.556 146.771 125.832C146.479 126.104 146.124 126.24 145.707 126.24ZM153.354 136.717C152.385 136.717 151.551 136.518 150.854 136.122C150.161 135.721 149.626 135.165 149.249 134.452C148.876 133.735 148.69 132.904 148.69 131.959C148.69 131.01 148.876 130.179 149.249 129.466C149.626 128.749 150.161 128.193 150.854 127.796C151.551 127.396 152.385 127.195 153.354 127.195C154.324 127.195 155.156 127.396 155.849 127.796C156.546 128.193 157.081 128.749 157.454 129.466C157.83 130.179 158.019 131.01 158.019 131.959C158.019 132.904 157.83 133.735 157.454 134.452C157.081 135.165 156.546 135.721 155.849 136.122C155.156 136.518 154.324 136.717 153.354 136.717ZM153.372 134.5C153.725 134.5 154.024 134.392 154.268 134.176C154.512 133.959 154.699 133.659 154.827 133.274C154.959 132.89 155.025 132.445 155.025 131.941C155.025 131.428 154.959 130.98 154.827 130.595C154.699 130.211 154.512 129.911 154.268 129.694C154.024 129.478 153.725 129.37 153.372 129.37C153.008 129.37 152.699 129.478 152.447 129.694C152.198 129.911 152.008 130.211 151.876 130.595C151.748 130.98 151.683 131.428 151.683 131.941C151.683 132.445 151.748 132.89 151.876 133.274C152.008 133.659 152.198 133.959 152.447 134.176C152.699 134.392 153.008 134.5 153.372 134.5ZM159.524 136.542V127.316H162.38V128.997H162.476C162.644 128.389 162.918 127.936 163.299 127.64C163.68 127.34 164.123 127.189 164.628 127.189C164.764 127.189 164.904 127.199 165.048 127.22C165.193 127.235 165.327 127.262 165.451 127.298V129.85C165.311 129.802 165.127 129.764 164.898 129.736C164.674 129.708 164.473 129.694 164.297 129.694C163.948 129.694 163.634 129.772 163.353 129.929C163.077 130.081 162.858 130.295 162.698 130.571C162.542 130.844 162.464 131.164 162.464 131.532V136.542H159.524ZM166.649 136.542V127.316H169.588V136.542H166.649ZM168.121 126.24C167.709 126.24 167.354 126.104 167.057 125.832C166.761 125.556 166.613 125.223 166.613 124.835C166.613 124.45 166.761 124.122 167.057 123.849C167.354 123.573 167.709 123.435 168.121 123.435C168.538 123.435 168.893 123.573 169.185 123.849C169.482 124.122 169.63 124.45 169.63 124.835C169.63 125.223 169.482 125.556 169.185 125.832C168.893 126.104 168.538 126.24 168.121 126.24ZM176.67 127.316V129.478H170.846V127.316H176.67ZM172.066 125.105H175.005V133.641C175.005 133.821 175.033 133.967 175.089 134.079C175.149 134.188 175.236 134.266 175.348 134.314C175.46 134.358 175.594 134.38 175.75 134.38C175.863 134.38 175.981 134.37 176.105 134.35C176.233 134.326 176.329 134.306 176.394 134.29L176.838 136.41C176.698 136.45 176.5 136.5 176.243 136.56C175.991 136.62 175.688 136.658 175.336 136.675C174.646 136.707 174.055 136.626 173.563 136.434C173.074 136.238 172.699 135.934 172.439 135.521C172.182 135.109 172.058 134.59 172.066 133.965V125.105ZM179.967 140.002C179.614 140.002 179.282 139.974 178.969 139.918C178.657 139.866 178.388 139.796 178.164 139.708L178.813 137.576C179.101 137.672 179.362 137.728 179.594 137.744C179.831 137.76 180.033 137.722 180.202 137.63C180.374 137.541 180.506 137.383 180.598 137.155L180.712 136.879L177.431 127.316H180.508L182.209 133.899H182.305L184.03 127.316H187.126L183.646 137.425C183.477 137.93 183.239 138.374 182.93 138.759C182.626 139.147 182.231 139.452 181.746 139.672C181.265 139.892 180.672 140.002 179.967 140.002ZM196.199 136.717C195.225 136.717 194.39 136.516 193.693 136.116C192.999 135.715 192.466 135.159 192.094 134.446C191.721 133.729 191.535 132.9 191.535 131.959C191.535 131.014 191.721 130.185 192.094 129.472C192.47 128.755 193.005 128.197 193.699 127.796C194.396 127.396 195.227 127.195 196.193 127.195C197.047 127.195 197.79 127.35 198.423 127.658C199.06 127.966 199.557 128.403 199.914 128.967C200.274 129.528 200.465 130.187 200.485 130.944H197.738C197.682 130.471 197.522 130.101 197.257 129.833C196.997 129.564 196.656 129.43 196.235 129.43C195.895 129.43 195.596 129.526 195.34 129.718C195.083 129.907 194.883 130.187 194.739 130.559C194.598 130.928 194.528 131.384 194.528 131.929C194.528 132.474 194.598 132.934 194.739 133.311C194.883 133.683 195.083 133.965 195.34 134.157C195.596 134.346 195.895 134.44 196.235 134.44C196.508 134.44 196.748 134.382 196.956 134.266C197.169 134.15 197.343 133.979 197.479 133.755C197.616 133.527 197.702 133.251 197.738 132.926H200.485C200.457 133.687 200.266 134.352 199.914 134.92C199.565 135.489 199.074 135.932 198.441 136.248C197.812 136.56 197.065 136.717 196.199 136.717ZM206.299 136.717C205.329 136.717 204.495 136.518 203.798 136.122C203.105 135.721 202.57 135.165 202.193 134.452C201.821 133.735 201.634 132.904 201.634 131.959C201.634 131.01 201.821 130.179 202.193 129.466C202.57 128.749 203.105 128.193 203.798 127.796C204.495 127.396 205.329 127.195 206.299 127.195C207.268 127.195 208.1 127.396 208.793 127.796C209.49 128.193 210.025 128.749 210.398 129.466C210.775 130.179 210.963 131.01 210.963 131.959C210.963 132.904 210.775 133.735 210.398 134.452C210.025 135.165 209.49 135.721 208.793 136.122C208.1 136.518 207.268 136.717 206.299 136.717ZM206.317 134.5C206.669 134.5 206.968 134.392 207.212 134.176C207.457 133.959 207.643 133.659 207.771 133.274C207.904 132.89 207.97 132.445 207.97 131.941C207.97 131.428 207.904 130.98 207.771 130.595C207.643 130.211 207.457 129.911 207.212 129.694C206.968 129.478 206.669 129.37 206.317 129.37C205.952 129.37 205.643 129.478 205.391 129.694C205.143 129.911 204.952 130.211 204.82 130.595C204.692 130.98 204.628 131.428 204.628 131.941C204.628 132.445 204.692 132.89 204.82 133.274C204.952 133.659 205.143 133.959 205.391 134.176C205.643 134.392 205.952 134.5 206.317 134.5ZM215.408 131.28V136.542H212.469V127.316H215.264V129.009H215.366C215.57 128.445 215.919 128.002 216.412 127.682C216.905 127.358 217.492 127.195 218.173 127.195C218.822 127.195 219.385 127.342 219.862 127.634C220.343 127.922 220.716 128.327 220.98 128.847C221.249 129.364 221.381 129.969 221.377 130.661V136.542H218.438V131.238C218.441 130.726 218.311 130.325 218.047 130.037C217.786 129.748 217.424 129.604 216.959 129.604C216.65 129.604 216.378 129.672 216.141 129.808C215.909 129.941 215.729 130.131 215.6 130.379C215.476 130.627 215.412 130.928 215.408 131.28ZM228.444 127.316V129.478H222.505V127.316H228.444ZM223.744 136.542V126.847C223.744 126.134 223.878 125.543 224.146 125.075C224.415 124.602 224.788 124.25 225.264 124.018C225.741 123.781 226.291 123.663 226.918 123.663C227.325 123.663 227.71 123.695 228.071 123.759C228.435 123.819 228.706 123.874 228.882 123.922L228.414 126.072C228.306 126.036 228.173 126.006 228.018 125.982C227.865 125.958 227.72 125.946 227.585 125.946C227.239 125.946 227.004 126.022 226.875 126.174C226.747 126.326 226.682 126.535 226.682 126.799V136.542H223.744ZM229.859 136.542V127.316H232.797V136.542H229.859ZM231.331 126.24C230.918 126.24 230.564 126.104 230.266 125.832C229.97 125.556 229.822 125.223 229.822 124.835C229.822 124.45 229.97 124.122 230.266 123.849C230.564 123.573 230.918 123.435 231.331 123.435C231.747 123.435 232.101 123.573 232.395 123.849C232.691 124.122 232.839 124.45 232.839 124.835C232.839 125.223 232.691 125.556 232.395 125.832C232.101 126.104 231.747 126.24 231.331 126.24ZM238.972 140.195C238.095 140.195 237.343 140.072 236.718 139.828C236.093 139.584 235.602 139.25 235.245 138.825C234.888 138.4 234.674 137.92 234.602 137.383L237.385 137.227C237.437 137.415 237.533 137.58 237.673 137.72C237.818 137.86 238.004 137.968 238.233 138.044C238.464 138.12 238.738 138.158 239.05 138.158C239.543 138.158 239.949 138.038 240.27 137.798C240.594 137.561 240.756 137.147 240.756 136.554V134.932H240.655C240.539 135.217 240.363 135.471 240.126 135.695C239.889 135.92 239.595 136.096 239.243 136.224C238.893 136.352 238.492 136.416 238.04 136.416C237.367 136.416 236.75 136.26 236.189 135.948C235.632 135.631 235.185 135.143 234.849 134.482C234.516 133.817 234.35 132.962 234.35 131.917C234.35 130.84 234.522 129.953 234.866 129.256C235.211 128.555 235.661 128.036 236.219 127.7C236.78 127.364 237.382 127.195 238.028 127.195C238.514 127.195 238.928 127.28 239.272 127.448C239.621 127.612 239.907 127.824 240.131 128.084C240.356 128.345 240.526 128.615 240.642 128.895H240.727V127.316H243.653V136.578C243.653 137.359 243.457 138.018 243.065 138.555C242.672 139.091 242.123 139.498 241.418 139.774C240.713 140.054 239.897 140.195 238.972 140.195ZM239.062 134.278C239.419 134.278 239.724 134.184 239.975 133.995C240.227 133.807 240.422 133.537 240.559 133.184C240.694 132.832 240.763 132.41 240.763 131.917C240.763 131.416 240.694 130.986 240.559 130.625C240.426 130.261 240.232 129.981 239.975 129.784C239.724 129.588 239.419 129.49 239.062 129.49C238.697 129.49 238.388 129.59 238.137 129.79C237.884 129.991 237.691 130.273 237.559 130.637C237.432 130.998 237.367 131.424 237.367 131.917C237.367 132.41 237.433 132.832 237.566 133.184C237.697 133.537 237.887 133.807 238.137 133.995C238.388 134.184 238.697 134.278 239.062 134.278ZM251.485 132.56V127.316H254.417V136.542H251.617V134.824H251.52C251.317 135.389 250.967 135.837 250.475 136.17C249.985 136.498 249.394 136.662 248.702 136.662C248.073 136.662 247.52 136.518 247.043 136.23C246.566 135.942 246.195 135.539 245.93 135.023C245.666 134.502 245.532 133.893 245.528 133.196V127.316H248.468V132.62C248.472 133.12 248.603 133.515 248.864 133.803C249.125 134.092 249.479 134.236 249.928 134.236C250.221 134.236 250.483 134.172 250.715 134.043C250.952 133.911 251.138 133.721 251.275 133.473C251.414 133.22 251.485 132.916 251.485 132.56ZM256.289 136.542V127.316H259.144V128.997H259.24C259.408 128.389 259.683 127.936 260.064 127.64C260.444 127.34 260.887 127.189 261.392 127.189C261.528 127.189 261.669 127.199 261.813 127.22C261.956 127.235 262.09 127.262 262.216 127.298V129.85C262.075 129.802 261.89 129.764 261.662 129.736C261.437 129.708 261.237 129.694 261.061 129.694C260.712 129.694 260.398 129.772 260.117 129.929C259.841 130.081 259.622 130.295 259.463 130.571C259.306 130.844 259.229 131.164 259.229 131.532V136.542H256.289ZM265.669 136.698C265.079 136.698 264.556 136.6 264.099 136.404C263.646 136.204 263.288 135.904 263.024 135.503C262.763 135.099 262.634 134.592 262.634 133.983C262.634 133.471 262.724 133.038 262.903 132.686C263.083 132.333 263.332 132.047 263.649 131.827C263.965 131.607 264.33 131.44 264.742 131.328C265.156 131.212 265.597 131.134 266.065 131.094C266.59 131.046 267.013 130.996 267.333 130.944C267.654 130.888 267.886 130.81 268.03 130.709C268.18 130.605 268.253 130.459 268.253 130.271V130.241C268.253 129.933 268.147 129.694 267.934 129.526C267.723 129.358 267.436 129.274 267.075 129.274C266.686 129.274 266.374 129.358 266.137 129.526C265.9 129.694 265.751 129.927 265.686 130.223L262.976 130.127C263.055 129.566 263.263 129.066 263.595 128.625C263.931 128.181 264.392 127.832 264.978 127.58C265.566 127.324 266.274 127.195 267.099 127.195C267.689 127.195 268.23 127.265 268.728 127.406C269.225 127.542 269.658 127.742 270.026 128.006C270.396 128.267 270.679 128.587 270.879 128.967C271.084 129.348 271.187 129.782 271.187 130.271V136.542H268.421V135.257H268.349C268.185 135.569 267.975 135.834 267.718 136.05C267.466 136.266 267.167 136.428 266.823 136.536C266.481 136.644 266.098 136.698 265.669 136.698ZM266.576 134.776C266.893 134.776 267.177 134.712 267.429 134.584C267.686 134.456 267.891 134.28 268.043 134.055C268.195 133.827 268.271 133.563 268.271 133.262V132.385C268.187 132.43 268.085 132.47 267.965 132.506C267.848 132.542 267.72 132.576 267.58 132.608C267.439 132.64 267.295 132.668 267.147 132.692C266.999 132.716 266.857 132.738 266.72 132.758C266.443 132.802 266.208 132.87 266.012 132.962C265.818 133.054 265.67 133.174 265.566 133.323C265.466 133.467 265.416 133.639 265.416 133.839C265.416 134.144 265.524 134.376 265.741 134.536C265.961 134.696 266.24 134.776 266.576 134.776ZM278.194 127.316V129.478H272.37V127.316H278.194ZM273.59 125.105H276.53V133.641C276.53 133.821 276.558 133.967 276.615 134.079C276.674 134.188 276.76 134.266 276.873 134.314C276.984 134.358 277.12 134.38 277.275 134.38C277.388 134.38 277.506 134.37 277.63 134.35C277.759 134.326 277.855 134.306 277.918 134.29L278.364 136.41C278.223 136.45 278.025 136.5 277.768 136.56C277.516 136.62 277.213 136.658 276.86 136.675C276.172 136.707 275.581 136.626 275.087 136.434C274.599 136.238 274.224 135.934 273.963 135.521C273.708 135.109 273.582 134.59 273.59 133.965V125.105ZM279.695 136.542V127.316H282.633V136.542H279.695ZM281.168 126.24C280.755 126.24 280.401 126.104 280.103 125.832C279.807 125.556 279.659 125.223 279.659 124.835C279.659 124.45 279.807 124.122 280.103 123.849C280.401 123.573 280.755 123.435 281.168 123.435C281.584 123.435 281.938 123.573 282.231 123.849C282.528 124.122 282.676 124.45 282.676 124.835C282.676 125.223 282.528 125.556 282.231 125.832C281.938 126.104 281.584 126.24 281.168 126.24ZM288.814 136.717C287.845 136.717 287.012 136.518 286.313 136.122C285.621 135.721 285.086 135.165 284.71 134.452C284.336 133.735 284.15 132.904 284.15 131.959C284.15 131.01 284.336 130.179 284.71 129.466C285.086 128.749 285.621 128.193 286.313 127.796C287.012 127.396 287.845 127.195 288.814 127.195C289.785 127.195 290.616 127.396 291.31 127.796C292.006 128.193 292.541 128.749 292.913 129.466C293.29 130.179 293.479 131.01 293.479 131.959C293.479 132.904 293.29 133.735 292.913 134.452C292.541 135.165 292.006 135.721 291.31 136.122C290.616 136.518 289.785 136.717 288.814 136.717ZM288.833 134.5C289.185 134.5 289.484 134.392 289.728 134.176C289.972 133.959 290.159 133.659 290.287 133.274C290.419 132.89 290.486 132.445 290.486 131.941C290.486 131.428 290.419 130.98 290.287 130.595C290.159 130.211 289.972 129.911 289.728 129.694C289.484 129.478 289.185 129.37 288.833 129.37C288.467 129.37 288.16 129.478 287.907 129.694C287.659 129.911 287.469 130.211 287.336 130.595C287.208 130.98 287.143 131.428 287.143 131.941C287.143 132.445 287.208 132.89 287.336 133.274C287.469 133.659 287.659 133.959 287.907 134.176C288.16 134.392 288.467 134.5 288.833 134.5ZM297.923 131.28V136.542H294.984V127.316H297.78V129.009H297.881C298.086 128.445 298.434 128.002 298.928 127.682C299.42 127.358 300.007 127.195 300.688 127.195C301.338 127.195 301.901 127.342 302.378 127.634C302.859 127.922 303.231 128.327 303.496 128.847C303.764 129.364 303.897 129.969 303.893 130.661V136.542H300.953V131.238C300.958 130.726 300.826 130.325 300.563 130.037C300.302 129.748 299.939 129.604 299.475 129.604C299.166 129.604 298.894 129.672 298.657 129.808C298.424 129.941 298.244 130.131 298.117 130.379C297.993 130.627 297.928 130.928 297.923 131.28Z" fill="#E7F3FB"/>
</g>
</g>
<g filter="url(#filter3_d_159_258)">
<mask id="mask6_159_258" style="mask-type:luminance" maskUnits="userSpaceOnUse" x="139" y="30" width="417" height="65">
<path d="M527.137 30.8193H167.453C151.872 30.8193 139.242 43.4417 139.242 59.0121V66.0603C139.242 81.6307 151.872 94.2531 167.453 94.2531H527.137C542.717 94.2531 555.347 81.6307 555.347 66.0603V59.0121C555.347 43.4417 542.717 30.8193 527.137 30.8193Z" fill="white"/>
</mask>
<g mask="url(#mask6_159_258)">
<path d="M527.137 30.8193H167.453C151.872 30.8193 139.242 43.4417 139.242 59.0121V66.0603C139.242 81.6307 151.872 94.2531 167.453 94.2531H527.137C542.717 94.2531 555.347 81.6307 555.347 66.0603V59.0121C555.347 43.4417 542.717 30.8193 527.137 30.8193Z" fill="#B9DBF2"/>
<path d="M263.761 59.7831H259.372C259.292 59.2157 259.128 58.7117 258.882 58.2712C258.635 57.8241 258.317 57.4436 257.929 57.13C257.543 56.8162 257.094 56.576 256.587 56.4091C256.086 56.2422 255.541 56.1589 254.955 56.1589C253.893 56.1589 252.967 56.4225 252.179 56.9497C251.392 57.4703 250.781 58.2312 250.346 59.2323C249.912 60.2268 249.695 61.4349 249.695 62.8566C249.695 64.3183 249.912 65.5464 250.346 66.5409C250.787 67.5354 251.402 68.2863 252.19 68.7935C252.977 69.3008 253.89 69.5544 254.924 69.5544C255.505 69.5544 256.044 69.4776 256.537 69.3241C257.038 69.1705 257.482 68.947 257.87 68.6534C258.257 68.353 258.577 67.9893 258.831 67.562C259.092 67.1349 259.272 66.6477 259.372 66.1004L263.761 66.1204C263.646 67.0614 263.363 67.9693 262.909 68.8435C262.461 69.7113 261.856 70.4888 261.095 71.1763C260.34 71.857 259.439 72.3976 258.391 72.7981C257.348 73.192 256.17 73.3889 254.854 73.3889C253.024 73.3889 251.387 72.975 249.946 72.1474C248.51 71.3198 247.374 70.1218 246.539 68.5533C245.711 66.9848 245.297 65.0858 245.297 62.8566C245.297 60.6207 245.718 58.7185 246.559 57.15C247.401 55.5815 248.542 54.3867 249.985 53.5659C251.428 52.7381 253.05 52.3244 254.854 52.3244C256.044 52.3244 257.145 52.4913 258.161 52.8249C259.182 53.1586 260.088 53.6459 260.875 54.2866C261.663 54.9207 262.305 55.6982 262.799 56.6194C263.299 57.5405 263.619 58.595 263.761 59.7831ZM273.743 73.4089C272.187 73.4089 270.841 73.0785 269.706 72.4177C268.577 71.7503 267.706 70.8225 267.091 69.6345C266.477 68.4398 266.17 67.0548 266.17 65.4797C266.17 63.8912 266.477 62.5028 267.091 61.3148C267.706 60.1201 268.577 59.1923 269.706 58.5316C270.841 57.8641 272.187 57.5305 273.743 57.5305C275.299 57.5305 276.641 57.8641 277.77 58.5316C278.905 59.1923 279.78 60.1201 280.395 61.3148C281.01 62.5028 281.316 63.8912 281.316 65.4797C281.316 67.0548 281.01 68.4398 280.395 69.6345C279.78 70.8225 278.905 71.7503 277.77 72.4177C276.641 73.0785 275.299 73.4089 273.743 73.4089ZM273.763 70.105C274.471 70.105 275.062 69.9048 275.536 69.5044C276.011 69.0972 276.368 68.5433 276.608 67.8424C276.856 67.1415 276.979 66.3439 276.979 65.4497C276.979 64.5553 276.856 63.7577 276.608 63.0568C276.368 62.3561 276.011 61.8021 275.536 61.3948C275.062 60.9877 274.471 60.7842 273.763 60.7842C273.049 60.7842 272.448 60.9877 271.96 61.3948C271.479 61.8021 271.115 62.3561 270.868 63.0568C270.627 63.7577 270.507 64.5553 270.507 65.4497C270.507 66.3439 270.627 67.1415 270.868 67.8424C271.115 68.5433 271.479 69.0972 271.96 69.5044C272.448 69.9048 273.049 70.105 273.763 70.105ZM288.359 64.2182V73.1085H284.092V57.7306H288.158V60.4438H288.339C288.68 59.5495 289.25 58.842 290.053 58.3213C290.854 57.7941 291.826 57.5305 292.967 57.5305C294.036 57.5305 294.967 57.764 295.763 58.2312C296.557 58.6985 297.174 59.3658 297.616 60.2336C298.056 61.0946 298.278 62.1224 298.278 63.3172V73.1085H294.009V64.0781C294.016 63.1369 293.775 62.4027 293.289 61.8754C292.8 61.3416 292.129 61.0746 291.274 61.0746C290.7 61.0746 290.192 61.1981 289.752 61.445C289.318 61.6919 288.977 62.0523 288.73 62.5262C288.49 62.9934 288.366 63.5574 288.359 64.2182ZM309.916 57.7306V60.9343H300.419V57.7306H309.916ZM302.592 73.1085V56.6194C302.592 55.5047 302.81 54.5804 303.244 53.8461C303.684 53.1119 304.285 52.5613 305.047 52.1943C305.808 51.8271 306.673 51.6435 307.641 51.6435C308.295 51.6435 308.893 51.6936 309.435 51.7938C309.982 51.8939 310.39 51.984 310.656 52.064L309.895 55.2678C309.728 55.2144 309.521 55.1644 309.274 55.1176C309.034 55.0709 308.786 55.0475 308.533 55.0475C307.904 55.0475 307.467 55.1944 307.22 55.488C306.973 55.775 306.849 56.1789 306.849 56.6995V73.1085H302.592ZM312.522 73.1085V57.7306H316.791V73.1085H312.522ZM314.666 55.7484C314.032 55.7484 313.487 55.5381 313.033 55.1176C312.586 54.6905 312.362 54.1799 312.362 53.5859C312.362 52.9985 312.586 52.4945 313.033 52.074C313.487 51.6469 314.032 51.4333 314.666 51.4333C315.301 51.4333 315.841 51.6469 316.289 52.074C316.743 52.4945 316.97 52.9985 316.97 53.5859C316.97 54.1799 316.743 54.6905 316.289 55.1176C315.841 55.5381 315.301 55.7484 314.666 55.7484ZM327.141 79.1956C325.759 79.1956 324.573 79.0053 323.585 78.625C322.603 78.2512 321.822 77.7406 321.241 77.0931C320.66 76.4457 320.282 75.7182 320.108 74.9106L324.056 74.38C324.176 74.687 324.367 74.974 324.626 75.241C324.887 75.508 325.231 75.7216 325.659 75.8817C326.093 76.0486 326.621 76.1321 327.241 76.1321C328.169 76.1321 328.934 75.9051 329.535 75.4512C330.143 75.0041 330.447 74.2531 330.447 73.1986V70.3854H330.267C330.079 70.8125 329.799 71.2164 329.425 71.5968C329.051 71.9771 328.57 72.2875 327.983 72.5279C327.395 72.7681 326.694 72.8883 325.879 72.8883C324.723 72.8883 323.671 72.6213 322.723 72.0874C321.781 71.5466 321.031 70.7224 320.469 69.6144C319.915 68.4998 319.637 67.0915 319.637 65.3895C319.637 63.6476 319.922 62.1926 320.489 61.0245C321.058 59.8565 321.812 58.9821 322.753 58.4015C323.702 57.8207 324.74 57.5305 325.869 57.5305C326.731 57.5305 327.451 57.6772 328.033 57.971C328.614 58.258 329.081 58.6183 329.435 59.0522C329.796 59.4793 330.074 59.8998 330.267 60.3136H330.428V57.7306H334.665V73.2586C334.665 74.5669 334.345 75.6615 333.703 76.5425C333.061 77.4236 332.174 78.0843 331.038 78.5248C329.91 78.972 328.611 79.1956 327.141 79.1956ZM327.231 69.6845C327.92 69.6845 328.501 69.5144 328.975 69.1739C329.456 68.8269 329.823 68.3329 330.076 67.6923C330.337 67.0448 330.467 66.2705 330.467 65.3695C330.467 64.4684 330.34 63.6876 330.086 63.0268C329.832 62.3593 329.466 61.8421 328.985 61.4751C328.504 61.1078 327.92 60.9243 327.231 60.9243C326.53 60.9243 325.939 61.1146 325.458 61.4951C324.977 61.8688 324.613 62.3893 324.367 63.0568C324.118 63.7243 323.996 64.4952 323.996 65.3695C323.996 66.2572 324.118 67.0248 324.367 67.6722C324.621 68.3129 324.984 68.8102 325.458 69.1639C325.939 69.511 326.53 69.6845 327.231 69.6845ZM347.928 66.5609V57.7306H352.196V73.1085H348.099V70.3153H347.938C347.591 71.2164 347.014 71.9405 346.206 72.4879C345.403 73.0351 344.426 73.3087 343.27 73.3087C342.241 73.3087 341.337 73.0751 340.555 72.608C339.774 72.1407 339.163 71.4766 338.722 70.6156C338.287 69.7546 338.067 68.7234 338.06 67.522V57.7306H342.328V66.7612C342.335 67.6689 342.579 68.3864 343.06 68.9136C343.54 69.4409 344.185 69.7045 344.993 69.7045C345.508 69.7045 345.989 69.5878 346.436 69.3541C346.883 69.1139 347.244 68.7601 347.518 68.2929C347.798 67.8258 347.935 67.2484 347.928 66.5609ZM355.61 73.1085V57.7306H359.747V60.4137H359.908C360.188 59.4593 360.658 58.7385 361.32 58.2512C361.981 57.7573 362.743 57.5104 363.603 57.5104C363.818 57.5104 364.048 57.5237 364.296 57.5505C364.543 57.5771 364.76 57.6138 364.946 57.6606V61.445C364.746 61.3848 364.469 61.3315 364.115 61.2847C363.761 61.2381 363.437 61.2147 363.143 61.2147C362.516 61.2147 361.954 61.3516 361.461 61.6252C360.973 61.8922 360.585 62.2659 360.298 62.7464C360.018 63.2271 359.877 63.7809 359.877 64.4084V73.1085H355.61ZM371.1 73.3989C370.118 73.3989 369.243 73.2286 368.475 72.8883C367.706 72.5411 367.1 72.0306 366.651 71.3565C366.211 70.6756 365.991 69.828 365.991 68.8135C365.991 67.9592 366.148 67.2417 366.461 66.661C366.775 66.0803 367.203 65.6132 367.745 65.2594C368.285 64.9057 368.9 64.6387 369.587 64.4584C370.282 64.2783 371.01 64.1514 371.772 64.0781C372.666 63.9846 373.387 63.8978 373.935 63.8177C374.483 63.7309 374.88 63.6042 375.127 63.4373C375.374 63.2704 375.498 63.0234 375.498 62.6964V62.6363C375.498 62.0023 375.298 61.5117 374.897 61.1646C374.502 60.8176 373.941 60.6441 373.213 60.6441C372.446 60.6441 371.835 60.8142 371.381 61.1546C370.927 61.4883 370.626 61.9088 370.478 62.4161L366.531 62.0957C366.732 61.1613 367.127 60.3537 367.713 59.673C368.302 58.9855 369.059 58.4581 369.987 58.0911C370.922 57.7172 372.004 57.5305 373.234 57.5305C374.089 57.5305 374.907 57.6305 375.689 57.8307C376.476 58.031 377.174 58.3413 377.782 58.7618C378.397 59.1823 378.881 59.723 379.235 60.3837C379.589 61.0378 379.765 61.8221 379.765 62.7364V73.1085H375.718V70.976H375.598C375.351 71.4566 375.02 71.8804 374.607 72.2475C374.192 72.608 373.694 72.8916 373.113 73.0985C372.532 73.2987 371.862 73.3989 371.1 73.3989ZM372.322 70.4554C372.949 70.4554 373.504 70.332 373.985 70.085C374.466 69.8314 374.844 69.491 375.117 69.0638C375.391 68.6367 375.528 68.1528 375.528 67.6122V65.9803C375.394 66.0669 375.21 66.1472 374.976 66.2205C374.749 66.2873 374.492 66.3507 374.205 66.4108C373.918 66.4642 373.631 66.5142 373.344 66.5609C373.057 66.6009 372.796 66.6377 372.563 66.671C372.062 66.7444 371.623 66.8613 371.25 67.0214C370.876 67.1817 370.585 67.3985 370.378 67.6722C370.172 67.9392 370.068 68.2729 370.068 68.6734C370.068 69.254 370.278 69.6979 370.7 70.0049C371.127 70.3053 371.667 70.4554 372.322 70.4554ZM391.261 57.7306V60.9343H381.994V57.7306H391.261ZM384.098 54.0464H388.366V68.383C388.366 68.7768 388.426 69.0839 388.546 69.304C388.667 69.5177 388.833 69.6679 389.046 69.7546C389.268 69.8414 389.522 69.8848 389.808 69.8848C390.008 69.8848 390.209 69.868 390.409 69.8348C390.609 69.7946 390.763 69.7646 390.87 69.7446L391.542 72.9184C391.327 72.985 391.027 73.0619 390.64 73.1485C390.252 73.242 389.781 73.2987 389.227 73.3187C388.199 73.3589 387.297 73.222 386.523 72.9083C385.754 72.5946 385.156 72.1074 384.729 71.4466C384.301 70.7859 384.091 69.9515 384.098 68.9437V54.0464ZM394.041 73.1085V57.7306H398.309V73.1085H394.041ZM396.185 55.7484C395.55 55.7484 395.006 55.5381 394.552 55.1176C394.104 54.6905 393.88 54.1799 393.88 53.5859C393.88 52.9985 394.104 52.4945 394.552 52.074C395.006 51.6469 395.55 51.4333 396.185 51.4333C396.82 51.4333 397.36 51.6469 397.807 52.074C398.261 52.4945 398.488 52.9985 398.488 53.5859C398.488 54.1799 398.261 54.6905 397.807 55.1176C397.36 55.5381 396.82 55.7484 396.185 55.7484ZM408.679 73.4089C407.124 73.4089 405.778 73.0785 404.642 72.4177C403.514 71.7503 402.642 70.8225 402.027 69.6345C401.414 68.4398 401.106 67.0548 401.106 65.4797C401.106 63.8912 401.414 62.5028 402.027 61.3148C402.642 60.1201 403.514 59.1923 404.642 58.5316C405.778 57.8641 407.124 57.5305 408.679 57.5305C410.235 57.5305 411.578 57.8641 412.706 58.5316C413.842 59.1923 414.716 60.1201 415.331 61.3148C415.946 62.5028 416.253 63.8912 416.253 65.4797C416.253 67.0548 415.946 68.4398 415.331 69.6345C414.716 70.8225 413.842 71.7503 412.706 72.4177C411.578 73.0785 410.235 73.4089 408.679 73.4089ZM408.699 70.105C409.407 70.105 409.998 69.9048 410.472 69.5044C410.948 69.0972 411.304 68.5433 411.544 67.8424C411.792 67.1415 411.915 66.3439 411.915 65.4497C411.915 64.5553 411.792 63.7577 411.544 63.0568C411.304 62.3561 410.948 61.8021 410.472 61.3948C409.998 60.9877 409.407 60.7842 408.699 60.7842C407.985 60.7842 407.385 60.9877 406.897 61.3948C406.416 61.8021 406.052 62.3561 405.805 63.0568C405.564 63.7577 405.444 64.5553 405.444 65.4497C405.444 66.3439 405.564 67.1415 405.805 67.8424C406.052 68.5433 406.416 69.0972 406.897 69.5044C407.385 69.9048 407.985 70.105 408.699 70.105ZM423.295 64.2182V73.1085H419.028V57.7306H423.095V60.4438H423.276C423.617 59.5495 424.187 58.842 424.989 58.3213C425.791 57.7941 426.762 57.5305 427.903 57.5305C428.973 57.5305 429.905 57.764 430.699 58.2312C431.493 58.6985 432.111 59.3658 432.553 60.2336C432.993 61.0946 433.214 62.1224 433.214 63.3172V73.1085H428.946V64.0781C428.953 63.1369 428.712 62.4027 428.225 61.8754C427.737 61.3416 427.066 61.0746 426.211 61.0746C425.637 61.0746 425.129 61.1981 424.689 61.445C424.254 61.6919 423.913 62.0523 423.666 62.5262C423.426 62.9934 423.302 63.5574 423.295 64.2182ZM449.38 62.1157L445.473 62.3561C445.407 62.0223 445.263 61.7219 445.043 61.455C444.821 61.1813 444.531 60.9643 444.171 60.8042C443.817 60.6373 443.392 60.554 442.899 60.554C442.237 60.554 441.68 60.6941 441.226 60.9743C440.772 61.2481 440.545 61.6152 440.545 62.0757C440.545 62.4428 440.691 62.7532 440.985 63.0068C441.279 63.2604 441.783 63.4639 442.498 63.6174L445.283 64.1782C446.779 64.4852 447.893 64.9791 448.628 65.6598C449.363 66.3407 449.731 67.235 449.731 68.343C449.731 69.3508 449.434 70.2351 448.838 70.996C448.252 71.757 447.444 72.351 446.415 72.7781C445.393 73.1986 444.215 73.4089 442.879 73.4089C440.841 73.4089 439.219 72.985 438.01 72.1374C436.808 71.283 436.103 70.1218 435.896 68.6534L440.093 68.433C440.22 69.0538 440.528 69.5278 441.016 69.8548C441.502 70.1751 442.127 70.3353 442.889 70.3353C443.636 70.3353 444.237 70.1918 444.692 69.9048C445.153 69.6111 445.386 69.234 445.393 68.7735C445.386 68.3864 445.222 68.0693 444.902 67.8224C444.582 67.5688 444.088 67.3752 443.419 67.2417L440.755 66.711C439.253 66.4108 438.133 65.8902 437.399 65.1493C436.671 64.4084 436.306 63.4639 436.306 62.316C436.306 61.3282 436.574 60.4772 437.109 59.763C437.649 59.0488 438.408 58.4982 439.382 58.1111C440.364 57.724 441.512 57.5305 442.828 57.5305C444.772 57.5305 446.301 57.9409 447.417 58.7618C448.538 59.5828 449.193 60.7007 449.38 62.1157Z" fill="#274765"/>
</g>
<path d="M527.137 31.5242H167.453C152.262 31.5242 139.947 43.8309 139.947 59.0121V66.0603C139.947 81.2415 152.262 93.5483 167.453 93.5483H527.137C542.328 93.5483 554.642 81.2415 554.642 66.0603V59.0121C554.642 43.8309 542.328 31.5242 527.137 31.5242Z" stroke="#E7E7EA"/>
</g>
<defs>
<filter id="filter0_d_159_258" x="0.705261" y="0.861328" width="694.589" height="574.434" filterUnits="userSpaceOnUse" color-interpolation-filters="sRGB">
<feFlood flood-opacity="0" result="BackgroundImageFix"/>
<feColorMatrix in="SourceAlpha" type="matrix" values="0 0 0 0 0 0 0 0 0 0 0 0 0 0 0 0 0 0 127 0" result="hardAlpha"/>
<feOffset/>
<feGaussianBlur stdDeviation="40"/>
<feComposite in2="hardAlpha" operator="out"/>
<feColorMatrix type="matrix" values="0 0 0 0 0.603922 0 0 0 0 0.784314 0 0 0 0 0.921569 0 0 0 1 0"/>
<feBlend mode="normal" in2="BackgroundImageFix" result="effect1_dropShadow_159_258"/>
<feBlend mode="normal" in="SourceGraphic" in2="effect1_dropShadow_159_258" result="shape"/>
</filter>
<filter id="filter1_d_159_258" x="154.605" y="356.06" width="386.789" height="76.4338" filterUnits="userSpaceOnUse" color-interpolation-filters="sRGB">
<feFlood flood-opacity="0" result="BackgroundImageFix"/>
<feColorMatrix in="SourceAlpha" type="matrix" values="0 0 0 0 0 0 0 0 0 0 0 0 0 0 0 0 0 0 127 0" result="hardAlpha"/>
<feOffset dy="4"/>
<feGaussianBlur stdDeviation="2"/>
<feComposite in2="hardAlpha" operator="out"/>
<feColorMatrix type="matrix" values="0 0 0 0 0 0 0 0 0 0 0 0 0 0 0 0 0 0 0.25 0"/>
<feBlend mode="normal" in2="BackgroundImageFix" result="effect1_dropShadow_159_258"/>
<feBlend mode="normal" in="SourceGraphic" in2="effect1_dropShadow_159_258" result="shape"/>
</filter>
<filter id="filter2_d_159_258" x="111.263" y="115.398" width="208.295" height="37.6023" filterUnits="userSpaceOnUse" color-interpolation-filters="sRGB">
<feFlood flood-opacity="0" result="BackgroundImageFix"/>
<feColorMatrix in="SourceAlpha" type="matrix" values="0 0 0 0 0 0 0 0 0 0 0 0 0 0 0 0 0 0 127 0" result="hardAlpha"/>
<feOffset dy="4"/>
<feGaussianBlur stdDeviation="2"/>
<feComposite in2="hardAlpha" operator="out"/>
<feColorMatrix type="matrix" values="0 0 0 0 0 0 0 0 0 0 0 0 0 0 0 0 0 0 0.25 0"/>
<feBlend mode="normal" in2="BackgroundImageFix" result="effect1_dropShadow_159_258"/>
<feBlend mode="normal" in="SourceGraphic" in2="effect1_dropShadow_159_258" result="shape"/>
</filter>
<filter id="filter3_d_159_258" x="134.242" y="28.8193" width="426.105" height="73.4338" filterUnits="userSpaceOnUse" color-interpolation-filters="sRGB">
<feFlood flood-opacity="0" result="BackgroundImageFix"/>
<feColorMatrix in="SourceAlpha" type="matrix" values="0 0 0 0 0 0 0 0 0 0 0 0 0 0 0 0 0 0 127 0" result="hardAlpha"/>
<feOffset dy="3"/>
<feGaussianBlur stdDeviation="2.5"/>
<feComposite in2="hardAlpha" operator="out"/>
<feColorMatrix type="matrix" values="0 0 0 0 0.804769 0 0 0 0 0.804769 0 0 0 0 0.804769 0 0 0 0.25 0"/>
<feBlend mode="normal" in2="BackgroundImageFix" result="effect1_dropShadow_159_258"/>
<feBlend mode="normal" in="SourceGraphic" in2="effect1_dropShadow_159_258" result="shape"/>
</filter>
</defs>
</svg>
