<svg width="657" height="576" viewBox="0 0 657 576" fill="none" xmlns="http://www.w3.org/2000/svg">
<g filter="url(#filter0_d_162_155)">
<path d="M108 80.5449H549C564.078 80.5449 576.3 92.7779 576.3 107.868V467.976C576.3 483.067 564.078 495.299 549 495.299H108C92.9226 495.299 80.7 483.067 80.7 467.976V107.868C80.7 92.7779 92.9226 80.5449 108 80.5449Z" fill="white"/>
</g>
<path d="M108 80.5449H549C564.078 80.5449 576.3 92.7779 576.3 107.868V467.976C576.3 483.067 564.078 495.299 549 495.299H108C92.9226 495.299 80.7 483.067 80.7 467.976V107.868C80.7 92.7779 92.9226 80.5449 108 80.5449Z" stroke="#E5E5E5"/>
<path d="M518.2 145.701H136C120.536 145.701 108 158.247 108 173.725V432.946C108 448.423 120.536 460.97 136 460.97H518.2C533.664 460.97 546.2 448.423 546.2 432.946V173.725C546.2 158.247 533.664 145.701 518.2 145.701Z" stroke="#6B7280" stroke-width="2" stroke-miterlimit="16" stroke-linecap="round" stroke-dasharray="12 12"/>
<g filter="url(#filter1_d_162_155)">
<path d="M504.2 173.725H150C134.536 173.725 122 186.271 122 201.749V229.773C122 245.25 134.536 257.796 150 257.796H504.2C519.664 257.796 532.2 245.25 532.2 229.773V201.749C532.2 186.271 519.664 173.725 504.2 173.725Z" fill="#F9FAFB"/>
<path d="M504.2 177.228H150C136.469 177.228 125.5 188.206 125.5 201.748V229.772C125.5 243.315 136.469 254.293 150 254.293H504.2C517.731 254.293 528.7 243.315 528.7 229.772V201.748C528.7 188.206 517.731 177.228 504.2 177.228Z" stroke="#D1D5DB" stroke-width="5"/>
<path d="M254.402 224.168V209.901H264.134V212.702H257.848V215.628H263.513V218.434H257.848V224.168H254.402ZM268.709 224.349C268.027 224.349 267.422 224.235 266.893 224.008C266.368 223.776 265.954 223.427 265.647 222.963C265.346 222.493 265.195 221.906 265.195 221.2C265.195 220.606 265.298 220.104 265.508 219.695C265.717 219.288 266.004 218.955 266.371 218.699C266.738 218.444 267.159 218.251 267.638 218.122C268.115 217.987 268.626 217.896 269.169 217.85C269.777 217.794 270.266 217.736 270.638 217.675C271.009 217.61 271.278 217.519 271.444 217.404C271.617 217.282 271.702 217.113 271.702 216.896V216.861C271.702 216.503 271.579 216.226 271.334 216.031C271.087 215.836 270.756 215.738 270.338 215.738C269.888 215.738 269.526 215.836 269.252 216.031C268.979 216.226 268.804 216.496 268.73 216.84L265.591 216.728C265.683 216.077 265.923 215.497 266.308 214.986C266.698 214.472 267.232 214.067 267.909 213.774C268.591 213.477 269.41 213.328 270.366 213.328C271.048 213.328 271.677 213.409 272.252 213.572C272.828 213.73 273.329 213.963 273.756 214.268C274.183 214.571 274.512 214.942 274.744 215.384C274.981 215.825 275.098 216.328 275.098 216.896V224.168H271.897V222.677H271.814C271.624 223.04 271.38 223.345 271.083 223.596C270.791 223.847 270.445 224.036 270.046 224.161C269.651 224.287 269.206 224.349 268.709 224.349ZM269.76 222.119C270.127 222.119 270.456 222.045 270.749 221.897C271.045 221.748 271.282 221.543 271.458 221.284C271.635 221.019 271.723 220.713 271.723 220.365V219.348C271.626 219.398 271.507 219.444 271.369 219.486C271.233 219.529 271.085 219.568 270.922 219.606C270.76 219.642 270.593 219.674 270.421 219.702C270.25 219.73 270.085 219.756 269.927 219.779C269.608 219.83 269.333 219.91 269.106 220.016C268.884 220.123 268.712 220.263 268.591 220.434C268.475 220.602 268.418 220.801 268.418 221.033C268.418 221.387 268.542 221.656 268.793 221.84C269.048 222.027 269.371 222.119 269.76 222.119ZM286.514 216.735L283.389 216.819C283.356 216.596 283.267 216.398 283.125 216.226C282.98 216.049 282.793 215.913 282.56 215.815C282.332 215.713 282.069 215.663 281.767 215.663C281.372 215.663 281.036 215.741 280.757 215.899C280.484 216.056 280.35 216.271 280.354 216.54C280.35 216.749 280.432 216.931 280.605 217.083C280.781 217.236 281.095 217.359 281.544 217.452L283.605 217.843C284.672 218.047 285.465 218.387 285.985 218.86C286.508 219.334 286.773 219.96 286.779 220.741C286.773 221.475 286.556 222.112 286.123 222.656C285.696 223.2 285.113 223.623 284.371 223.924C283.627 224.221 282.779 224.37 281.823 224.37C280.295 224.37 279.091 224.056 278.211 223.429C277.333 222.798 276.832 221.953 276.707 220.893L280.068 220.811C280.143 221.2 280.336 221.497 280.647 221.702C280.957 221.906 281.354 222.009 281.837 222.009C282.272 222.009 282.628 221.927 282.902 221.765C283.175 221.602 283.314 221.387 283.319 221.116C283.314 220.875 283.207 220.683 282.999 220.539C282.79 220.39 282.462 220.274 282.017 220.19L280.152 219.835C279.08 219.639 278.282 219.28 277.758 218.755C277.233 218.225 276.973 217.553 276.979 216.735C276.973 216.02 277.163 215.409 277.548 214.903C277.933 214.392 278.482 214.002 279.192 213.733C279.902 213.463 280.739 213.328 281.704 213.328C283.151 213.328 284.294 213.632 285.128 214.24C285.964 214.844 286.426 215.677 286.514 216.735ZM294.488 213.468V215.975H287.743V213.468H294.488ZM289.157 210.904H292.561V220.804C292.561 221.012 292.593 221.182 292.657 221.312C292.727 221.437 292.827 221.528 292.957 221.584C293.087 221.635 293.242 221.66 293.423 221.66C293.553 221.66 293.69 221.649 293.835 221.625C293.983 221.597 294.094 221.574 294.168 221.556L294.683 224.015C294.521 224.061 294.291 224.119 293.994 224.189C293.702 224.259 293.352 224.302 292.943 224.321C292.145 224.358 291.46 224.266 290.89 224.043C290.323 223.815 289.889 223.462 289.588 222.984C289.292 222.505 289.147 221.904 289.157 221.179V210.904Z" fill="#6B7280"/>
<path d="M237.767 211.773L236.311 214.149C237.014 215.67 237.357 217.354 237.312 219.054C237.266 220.752 236.834 222.412 236.051 223.886H219.636C218.619 221.972 218.197 219.754 218.434 217.56C218.671 215.366 219.553 213.313 220.949 211.706C222.346 210.098 224.185 209.022 226.189 208.637C228.196 208.25 230.262 208.575 232.083 209.565L234.274 207.984C232.044 206.433 229.398 205.738 226.759 206.01C224.122 206.282 221.644 207.506 219.723 209.486C217.802 211.466 216.549 214.086 216.164 216.931C215.779 219.774 216.284 222.674 217.599 225.17C217.805 225.558 218.102 225.882 218.46 226.106C218.817 226.331 219.222 226.452 219.636 226.455H236.038C236.456 226.456 236.867 226.338 237.228 226.113C237.591 225.887 237.891 225.562 238.099 225.17C239.191 223.12 239.739 220.783 239.683 218.416C239.625 216.051 238.967 213.747 237.78 211.76L237.767 211.773ZM226.174 220.558C226.394 220.798 226.654 220.987 226.943 221.116C227.23 221.246 227.538 221.312 227.85 221.312C228.161 221.312 228.469 221.246 228.756 221.116C229.044 220.987 229.304 220.798 229.526 220.558L236.229 209.654L226.174 216.924C225.953 217.162 225.778 217.446 225.659 217.757C225.54 218.07 225.478 218.403 225.478 218.741C225.478 219.079 225.54 219.414 225.659 219.725C225.778 220.037 225.953 220.32 226.174 220.558Z" fill="#6B7280"/>
<path d="M525.476 214.569C525.476 202.6 525.476 196.614 523.111 192.059C521.119 188.221 517.993 185.091 514.157 183.097C509.605 180.73 503.626 180.73 491.666 180.73H431.331V250.79H491.666C503.626 250.79 509.605 250.79 514.157 248.424C517.993 246.43 521.119 243.3 523.111 239.462C525.476 234.906 525.476 228.92 525.476 216.951V214.569Z" fill="#5D5BE2"/>
</g>
<g filter="url(#filter2_d_162_155)">
<path d="M174.5 159.712H143.7C135.581 159.712 129 166.299 129 174.425C129 182.551 135.581 189.138 143.7 189.138H174.5C182.619 189.138 189.2 182.551 189.2 174.425C189.2 166.299 182.619 159.712 174.5 159.712Z" fill="#6B7280"/>
<path d="M139.725 180.73V168.502H144.82C145.734 168.502 146.5 168.631 147.116 168.89C147.737 169.148 148.202 169.511 148.513 169.976C148.827 170.443 148.984 170.982 148.984 171.594C148.984 172.06 148.886 172.476 148.691 172.843C148.497 173.204 148.228 173.506 147.886 173.744C147.544 173.983 147.148 174.15 146.699 174.245V174.365C147.192 174.388 147.647 174.523 148.065 174.765C148.487 175.008 148.825 175.347 149.079 175.78C149.334 176.21 149.461 176.72 149.461 177.308C149.461 177.966 149.294 178.553 148.96 179.07C148.626 179.584 148.143 179.99 147.51 180.289C146.878 180.583 146.11 180.73 145.207 180.73H139.725ZM142.678 178.348H144.503C145.144 178.348 145.615 178.226 145.917 177.984C146.224 177.74 146.377 177.402 146.377 176.968C146.377 176.654 146.303 176.384 146.156 176.157C146.009 175.925 145.8 175.749 145.53 175.626C145.259 175.498 144.935 175.434 144.557 175.434H142.678V178.348ZM142.678 173.529H144.313C144.635 173.529 144.921 173.475 145.172 173.368C145.422 173.26 145.617 173.105 145.756 172.902C145.899 172.699 145.971 172.455 145.971 172.167C145.971 171.758 145.826 171.435 145.536 171.201C145.245 170.965 144.853 170.848 144.36 170.848H142.678V173.529ZM153.464 180.886C152.88 180.886 152.361 180.788 151.907 180.593C151.458 180.394 151.102 180.095 150.839 179.698C150.581 179.295 150.451 178.791 150.451 178.187C150.451 177.677 150.541 177.247 150.72 176.897C150.899 176.546 151.146 176.262 151.46 176.043C151.774 175.825 152.136 175.659 152.546 175.547C152.955 175.432 153.393 175.354 153.858 175.315C154.379 175.267 154.799 175.216 155.117 175.165C155.435 175.11 155.666 175.032 155.809 174.932C155.956 174.828 156.03 174.684 156.03 174.496V174.467C156.03 174.16 155.924 173.923 155.713 173.756C155.503 173.588 155.218 173.506 154.86 173.506C154.474 173.506 154.164 173.588 153.93 173.756C153.695 173.923 153.546 174.154 153.482 174.449L150.791 174.353C150.871 173.796 151.076 173.298 151.406 172.861C151.74 172.418 152.197 172.072 152.778 171.821C153.363 171.566 154.065 171.439 154.884 171.439C155.469 171.439 156.008 171.509 156.501 171.648C156.994 171.784 157.424 171.983 157.789 172.246C158.155 172.504 158.438 172.823 158.637 173.2C158.839 173.578 158.941 174.011 158.941 174.496V180.73H156.197V179.452H156.125C155.962 179.763 155.753 180.025 155.499 180.241C155.248 180.456 154.952 180.617 154.61 180.725C154.272 180.831 153.89 180.886 153.464 180.886ZM154.365 178.975C154.679 178.975 154.962 178.911 155.212 178.784C155.467 178.656 155.67 178.481 155.821 178.258C155.972 178.031 156.047 177.768 156.047 177.47V176.598C155.964 176.642 155.863 176.682 155.743 176.717C155.628 176.754 155.501 176.787 155.361 176.819C155.222 176.852 155.079 176.878 154.932 176.902C154.785 176.927 154.644 176.948 154.508 176.968C154.234 177.013 153.999 177.08 153.804 177.171C153.613 177.264 153.466 177.383 153.363 177.53C153.263 177.673 153.214 177.844 153.214 178.043C153.214 178.345 153.321 178.577 153.536 178.736C153.755 178.895 154.031 178.975 154.365 178.975ZM168.725 174.359L166.046 174.43C166.019 174.24 165.943 174.07 165.82 173.923C165.696 173.772 165.535 173.654 165.336 173.571C165.141 173.483 164.915 173.44 164.656 173.44C164.318 173.44 164.03 173.507 163.791 173.643C163.557 173.777 163.441 173.961 163.445 174.192C163.441 174.372 163.513 174.526 163.66 174.657C163.811 174.789 164.08 174.894 164.465 174.974L166.231 175.309C167.146 175.484 167.826 175.774 168.272 176.181C168.721 176.587 168.948 177.124 168.952 177.792C168.948 178.421 168.761 178.969 168.391 179.434C168.025 179.901 167.524 180.262 166.888 180.521C166.251 180.776 165.523 180.904 164.704 180.904C163.396 180.904 162.363 180.635 161.608 180.097C160.856 179.556 160.426 178.832 160.319 177.924L163.201 177.852C163.264 178.187 163.429 178.441 163.696 178.616C163.962 178.791 164.302 178.879 164.716 178.879C165.09 178.879 165.394 178.809 165.629 178.67C165.863 178.53 165.983 178.345 165.987 178.116C165.983 177.908 165.891 177.743 165.712 177.62C165.533 177.492 165.253 177.393 164.871 177.321L163.272 177.016C162.353 176.849 161.669 176.541 161.22 176.091C160.771 175.637 160.548 175.06 160.552 174.359C160.548 173.747 160.711 173.223 161.041 172.788C161.371 172.351 161.84 172.016 162.449 171.785C163.057 171.555 163.775 171.439 164.603 171.439C165.844 171.439 166.822 171.699 167.538 172.222C168.254 172.739 168.649 173.451 168.725 174.359ZM178.388 174.359L175.71 174.43C175.682 174.24 175.606 174.07 175.483 173.923C175.36 173.772 175.198 173.654 175 173.571C174.805 173.483 174.578 173.44 174.32 173.44C173.981 173.44 173.693 173.507 173.455 173.643C173.22 173.777 173.105 173.961 173.108 174.192C173.105 174.372 173.176 174.526 173.323 174.657C173.474 174.789 173.743 174.894 174.129 174.974L175.895 175.309C176.809 175.484 177.489 175.774 177.935 176.181C178.384 176.587 178.611 177.124 178.615 177.792C178.611 178.421 178.424 178.969 178.054 179.434C177.688 179.901 177.187 180.262 176.551 180.521C175.914 180.776 175.187 180.904 174.367 180.904C173.059 180.904 172.027 180.635 171.271 180.097C170.519 179.556 170.09 178.832 169.982 177.924L172.864 177.852C172.928 178.187 173.093 178.441 173.359 178.616C173.626 178.791 173.966 178.879 174.379 178.879C174.753 178.879 175.057 178.809 175.292 178.67C175.527 178.53 175.646 178.345 175.65 178.116C175.646 177.908 175.555 177.743 175.376 177.62C175.197 177.492 174.916 177.393 174.534 177.321L172.936 177.016C172.017 176.849 171.333 176.541 170.883 176.091C170.434 175.637 170.211 175.06 170.215 174.359C170.211 173.747 170.374 173.223 170.704 172.788C171.034 172.351 171.504 172.016 172.112 171.785C172.721 171.555 173.439 171.439 174.266 171.439C175.507 171.439 176.485 171.699 177.201 172.222C177.917 172.739 178.313 173.451 178.388 174.359Z" fill="#F9FAFB"/>
</g>
<g filter="url(#filter3_d_162_155)">
<path d="M504.2 285.82H150C134.536 285.82 122 298.367 122 313.844V418.934C122 434.411 134.536 446.958 150 446.958H504.2C519.664 446.958 532.2 434.411 532.2 418.934V313.844C532.2 298.367 519.664 285.82 504.2 285.82Z" fill="white"/>
<path d="M504.2 289.323H150C136.469 289.323 125.5 300.302 125.5 313.844V418.934C125.5 432.477 136.469 443.455 150 443.455H504.2C517.731 443.455 528.7 432.477 528.7 418.934V313.844C528.7 300.302 517.731 289.323 504.2 289.323Z" stroke="#9AC8EB" stroke-width="5"/>
<path d="M251.602 336.264V321.997H261.334V324.798H255.048V327.723H260.713V330.53H255.048V336.264H251.602ZM265.909 336.444C265.227 336.444 264.622 336.331 264.093 336.104C263.568 335.871 263.154 335.522 262.847 335.059C262.546 334.589 262.395 334.002 262.395 333.296C262.395 332.702 262.498 332.2 262.708 331.791C262.917 331.383 263.204 331.051 263.571 330.795C263.938 330.54 264.359 330.346 264.838 330.217C265.315 330.083 265.826 329.992 266.369 329.946C266.977 329.89 267.466 329.832 267.838 329.77C268.209 329.706 268.478 329.615 268.644 329.5C268.817 329.378 268.902 329.209 268.902 328.991V328.956C268.902 328.599 268.779 328.322 268.534 328.127C268.287 327.932 267.956 327.834 267.538 327.834C267.088 327.834 266.726 327.932 266.452 328.127C266.179 328.322 266.004 328.592 265.93 328.935L262.791 328.823C262.883 328.173 263.123 327.593 263.508 327.082C263.898 326.567 264.432 326.162 265.109 325.87C265.791 325.572 266.61 325.424 267.566 325.424C268.248 325.424 268.877 325.505 269.452 325.668C270.028 325.826 270.529 326.059 270.956 326.364C271.383 326.667 271.712 327.038 271.944 327.479C272.181 327.921 272.298 328.424 272.298 328.991V336.264H269.097V334.773H269.014C268.824 335.136 268.58 335.441 268.283 335.692C267.991 335.943 267.645 336.132 267.246 336.257C266.851 336.383 266.406 336.444 265.909 336.444ZM266.96 334.215C267.327 334.215 267.656 334.141 267.949 333.992C268.245 333.844 268.482 333.639 268.658 333.38C268.835 333.115 268.923 332.808 268.923 332.461V331.443C268.826 331.494 268.707 331.54 268.569 331.582C268.433 331.624 268.285 331.663 268.122 331.701C267.96 331.738 267.793 331.77 267.621 331.798C267.45 331.826 267.285 331.851 267.127 331.875C266.808 331.925 266.533 332.005 266.306 332.112C266.084 332.218 265.912 332.358 265.791 332.529C265.675 332.698 265.618 332.897 265.618 333.129C265.618 333.482 265.742 333.751 265.993 333.936C266.248 334.123 266.571 334.215 266.96 334.215ZM283.714 328.83L280.589 328.914C280.556 328.692 280.467 328.494 280.325 328.322C280.18 328.145 279.993 328.009 279.76 327.911C279.532 327.809 279.269 327.758 278.967 327.758C278.572 327.758 278.236 327.837 277.957 327.995C277.684 328.152 277.55 328.366 277.554 328.635C277.55 328.844 277.632 329.026 277.805 329.179C277.981 329.332 278.295 329.455 278.744 329.548L280.805 329.939C281.872 330.143 282.665 330.482 283.185 330.956C283.708 331.429 283.973 332.056 283.979 332.836C283.973 333.57 283.756 334.208 283.323 334.752C282.896 335.295 282.313 335.719 281.571 336.02C280.827 336.317 279.979 336.465 279.023 336.465C277.495 336.465 276.291 336.151 275.411 335.525C274.533 334.893 274.032 334.048 273.907 332.989L277.268 332.906C277.343 333.296 277.536 333.593 277.847 333.797C278.157 334.002 278.554 334.104 279.037 334.104C279.472 334.104 279.828 334.023 280.102 333.861C280.375 333.698 280.514 333.482 280.519 333.212C280.514 332.971 280.407 332.779 280.199 332.634C279.99 332.486 279.662 332.37 279.217 332.286L277.352 331.931C276.28 331.735 275.482 331.376 274.958 330.851C274.433 330.321 274.173 329.649 274.179 328.83C274.173 328.116 274.363 327.505 274.748 326.999C275.133 326.487 275.682 326.098 276.392 325.829C277.102 325.558 277.939 325.424 278.904 325.424C280.351 325.424 281.494 325.728 282.328 326.336C283.164 326.94 283.626 327.772 283.714 328.83ZM291.688 325.564V328.071H284.943V325.564H291.688ZM286.357 323H289.761V332.899C289.761 333.108 289.793 333.278 289.857 333.408C289.927 333.533 290.027 333.624 290.157 333.68C290.287 333.73 290.442 333.755 290.623 333.755C290.753 333.755 290.89 333.744 291.035 333.72C291.183 333.692 291.294 333.67 291.368 333.652L291.883 336.111C291.721 336.157 291.491 336.215 291.194 336.285C290.902 336.355 290.552 336.398 290.143 336.416C289.345 336.454 288.66 336.362 288.09 336.139C287.523 335.91 287.089 335.557 286.788 335.08C286.492 334.6 286.347 333.999 286.357 333.275V323Z" fill="#3D77A2"/>
<path d="M237.767 323.869L236.311 326.245C237.014 327.765 237.357 329.45 237.312 331.149C237.266 332.847 236.834 334.508 236.051 335.982H219.636C218.619 334.068 218.197 331.85 218.434 329.656C218.671 327.461 219.553 325.409 220.949 323.801C222.346 322.194 224.185 321.118 226.189 320.733C228.196 320.346 230.262 320.671 232.083 321.66L234.274 320.08C232.044 318.529 229.398 317.834 226.759 318.105C224.122 318.377 221.644 319.602 219.723 321.582C217.802 323.562 216.549 326.182 216.164 329.026C215.779 331.869 216.284 334.77 217.599 337.265C217.805 337.654 218.102 337.977 218.46 338.201C218.817 338.427 219.222 338.548 219.636 338.55H236.038C236.456 338.552 236.867 338.434 237.228 338.208C237.591 337.983 237.891 337.658 238.099 337.265C239.191 335.216 239.739 332.878 239.683 330.512C239.625 328.146 238.967 325.843 237.78 323.856L237.767 323.869ZM226.174 332.654C226.394 332.894 226.654 333.083 226.943 333.212C227.23 333.342 227.538 333.408 227.85 333.408C228.161 333.408 228.469 333.342 228.756 333.212C229.044 333.083 229.304 332.894 229.526 332.654L236.229 321.75L226.174 329.019C225.953 329.258 225.778 329.542 225.659 329.853C225.54 330.166 225.478 330.499 225.478 330.837C225.478 331.174 225.54 331.509 225.659 331.82C225.778 332.133 225.953 332.416 226.174 332.654Z" fill="#3D77A2"/>
<path d="M525.476 326.665C525.476 314.696 525.476 308.71 523.111 304.155C521.119 300.317 517.993 297.187 514.157 295.193C509.605 292.826 503.626 292.826 491.666 292.826H431.331V362.886H525.476V326.665Z" fill="#E27A5B"/>
<path d="M525.2 362.886H129V369.892H525.2V362.886Z" fill="#9AC8EB"/>
<path d="M251.602 413.329V399.062H255.048V410.528H260.978V413.329H251.602ZM262.762 413.329V402.63H266.165V413.329H262.762ZM264.467 401.382C263.989 401.382 263.578 401.224 263.235 400.909C262.892 400.588 262.72 400.203 262.72 399.751C262.72 399.306 262.892 398.925 263.235 398.609C263.578 398.289 263.989 398.129 264.467 398.129C264.95 398.129 265.36 398.289 265.699 398.609C266.042 398.925 266.214 399.306 266.214 399.751C266.214 400.203 266.042 400.588 265.699 400.909C265.36 401.224 264.95 401.382 264.467 401.382ZM273.315 417.565C272.298 417.565 271.429 417.423 270.705 417.139C269.981 416.856 269.413 416.469 269 415.976C268.587 415.484 268.339 414.926 268.255 414.304L271.478 414.124C271.538 414.342 271.649 414.531 271.811 414.694C271.979 414.856 272.195 414.983 272.459 415.071C272.728 415.159 273.043 415.202 273.406 415.202C273.977 415.202 274.447 415.064 274.818 414.785C275.195 414.512 275.383 414.03 275.383 413.343V411.463H275.264C275.129 411.792 274.925 412.086 274.652 412.347C274.377 412.607 274.037 412.811 273.628 412.961C273.225 413.109 272.76 413.183 272.237 413.183C271.457 413.183 270.742 413.001 270.092 412.64C269.448 412.273 268.93 411.707 268.541 410.94C268.156 410.169 267.963 409.177 267.963 407.965C267.963 406.715 268.163 405.687 268.562 404.878C268.961 404.066 269.483 403.465 270.127 403.075C270.777 402.684 271.475 402.489 272.223 402.489C272.784 402.489 273.264 402.587 273.663 402.782C274.067 402.973 274.398 403.219 274.659 403.521C274.918 403.822 275.115 404.136 275.25 404.461H275.348V402.63H278.737V413.371C278.737 414.276 278.51 415.04 278.055 415.662C277.6 416.286 276.965 416.756 276.148 417.077C275.331 417.402 274.387 417.565 273.315 417.565ZM273.42 410.703C273.833 410.703 274.186 410.594 274.477 410.375C274.769 410.157 274.995 409.844 275.153 409.435C275.31 409.026 275.39 408.537 275.39 407.965C275.39 407.385 275.31 406.885 275.153 406.467C274.999 406.044 274.775 405.719 274.477 405.492C274.186 405.265 273.833 405.15 273.42 405.15C272.997 405.15 272.64 405.267 272.347 405.499C272.055 405.732 271.832 406.058 271.68 406.481C271.531 406.899 271.457 407.394 271.457 407.965C271.457 408.537 271.533 409.026 271.687 409.435C271.839 409.844 272.06 410.157 272.347 410.375C272.64 410.594 272.997 410.703 273.42 410.703ZM284.31 407.227V413.329H280.907V399.062H284.2V404.594H284.317C284.558 403.934 284.953 403.418 285.5 403.047C286.053 402.676 286.728 402.489 287.526 402.489C288.278 402.489 288.932 402.658 289.489 402.991C290.046 403.32 290.477 403.788 290.784 404.391C291.095 404.995 291.247 405.701 291.243 406.509V413.329H287.84V407.178C287.844 406.584 287.696 406.119 287.393 405.785C287.092 405.45 286.668 405.283 286.121 405.283C285.762 405.283 285.447 405.362 285.174 405.52C284.904 405.673 284.694 405.894 284.54 406.182C284.392 406.47 284.315 406.818 284.31 407.227ZM299.402 402.63V405.136H292.657V402.63H299.402ZM294.07 400.065H297.475V409.965C297.475 410.174 297.507 410.343 297.571 410.473C297.641 410.598 297.741 410.689 297.871 410.745C298.001 410.796 298.156 410.821 298.337 410.821C298.467 410.821 298.604 410.81 298.747 410.786C298.896 410.758 299.008 410.735 299.082 410.717L299.597 413.176C299.435 413.223 299.205 413.28 298.908 413.35C298.616 413.42 298.266 413.464 297.857 413.482C297.059 413.52 296.374 413.427 295.803 413.204C295.237 412.976 294.803 412.623 294.502 412.145C294.206 411.666 294.061 411.065 294.07 410.34V400.065Z" fill="#3D77A2"/>
<mask id="mask0_162_155" style="mask-type:luminance" maskUnits="userSpaceOnUse" x="209" y="389" width="32" height="32">
<path d="M240.724 389.509H209.924V420.335H240.724V389.509Z" fill="white"/>
</mask>
<g mask="url(#mask0_162_155)">
<path d="M213.774 401.069C213.774 399.16 214.246 397.281 215.148 395.598C216.051 393.917 217.355 392.485 218.945 391.431C220.535 390.377 222.362 389.733 224.26 389.558C226.16 389.381 228.072 389.68 229.829 390.424C231.585 391.169 233.131 392.336 234.325 393.824C235.52 395.312 236.328 397.072 236.678 398.95C237.028 400.826 236.908 402.76 236.328 404.579C235.749 406.397 234.729 408.045 233.359 409.372C232.968 409.75 232.667 410.143 232.487 410.564L231.019 413.974C230.945 414.146 230.822 414.293 230.665 414.397C230.508 414.5 230.324 414.555 230.136 414.555C230.392 414.555 230.636 414.656 230.816 414.837C230.997 415.017 231.099 415.263 231.099 415.518C231.099 415.774 230.997 416.019 230.816 416.2C230.636 416.381 230.392 416.482 230.136 416.482C230.392 416.482 230.636 416.583 230.816 416.763C230.997 416.944 231.099 417.189 231.099 417.444C231.099 417.701 230.997 417.946 230.816 418.127C230.636 418.307 230.392 418.408 230.136 418.408L229.705 419.27C229.545 419.59 229.3 419.859 228.996 420.046C228.691 420.236 228.341 420.335 227.984 420.335H222.663C222.306 420.335 221.956 420.236 221.652 420.046C221.348 419.859 221.102 419.59 220.942 419.27L220.511 418.408C220.256 418.408 220.011 418.307 219.831 418.127C219.65 417.946 219.549 417.701 219.549 417.444C219.549 417.189 219.65 416.944 219.831 416.763C220.011 416.583 220.256 416.482 220.511 416.482C220.256 416.482 220.011 416.381 219.831 416.2C219.65 416.019 219.549 415.774 219.549 415.518C219.549 415.263 219.65 415.017 219.831 414.837C220.011 414.656 220.256 414.555 220.511 414.555C220.323 414.555 220.139 414.5 219.981 414.397C219.824 414.293 219.7 414.146 219.626 413.974L218.161 410.563C217.95 410.113 217.653 409.71 217.289 409.372C216.175 408.296 215.29 407.005 214.686 405.579C214.082 404.153 213.772 402.618 213.774 401.069ZM225.324 391.435C223.406 391.435 221.533 392.007 219.944 393.08C218.354 394.152 217.12 395.675 216.401 397.453C215.681 399.232 215.509 401.185 215.905 403.061C216.302 404.939 217.25 406.654 218.627 407.989C219.133 408.478 219.616 409.075 219.928 409.802L221.147 412.628H229.505L230.721 409.802C231.033 409.075 231.516 408.478 232.023 407.989C233.401 406.654 234.347 404.939 234.745 403.061C235.141 401.183 234.969 399.23 234.248 397.452C233.528 395.674 232.295 394.151 230.704 393.079C229.114 392.007 227.241 391.434 225.324 391.435Z" fill="#3D77A2"/>
</g>
<path d="M525.476 369.892H431.331V439.952H491.666C503.626 439.952 509.605 439.952 514.157 437.585C517.993 435.591 521.119 432.461 523.111 428.623C525.476 424.068 525.476 418.082 525.476 406.113V369.892Z" fill="#E25B5B"/>
</g>
<g filter="url(#filter4_d_162_155)">
<path d="M217.9 271.809H143.7C135.581 271.809 129 278.396 129 286.521C129 294.647 135.581 301.234 143.7 301.234H217.9C226.019 301.234 232.6 294.647 232.6 286.521C232.6 278.396 226.019 271.809 217.9 271.809Z" fill="#3D77A2"/>
<path d="M139.725 292.826V280.598H144.82C145.734 280.598 146.5 280.727 147.116 280.986C147.737 281.244 148.202 281.607 148.513 282.072C148.827 282.539 148.984 283.078 148.984 283.691C148.984 284.156 148.886 284.572 148.691 284.939C148.497 285.301 148.228 285.602 147.886 285.84C147.544 286.08 147.148 286.246 146.699 286.342V286.461C147.192 286.485 147.647 286.619 148.065 286.861C148.487 287.104 148.825 287.443 149.079 287.876C149.334 288.306 149.461 288.816 149.461 289.405C149.461 290.062 149.294 290.649 148.96 291.166C148.626 291.68 148.143 292.087 147.51 292.385C146.878 292.679 146.11 292.826 145.207 292.826H139.725ZM142.678 290.444H144.503C145.144 290.444 145.615 290.322 145.917 290.08C146.224 289.836 146.377 289.499 146.377 289.064C146.377 288.75 146.303 288.48 146.156 288.253C146.009 288.022 145.8 287.845 145.53 287.722C145.259 287.594 144.935 287.53 144.557 287.53H142.678V290.444ZM142.678 285.626H144.313C144.635 285.626 144.921 285.571 145.172 285.465C145.422 285.357 145.617 285.201 145.756 284.998C145.899 284.795 145.971 284.551 145.971 284.264C145.971 283.855 145.826 283.531 145.536 283.297C145.245 283.061 144.853 282.944 144.36 282.944H142.678V285.626ZM153.464 292.982C152.88 292.982 152.361 292.884 151.907 292.689C151.458 292.49 151.102 292.192 150.839 291.794C150.581 291.392 150.451 290.887 150.451 290.283C150.451 289.773 150.541 289.343 150.72 288.993C150.899 288.642 151.146 288.358 151.46 288.139C151.774 287.921 152.136 287.755 152.546 287.643C152.955 287.528 153.393 287.45 153.858 287.411C154.379 287.363 154.799 287.313 155.117 287.261C155.435 287.206 155.666 287.128 155.809 287.028C155.956 286.925 156.03 286.78 156.03 286.592V286.563C156.03 286.256 155.924 286.019 155.713 285.853C155.503 285.684 155.218 285.602 154.86 285.602C154.474 285.602 154.164 285.684 153.93 285.853C153.695 286.019 153.546 286.251 153.482 286.545L150.791 286.45C150.871 285.892 151.076 285.394 151.406 284.957C151.74 284.515 152.197 284.168 152.778 283.918C153.363 283.663 154.065 283.535 154.884 283.535C155.469 283.535 156.008 283.605 156.501 283.744C156.994 283.88 157.424 284.079 157.789 284.342C158.155 284.6 158.438 284.919 158.637 285.296C158.839 285.675 158.941 286.108 158.941 286.592V292.826H156.197V291.549H156.125C155.962 291.86 155.753 292.122 155.499 292.337C155.248 292.552 154.952 292.713 154.61 292.821C154.272 292.927 153.89 292.982 153.464 292.982ZM154.365 291.071C154.679 291.071 154.962 291.008 155.212 290.88C155.467 290.753 155.67 290.577 155.821 290.355C155.972 290.128 156.047 289.864 156.047 289.566V288.694C155.964 288.738 155.863 288.778 155.743 288.813C155.628 288.85 155.501 288.883 155.361 288.916C155.222 288.948 155.079 288.975 154.932 288.998C154.785 289.024 154.644 289.045 154.508 289.064C154.234 289.109 153.999 289.176 153.804 289.267C153.613 289.36 153.466 289.479 153.363 289.626C153.263 289.769 153.214 289.94 153.214 290.139C153.214 290.442 153.321 290.673 153.536 290.832C153.755 290.991 154.031 291.071 154.365 291.071ZM168.725 286.455L166.046 286.527C166.019 286.336 165.943 286.167 165.82 286.019C165.696 285.868 165.535 285.75 165.336 285.668C165.141 285.579 164.915 285.536 164.656 285.536C164.318 285.536 164.03 285.603 163.791 285.739C163.557 285.874 163.441 286.057 163.445 286.288C163.441 286.468 163.513 286.622 163.66 286.754C163.811 286.885 164.08 286.99 164.465 287.07L166.231 287.405C167.146 287.58 167.826 287.87 168.272 288.277C168.721 288.683 168.948 289.22 168.952 289.888C168.948 290.517 168.761 291.065 168.391 291.53C168.025 291.997 167.524 292.358 166.888 292.618C166.251 292.873 165.523 293 164.704 293C163.396 293 162.363 292.731 161.608 292.193C160.856 291.652 160.426 290.928 160.319 290.02L163.201 289.948C163.264 290.283 163.429 290.537 163.696 290.712C163.962 290.887 164.302 290.975 164.716 290.975C165.09 290.975 165.394 290.905 165.629 290.767C165.863 290.627 165.983 290.442 165.987 290.212C165.983 290.004 165.891 289.839 165.712 289.716C165.533 289.588 165.253 289.489 164.871 289.417L163.272 289.112C162.353 288.945 161.669 288.637 161.22 288.187C160.771 287.733 160.548 287.156 160.552 286.455C160.548 285.843 160.711 285.319 161.041 284.884C161.371 284.447 161.84 284.112 162.449 283.881C163.057 283.651 163.775 283.535 164.603 283.535C165.844 283.535 166.822 283.796 167.538 284.318C168.254 284.835 168.649 285.547 168.725 286.455ZM178.388 286.455L175.71 286.527C175.682 286.336 175.606 286.167 175.483 286.019C175.36 285.868 175.198 285.75 175 285.668C174.805 285.579 174.578 285.536 174.32 285.536C173.981 285.536 173.693 285.603 173.455 285.739C173.22 285.874 173.105 286.057 173.108 286.288C173.105 286.468 173.176 286.622 173.323 286.754C173.474 286.885 173.743 286.99 174.129 287.07L175.895 287.405C176.809 287.58 177.489 287.87 177.935 288.277C178.384 288.683 178.611 289.22 178.615 289.888C178.611 290.517 178.424 291.065 178.054 291.53C177.688 291.997 177.187 292.358 176.551 292.618C175.914 292.873 175.187 293 174.367 293C173.059 293 172.027 292.731 171.271 292.193C170.519 291.652 170.09 290.928 169.982 290.02L172.864 289.948C172.928 290.283 173.093 290.537 173.359 290.712C173.626 290.887 173.966 290.975 174.379 290.975C174.753 290.975 175.057 290.905 175.292 290.767C175.527 290.627 175.646 290.442 175.65 290.212C175.646 290.004 175.555 289.839 175.376 289.716C175.197 289.588 174.916 289.489 174.534 289.417L172.936 289.112C172.017 288.945 171.333 288.637 170.883 288.187C170.434 287.733 170.211 287.156 170.215 286.455C170.211 285.843 170.374 285.319 170.704 284.884C171.034 284.447 171.504 284.112 172.112 283.881C172.721 283.651 173.439 283.535 174.266 283.535C175.507 283.535 176.485 283.796 177.201 284.318C177.917 284.835 178.313 285.547 178.388 286.455ZM186.304 292.826H183.13L187.252 280.598H191.184L195.306 292.826H192.132L189.263 283.679H189.167L186.304 292.826ZM185.88 288.013H192.514V290.259H185.88V288.013ZM196.622 292.826V283.656H199.396V285.338H199.497C199.688 284.782 200.01 284.342 200.464 284.018C200.917 283.696 201.458 283.535 202.086 283.535C202.723 283.535 203.268 283.699 203.721 284.025C204.174 284.352 204.463 284.789 204.586 285.338H204.682C204.853 284.793 205.187 284.358 205.684 284.031C206.181 283.7 206.768 283.535 207.444 283.535C208.311 283.535 209.015 283.814 209.556 284.372C210.097 284.925 210.367 285.684 210.367 286.653V292.826H207.45V287.321C207.45 286.863 207.332 286.515 207.098 286.276C206.863 286.033 206.559 285.911 206.185 285.911C205.783 285.911 205.467 286.043 205.236 286.307C205.01 286.564 204.896 286.913 204.896 287.351V292.826H202.092V287.292C202.092 286.866 201.977 286.529 201.746 286.283C201.516 286.035 201.211 285.911 200.834 285.911C200.579 285.911 200.354 285.973 200.159 286.096C199.964 286.217 199.811 286.388 199.7 286.611C199.593 286.833 199.539 287.097 199.539 287.398V292.826H196.622ZM212.175 296.266V283.656H215.062V285.225H215.152C215.271 284.946 215.44 284.678 215.659 284.419C215.882 284.16 216.164 283.95 216.506 283.786C216.852 283.619 217.266 283.535 217.747 283.535C218.383 283.535 218.978 283.703 219.531 284.037C220.087 284.372 220.538 284.887 220.879 285.584C221.221 286.28 221.392 287.168 221.392 288.247C221.392 289.286 221.226 290.156 220.897 290.856C220.571 291.557 220.129 292.082 219.572 292.433C219.02 292.783 218.405 292.958 217.729 292.958C217.268 292.958 216.868 292.882 216.53 292.731C216.192 292.58 215.907 292.381 215.677 292.134C215.45 291.888 215.275 291.623 215.152 291.34H215.092V296.266H212.175ZM215.032 288.24C215.032 288.735 215.098 289.164 215.229 289.531C215.364 289.896 215.557 290.181 215.808 290.384C216.063 290.583 216.367 290.683 216.721 290.683C217.079 290.683 217.383 290.583 217.634 290.384C217.884 290.181 218.073 289.896 218.2 289.531C218.332 289.164 218.397 288.735 218.397 288.24C218.397 287.747 218.332 287.32 218.2 286.957C218.073 286.595 217.884 286.314 217.634 286.115C217.387 285.916 217.083 285.816 216.721 285.816C216.363 285.816 216.059 285.914 215.808 286.109C215.557 286.304 215.364 286.583 215.229 286.946C215.098 287.307 215.032 287.739 215.032 288.24Z" fill="#E7F3FB"/>
</g>
<g filter="url(#filter5_d_162_155)">
<path d="M442.6 114.874H204.6C193.002 114.874 183.6 124.284 183.6 135.892C183.6 147.5 193.002 156.91 204.6 156.91H442.6C454.198 156.91 463.6 147.5 463.6 135.892C463.6 124.284 454.198 114.874 442.6 114.874Z" fill="#D1D5DB"/>
<path d="M442.6 115.575H204.6C193.389 115.575 184.3 124.671 184.3 135.892C184.3 147.113 193.389 156.209 204.6 156.209H442.6C453.811 156.209 462.9 147.113 462.9 135.892C462.9 124.671 453.811 115.575 442.6 115.575Z" stroke="#F9FAFB"/>
<path d="M293.556 124.682C292.821 124.67 292.218 126.288 292.961 126.592L293.392 126.766L294.252 126.022L294.165 124.894L293.745 124.721C293.692 124.701 293.643 124.688 293.59 124.684H293.556V124.682ZM300.053 125.062H299.943C299.584 125.077 299.202 125.164 298.816 125.338C297.791 125.802 296.709 126.906 295.93 128.974L290.955 142.335L290.951 142.345V142.355C290.994 142.379 291.124 142.446 291.337 142.547C291.812 142.777 292.498 143.3 292.598 144.409V144.433L292.551 147.101H297.221C297.216 146.257 297.288 145.446 297.612 144.63C298.177 143.218 299.512 141.995 302.302 140.934C302.302 140.924 302.302 140.934 302.306 140.915C302.321 140.819 302.326 140.627 302.306 140.387C302.258 139.902 302.113 139.192 301.89 138.361C301.446 136.696 300.692 134.512 299.841 132.367L299.724 132.069L299.976 131.868C301.722 130.514 302.447 129.161 302.578 128.049C302.708 126.942 302.263 126.058 301.547 125.541C301.127 125.238 300.615 125.062 300.053 125.061V125.062ZM295.117 125.909L295.152 126.389L294.784 126.706L295.834 127.134C295.891 127.03 295.954 126.929 296.017 126.831L296.21 126.356L295.117 125.909ZM298.453 126.799C298.879 126.799 299.227 127.143 299.227 127.567C299.227 127.992 298.879 128.335 298.453 128.335C298.028 128.335 297.68 127.992 297.68 127.567C297.68 127.143 298.028 126.799 298.453 126.799ZM291.845 129.185C291.11 129.17 290.496 130.788 291.25 131.095L291.676 131.268L292.535 130.524L292.454 129.391L292.029 129.218C291.975 129.199 291.926 129.19 291.879 129.185H291.845ZM293.402 130.409L293.436 130.889L293.067 131.205L294.031 131.594L294.33 130.788L293.402 130.409ZM296.863 131.359C297.288 131.359 297.637 131.704 297.637 132.127C297.637 132.549 297.288 132.895 296.863 132.895C296.437 132.895 296.09 132.549 296.09 132.127C296.09 131.704 296.437 131.359 296.863 131.359ZM290.105 133.787C289.364 133.773 288.761 135.391 289.504 135.698L289.936 135.87L290.795 135.127L290.708 133.994L290.288 133.821C290.235 133.802 290.186 133.792 290.139 133.787H290.105ZM291.66 135.011L291.695 135.491L291.327 135.808L292.314 136.206L292.614 135.4L291.66 135.011ZM294.91 135.938C295.335 135.938 295.684 136.283 295.684 136.706C295.684 137.128 295.335 137.473 294.91 137.473C294.484 137.473 294.136 137.128 294.136 136.706C294.136 136.283 294.484 135.938 294.91 135.938ZM288.137 138.549C287.402 138.534 286.794 140.152 287.542 140.459L287.967 140.632L288.828 139.888L288.741 138.755L288.32 138.582C288.267 138.563 288.219 138.553 288.17 138.549H288.137ZM289.693 139.773L289.727 140.252L289.36 140.569L290.462 141.016L290.791 140.219L289.693 139.773ZM293.044 140.66C293.469 140.66 293.818 141.006 293.818 141.428C293.818 141.851 293.469 142.196 293.044 142.196C292.618 142.196 292.271 141.851 292.271 141.428C292.271 141.006 292.618 140.66 293.044 140.66Z" fill="#374151"/>
<path d="M317.936 142.898V129.65H323.236C324.209 129.65 325.021 129.795 325.672 130.084C326.323 130.373 326.812 130.774 327.139 131.287C327.467 131.796 327.631 132.382 327.631 133.046C327.631 133.564 327.527 134.019 327.32 134.411C327.113 134.799 326.828 135.118 326.467 135.369C326.109 135.614 325.7 135.789 325.239 135.893V136.022C325.743 136.043 326.215 136.186 326.655 136.449C327.099 136.712 327.458 137.081 327.734 137.555C328.01 138.025 328.147 138.586 328.147 139.237C328.147 139.94 327.972 140.567 327.624 141.119C327.279 141.667 326.768 142.1 326.092 142.419C325.416 142.738 324.581 142.898 323.59 142.898H317.936ZM320.734 140.608H323.016C323.796 140.608 324.364 140.459 324.721 140.162C325.08 139.86 325.259 139.459 325.259 138.959C325.259 138.592 325.169 138.269 324.993 137.988C324.817 137.708 324.565 137.488 324.237 137.329C323.914 137.169 323.529 137.089 323.081 137.089H320.734V140.608ZM320.734 135.194H322.809C323.193 135.194 323.533 135.127 323.83 134.993C324.132 134.855 324.369 134.661 324.541 134.411C324.717 134.161 324.805 133.861 324.805 133.512C324.805 133.033 324.636 132.647 324.296 132.354C323.96 132.061 323.481 131.914 322.861 131.914H320.734V135.194ZM332.748 143.086C332.113 143.086 331.549 142.976 331.054 142.756C330.558 142.531 330.166 142.202 329.878 141.766C329.593 141.326 329.451 140.778 329.451 140.123C329.451 139.571 329.553 139.107 329.754 138.732C329.957 138.357 330.233 138.055 330.582 137.827C330.932 137.598 331.328 137.426 331.772 137.309C332.22 137.193 332.689 137.111 333.18 137.063C333.758 137.003 334.223 136.947 334.576 136.895C334.93 136.839 335.186 136.757 335.346 136.649C335.506 136.541 335.585 136.382 335.585 136.171V136.132C335.585 135.722 335.455 135.405 335.198 135.181C334.943 134.957 334.58 134.845 334.111 134.845C333.616 134.845 333.221 134.955 332.928 135.174C332.636 135.39 332.441 135.662 332.347 135.99L329.801 135.783C329.929 135.179 330.184 134.657 330.562 134.217C330.942 133.773 331.432 133.432 332.029 133.195C332.633 132.954 333.331 132.833 334.124 132.833C334.675 132.833 335.203 132.898 335.707 133.027C336.215 133.156 336.666 133.357 337.058 133.629C337.454 133.9 337.767 134.25 337.995 134.676C338.224 135.099 338.338 135.606 338.338 136.197V142.898H335.727V141.52H335.65C335.49 141.831 335.276 142.105 335.01 142.342C334.743 142.575 334.422 142.758 334.047 142.892C333.672 143.021 333.239 143.086 332.748 143.086ZM333.536 141.184C333.94 141.184 334.299 141.104 334.608 140.944C334.919 140.781 335.163 140.561 335.339 140.285C335.515 140.009 335.604 139.696 335.604 139.347V138.292C335.518 138.348 335.399 138.4 335.248 138.448C335.102 138.491 334.936 138.532 334.751 138.571C334.566 138.605 334.38 138.637 334.195 138.668C334.01 138.693 333.842 138.717 333.691 138.739C333.368 138.786 333.085 138.862 332.844 138.965C332.603 139.069 332.416 139.209 332.281 139.386C332.148 139.558 332.081 139.774 332.081 140.032C332.081 140.408 332.217 140.694 332.489 140.893C332.764 141.087 333.113 141.184 333.536 141.184ZM348.734 135.795L346.213 135.951C346.171 135.735 346.077 135.541 345.936 135.369C345.793 135.192 345.605 135.052 345.373 134.948C345.145 134.84 344.872 134.786 344.552 134.786C344.125 134.786 343.766 134.877 343.473 135.058C343.18 135.235 343.033 135.472 343.033 135.77C343.033 136.007 343.129 136.207 343.318 136.371C343.508 136.535 343.833 136.667 344.293 136.766L346.091 137.128C347.056 137.326 347.775 137.645 348.248 138.085C348.723 138.525 348.96 139.103 348.96 139.819C348.96 140.47 348.768 141.042 348.384 141.533C348.006 142.025 347.484 142.409 346.82 142.685C346.161 142.956 345.401 143.092 344.54 143.092C343.225 143.092 342.178 142.818 341.398 142.271C340.623 141.719 340.168 140.968 340.035 140.02L342.742 139.877C342.825 140.278 343.022 140.584 343.337 140.796C343.652 141.003 344.054 141.106 344.545 141.106C345.028 141.106 345.416 141.014 345.709 140.828C346.007 140.638 346.157 140.395 346.161 140.097C346.157 139.847 346.052 139.642 345.845 139.483C345.637 139.319 345.32 139.194 344.888 139.107L343.169 138.765C342.199 138.571 341.478 138.234 341.003 137.755C340.534 137.277 340.299 136.667 340.299 135.925C340.299 135.287 340.471 134.737 340.817 134.275C341.166 133.814 341.654 133.458 342.283 133.208C342.917 132.958 343.658 132.833 344.508 132.833C345.761 132.833 346.748 133.098 347.467 133.629C348.191 134.159 348.614 134.881 348.734 135.795ZM358.954 135.795L356.433 135.951C356.389 135.735 356.297 135.541 356.156 135.369C356.013 135.192 355.825 135.052 355.593 134.948C355.365 134.84 355.09 134.786 354.772 134.786C354.345 134.786 353.986 134.877 353.693 135.058C353.399 135.235 353.253 135.472 353.253 135.77C353.253 136.007 353.349 136.207 353.538 136.371C353.727 136.535 354.053 136.667 354.513 136.766L356.31 137.128C357.276 137.326 357.995 137.645 358.468 138.085C358.943 138.525 359.18 139.103 359.18 139.819C359.18 140.47 358.988 141.042 358.604 141.533C358.225 142.025 357.704 142.409 357.04 142.685C356.381 142.956 355.621 143.092 354.758 143.092C353.445 143.092 352.398 142.818 351.618 142.271C350.843 141.719 350.388 140.968 350.255 140.02L352.962 139.877C353.045 140.278 353.242 140.584 353.557 140.796C353.871 141.003 354.274 141.106 354.765 141.106C355.248 141.106 355.636 141.014 355.929 140.828C356.226 140.638 356.377 140.395 356.381 140.097C356.377 139.847 356.272 139.642 356.065 139.483C355.857 139.319 355.538 139.194 355.108 139.107L353.389 138.765C352.419 138.571 351.698 138.234 351.223 137.755C350.754 137.277 350.519 136.667 350.519 135.925C350.519 135.287 350.691 134.737 351.036 134.275C351.386 133.814 351.874 133.458 352.503 133.208C353.137 132.958 353.878 132.833 354.726 132.833C355.981 132.833 356.968 133.098 357.687 133.629C358.411 134.159 358.832 134.881 358.954 135.795Z" fill="#374151"/>
</g>
<g filter="url(#filter6_d_162_155)">
<mask id="mask1_162_155" style="mask-type:luminance" maskUnits="userSpaceOnUse" x="122" y="30" width="413" height="64">
<path d="M507 30.8022H150C134.536 30.8022 122 43.349 122 58.8262V65.8322C122 81.3094 134.536 93.8561 150 93.8561H507C522.464 93.8561 535 81.3094 535 65.8322V58.8262C535 43.349 522.464 30.8022 507 30.8022Z" fill="white"/>
</mask>
<g mask="url(#mask1_162_155)">
<path d="M507 30.8022H150C134.536 30.8022 122 43.349 122 58.8262V65.8322C122 81.3094 134.536 93.8561 150 93.8561H507C522.464 93.8561 535 81.3094 535 65.8322V58.8262C535 43.349 522.464 30.8022 507 30.8022Z" fill="#B9DBF2"/>
<path d="M302.188 72.8383V52.4572H306.493V69.2856H315.224V72.8383H302.188ZM317.994 72.8383V57.5525H322.231V72.8383H317.994ZM320.122 55.5822C319.494 55.5822 318.953 55.3731 318.503 54.9551C318.057 54.5306 317.836 54.0231 317.836 53.4326C317.836 52.8487 318.057 52.3478 318.503 51.9298C318.953 51.5053 319.494 51.293 320.122 51.293C320.752 51.293 321.29 51.5053 321.734 51.9298C322.185 52.3478 322.41 52.8487 322.41 53.4326C322.41 54.0231 322.185 54.5306 321.734 54.9551C321.29 55.3731 320.752 55.5822 320.122 55.5822ZM339.862 57.5525L334.523 72.8383H329.75L324.411 57.5525H328.885L332.057 68.4894H332.216L335.378 57.5525H339.862ZM348.498 73.1369C346.927 73.1369 345.574 72.8184 344.442 72.1815C343.315 71.538 342.447 70.6291 341.836 69.4547C341.226 68.2738 340.922 66.8772 340.922 65.2652C340.922 63.6927 341.226 62.3128 341.836 61.1252C342.447 59.9377 343.305 59.0122 344.411 58.3487C345.525 57.6852 346.832 57.3536 348.33 57.3536C349.336 57.3536 350.274 57.5161 351.144 57.8412C352.019 58.1595 352.78 58.6406 353.43 59.2841C354.086 59.9277 354.597 60.737 354.961 61.7124C355.325 62.6809 355.509 63.8155 355.509 65.1158V66.2802H342.612V63.6529H351.522C351.522 63.0426 351.389 62.5018 351.123 62.0308C350.858 61.5598 350.49 61.1916 350.019 60.9262C349.556 60.6542 349.016 60.5182 348.398 60.5182C347.756 60.5182 347.186 60.6674 346.689 60.966C346.197 61.2579 345.814 61.6526 345.535 62.1503C345.257 62.6411 345.114 63.1886 345.108 63.7922V66.2901C345.108 67.0465 345.247 67.7 345.525 68.2507C345.81 68.8012 346.211 69.2259 346.728 69.5244C347.246 69.823 347.859 69.9722 348.568 69.9722C349.038 69.9722 349.469 69.9059 349.86 69.7732C350.252 69.6405 350.586 69.4416 350.865 69.1762C351.144 68.9108 351.355 68.5857 351.501 68.2008L355.419 68.4596C355.22 69.4016 354.812 70.2244 354.196 70.9277C353.585 71.6242 352.797 72.1683 351.83 72.5596C350.868 72.9446 349.758 73.1369 348.498 73.1369Z" fill="#274765"/>
</g>
<path d="M507 31.5029H150C134.923 31.5029 122.7 43.736 122.7 58.8263V65.8323C122.7 80.9225 134.923 93.1556 150 93.1556H507C522.077 93.1556 534.3 80.9225 534.3 65.8323V58.8263C534.3 43.736 522.077 31.5029 507 31.5029Z" stroke="#E7E7EA"/>
</g>
<defs>
<filter id="filter0_d_162_155" x="0.699951" y="0.544922" width="655.6" height="574.754" filterUnits="userSpaceOnUse" color-interpolation-filters="sRGB">
<feFlood flood-opacity="0" result="BackgroundImageFix"/>
<feColorMatrix in="SourceAlpha" type="matrix" values="0 0 0 0 0 0 0 0 0 0 0 0 0 0 0 0 0 0 127 0" result="hardAlpha"/>
<feOffset/>
<feGaussianBlur stdDeviation="40"/>
<feComposite in2="hardAlpha" operator="out"/>
<feColorMatrix type="matrix" values="0 0 0 0 0.603922 0 0 0 0 0.784314 0 0 0 0 0.921569 0 0 0 1 0"/>
<feBlend mode="normal" in2="BackgroundImageFix" result="effect1_dropShadow_162_155"/>
<feBlend mode="normal" in="SourceGraphic" in2="effect1_dropShadow_162_155" result="shape"/>
</filter>
<filter id="filter1_d_162_155" x="118" y="173.725" width="418.2" height="92.0718" filterUnits="userSpaceOnUse" color-interpolation-filters="sRGB">
<feFlood flood-opacity="0" result="BackgroundImageFix"/>
<feColorMatrix in="SourceAlpha" type="matrix" values="0 0 0 0 0 0 0 0 0 0 0 0 0 0 0 0 0 0 127 0" result="hardAlpha"/>
<feOffset dy="4"/>
<feGaussianBlur stdDeviation="2"/>
<feComposite in2="hardAlpha" operator="out"/>
<feColorMatrix type="matrix" values="0 0 0 0 0 0 0 0 0 0 0 0 0 0 0 0 0 0 0.25 0"/>
<feBlend mode="normal" in2="BackgroundImageFix" result="effect1_dropShadow_162_155"/>
<feBlend mode="normal" in="SourceGraphic" in2="effect1_dropShadow_162_155" result="shape"/>
</filter>
<filter id="filter2_d_162_155" x="125" y="159.712" width="68.2" height="37.4253" filterUnits="userSpaceOnUse" color-interpolation-filters="sRGB">
<feFlood flood-opacity="0" result="BackgroundImageFix"/>
<feColorMatrix in="SourceAlpha" type="matrix" values="0 0 0 0 0 0 0 0 0 0 0 0 0 0 0 0 0 0 127 0" result="hardAlpha"/>
<feOffset dy="4"/>
<feGaussianBlur stdDeviation="2"/>
<feComposite in2="hardAlpha" operator="out"/>
<feColorMatrix type="matrix" values="0 0 0 0 0 0 0 0 0 0 0 0 0 0 0 0 0 0 0.25 0"/>
<feBlend mode="normal" in2="BackgroundImageFix" result="effect1_dropShadow_162_155"/>
<feBlend mode="normal" in="SourceGraphic" in2="effect1_dropShadow_162_155" result="shape"/>
</filter>
<filter id="filter3_d_162_155" x="118" y="285.82" width="418.2" height="169.138" filterUnits="userSpaceOnUse" color-interpolation-filters="sRGB">
<feFlood flood-opacity="0" result="BackgroundImageFix"/>
<feColorMatrix in="SourceAlpha" type="matrix" values="0 0 0 0 0 0 0 0 0 0 0 0 0 0 0 0 0 0 127 0" result="hardAlpha"/>
<feOffset dy="4"/>
<feGaussianBlur stdDeviation="2"/>
<feComposite in2="hardAlpha" operator="out"/>
<feColorMatrix type="matrix" values="0 0 0 0 0 0 0 0 0 0 0 0 0 0 0 0 0 0 0.25 0"/>
<feBlend mode="normal" in2="BackgroundImageFix" result="effect1_dropShadow_162_155"/>
<feBlend mode="normal" in="SourceGraphic" in2="effect1_dropShadow_162_155" result="shape"/>
</filter>
<filter id="filter4_d_162_155" x="125" y="271.809" width="111.6" height="37.4253" filterUnits="userSpaceOnUse" color-interpolation-filters="sRGB">
<feFlood flood-opacity="0" result="BackgroundImageFix"/>
<feColorMatrix in="SourceAlpha" type="matrix" values="0 0 0 0 0 0 0 0 0 0 0 0 0 0 0 0 0 0 127 0" result="hardAlpha"/>
<feOffset dy="4"/>
<feGaussianBlur stdDeviation="2"/>
<feComposite in2="hardAlpha" operator="out"/>
<feColorMatrix type="matrix" values="0 0 0 0 0 0 0 0 0 0 0 0 0 0 0 0 0 0 0.25 0"/>
<feBlend mode="normal" in2="BackgroundImageFix" result="effect1_dropShadow_162_155"/>
<feBlend mode="normal" in="SourceGraphic" in2="effect1_dropShadow_162_155" result="shape"/>
</filter>
<filter id="filter5_d_162_155" x="178.6" y="112.874" width="290" height="52.0361" filterUnits="userSpaceOnUse" color-interpolation-filters="sRGB">
<feFlood flood-opacity="0" result="BackgroundImageFix"/>
<feColorMatrix in="SourceAlpha" type="matrix" values="0 0 0 0 0 0 0 0 0 0 0 0 0 0 0 0 0 0 127 0" result="hardAlpha"/>
<feOffset dy="3"/>
<feGaussianBlur stdDeviation="2.5"/>
<feComposite in2="hardAlpha" operator="out"/>
<feColorMatrix type="matrix" values="0 0 0 0 0.804769 0 0 0 0 0.804769 0 0 0 0 0.804769 0 0 0 0.25 0"/>
<feBlend mode="normal" in2="BackgroundImageFix" result="effect1_dropShadow_162_155"/>
<feBlend mode="normal" in="SourceGraphic" in2="effect1_dropShadow_162_155" result="shape"/>
</filter>
<filter id="filter6_d_162_155" x="117" y="28.8022" width="423" height="73.0537" filterUnits="userSpaceOnUse" color-interpolation-filters="sRGB">
<feFlood flood-opacity="0" result="BackgroundImageFix"/>
<feColorMatrix in="SourceAlpha" type="matrix" values="0 0 0 0 0 0 0 0 0 0 0 0 0 0 0 0 0 0 127 0" result="hardAlpha"/>
<feOffset dy="3"/>
<feGaussianBlur stdDeviation="2.5"/>
<feComposite in2="hardAlpha" operator="out"/>
<feColorMatrix type="matrix" values="0 0 0 0 0.804769 0 0 0 0 0.804769 0 0 0 0 0.804769 0 0 0 0.25 0"/>
<feBlend mode="normal" in2="BackgroundImageFix" result="effect1_dropShadow_162_155"/>
<feBlend mode="normal" in="SourceGraphic" in2="effect1_dropShadow_162_155" result="shape"/>
</filter>
</defs>
</svg>
