<svg width="564" height="577" viewBox="0 0 564 577" fill="none" xmlns="http://www.w3.org/2000/svg">
<g filter="url(#filter0_d_157_155)">
<path d="M104.119 80.3489H459.881C472.869 80.3489 483.397 90.9066 483.397 103.93V472.767C483.397 485.792 472.869 496.349 459.881 496.349H104.119C91.1316 496.349 80.603 485.792 80.603 472.767V103.93C80.603 90.9066 91.1316 80.3489 104.119 80.3489Z" fill="white"/>
</g>
<path d="M104.119 80.3489H459.881C472.869 80.3489 483.397 90.9066 483.397 103.93V472.767C483.397 485.792 472.869 496.349 459.881 496.349H104.119C91.1316 496.349 80.603 485.792 80.603 472.767V103.93C80.603 90.9066 91.1316 80.3489 104.119 80.3489Z" stroke="#E5E5E5"/>
<g filter="url(#filter1_d_157_155)">
<path d="M110.149 140.209C110.149 126.852 120.948 116.023 134.269 116.023H242.806C256.127 116.023 266.925 126.852 266.925 140.209V249.047C266.925 262.405 256.127 273.233 242.806 273.233H134.269C120.948 273.233 110.149 262.405 110.149 249.047V140.209Z" fill="#F9FAFB"/>
<mask id="mask0_157_155" style="mask-type:luminance" maskUnits="userSpaceOnUse" x="106" y="112" width="165" height="165">
<path d="M270.543 112.395H106.531V276.86H270.543V112.395Z" fill="white"/>
<path d="M110.149 140.209C110.149 126.852 120.948 116.023 134.269 116.023H242.806C256.127 116.023 266.925 126.852 266.925 140.209V249.047C266.925 262.405 256.127 273.233 242.806 273.233H134.269C120.948 273.233 110.149 262.405 110.149 249.047V140.209Z" fill="black"/>
</mask>
<g mask="url(#mask0_157_155)">
<path d="M134.269 116.023V119.651H242.806V116.023V112.395H134.269V116.023ZM266.925 140.209H263.307V249.047H266.925H270.543V140.209H266.925ZM242.806 273.233V269.605H134.269V273.233V276.86H242.806V273.233ZM110.149 249.047H113.767V140.209H110.149H106.531V249.047H110.149ZM134.269 273.233V269.605C122.946 269.605 113.767 260.401 113.767 249.047H110.149H106.531C106.531 264.408 118.95 276.86 134.269 276.86V273.233ZM266.925 249.047H263.307C263.307 260.401 254.129 269.605 242.806 269.605V273.233V276.86C258.125 276.86 270.543 264.408 270.543 249.047H266.925ZM242.806 116.023V119.651C254.129 119.651 263.307 128.855 263.307 140.209H266.925H270.543C270.543 124.848 258.125 112.395 242.806 112.395V116.023ZM134.269 116.023V112.395C118.95 112.395 106.531 124.848 106.531 140.209H110.149H113.767C113.767 128.855 122.946 119.651 134.269 119.651V116.023Z" fill="#D1D5DB"/>
</g>
</g>
<path d="M208.319 140.209C204.436 140.209 200.529 141.818 197.738 144.557C198.707 152.453 201.338 157.493 205.123 160.69C208.878 163.863 213.913 165.29 219.934 165.542C222.201 162.791 223.51 159.195 223.51 155.616C223.51 151.6 221.864 147.562 219.064 144.723C216.263 141.883 212.28 140.209 208.319 140.209ZM195.444 147.461C193.957 149.898 193.123 152.763 193.123 155.616C193.123 159.632 194.774 163.67 197.575 166.509C200.376 169.349 204.358 171.022 208.32 171.022C211.472 171.022 214.639 169.962 217.213 168.097C211.887 167.55 207.148 165.965 203.392 162.793C199.464 159.474 196.717 154.469 195.444 147.461ZM190.755 159.049L179.873 173.387C180.362 176.74 181.638 179.393 183.602 181.291C185.576 183.196 188.28 184.391 191.804 184.649L205.192 173.477C201.614 172.823 198.247 171.063 195.665 168.445C193.146 165.891 191.436 162.578 190.755 159.049ZM193.308 169.643H193.313C193.343 169.641 193.373 169.641 193.403 169.643C193.663 169.645 193.918 169.722 194.136 169.867C194.354 170.013 194.525 170.219 194.63 170.461C194.735 170.703 194.769 170.97 194.727 171.232C194.685 171.493 194.569 171.736 194.394 171.932L188.603 178.567C188.486 178.705 188.344 178.818 188.184 178.9C188.024 178.981 187.849 179.029 187.671 179.041C187.492 179.053 187.313 179.03 187.144 178.972C186.975 178.913 186.818 178.822 186.684 178.701C186.55 178.582 186.441 178.435 186.363 178.272C186.284 178.109 186.239 177.932 186.229 177.751C186.219 177.57 186.245 177.388 186.305 177.218C186.364 177.047 186.457 176.89 186.577 176.754L192.369 170.119C192.486 169.98 192.63 169.866 192.791 169.784C192.952 169.703 193.128 169.655 193.308 169.643ZM177.711 176.237L160.056 199.494C160.645 201.775 161.293 203.077 162.166 203.948C163.015 204.795 164.257 205.396 166.143 206.072L188.982 187.002C186.102 186.384 183.65 185.119 181.74 183.275C179.825 181.425 178.479 179.026 177.711 176.237ZM158.87 204.023C157.33 204.945 155.938 206.433 154.966 208.2C153.336 211.163 153.022 214.572 154.586 216.837C155.711 217.579 156.37 217.66 156.923 217.581C157.226 217.536 157.534 217.417 157.872 217.259C157.336 215.62 156.809 213.678 157.45 211.558C157.962 209.869 159.193 208.299 161.412 206.853C161.006 206.57 160.628 206.255 160.273 205.901C159.729 205.359 159.27 204.74 158.87 204.023Z" fill="#6B7280"/>
<path d="M139.269 234.315H142.945L146.062 241.938H146.206L149.324 234.315H152.999V246.628H150.109V239.065H150.007L147.058 246.549H145.211L142.261 239.023H142.159V246.628H139.269V234.315ZM154.85 246.628V237.394H157.782V246.628H154.85ZM156.319 236.317C155.908 236.317 155.554 236.181 155.258 235.909C154.962 235.632 154.814 235.299 154.814 234.91C154.814 234.525 154.962 234.196 155.258 233.924C155.554 233.647 155.908 233.509 156.319 233.509C156.735 233.509 157.089 233.647 157.38 233.924C157.676 234.196 157.824 234.525 157.824 234.91C157.824 235.299 157.676 235.632 157.38 235.909C157.089 236.181 156.735 236.317 156.319 236.317ZM163.947 246.802C162.976 246.802 162.142 246.601 161.447 246.201C160.755 245.801 160.224 245.243 159.852 244.53C159.48 243.813 159.295 242.983 159.295 242.041C159.295 241.094 159.48 240.265 159.852 239.551C160.228 238.834 160.761 238.275 161.453 237.874C162.148 237.474 162.978 237.273 163.941 237.273C164.792 237.273 165.534 237.428 166.165 237.736C166.801 238.044 167.297 238.481 167.652 239.047C168.012 239.608 168.202 240.267 168.222 241.024H165.482C165.426 240.551 165.266 240.181 165.002 239.913C164.743 239.644 164.403 239.51 163.983 239.51C163.643 239.51 163.346 239.606 163.09 239.798C162.834 239.986 162.634 240.267 162.49 240.639C162.35 241.008 162.28 241.465 162.28 242.011C162.28 242.556 162.35 243.017 162.49 243.393C162.634 243.767 162.834 244.048 163.09 244.241C163.346 244.429 163.643 244.524 163.983 244.524C164.255 244.524 164.495 244.466 164.703 244.35C164.914 244.233 165.088 244.063 165.224 243.838C165.36 243.609 165.446 243.334 165.482 243.008H168.222C168.194 243.77 168.004 244.435 167.652 245.005C167.305 245.573 166.815 246.017 166.183 246.333C165.556 246.646 164.811 246.802 163.947 246.802ZM169.722 246.628V237.394H172.57V239.077H172.666C172.834 238.468 173.108 238.014 173.488 237.718C173.867 237.418 174.309 237.267 174.813 237.267C174.949 237.267 175.088 237.278 175.232 237.297C175.376 237.313 175.51 237.339 175.634 237.376V239.931C175.494 239.882 175.31 239.844 175.082 239.816C174.859 239.788 174.659 239.774 174.483 239.774C174.135 239.774 173.821 239.852 173.542 240.008C173.266 240.161 173.048 240.376 172.888 240.652C172.732 240.925 172.654 241.245 172.654 241.614V246.628H169.722ZM180.649 246.802C179.682 246.802 178.851 246.604 178.155 246.207C177.464 245.807 176.93 245.249 176.554 244.536C176.183 243.819 175.997 242.987 175.997 242.041C175.997 241.091 176.183 240.259 176.554 239.545C176.93 238.828 177.464 238.27 178.155 237.874C178.851 237.474 179.682 237.273 180.649 237.273C181.617 237.273 182.446 237.474 183.138 237.874C183.833 238.27 184.367 238.828 184.738 239.545C185.114 240.259 185.302 241.091 185.302 242.041C185.302 242.987 185.114 243.819 184.738 244.536C184.367 245.249 183.833 245.807 183.138 246.207C182.446 246.604 181.617 246.802 180.649 246.802ZM180.667 244.584C181.019 244.584 181.317 244.475 181.561 244.259C181.804 244.042 181.99 243.743 182.118 243.357C182.25 242.972 182.316 242.527 182.316 242.023C182.316 241.51 182.25 241.06 182.118 240.676C181.99 240.291 181.804 239.99 181.561 239.774C181.317 239.557 181.019 239.449 180.667 239.449C180.304 239.449 179.996 239.557 179.744 239.774C179.496 239.99 179.306 240.291 179.174 240.676C179.047 241.06 178.982 241.51 178.982 242.023C178.982 242.527 179.047 242.972 179.174 243.357C179.306 243.743 179.496 244.042 179.744 244.259C179.996 244.475 180.304 244.584 180.667 244.584ZM186.804 250.091V237.394H189.706V238.974H189.796C189.915 238.694 190.085 238.423 190.305 238.163C190.529 237.903 190.813 237.69 191.157 237.526C191.504 237.357 191.92 237.273 192.404 237.273C193.043 237.273 193.641 237.441 194.196 237.778C194.756 238.114 195.208 238.633 195.551 239.335C195.895 240.036 196.067 240.931 196.067 242.017C196.067 243.063 195.901 243.938 195.569 244.643C195.242 245.35 194.798 245.878 194.238 246.231C193.683 246.584 193.065 246.76 192.386 246.76C191.922 246.76 191.52 246.684 191.181 246.531C190.841 246.38 190.555 246.179 190.323 245.93C190.095 245.682 189.92 245.415 189.796 245.131H189.736V250.091H186.804ZM189.676 242.011C189.676 242.508 189.742 242.941 189.873 243.31C190.009 243.678 190.203 243.965 190.455 244.169C190.711 244.369 191.017 244.469 191.372 244.469C191.732 244.469 192.038 244.369 192.29 244.169C192.542 243.965 192.731 243.678 192.859 243.31C192.991 242.941 193.057 242.508 193.057 242.011C193.057 241.514 192.991 241.083 192.859 240.718C192.731 240.353 192.542 240.071 192.29 239.87C192.042 239.67 191.736 239.569 191.372 239.569C191.013 239.569 190.707 239.668 190.455 239.864C190.203 240.06 190.009 240.341 189.873 240.706C189.742 241.071 189.676 241.505 189.676 242.011ZM200.535 241.361V246.628H197.603V234.315H200.439V239.089H200.541C200.749 238.52 201.089 238.075 201.561 237.754C202.036 237.434 202.618 237.273 203.306 237.273C203.953 237.273 204.516 237.418 204.996 237.706C205.475 237.99 205.848 238.394 206.111 238.914C206.378 239.435 206.511 240.044 206.506 240.742V246.628H203.575V241.319C203.579 240.806 203.452 240.405 203.191 240.117C202.932 239.828 202.565 239.684 202.094 239.684C201.786 239.684 201.515 239.752 201.278 239.888C201.047 240.02 200.865 240.211 200.733 240.459C200.605 240.708 200.539 241.008 200.535 241.361ZM212.636 246.802C211.669 246.802 210.837 246.604 210.142 246.207C209.45 245.807 208.917 245.249 208.541 244.536C208.169 243.819 207.984 242.987 207.984 242.041C207.984 241.091 208.169 240.259 208.541 239.545C208.917 238.828 209.45 238.27 210.142 237.874C210.837 237.474 211.669 237.273 212.636 237.273C213.603 237.273 214.433 237.474 215.124 237.874C215.82 238.27 216.353 238.828 216.724 239.545C217.101 240.259 217.289 241.091 217.289 242.041C217.289 242.987 217.101 243.819 216.724 244.536C216.353 245.249 215.82 245.807 215.124 246.207C214.433 246.604 213.603 246.802 212.636 246.802ZM212.654 244.584C213.005 244.584 213.303 244.475 213.547 244.259C213.791 244.042 213.977 243.743 214.105 243.357C214.236 242.972 214.303 242.527 214.303 242.023C214.303 241.51 214.236 241.06 214.105 240.676C213.977 240.291 213.791 239.99 213.547 239.774C213.303 239.557 213.005 239.449 212.654 239.449C212.29 239.449 211.983 239.557 211.73 239.774C211.482 239.99 211.293 240.291 211.161 240.676C211.033 241.06 210.97 241.51 210.97 242.023C210.97 242.527 211.033 242.972 211.161 243.357C211.293 243.743 211.482 244.042 211.73 244.259C211.983 244.475 212.29 244.584 212.654 244.584ZM221.722 241.361V246.628H218.79V237.394H221.578V239.089H221.68C221.884 238.523 222.232 238.081 222.723 237.76C223.215 237.435 223.801 237.273 224.48 237.273C225.128 237.273 225.69 237.419 226.165 237.712C226.645 238.001 227.016 238.406 227.28 238.926C227.548 239.443 227.679 240.048 227.676 240.742V246.628H224.744V241.319C224.748 240.806 224.617 240.405 224.355 240.117C224.094 239.828 223.732 239.684 223.269 239.684C222.962 239.684 222.689 239.752 222.454 239.888C222.221 240.02 222.042 240.211 221.914 240.459C221.789 240.708 221.726 241.008 221.722 241.361ZM233.796 246.802C232.833 246.802 232.002 246.612 231.301 246.231C230.606 245.847 230.071 245.299 229.695 244.59C229.323 243.877 229.137 243.029 229.137 242.047C229.137 241.093 229.326 240.259 229.701 239.545C230.077 238.828 230.606 238.27 231.29 237.874C231.973 237.474 232.778 237.273 233.706 237.273C234.362 237.273 234.961 237.376 235.505 237.58C236.048 237.784 236.518 238.087 236.914 238.487C237.309 238.888 237.617 239.383 237.837 239.972C238.057 240.557 238.167 241.23 238.167 241.987V242.719H230.163V241.013H235.439C235.435 240.7 235.36 240.422 235.217 240.176C235.073 239.932 234.875 239.742 234.623 239.605C234.375 239.465 234.089 239.395 233.766 239.395C233.438 239.395 233.144 239.469 232.884 239.618C232.625 239.762 232.419 239.961 232.267 240.213C232.115 240.462 232.035 240.743 232.027 241.06V242.798C232.027 243.175 232.101 243.506 232.249 243.79C232.397 244.07 232.607 244.289 232.878 244.445C233.15 244.602 233.474 244.68 233.849 244.68C234.11 244.68 234.345 244.643 234.557 244.572C234.769 244.5 234.951 244.393 235.102 244.253C235.254 244.113 235.369 243.941 235.445 243.736L238.136 243.814C238.024 244.42 237.778 244.947 237.4 245.396C237.023 245.841 236.53 246.187 235.919 246.436C235.307 246.68 234.599 246.802 233.796 246.802Z" fill="#6B7280"/>
<g filter="url(#filter2_d_157_155)">
<path d="M297.075 140.209C297.075 126.852 307.873 116.023 321.194 116.023H429.731C443.052 116.023 453.851 126.852 453.851 140.209V249.047C453.851 262.405 443.052 273.233 429.731 273.233H321.194C307.873 273.233 297.075 262.405 297.075 249.047V140.209Z" fill="#F9FAFB"/>
<mask id="mask1_157_155" style="mask-type:luminance" maskUnits="userSpaceOnUse" x="293" y="112" width="165" height="165">
<path d="M457.469 112.395H293.457V276.86H457.469V112.395Z" fill="white"/>
<path d="M297.075 140.209C297.075 126.852 307.873 116.023 321.194 116.023H429.731C443.052 116.023 453.851 126.852 453.851 140.209V249.047C453.851 262.405 443.052 273.233 429.731 273.233H321.194C307.873 273.233 297.075 262.405 297.075 249.047V140.209Z" fill="black"/>
</mask>
<g mask="url(#mask1_157_155)">
<path d="M321.194 116.023V119.651H429.731V116.023V112.395H321.194V116.023ZM453.851 140.209H450.233V249.047H453.851H457.469V140.209H453.851ZM429.731 273.233V269.605H321.194V273.233V276.86H429.731V273.233ZM297.075 249.047H300.692V140.209H297.075H293.457V249.047H297.075ZM321.194 273.233V269.605C309.871 269.605 300.692 260.401 300.692 249.047H297.075H293.457C293.457 264.408 305.875 276.86 321.194 276.86V273.233ZM453.851 249.047H450.233C450.233 260.401 441.054 269.605 429.731 269.605V273.233V276.86C445.051 276.86 457.469 264.408 457.469 249.047H453.851ZM429.731 116.023V119.651C441.054 119.651 450.233 128.855 450.233 140.209H453.851H457.469C457.469 124.848 445.051 112.395 429.731 112.395V116.023ZM321.194 116.023V112.395C305.875 112.395 293.457 124.848 293.457 140.209H297.075H300.692C300.692 128.855 309.871 119.651 321.194 119.651V116.023Z" fill="#D1D5DB"/>
</g>
</g>
<path d="M358.367 238.337C358.298 238.084 358.198 237.862 358.067 237.669C357.935 237.473 357.772 237.307 357.581 237.171C357.389 237.035 357.169 236.932 356.921 236.864C356.674 236.791 356.401 236.756 356.106 236.756C355.51 236.756 354.995 236.9 354.56 237.189C354.128 237.477 353.794 237.898 353.557 238.452C353.322 239.001 353.204 239.668 353.204 240.453C353.204 241.243 353.317 241.916 353.545 242.474C353.773 243.03 354.104 243.456 354.535 243.749C354.967 244.041 355.491 244.188 356.106 244.188C356.65 244.188 357.109 244.099 357.485 243.923C357.865 243.743 358.152 243.487 358.349 243.158C358.544 242.831 358.642 242.444 358.642 241.999L359.194 242.065H356.208V239.895H361.502V241.523C361.502 242.626 361.268 243.57 360.8 244.356C360.337 245.14 359.697 245.744 358.882 246.165C358.07 246.586 357.137 246.796 356.082 246.796C354.911 246.796 353.882 246.542 352.994 246.033C352.107 245.524 351.416 244.798 350.92 243.856C350.424 242.911 350.176 241.788 350.176 240.489C350.176 239.48 350.327 238.584 350.626 237.802C350.926 237.016 351.343 236.351 351.879 235.806C352.419 235.26 353.042 234.848 353.749 234.568C354.461 234.287 355.227 234.147 356.047 234.147C356.757 234.147 357.419 234.248 358.03 234.454C358.647 234.658 359.189 234.946 359.661 235.319C360.137 235.692 360.523 236.135 360.819 236.648C361.114 237.16 361.299 237.724 361.37 238.337H358.367ZM369.193 242.642V237.394H372.119V246.628H369.324V244.908H369.229C369.025 245.473 368.677 245.923 368.186 246.255C367.697 246.584 367.109 246.748 366.417 246.748C365.79 246.748 365.237 246.604 364.762 246.315C364.287 246.027 363.917 245.624 363.653 245.107C363.389 244.585 363.255 243.977 363.251 243.279V237.394H366.183V242.703C366.188 243.203 366.319 243.597 366.578 243.886C366.839 244.175 367.192 244.319 367.64 244.319C367.931 244.319 368.193 244.255 368.426 244.127C368.661 243.994 368.847 243.804 368.983 243.556C369.123 243.304 369.193 242.999 369.193 242.642ZM373.985 246.628V237.394H376.917V246.628H373.985ZM375.454 236.317C375.042 236.317 374.688 236.181 374.393 235.909C374.096 235.632 373.949 235.299 373.949 234.91C373.949 234.525 374.096 234.196 374.393 233.924C374.688 233.647 375.042 233.509 375.454 233.509C375.869 233.509 376.224 233.647 376.515 233.924C376.811 234.196 376.958 234.525 376.958 234.91C376.958 235.299 376.811 235.632 376.515 235.909C376.224 236.181 375.869 236.317 375.454 236.317ZM383.98 237.394V239.557H378.171V237.394H383.98ZM379.388 235.181H382.32V243.724C382.32 243.905 382.348 244.051 382.404 244.163C382.465 244.271 382.55 244.35 382.662 244.398C382.773 244.442 382.907 244.463 383.064 244.463C383.176 244.463 383.293 244.454 383.417 244.433C383.545 244.409 383.642 244.39 383.705 244.374L384.149 246.496C384.009 246.536 383.812 246.586 383.555 246.646C383.304 246.707 383.001 246.744 382.65 246.76C381.963 246.792 381.373 246.713 380.881 246.52C380.394 246.323 380.02 246.018 379.76 245.606C379.504 245.192 379.381 244.674 379.388 244.048V235.181ZM388.072 246.784C387.485 246.784 386.964 246.686 386.508 246.49C386.056 246.289 385.699 245.988 385.435 245.588C385.176 245.183 385.045 244.676 385.045 244.067C385.045 243.554 385.135 243.121 385.315 242.768C385.495 242.416 385.742 242.129 386.058 241.908C386.374 241.688 386.737 241.521 387.15 241.41C387.561 241.294 388.001 241.215 388.469 241.175C388.992 241.127 389.413 241.077 389.734 241.024C390.054 240.968 390.285 240.89 390.429 240.791C390.577 240.685 390.651 240.539 390.651 240.352V240.321C390.651 240.013 390.545 239.774 390.333 239.605C390.121 239.437 389.835 239.353 389.476 239.353C389.088 239.353 388.777 239.437 388.54 239.605C388.305 239.774 388.154 240.007 388.09 240.303L385.387 240.207C385.467 239.645 385.672 239.145 386.004 238.703C386.341 238.26 386.8 237.91 387.384 237.657C387.971 237.401 388.677 237.273 389.5 237.273C390.088 237.273 390.629 237.343 391.125 237.483C391.62 237.62 392.052 237.821 392.42 238.084C392.788 238.345 393.071 238.666 393.271 239.047C393.475 239.428 393.576 239.862 393.576 240.352V246.628H390.818V245.341H390.747C390.583 245.654 390.373 245.918 390.118 246.135C389.866 246.351 389.568 246.514 389.224 246.622C388.884 246.731 388.5 246.784 388.072 246.784ZM388.978 244.86C389.294 244.86 389.577 244.796 389.829 244.668C390.085 244.539 390.289 244.363 390.441 244.139C390.593 243.911 390.669 243.646 390.669 243.346V242.468C390.586 242.511 390.483 242.551 390.364 242.588C390.248 242.624 390.119 242.658 389.979 242.69C389.839 242.722 389.696 242.75 389.548 242.774C389.4 242.798 389.258 242.82 389.123 242.84C388.847 242.884 388.61 242.953 388.415 243.045C388.223 243.137 388.075 243.258 387.971 243.405C387.871 243.55 387.821 243.722 387.821 243.923C387.821 244.227 387.929 244.46 388.145 244.619C388.364 244.78 388.643 244.86 388.978 244.86ZM395.37 246.628V237.394H398.217V239.077H398.313C398.481 238.468 398.755 238.014 399.135 237.718C399.515 237.418 399.956 237.267 400.46 237.267C400.595 237.267 400.735 237.278 400.88 237.297C401.023 237.313 401.157 237.339 401.281 237.376V239.931C401.141 239.882 400.957 239.844 400.73 239.816C400.506 239.788 400.306 239.774 400.13 239.774C399.782 239.774 399.469 239.852 399.189 240.008C398.913 240.161 398.696 240.376 398.535 240.652C398.38 240.925 398.301 241.245 398.301 241.614V246.628H395.37Z" fill="#6B7280"/>
<path d="M358.762 140.209L356.185 210.119L376.066 217.605L395.946 210.119L393.369 140.209L376.066 142.694L358.762 140.209ZM343.935 150.754C337.91 150.754 337.91 163.874 343.935 163.874H345.526L347.701 157.314L345.526 150.754H343.935ZM406.607 150.754L404.431 157.314L406.607 163.874H408.196C414.221 163.874 414.221 150.754 408.196 150.754H406.607ZM365.355 154.623C366.066 154.623 366.747 154.906 367.249 155.411C367.751 155.916 368.033 156.6 368.033 157.314C368.033 158.028 367.751 158.713 367.249 159.217C366.747 159.723 366.066 160.006 365.355 160.006C364.645 160.006 363.964 159.723 363.462 159.217C362.96 158.713 362.678 158.028 362.678 157.314C362.678 156.6 362.96 155.916 363.462 155.411C363.964 154.906 364.645 154.623 365.355 154.623ZM386.776 154.623C387.486 154.623 388.168 154.906 388.669 155.411C389.171 155.916 389.453 156.6 389.453 157.314C389.453 158.028 389.171 158.713 388.669 159.217C388.168 159.723 387.486 160.006 386.776 160.006C386.066 160.006 385.384 159.723 384.883 159.217C384.381 158.713 384.099 158.028 384.099 157.314C384.099 156.6 384.381 155.916 384.883 155.411C385.384 154.906 386.066 154.623 386.776 154.623ZM350.36 155.8L350.713 156.843L350.88 157.314L350.377 158.828H355.064L355.181 155.8H350.36ZM396.951 155.8L397.068 158.828H401.771L401.419 157.785L401.251 157.314L401.754 155.8H396.951ZM343.266 172.286C337.241 172.286 337.241 185.407 343.266 185.407H344.856L347.032 178.847L344.856 172.286H343.266ZM407.276 172.286L405.101 178.847L407.276 185.407H408.866C414.891 185.407 414.891 172.286 408.866 172.286H407.276ZM365.355 176.155C366.066 176.155 366.747 176.439 367.249 176.943C367.751 177.449 368.033 178.133 368.033 178.847C368.033 179.56 367.751 180.245 367.249 180.75C366.747 181.254 366.066 181.538 365.355 181.538C364.645 181.538 363.964 181.254 363.462 180.75C362.96 180.245 362.678 179.56 362.678 178.847C362.678 178.133 362.96 177.449 363.462 176.943C363.964 176.439 364.645 176.155 365.355 176.155ZM386.776 176.155C387.486 176.155 388.168 176.439 388.669 176.943C389.171 177.449 389.453 178.133 389.453 178.847C389.453 179.56 389.171 180.245 388.669 180.75C388.168 181.254 387.486 181.538 386.776 181.538C386.066 181.538 385.384 181.254 384.883 180.75C384.381 180.245 384.099 179.56 384.099 178.847C384.099 178.133 384.381 177.449 384.883 176.943C385.384 176.439 386.066 176.155 386.776 176.155ZM349.698 177.333L350.043 178.375L350.211 178.847L349.708 180.361H354.277L354.394 177.333H349.698ZM397.737 177.333L397.854 180.361H402.44L402.088 179.317L401.921 178.847L402.423 177.333H397.737ZM342.596 193.818C336.571 193.818 336.571 206.94 342.596 206.94H344.187L346.363 200.379L344.187 193.818H342.596ZM407.946 193.818L405.77 200.379L407.946 206.94H409.535C415.56 206.94 415.56 193.818 409.535 193.818H407.946ZM365.355 197.687C366.066 197.687 366.747 197.97 367.249 198.476C367.751 198.98 368.033 199.665 368.033 200.379C368.033 201.093 367.751 201.777 367.249 202.282C366.747 202.787 366.066 203.07 365.355 203.07C364.645 203.07 363.964 202.787 363.462 202.282C362.96 201.777 362.678 201.093 362.678 200.379C362.678 199.665 362.96 198.98 363.462 198.476C363.964 197.97 364.645 197.687 365.355 197.687ZM386.776 197.687C387.486 197.687 388.168 197.97 388.669 198.476C389.171 198.98 389.453 199.665 389.453 200.379C389.453 201.093 389.171 201.777 388.669 202.282C388.168 202.787 387.486 203.07 386.776 203.07C386.066 203.07 385.384 202.787 384.883 202.282C384.381 201.777 384.099 201.093 384.099 200.379C384.099 199.665 384.381 198.98 384.883 198.476C385.384 197.97 386.066 197.687 386.776 197.687ZM349.034 198.865L349.38 199.908L349.539 200.379L349.037 201.892H353.49L353.591 198.865H349.034ZM398.54 198.865L398.641 201.892H403.11L402.757 200.85L402.59 200.379L403.093 198.865H398.54Z" fill="#6B7280"/>
<g filter="url(#filter3_d_157_155)">
<path d="M110.149 327.651C110.149 314.293 120.948 303.465 134.269 303.465H242.806C256.127 303.465 266.925 314.293 266.925 327.651V436.488C266.925 449.846 256.127 460.674 242.806 460.674H134.269C120.948 460.674 110.149 449.846 110.149 436.488V327.651Z" fill="#F9FAFB"/>
<mask id="mask2_157_155" style="mask-type:luminance" maskUnits="userSpaceOnUse" x="106" y="299" width="165" height="166">
<path d="M270.543 299.837H106.531V464.302H270.543V299.837Z" fill="white"/>
<path d="M110.149 327.651C110.149 314.293 120.948 303.465 134.269 303.465H242.806C256.127 303.465 266.925 314.293 266.925 327.651V436.488C266.925 449.846 256.127 460.674 242.806 460.674H134.269C120.948 460.674 110.149 449.846 110.149 436.488V327.651Z" fill="black"/>
</mask>
<g mask="url(#mask2_157_155)">
<path d="M134.269 303.465V307.093H242.806V303.465V299.837H134.269V303.465ZM266.925 327.651H263.307V436.488H266.925H270.543V327.651H266.925ZM242.806 460.674V457.046H134.269V460.674V464.302H242.806V460.674ZM110.149 436.488H113.767V327.651H110.149H106.531V436.488H110.149ZM134.269 460.674V457.046C122.946 457.046 113.767 447.842 113.767 436.488H110.149H106.531C106.531 451.85 118.95 464.302 134.269 464.302V460.674ZM266.925 436.488H263.307C263.307 447.842 254.129 457.046 242.806 457.046V460.674V464.302C258.125 464.302 270.543 451.85 270.543 436.488H266.925ZM242.806 303.465V307.093C254.129 307.093 263.307 316.297 263.307 327.651H266.925H270.543C270.543 312.289 258.125 299.837 242.806 299.837V303.465ZM134.269 303.465V299.837C118.95 299.837 106.531 312.289 106.531 327.651H110.149H113.767C113.767 316.297 122.946 307.093 134.269 307.093V303.465Z" fill="#D1D5DB"/>
</g>
</g>
<path d="M169.203 434.07V421.757H174.323C175.243 421.757 176.012 421.887 176.632 422.147C177.255 422.408 177.723 422.772 178.035 423.242C178.35 423.711 178.508 424.254 178.508 424.871C178.508 425.34 178.41 425.759 178.214 426.128C178.019 426.492 177.749 426.795 177.405 427.035C177.061 427.276 176.664 427.444 176.212 427.541V427.66C176.708 427.685 177.165 427.819 177.585 428.063C178.009 428.309 178.348 428.648 178.604 429.086C178.86 429.519 178.988 430.032 178.988 430.624C178.988 431.286 178.82 431.877 178.484 432.398C178.149 432.915 177.663 433.325 177.027 433.625C176.392 433.921 175.62 434.07 174.713 434.07H169.203ZM172.171 431.67H174.006C174.649 431.67 175.123 431.548 175.427 431.304C175.734 431.06 175.888 430.719 175.888 430.282C175.888 429.965 175.814 429.693 175.666 429.465C175.518 429.232 175.309 429.054 175.037 428.929C174.765 428.801 174.439 428.737 174.06 428.737H172.171V431.67ZM172.171 426.819H173.814C174.137 426.819 174.425 426.766 174.677 426.657C174.929 426.549 175.125 426.392 175.265 426.187C175.409 425.983 175.48 425.736 175.48 425.449C175.48 425.035 175.335 424.711 175.043 424.474C174.751 424.238 174.357 424.12 173.862 424.12H172.171V426.819ZM183.011 434.226C182.423 434.226 181.902 434.128 181.446 433.932C180.994 433.731 180.637 433.43 180.373 433.03C180.113 432.625 179.983 432.118 179.983 431.508C179.983 430.996 180.073 430.563 180.253 430.21C180.433 429.858 180.681 429.571 180.996 429.35C181.312 429.13 181.676 428.963 182.088 428.852C182.499 428.735 182.939 428.657 183.407 428.617C183.93 428.569 184.352 428.519 184.672 428.466C184.991 428.41 185.223 428.332 185.367 428.232C185.515 428.127 185.589 427.981 185.589 427.793V427.763C185.589 427.455 185.483 427.215 185.271 427.047C185.059 426.879 184.774 426.795 184.414 426.795C184.026 426.795 183.714 426.879 183.479 427.047C183.243 427.215 183.093 427.449 183.029 427.745L180.325 427.648C180.405 427.087 180.611 426.587 180.942 426.145C181.278 425.701 181.738 425.352 182.321 425.099C182.909 424.843 183.614 424.715 184.438 424.715C185.025 424.715 185.567 424.785 186.063 424.925C186.558 425.062 186.99 425.262 187.358 425.526C187.725 425.787 188.009 426.108 188.209 426.489C188.413 426.87 188.515 427.304 188.515 427.793V434.07H185.757V432.783H185.685C185.521 433.096 185.311 433.36 185.055 433.576C184.804 433.793 184.506 433.956 184.162 434.064C183.822 434.173 183.439 434.226 183.011 434.226ZM183.916 432.302C184.232 432.302 184.516 432.238 184.768 432.109C185.023 431.981 185.227 431.805 185.379 431.581C185.531 431.352 185.607 431.088 185.607 430.788V429.91C185.523 429.953 185.421 429.993 185.301 430.029C185.185 430.066 185.057 430.1 184.918 430.132C184.778 430.164 184.634 430.191 184.486 430.216C184.338 430.24 184.196 430.262 184.06 430.282C183.784 430.326 183.548 430.395 183.353 430.487C183.161 430.578 183.013 430.699 182.909 430.847C182.809 430.992 182.759 431.164 182.759 431.365C182.759 431.669 182.867 431.901 183.083 432.061C183.303 432.222 183.58 432.302 183.916 432.302ZM198.348 427.654L195.656 427.727C195.628 427.535 195.552 427.364 195.428 427.215C195.304 427.063 195.142 426.946 194.942 426.861C194.746 426.773 194.518 426.729 194.259 426.729C193.919 426.729 193.629 426.797 193.389 426.934C193.153 427.069 193.038 427.254 193.042 427.486C193.038 427.666 193.11 427.824 193.257 427.955C193.409 428.087 193.679 428.194 194.067 428.274L195.841 428.611C196.761 428.787 197.444 429.08 197.892 429.489C198.344 429.898 198.572 430.438 198.575 431.112C198.572 431.745 198.384 432.296 198.012 432.765C197.644 433.234 197.141 433.599 196.501 433.859C195.861 434.116 195.13 434.244 194.307 434.244C192.992 434.244 191.954 433.973 191.195 433.432C190.439 432.887 190.008 432.158 189.9 431.244L192.796 431.172C192.86 431.508 193.026 431.765 193.293 431.941C193.561 432.118 193.903 432.206 194.319 432.206C194.694 432.206 195 432.136 195.236 431.996C195.472 431.855 195.592 431.669 195.596 431.436C195.592 431.228 195.5 431.062 195.32 430.938C195.14 430.809 194.858 430.709 194.474 430.637L192.868 430.331C191.944 430.161 191.257 429.852 190.805 429.398C190.354 428.941 190.13 428.361 190.134 427.654C190.13 427.038 190.294 426.51 190.625 426.074C190.957 425.632 191.429 425.296 192.04 425.064C192.652 424.831 193.373 424.715 194.205 424.715C195.452 424.715 196.435 424.977 197.154 425.502C197.874 426.023 198.272 426.741 198.348 427.654ZM208.06 427.654L205.367 427.727C205.339 427.535 205.263 427.364 205.139 427.215C205.016 427.063 204.853 426.946 204.654 426.861C204.457 426.773 204.229 426.729 203.97 426.729C203.63 426.729 203.341 426.797 203.101 426.934C202.864 427.069 202.749 427.254 202.753 427.486C202.749 427.666 202.821 427.824 202.969 427.955C203.121 428.087 203.39 428.194 203.778 428.274L205.552 428.611C206.473 428.787 207.155 429.08 207.604 429.489C208.055 429.898 208.283 430.438 208.286 431.112C208.283 431.745 208.095 432.296 207.723 432.765C207.355 433.234 206.852 433.599 206.212 433.859C205.573 434.116 204.841 434.244 204.018 434.244C202.703 434.244 201.666 433.973 200.906 433.432C200.151 432.887 199.719 432.158 199.611 431.244L202.507 431.172C202.571 431.508 202.736 431.765 203.004 431.941C203.273 432.118 203.614 432.206 204.03 432.206C204.406 432.206 204.712 432.136 204.947 431.996C205.183 431.855 205.303 431.669 205.308 431.436C205.303 431.228 205.211 431.062 205.031 430.938C204.852 430.809 204.57 430.709 204.186 430.637L202.578 430.331C201.656 430.161 200.968 429.852 200.516 429.398C200.065 428.941 199.841 428.361 199.845 427.654C199.841 427.038 200.005 426.51 200.337 426.074C200.668 425.632 201.14 425.296 201.751 425.064C202.363 424.831 203.085 424.715 203.916 424.715C205.163 424.715 206.147 424.977 206.866 425.502C207.586 426.023 207.984 426.741 208.06 427.654Z" fill="#6B7280"/>
<path d="M183.907 327.651C181.375 327.61 179.293 333.196 181.858 334.245L183.341 334.844L186.306 332.275L186.006 328.382L184.557 327.785C184.373 327.714 184.207 327.673 184.023 327.656H183.907V327.651ZM206.295 328.963H205.912C204.679 329.013 203.364 329.315 202.031 329.916C198.499 331.518 194.768 335.329 192.086 342.465L174.945 388.594L174.928 388.627V388.659C175.078 388.743 175.528 388.975 176.261 389.323C177.893 390.118 180.259 391.924 180.609 395.752V395.834L180.442 405.046H196.534C196.517 402.131 196.767 399.33 197.883 396.514C199.832 391.643 204.43 387.417 214.041 383.755C214.041 383.723 214.041 383.755 214.058 383.689C214.108 383.358 214.124 382.695 214.058 381.867C213.892 380.193 213.391 377.74 212.625 374.874C211.093 369.125 208.494 361.587 205.562 354.18L205.163 353.153L206.029 352.456C212.042 347.785 214.54 343.112 214.99 339.275C215.44 335.454 213.907 332.401 211.442 330.618C209.993 329.571 208.227 328.962 206.295 328.957V328.963ZM189.287 331.885L189.404 333.543L188.138 334.637L191.753 336.116C191.953 335.757 192.169 335.408 192.386 335.068L193.052 333.429L189.287 331.885ZM200.782 334.96C202.247 334.96 203.447 336.146 203.447 337.611C203.447 339.075 202.247 340.262 200.782 340.262C199.315 340.262 198.116 339.075 198.116 337.611C198.116 336.146 199.315 334.96 200.782 334.96ZM178.01 343.194C175.478 343.145 173.362 348.729 175.961 349.789L177.427 350.386L180.392 347.817L180.109 343.907L178.643 343.31C178.46 343.244 178.293 343.211 178.127 343.194H178.01ZM183.374 347.42L183.49 349.076L182.224 350.171L185.539 351.512L186.572 348.729L183.374 347.42ZM195.301 350.7C196.767 350.7 197.966 351.893 197.966 353.351C197.966 354.81 196.767 356.002 195.301 356.002C193.835 356.002 192.636 354.81 192.636 353.351C192.636 351.893 193.835 350.7 195.301 350.7ZM172.013 359.085C169.465 359.035 167.382 364.618 169.948 365.679L171.43 366.275L174.395 363.706L174.095 359.797L172.646 359.201C172.463 359.134 172.296 359.1 172.13 359.085H172.013ZM177.377 363.31L177.494 364.967L176.228 366.06L179.626 367.435L180.659 364.651L177.377 363.31ZM188.571 366.507C190.037 366.507 191.236 367.7 191.236 369.158C191.236 370.616 190.037 371.809 188.571 371.809C187.105 371.809 185.906 370.616 185.906 369.158C185.906 367.7 187.105 366.507 188.571 366.507ZM165.233 375.52C162.701 375.471 160.606 381.055 163.185 382.116L164.65 382.712L167.616 380.143L167.316 376.234L165.866 375.636C165.683 375.571 165.517 375.537 165.35 375.52H165.233ZM170.597 379.745L170.714 381.402L169.448 382.497L173.246 384.037L174.379 381.286L170.597 379.745ZM182.141 382.811C183.607 382.811 184.806 384.003 184.806 385.462C184.806 386.92 183.607 388.113 182.141 388.113C180.675 388.113 179.476 386.92 179.476 385.462C179.476 384.003 180.675 382.811 182.141 382.811Z" fill="#6B7280"/>
<g filter="url(#filter4_d_157_155)">
<path d="M297.075 327.651C297.075 314.293 307.873 303.465 321.194 303.465H429.731C443.052 303.465 453.851 314.293 453.851 327.651V436.488C453.851 449.846 443.052 460.674 429.731 460.674H321.194C307.873 460.674 297.075 449.846 297.075 436.488V327.651Z" fill="#E7F3FB"/>
<mask id="mask3_157_155" style="mask-type:luminance" maskUnits="userSpaceOnUse" x="293" y="299" width="165" height="166">
<path d="M457.469 299.837H293.457V464.302H457.469V299.837Z" fill="white"/>
<path d="M297.075 327.651C297.075 314.293 307.873 303.465 321.194 303.465H429.731C443.052 303.465 453.851 314.293 453.851 327.651V436.488C453.851 449.846 443.052 460.674 429.731 460.674H321.194C307.873 460.674 297.075 449.846 297.075 436.488V327.651Z" fill="black"/>
</mask>
<g mask="url(#mask3_157_155)">
<path d="M321.194 303.465V307.093H429.731V303.465V299.837H321.194V303.465ZM453.851 327.651H450.233V436.488H453.851H457.469V327.651H453.851ZM429.731 460.674V457.046H321.194V460.674V464.302H429.731V460.674ZM297.075 436.488H300.692V327.651H297.075H293.457V436.488H297.075ZM321.194 460.674V457.046C309.871 457.046 300.692 447.842 300.692 436.488H297.075H293.457C293.457 451.85 305.875 464.302 321.194 464.302V460.674ZM453.851 436.488H450.233C450.233 447.842 441.054 457.046 429.731 457.046V460.674V464.302C445.051 464.302 457.469 451.85 457.469 436.488H453.851ZM429.731 303.465V307.093C441.054 307.093 450.233 316.297 450.233 327.651H453.851H457.469C457.469 312.289 445.051 299.837 429.731 299.837V303.465ZM321.194 303.465V299.837C305.875 299.837 293.457 312.289 293.457 327.651H297.075H300.692C300.692 316.297 309.871 307.093 321.194 307.093V303.465Z" fill="#9AC8EB"/>
</g>
</g>
<path d="M348.802 327.806L333.027 327.878L332.916 329.373L363.501 333.984L363.825 332.525L348.802 327.806ZM404.922 331.192L404.868 336.542L405.771 336.398L406.655 336.542L406.602 331.192H404.922ZM346.154 334.021L345.827 336.362L339.837 341.117L340.17 361.938L341.282 354.661L343.006 354.247H343.057L342.871 342.54L348.641 337.964L349.128 334.47L346.154 334.021ZM405.771 338.685L393.745 340.558L393.854 342.053H417.689L417.797 340.558L405.771 338.685ZM393.854 344.683L393.745 346.178L405.771 348.051L417.797 346.178L417.689 344.683H393.854ZM404.741 350.177L404.705 353.923C405.212 354.013 405.717 354.138 406.24 354.247L406.836 354.391L406.8 350.177L405.771 350.339L404.741 350.177ZM352.847 355.706C349.868 355.669 346.798 356.048 343.62 356.805L343.104 360.191C347.305 359.596 356.82 358.948 366.137 362.82C366.859 362.532 367.618 362.263 368.376 362.046L368.592 360.605C363.79 357.327 358.518 355.778 352.847 355.706ZM396.4 355.706C390.73 355.778 385.458 357.327 380.654 360.605L380.871 362.046C381.629 362.263 382.387 362.532 383.11 362.82C392.427 358.948 401.943 359.596 406.15 360.191L405.626 356.805C402.449 356.048 399.378 355.669 396.4 355.706ZM349.796 362.731C346.562 362.731 344 363.055 342.629 363.289L341.357 371.629L354.527 373.628C356.351 369.971 359.131 366.874 362.561 364.693C357.975 363.162 353.461 362.731 349.796 362.731ZM399.451 362.731C395.786 362.731 391.272 363.162 386.685 364.693C390.116 366.874 392.896 369.971 394.721 373.628L407.884 371.629L406.619 363.289C405.248 363.055 402.683 362.731 399.451 362.731ZM374.623 364.531C365.614 364.531 358.301 371.826 358.301 380.814C358.301 389.802 365.614 397.096 374.623 397.096C383.633 397.096 390.946 389.802 390.946 380.814C390.946 371.826 383.633 364.531 374.623 364.531ZM340.365 374.132L340.61 389.531L332.173 405.201H335.592L341.594 394.035L344.338 405.201H347.448L343.623 389.711L343.381 374.582L340.365 374.132ZM407.053 374.402L404.489 374.798L404.345 388.144L399.975 398.176L401.311 402.68L405.771 392.413L411.35 405.201H414.636L407.198 388.144L407.053 374.402ZM356.549 376.491C355.7 378.67 355.248 381.03 355.248 383.498C355.248 394.215 363.934 402.86 374.623 402.86C385.313 402.86 393.998 394.215 393.998 383.498C393.998 381.03 393.546 378.67 392.698 376.491C393.023 377.878 393.204 379.337 393.204 380.814C393.204 390.973 384.879 399.438 374.623 399.438C364.368 399.438 356.043 390.973 356.043 380.814C356.043 379.337 356.224 377.878 356.549 376.491ZM353.298 390.432L349.651 405.201H354.292L356.423 396.556C355.087 394.575 354.021 392.593 353.298 390.432ZM395.949 390.432C395.226 392.593 394.16 394.575 392.824 396.556L394.955 405.201H399.595L395.949 390.432Z" fill="#3D77A2"/>
<path d="M358.029 434.07H353.49V421.757H358.023C359.274 421.757 360.352 422.003 361.255 422.497C362.162 422.985 362.861 423.69 363.353 424.613C363.844 425.531 364.09 426.629 364.09 427.907C364.09 429.19 363.844 430.292 363.353 431.213C362.865 432.136 362.168 432.843 361.261 433.336C360.353 433.825 359.276 434.07 358.029 434.07ZM356.458 431.533H357.915C358.602 431.533 359.184 431.417 359.66 431.184C360.14 430.947 360.501 430.565 360.745 430.035C360.992 429.502 361.116 428.794 361.116 427.907C361.116 427.022 360.992 426.316 360.745 425.791C360.497 425.262 360.131 424.881 359.648 424.649C359.168 424.412 358.577 424.294 357.874 424.294H356.458V431.533ZM365.823 434.07V424.836H368.671V426.519H368.767C368.935 425.909 369.208 425.456 369.588 425.16C369.968 424.86 370.41 424.709 370.914 424.709C371.049 424.709 371.189 424.719 371.333 424.739C371.477 424.754 371.611 424.781 371.735 424.817V427.373C371.595 427.324 371.411 427.286 371.184 427.258C370.96 427.23 370.759 427.215 370.583 427.215C370.236 427.215 369.922 427.294 369.643 427.45C369.366 427.602 369.149 427.818 368.989 428.093C368.833 428.367 368.755 428.687 368.755 429.056V434.07H365.823ZM378.871 430.084V424.836H381.796V434.07H379.003V432.35H378.907C378.703 432.915 378.356 433.365 377.864 433.697C377.377 434.026 376.787 434.189 376.096 434.189C375.467 434.189 374.916 434.046 374.44 433.757C373.965 433.469 373.595 433.066 373.332 432.548C373.068 432.027 372.934 431.419 372.93 430.721V424.836H375.862V430.144C375.865 430.645 375.997 431.039 376.257 431.328C376.517 431.617 376.87 431.761 377.319 431.761C377.61 431.761 377.872 431.697 378.104 431.569C378.34 431.436 378.526 431.246 378.661 430.998C378.801 430.745 378.871 430.441 378.871 430.084ZM383.663 434.07V424.836H386.451V426.531H386.553C386.744 425.97 387.069 425.526 387.525 425.202C387.979 424.877 388.523 424.715 389.155 424.715C389.794 424.715 390.342 424.879 390.798 425.208C391.254 425.537 391.543 425.977 391.667 426.531H391.764C391.935 425.982 392.27 425.543 392.771 425.214C393.27 424.881 393.86 424.715 394.539 424.715C395.411 424.715 396.119 424.995 396.661 425.556C397.205 426.114 397.476 426.879 397.476 427.853V434.07H394.545V428.526C394.545 428.066 394.428 427.715 394.191 427.474C393.955 427.23 393.65 427.108 393.274 427.108C392.871 427.108 392.552 427.24 392.321 427.504C392.093 427.764 391.978 428.115 391.978 428.557V434.07H389.161V428.496C389.161 428.068 389.045 427.729 388.813 427.48C388.581 427.232 388.276 427.108 387.896 427.108C387.641 427.108 387.414 427.169 387.218 427.294C387.023 427.414 386.869 427.587 386.757 427.812C386.649 428.035 386.595 428.3 386.595 428.605V434.07H383.663Z" fill="#3D77A2"/>
<g filter="url(#filter5_d_157_155)">
<mask id="mask4_157_155" style="mask-type:luminance" maskUnits="userSpaceOnUse" x="104" y="37" width="356" height="55">
<path d="M435.761 37.4186H128.239C114.918 37.4186 104.119 48.247 104.119 61.6046V67.6511C104.119 81.0087 114.918 91.8372 128.239 91.8372H435.761C449.082 91.8372 459.881 81.0087 459.881 67.6511V61.6046C459.881 48.247 449.082 37.4186 435.761 37.4186Z" fill="white"/>
</mask>
<g mask="url(#mask4_157_155)">
<path d="M435.761 37.4186H128.239C114.918 37.4186 104.119 48.247 104.119 61.6046V67.6511C104.119 81.0087 114.918 91.8372 128.239 91.8372H435.761C449.082 91.8372 459.881 81.0087 459.881 67.6511V61.6046C459.881 48.247 449.082 37.4186 435.761 37.4186Z" fill="#B9DBF2"/>
<path d="M252.052 61.7935C251.932 61.3756 251.764 61.0062 251.547 60.6857C251.33 60.3593 251.064 60.0844 250.75 59.861C250.442 59.632 250.088 59.4574 249.688 59.3372C249.294 59.217 248.857 59.1569 248.378 59.1569C247.481 59.1569 246.693 59.3801 246.014 59.8267C245.34 60.2733 244.814 60.9233 244.438 61.7763C244.06 62.6238 243.872 63.6602 243.872 64.8856C243.872 66.1108 244.058 67.153 244.429 68.0118C244.801 68.8707 245.325 69.5264 246.005 69.9787C246.684 70.4253 247.486 70.6486 248.411 70.6486C249.251 70.6486 249.968 70.4997 250.562 70.202C251.161 69.8985 251.618 69.472 251.932 68.9222C252.252 68.3726 252.411 67.7227 252.411 66.9726L253.165 67.0842H248.643V64.2843H255.984V66.5002C255.984 68.0462 255.658 69.3746 255.007 70.4855C254.356 71.5905 253.459 72.4437 252.317 73.0448C251.175 73.6404 249.868 73.9382 248.394 73.9382C246.751 73.9382 245.306 73.5745 244.06 72.8474C242.816 72.1144 241.845 71.0751 241.149 69.7297C240.458 68.3783 240.112 66.7751 240.112 64.9199C240.112 63.4941 240.318 62.223 240.729 61.1065C241.145 59.9841 241.728 59.0337 242.477 58.255C243.224 57.4763 244.095 56.8836 245.089 56.477C246.083 56.0706 247.158 55.8673 248.317 55.8673C249.311 55.8673 250.236 56.0133 251.092 56.3053C251.95 56.5916 252.708 56.9981 253.371 57.5249C254.04 58.0517 254.585 58.6787 255.007 59.4059C255.43 60.1273 255.7 60.9233 255.821 61.7935H252.052ZM258.701 73.6976V60.5052H262.238V62.807H262.375C262.615 61.9882 263.018 61.3699 263.582 60.9518C264.148 60.5281 264.799 60.3163 265.536 60.3163C265.718 60.3163 265.916 60.3277 266.127 60.3507C266.338 60.3735 266.524 60.405 266.683 60.4451V63.6917C266.512 63.6401 266.275 63.5944 265.973 63.5542C265.67 63.5142 265.393 63.4941 265.142 63.4941C264.605 63.4941 264.125 63.6116 263.703 63.8463C263.286 64.0753 262.955 64.3959 262.709 64.8082C262.469 65.2205 262.35 65.6957 262.35 66.2339V73.6976H258.701ZM273.902 73.9553C272.572 73.9553 271.421 73.6719 270.45 73.1049C269.484 72.5325 268.739 71.7365 268.215 70.7173C267.689 69.6924 267.426 68.5043 267.426 67.153C267.426 65.7902 267.689 64.5992 268.215 63.58C268.739 62.5551 269.484 61.7592 270.45 61.1924C271.421 60.6197 272.572 60.3335 273.902 60.3335C275.232 60.3335 276.38 60.6197 277.345 61.1924C278.316 61.7592 279.063 62.5551 279.589 63.58C280.114 64.5992 280.377 65.7902 280.377 67.153C280.377 68.5043 280.114 69.6924 279.589 70.7173C279.063 71.7365 278.316 72.5325 277.345 73.1049C276.38 73.6719 275.232 73.9553 273.902 73.9553ZM273.919 71.121C274.524 71.121 275.029 70.9492 275.435 70.6057C275.84 70.2564 276.146 69.7812 276.351 69.1799C276.562 68.5787 276.668 67.8944 276.668 67.1272C276.668 66.3599 276.562 65.6757 276.351 65.0745C276.146 64.4733 275.84 63.9981 275.435 63.6487C275.029 63.2994 274.524 63.1248 273.919 63.1248C273.307 63.1248 272.794 63.2994 272.378 63.6487C271.966 63.9981 271.655 64.4733 271.443 65.0745C271.238 65.6757 271.135 66.3599 271.135 67.1272C271.135 67.8944 271.238 68.5787 271.443 69.1799C271.655 69.7812 271.966 70.2564 272.378 70.6057C272.794 70.9492 273.307 71.121 273.919 71.121ZM291.186 68.0805V60.5052H294.835V73.6976H291.332V71.3014H291.194C290.898 72.0744 290.404 72.6956 289.713 73.1652C289.027 73.6346 288.191 73.8693 287.204 73.8693C286.323 73.8693 285.55 73.669 284.882 73.2682C284.214 72.8673 283.692 72.2976 283.314 71.559C282.943 70.8203 282.755 69.9357 282.749 68.905V60.5052H286.398V68.2524C286.404 69.031 286.613 69.6466 287.023 70.0989C287.434 70.5513 287.985 70.7774 288.676 70.7774C289.116 70.7774 289.528 70.6773 289.91 70.4768C290.292 70.2707 290.601 69.9672 290.835 69.5664C291.075 69.1656 291.192 68.6703 291.186 68.0805ZM297.754 78.6448V60.5052H301.351V62.7212H301.514C301.673 62.3661 301.905 62.0054 302.207 61.6389C302.516 61.2667 302.915 60.9576 303.406 60.7114C303.903 60.4594 304.52 60.3335 305.256 60.3335C306.216 60.3335 307.101 60.5854 307.911 61.0893C308.722 61.5874 309.371 62.3403 309.855 63.3482C310.341 64.3502 310.584 65.607 310.584 67.1187C310.584 68.5901 310.348 69.8327 309.874 70.8461C309.404 71.8539 308.765 72.6183 307.955 73.1394C307.149 73.6547 306.247 73.9124 305.247 73.9124C304.54 73.9124 303.938 73.795 303.441 73.5603C302.95 73.3254 302.547 73.0306 302.233 72.6755C301.919 72.3148 301.679 71.9513 301.514 71.5847H301.402V78.6448H297.754ZM301.326 67.1015C301.326 67.8858 301.433 68.5701 301.65 69.1542C301.867 69.7383 302.182 70.1934 302.593 70.5198C303.004 70.8404 303.504 71.0008 304.092 71.0008C304.685 71.0008 305.188 70.8375 305.6 70.5112C306.01 70.179 306.321 69.721 306.533 69.137C306.75 68.5472 306.859 67.8687 306.859 67.1015C306.859 66.3399 306.753 65.6699 306.541 65.0916C306.33 64.5133 306.019 64.0609 305.608 63.7347C305.197 63.4083 304.692 63.245 304.092 63.245C303.498 63.245 302.995 63.4025 302.585 63.7175C302.178 64.0324 301.867 64.479 301.65 65.0573C301.433 65.6356 301.326 66.317 301.326 67.1015ZM323.963 64.2671L320.622 64.4733C320.566 64.1869 320.443 63.9292 320.255 63.7003C320.065 63.4655 319.817 63.2794 319.509 63.142C319.207 62.9988 318.844 62.9273 318.421 62.9273C317.856 62.9273 317.38 63.0475 316.991 63.288C316.603 63.5228 316.409 63.8377 316.409 64.2328C316.409 64.5477 316.534 64.814 316.785 65.0315C317.036 65.2491 317.468 65.4237 318.079 65.5554L320.46 66.0365C321.739 66.2998 322.692 66.7236 323.32 67.3076C323.948 67.8916 324.262 68.6588 324.262 69.6093C324.262 70.474 324.009 71.2326 323.5 71.8854C322.998 72.5381 322.307 73.0477 321.428 73.4142C320.554 73.7749 319.545 73.9553 318.403 73.9553C316.662 73.9553 315.275 73.5917 314.242 72.8645C313.213 72.1316 312.611 71.1354 312.434 69.8756L316.023 69.6866C316.131 70.2192 316.394 70.6258 316.81 70.9063C317.228 71.1811 317.762 71.3186 318.413 71.3186C319.052 71.3186 319.566 71.1955 319.954 70.9492C320.349 70.6972 320.548 70.3737 320.554 69.9787C320.548 69.6466 320.408 69.3746 320.134 69.1627C319.86 68.9452 319.437 68.7792 318.866 68.6646L316.588 68.2093C315.303 67.9517 314.347 67.5052 313.718 66.8695C313.096 66.2339 312.785 65.4237 312.785 64.439C312.785 63.5915 313.014 62.8614 313.471 62.2488C313.933 61.636 314.58 61.1637 315.415 60.8316C316.254 60.4995 317.236 60.3335 318.361 60.3335C320.023 60.3335 321.33 60.6857 322.284 61.3898C323.243 62.0941 323.803 63.0532 323.963 64.2671Z" fill="#274765"/>
</g>
<path d="M435.761 38.0232H128.239C115.251 38.0232 104.722 48.5809 104.722 61.6046V67.6511C104.722 80.6747 115.251 91.2325 128.239 91.2325H435.761C448.749 91.2325 459.278 80.6747 459.278 67.6511V61.6046C459.278 48.5809 448.749 38.0232 435.761 38.0232Z" stroke="#E7E7EA"/>
</g>
<defs>
<filter id="filter0_d_157_155" x="0.602966" y="0.348877" width="562.794" height="576" filterUnits="userSpaceOnUse" color-interpolation-filters="sRGB">
<feFlood flood-opacity="0" result="BackgroundImageFix"/>
<feColorMatrix in="SourceAlpha" type="matrix" values="0 0 0 0 0 0 0 0 0 0 0 0 0 0 0 0 0 0 127 0" result="hardAlpha"/>
<feOffset/>
<feGaussianBlur stdDeviation="40"/>
<feComposite in2="hardAlpha" operator="out"/>
<feColorMatrix type="matrix" values="0 0 0 0 0.603922 0 0 0 0 0.784314 0 0 0 0 0.921569 0 0 0 1 0"/>
<feBlend mode="normal" in2="BackgroundImageFix" result="effect1_dropShadow_157_155"/>
<feBlend mode="normal" in="SourceGraphic" in2="effect1_dropShadow_157_155" result="shape"/>
</filter>
<filter id="filter1_d_157_155" x="105.531" y="111.395" width="166.012" height="166.465" filterUnits="userSpaceOnUse" color-interpolation-filters="sRGB">
<feFlood flood-opacity="0" result="BackgroundImageFix"/>
<feColorMatrix in="SourceAlpha" type="matrix" values="0 0 0 0 0 0 0 0 0 0 0 0 0 0 0 0 0 0 127 0" result="hardAlpha"/>
<feOffset/>
<feGaussianBlur stdDeviation="0.5"/>
<feComposite in2="hardAlpha" operator="out"/>
<feColorMatrix type="matrix" values="0 0 0 0 0 0 0 0 0 0 0 0 0 0 0 0 0 0 0.1 0"/>
<feBlend mode="normal" in2="BackgroundImageFix" result="effect1_dropShadow_157_155"/>
<feBlend mode="normal" in="SourceGraphic" in2="effect1_dropShadow_157_155" result="shape"/>
</filter>
<filter id="filter2_d_157_155" x="292.457" y="111.395" width="166.012" height="166.465" filterUnits="userSpaceOnUse" color-interpolation-filters="sRGB">
<feFlood flood-opacity="0" result="BackgroundImageFix"/>
<feColorMatrix in="SourceAlpha" type="matrix" values="0 0 0 0 0 0 0 0 0 0 0 0 0 0 0 0 0 0 127 0" result="hardAlpha"/>
<feOffset/>
<feGaussianBlur stdDeviation="0.5"/>
<feComposite in2="hardAlpha" operator="out"/>
<feColorMatrix type="matrix" values="0 0 0 0 0 0 0 0 0 0 0 0 0 0 0 0 0 0 0.1 0"/>
<feBlend mode="normal" in2="BackgroundImageFix" result="effect1_dropShadow_157_155"/>
<feBlend mode="normal" in="SourceGraphic" in2="effect1_dropShadow_157_155" result="shape"/>
</filter>
<filter id="filter3_d_157_155" x="105.531" y="298.837" width="166.012" height="166.465" filterUnits="userSpaceOnUse" color-interpolation-filters="sRGB">
<feFlood flood-opacity="0" result="BackgroundImageFix"/>
<feColorMatrix in="SourceAlpha" type="matrix" values="0 0 0 0 0 0 0 0 0 0 0 0 0 0 0 0 0 0 127 0" result="hardAlpha"/>
<feOffset/>
<feGaussianBlur stdDeviation="0.5"/>
<feComposite in2="hardAlpha" operator="out"/>
<feColorMatrix type="matrix" values="0 0 0 0 0 0 0 0 0 0 0 0 0 0 0 0 0 0 0.1 0"/>
<feBlend mode="normal" in2="BackgroundImageFix" result="effect1_dropShadow_157_155"/>
<feBlend mode="normal" in="SourceGraphic" in2="effect1_dropShadow_157_155" result="shape"/>
</filter>
<filter id="filter4_d_157_155" x="292.457" y="298.837" width="166.012" height="166.465" filterUnits="userSpaceOnUse" color-interpolation-filters="sRGB">
<feFlood flood-opacity="0" result="BackgroundImageFix"/>
<feColorMatrix in="SourceAlpha" type="matrix" values="0 0 0 0 0 0 0 0 0 0 0 0 0 0 0 0 0 0 127 0" result="hardAlpha"/>
<feOffset/>
<feGaussianBlur stdDeviation="0.5"/>
<feComposite in2="hardAlpha" operator="out"/>
<feColorMatrix type="matrix" values="0 0 0 0 0 0 0 0 0 0 0 0 0 0 0 0 0 0 0.1 0"/>
<feBlend mode="normal" in2="BackgroundImageFix" result="effect1_dropShadow_157_155"/>
<feBlend mode="normal" in="SourceGraphic" in2="effect1_dropShadow_157_155" result="shape"/>
</filter>
<filter id="filter5_d_157_155" x="99.1194" y="35.4186" width="365.761" height="64.4186" filterUnits="userSpaceOnUse" color-interpolation-filters="sRGB">
<feFlood flood-opacity="0" result="BackgroundImageFix"/>
<feColorMatrix in="SourceAlpha" type="matrix" values="0 0 0 0 0 0 0 0 0 0 0 0 0 0 0 0 0 0 127 0" result="hardAlpha"/>
<feOffset dy="3"/>
<feGaussianBlur stdDeviation="2.5"/>
<feComposite in2="hardAlpha" operator="out"/>
<feColorMatrix type="matrix" values="0 0 0 0 0.804769 0 0 0 0 0.804769 0 0 0 0 0.804769 0 0 0 0.25 0"/>
<feBlend mode="normal" in2="BackgroundImageFix" result="effect1_dropShadow_157_155"/>
<feBlend mode="normal" in="SourceGraphic" in2="effect1_dropShadow_157_155" result="shape"/>
</filter>
</defs>
</svg>
