<svg width="565" height="583" viewBox="0 0 565 583" fill="none" xmlns="http://www.w3.org/2000/svg">
<g filter="url(#filter0_d_158_203)">
<path d="M104.179 80.3489H460.821C473.841 80.3489 484.396 90.9066 484.396 103.93V478.814C484.396 491.838 473.841 502.395 460.821 502.395H104.179C91.1592 502.395 80.6045 491.838 80.6045 478.814V103.93C80.6045 90.9066 91.1592 80.3489 104.179 80.3489Z" fill="white"/>
</g>
<path d="M104.179 80.3489H460.821C473.841 80.3489 484.396 90.9066 484.396 103.93V478.814C484.396 491.838 473.841 502.395 460.821 502.395H104.179C91.1592 502.395 80.6045 491.838 80.6045 478.814V103.93C80.6045 90.9066 91.1592 80.3489 104.179 80.3489Z" stroke="#E5E5E5"/>
<g filter="url(#filter1_d_158_203)">
<path d="M442.687 122.07H122.313C108.96 122.07 98.1343 132.898 98.1343 146.256V170.442C98.1343 183.799 108.96 194.628 122.313 194.628H442.687C456.04 194.628 466.866 183.799 466.866 170.442V146.256C466.866 132.898 456.04 122.07 442.687 122.07Z" fill="#F9FAFB"/>
<path d="M442.686 125.093H122.313C110.629 125.093 101.157 134.568 101.157 146.256V170.442C101.157 182.13 110.629 191.605 122.313 191.605H442.686C454.371 191.605 463.843 182.13 463.843 170.442V146.256C463.843 134.568 454.371 125.093 442.686 125.093Z" stroke="#D1D5DB" stroke-width="5"/>
<path d="M218.753 165.605V153.292H221.728V163.187H226.848V165.605H218.753ZM228.388 165.605V156.37H231.327V165.605H228.388ZM229.861 155.294C229.449 155.294 229.094 155.157 228.797 154.885C228.501 154.608 228.352 154.276 228.352 153.887C228.352 153.502 228.501 153.173 228.797 152.901C229.094 152.624 229.449 152.486 229.861 152.486C230.278 152.486 230.632 152.624 230.925 152.901C231.222 153.173 231.37 153.502 231.37 153.887C231.37 154.276 231.222 154.608 230.925 154.885C230.632 155.157 230.278 155.294 229.861 155.294ZM237.501 169.26C236.625 169.26 235.873 169.138 235.248 168.893C234.623 168.648 234.132 168.315 233.775 167.889C233.419 167.465 233.205 166.983 233.132 166.446L235.915 166.29C235.967 166.479 236.064 166.642 236.204 166.782C236.348 166.923 236.534 167.032 236.763 167.108C236.995 167.184 237.268 167.221 237.58 167.221C238.073 167.221 238.479 167.102 238.8 166.861C239.125 166.625 239.287 166.209 239.287 165.617V163.994H239.185C239.068 164.278 238.893 164.532 238.656 164.757C238.419 164.982 238.125 165.157 237.772 165.287C237.424 165.415 237.023 165.479 236.571 165.479C235.897 165.479 235.281 165.322 234.72 165.01C234.162 164.693 233.715 164.204 233.379 163.543C233.046 162.878 232.88 162.021 232.88 160.975C232.88 159.897 233.052 159.009 233.397 158.311C233.742 157.61 234.192 157.091 234.749 156.755C235.311 156.418 235.913 156.249 236.558 156.249C237.043 156.249 237.458 156.334 237.802 156.502C238.151 156.667 238.437 156.879 238.662 157.139C238.887 157.399 239.056 157.67 239.173 157.951H239.257V156.37H242.184V165.641C242.184 166.422 241.988 167.081 241.595 167.618C241.202 168.156 240.653 168.563 239.948 168.839C239.243 169.12 238.427 169.26 237.501 169.26ZM237.592 163.338C237.949 163.338 238.253 163.244 238.506 163.055C238.759 162.867 238.952 162.597 239.089 162.244C239.225 161.891 239.293 161.469 239.293 160.975C239.293 160.475 239.225 160.043 239.089 159.683C238.957 159.317 238.762 159.037 238.506 158.841C238.253 158.645 237.949 158.546 237.592 158.546C237.227 158.546 236.919 158.646 236.666 158.847C236.415 159.048 236.222 159.33 236.089 159.695C235.961 160.055 235.897 160.482 235.897 160.975C235.897 161.469 235.964 161.891 236.095 162.244C236.227 162.597 236.418 162.867 236.666 163.055C236.919 163.244 237.227 163.338 237.592 163.338ZM246.997 160.338V165.605H244.058V153.292H246.901V158.066H247.003C247.212 157.496 247.551 157.051 248.024 156.731C248.502 156.41 249.084 156.249 249.773 156.249C250.423 156.249 250.987 156.395 251.468 156.682C251.95 156.967 252.322 157.37 252.587 157.89C252.855 158.412 252.987 159.021 252.983 159.719V165.605H250.044V160.296C250.048 159.783 249.92 159.382 249.66 159.094C249.399 158.805 249.032 158.661 248.56 158.661C248.251 158.661 247.978 158.729 247.742 158.865C247.51 158.997 247.328 159.188 247.195 159.436C247.067 159.685 247.001 159.985 246.997 160.338ZM260.029 156.37V158.534H254.206V156.37H260.029ZM255.425 154.157H258.364V162.701C258.364 162.881 258.392 163.028 258.448 163.14C258.508 163.248 258.594 163.326 258.706 163.375C258.819 163.418 258.953 163.44 259.109 163.44C259.221 163.44 259.34 163.43 259.464 163.41C259.593 163.386 259.688 163.366 259.752 163.35L260.197 165.473C260.057 165.513 259.859 165.562 259.602 165.623C259.35 165.683 259.047 165.721 258.694 165.736C258.005 165.769 257.414 165.689 256.922 165.497C256.432 165.3 256.058 164.995 255.798 164.583C255.541 164.169 255.417 163.65 255.425 163.025V154.157Z" fill="#6B7280"/>
<mask id="mask0_158_203" style="mask-type:luminance" maskUnits="userSpaceOnUse" x="180" y="145" width="27" height="27">
<path d="M206.94 145.047H180.343V171.651H206.94V145.047Z" fill="white"/>
</mask>
<g mask="url(#mask0_158_203)">
<path d="M183.668 155.023C183.668 153.376 184.076 151.754 184.855 150.303C185.634 148.851 186.761 147.616 188.134 146.706C189.507 145.796 191.084 145.24 192.724 145.089C194.364 144.937 196.016 145.194 197.532 145.837C199.049 146.479 200.383 147.488 201.414 148.772C202.447 150.055 203.145 151.575 203.446 153.195C203.749 154.814 203.645 156.483 203.144 158.053C202.645 159.622 201.764 161.045 200.58 162.19C200.243 162.516 199.983 162.855 199.827 163.219L198.56 166.161C198.496 166.31 198.39 166.437 198.254 166.526C198.119 166.616 197.96 166.663 197.798 166.663C198.018 166.663 198.229 166.75 198.385 166.906C198.541 167.062 198.629 167.274 198.629 167.495C198.629 167.715 198.541 167.927 198.385 168.083C198.229 168.239 198.018 168.326 197.798 168.326C198.018 168.326 198.229 168.413 198.385 168.569C198.541 168.725 198.629 168.936 198.629 169.158C198.629 169.378 198.541 169.589 198.385 169.745C198.229 169.901 198.018 169.989 197.798 169.989L197.425 170.732C197.287 171.008 197.075 171.24 196.813 171.402C196.55 171.565 196.248 171.651 195.939 171.651H191.344C191.036 171.651 190.733 171.565 190.471 171.402C190.208 171.24 189.996 171.008 189.858 170.732L189.486 169.989C189.266 169.989 189.054 169.901 188.898 169.745C188.742 169.589 188.655 169.378 188.655 169.158C188.655 168.936 188.742 168.725 188.898 168.569C189.054 168.413 189.266 168.326 189.486 168.326C189.266 168.326 189.054 168.239 188.898 168.083C188.742 167.927 188.655 167.715 188.655 167.495C188.655 167.274 188.742 167.062 188.898 166.906C189.054 166.75 189.266 166.663 189.486 166.663C189.323 166.663 189.164 166.616 189.028 166.526C188.892 166.437 188.786 166.31 188.721 166.161L187.456 163.218C187.274 162.829 187.018 162.481 186.703 162.19C185.741 161.261 184.977 160.147 184.455 158.916C183.934 157.685 183.666 156.361 183.668 155.023ZM193.642 146.709C191.986 146.709 190.369 147.203 188.996 148.129C187.623 149.054 186.558 150.368 185.936 151.903C185.315 153.438 185.166 155.123 185.509 156.743C185.851 158.363 186.669 159.845 187.859 160.996C188.296 161.418 188.713 161.935 188.982 162.561L190.035 165H197.252L198.303 162.561C198.572 161.935 198.989 161.418 199.427 160.996C200.616 159.844 201.435 158.363 201.777 156.743C202.119 155.123 201.97 153.437 201.349 151.902C200.727 150.367 199.661 149.053 198.288 148.128C196.915 147.203 195.297 146.709 193.642 146.709Z" fill="#6B7280"/>
</g>
<path d="M460.821 157.321C460.821 146.991 460.821 141.825 458.779 137.894C457.059 134.581 454.358 131.879 451.046 130.158C447.116 128.116 441.951 128.116 431.625 128.116H376.194V188.581H431.625C441.951 188.581 447.116 188.581 451.046 186.539C454.358 184.818 457.059 182.116 458.779 178.804C460.821 174.873 460.821 169.707 460.821 159.377V157.321Z" fill="#5BB3E2"/>
</g>
<g filter="url(#filter2_d_158_203)">
<path d="M141.052 109.977H116.873C109.862 109.977 104.179 115.662 104.179 122.674C104.179 129.687 109.862 135.372 116.873 135.372H141.052C148.063 135.372 153.746 129.687 153.746 122.674C153.746 115.662 148.063 109.977 141.052 109.977Z" fill="#6B7280"/>
<path d="M113.44 128.116V117.562H115.99V122.025H116.13L119.617 117.562H122.621L118.881 122.272L122.688 128.116H119.638L117.01 123.968L115.99 125.256V128.116H113.44ZM124.123 128.116V120.201H126.642V128.116H124.123ZM125.385 119.278C125.031 119.278 124.727 119.162 124.473 118.928C124.219 118.691 124.092 118.406 124.092 118.073C124.092 117.743 124.219 117.461 124.473 117.227C124.727 116.99 125.031 116.872 125.385 116.872C125.742 116.872 126.046 116.99 126.297 117.227C126.551 117.461 126.678 117.743 126.678 118.073C126.678 118.406 126.551 118.691 126.297 118.928C126.046 119.162 125.742 119.278 125.385 119.278ZM131.939 128.266C131.105 128.266 130.388 128.094 129.791 127.75C129.197 127.407 128.74 126.929 128.42 126.318C128.101 125.703 127.941 124.992 127.941 124.184C127.941 123.374 128.101 122.662 128.42 122.051C128.743 121.436 129.202 120.957 129.796 120.613C130.394 120.27 131.106 120.098 131.934 120.098C132.666 120.098 133.303 120.23 133.845 120.495C134.391 120.759 134.817 121.134 135.123 121.618C135.432 122.099 135.595 122.664 135.612 123.313H133.258C133.21 122.908 133.073 122.59 132.846 122.36C132.623 122.13 132.331 122.015 131.97 122.015C131.678 122.015 131.422 122.097 131.202 122.262C130.983 122.424 130.811 122.664 130.687 122.984C130.567 123.3 130.507 123.691 130.507 124.159C130.507 124.626 130.567 125.021 130.687 125.344C130.811 125.663 130.983 125.906 131.202 126.07C131.422 126.232 131.678 126.313 131.97 126.313C132.204 126.313 132.41 126.263 132.588 126.163C132.77 126.064 132.92 125.918 133.037 125.725C133.153 125.529 133.227 125.292 133.258 125.014H135.612C135.588 125.667 135.425 126.237 135.123 126.725C134.824 127.213 134.403 127.592 133.861 127.864C133.322 128.132 132.681 128.266 131.939 128.266ZM139.174 126.04L139.184 123.035H139.534L141.76 120.201H144.614L141.306 124.262H140.642L139.174 126.04ZM136.902 128.116V117.562H139.421V128.116H136.902ZM141.816 128.116L139.745 124.828L141.404 123.04L144.727 128.116H141.816Z" fill="#F9FAFB"/>
</g>
<g filter="url(#filter3_d_158_203)">
<path d="M442.687 224.86H122.313C108.96 224.86 98.1343 235.689 98.1343 249.046V339.744C98.1343 353.102 108.96 363.93 122.313 363.93H442.687C456.04 363.93 466.866 353.102 466.866 339.744V249.046C466.866 235.689 456.04 224.86 442.687 224.86Z" fill="white"/>
<path d="M442.686 227.884H122.313C110.629 227.884 101.157 237.358 101.157 249.046V339.744C101.157 351.432 110.629 360.907 122.313 360.907H442.686C454.371 360.907 463.843 351.432 463.843 339.744V249.046C463.843 237.358 454.371 227.884 442.686 227.884Z" stroke="#9AC8EB" stroke-width="5"/>
<path d="M216.335 268.395V256.082H224.737V258.499H219.31V261.024H224.202V263.447H219.31V268.395H216.335ZM228.689 268.551C228.099 268.551 227.577 268.453 227.12 268.257C226.668 268.057 226.309 267.755 226.044 267.355C225.784 266.95 225.654 266.443 225.654 265.834C225.654 265.321 225.744 264.888 225.925 264.535C226.105 264.183 226.352 263.897 226.669 263.675C226.986 263.455 227.351 263.288 227.763 263.177C228.176 263.061 228.617 262.982 229.086 262.942C229.611 262.894 230.034 262.844 230.354 262.791C230.674 262.736 230.907 262.657 231.052 262.558C231.199 262.453 231.273 262.306 231.273 262.119V262.089C231.273 261.78 231.168 261.541 230.955 261.373C230.742 261.205 230.456 261.12 230.095 261.12C229.707 261.12 229.394 261.205 229.157 261.373C228.922 261.541 228.772 261.774 228.708 262.071L225.996 261.974C226.077 261.413 226.282 260.912 226.616 260.471C226.952 260.027 227.413 259.677 227.998 259.425C228.587 259.168 229.294 259.04 230.12 259.04C230.708 259.04 231.251 259.11 231.748 259.25C232.245 259.387 232.678 259.588 233.046 259.851C233.415 260.113 233.699 260.433 233.9 260.814C234.104 261.195 234.207 261.629 234.207 262.119V268.395H231.442V267.108H231.37C231.205 267.422 230.995 267.685 230.739 267.902C230.486 268.118 230.187 268.281 229.843 268.389C229.503 268.498 229.117 268.551 228.689 268.551ZM229.596 266.627C229.913 266.627 230.198 266.563 230.45 266.435C230.706 266.307 230.911 266.13 231.063 265.906C231.215 265.678 231.291 265.413 231.291 265.113V264.235C231.208 264.279 231.105 264.319 230.985 264.355C230.869 264.391 230.741 264.425 230.601 264.458C230.461 264.489 230.315 264.517 230.168 264.541C230.019 264.565 229.877 264.587 229.741 264.608C229.464 264.651 229.227 264.72 229.032 264.812C228.839 264.904 228.691 265.025 228.587 265.172C228.486 265.317 228.437 265.489 228.437 265.69C228.437 265.995 228.544 266.227 228.761 266.387C228.982 266.547 229.26 266.627 229.596 266.627ZM244.064 261.98L241.365 262.052C241.337 261.86 241.261 261.69 241.137 261.541C241.012 261.388 240.85 261.271 240.65 261.187C240.454 261.098 240.225 261.055 239.964 261.055C239.624 261.055 239.333 261.122 239.094 261.259C238.857 261.395 238.741 261.58 238.744 261.812C238.741 261.992 238.813 262.149 238.961 262.281C239.113 262.413 239.384 262.519 239.772 262.599L241.551 262.936C242.473 263.113 243.158 263.406 243.607 263.814C244.06 264.223 244.289 264.764 244.292 265.437C244.289 266.071 244.1 266.621 243.728 267.09C243.359 267.56 242.854 267.925 242.213 268.185C241.571 268.441 240.838 268.569 240.012 268.569C238.695 268.569 237.655 268.298 236.893 267.758C236.137 267.212 235.704 266.483 235.595 265.569L238.498 265.498C238.562 265.834 238.729 266.09 238.997 266.267C239.265 266.443 239.607 266.532 240.025 266.532C240.402 266.532 240.708 266.461 240.945 266.321C241.18 266.181 241.301 265.995 241.305 265.761C241.301 265.553 241.209 265.388 241.028 265.263C240.848 265.135 240.566 265.034 240.181 264.962L238.57 264.656C237.644 264.487 236.955 264.177 236.503 263.724C236.05 263.266 235.826 262.686 235.829 261.98C235.826 261.363 235.99 260.836 236.323 260.399C236.655 259.958 237.128 259.622 237.741 259.389C238.354 259.156 239.077 259.04 239.911 259.04C241.161 259.04 242.146 259.302 242.868 259.827C243.589 260.348 243.988 261.067 244.064 261.98ZM250.95 259.161V261.324H245.126V259.161H250.95ZM246.346 256.948H249.285V265.492C249.285 265.672 249.313 265.818 249.37 265.931C249.429 266.038 249.516 266.117 249.627 266.165C249.74 266.209 249.874 266.231 250.031 266.231C250.142 266.231 250.261 266.221 250.385 266.2C250.513 266.176 250.61 266.157 250.674 266.141L251.118 268.263C250.978 268.303 250.779 268.353 250.523 268.413C250.27 268.474 249.968 268.511 249.616 268.527C248.926 268.56 248.336 268.48 247.843 268.288C247.354 268.09 246.98 267.786 246.719 267.373C246.462 266.96 246.338 266.441 246.346 265.816V256.948Z" fill="#3D77A2"/>
<path d="M203.095 257.698L201.731 259.749C202.388 261.061 202.71 262.514 202.668 263.981C202.625 265.447 202.22 266.88 201.488 268.152H186.128C185.176 266.5 184.782 264.586 185.003 262.692C185.225 260.798 186.05 259.027 187.357 257.64C188.665 256.253 190.384 255.324 192.26 254.991C194.137 254.657 196.071 254.938 197.775 255.792L199.825 254.428C197.738 253.089 195.262 252.489 192.793 252.724C190.325 252.958 188.007 254.015 186.209 255.724C184.412 257.433 183.239 259.694 182.879 262.149C182.518 264.603 182.991 267.106 184.222 269.26C184.415 269.595 184.693 269.874 185.027 270.068C185.362 270.262 185.741 270.366 186.128 270.369H201.477C201.867 270.37 202.251 270.268 202.589 270.074C202.929 269.879 203.209 269.598 203.405 269.26C204.426 267.491 204.938 265.473 204.885 263.431C204.833 261.39 204.216 259.402 203.105 257.687L203.095 257.698ZM192.245 265.28C192.451 265.487 192.695 265.65 192.964 265.761C193.234 265.874 193.522 265.931 193.813 265.931C194.104 265.931 194.393 265.874 194.662 265.761C194.931 265.65 195.176 265.487 195.381 265.28L201.653 255.869L192.245 262.143C192.039 262.349 191.876 262.594 191.764 262.863C191.652 263.132 191.595 263.42 191.595 263.712C191.595 264.003 191.652 264.292 191.764 264.56C191.876 264.83 192.039 265.074 192.245 265.28Z" fill="#3D77A2"/>
<path d="M460.821 260.112C460.821 249.782 460.821 244.616 458.779 240.684C457.059 237.372 454.358 234.67 451.046 232.949C447.116 230.907 441.951 230.907 431.625 230.907H376.194V291.372H460.821V260.112Z" fill="#CB59AD"/>
<path d="M460.821 291.372H104.179V297.419H460.821V291.372Z" fill="#9AC8EB"/>
<path d="M216.335 334.907V322.594H219.31V332.489H224.43V334.907H216.335ZM225.97 334.907V325.673H228.909V334.907H225.97ZM227.443 324.596C227.031 324.596 226.676 324.46 226.379 324.188C226.083 323.911 225.934 323.578 225.934 323.189C225.934 322.804 226.083 322.475 226.379 322.203C226.676 321.926 227.031 321.788 227.443 321.788C227.86 321.788 228.214 321.926 228.507 322.203C228.804 322.475 228.952 322.804 228.952 323.189C228.952 323.578 228.804 323.911 228.507 324.188C228.214 324.46 227.86 324.596 227.443 324.596ZM235.084 338.563C234.207 338.563 233.455 338.44 232.83 338.195C232.205 337.951 231.714 337.617 231.358 337.191C231.001 336.767 230.787 336.285 230.714 335.749L233.497 335.593C233.549 335.781 233.646 335.944 233.786 336.085C233.93 336.225 234.116 336.334 234.345 336.41C234.577 336.486 234.85 336.524 235.162 336.524C235.655 336.524 236.062 336.404 236.382 336.163C236.707 335.928 236.869 335.511 236.869 334.919V333.296H236.768C236.65 333.58 236.475 333.834 236.238 334.059C236.001 334.284 235.707 334.459 235.354 334.589C235.006 334.717 234.605 334.781 234.153 334.781C233.479 334.781 232.863 334.624 232.302 334.312C231.744 333.995 231.297 333.506 230.961 332.845C230.629 332.18 230.462 331.324 230.462 330.278C230.462 329.199 230.635 328.311 230.979 327.614C231.324 326.912 231.775 326.393 232.331 326.057C232.893 325.72 233.495 325.552 234.141 325.552C234.625 325.552 235.04 325.636 235.385 325.804C235.733 325.969 236.019 326.182 236.244 326.442C236.469 326.702 236.638 326.973 236.756 327.253H236.839V325.673H239.766V334.943C239.766 335.724 239.57 336.383 239.177 336.92C238.784 337.458 238.235 337.865 237.53 338.142C236.826 338.422 236.01 338.563 235.084 338.563ZM235.174 332.641C235.531 332.641 235.836 332.546 236.088 332.358C236.341 332.169 236.534 331.899 236.671 331.546C236.808 331.193 236.875 330.771 236.875 330.278C236.875 329.777 236.808 329.345 236.671 328.985C236.539 328.62 236.344 328.339 236.088 328.143C235.836 327.947 235.531 327.848 235.174 327.848C234.809 327.848 234.501 327.949 234.248 328.149C233.997 328.35 233.804 328.632 233.671 328.997C233.543 329.357 233.479 329.784 233.479 330.278C233.479 330.771 233.546 331.193 233.678 331.546C233.809 331.899 234 332.169 234.248 332.358C234.501 332.546 234.809 332.641 235.174 332.641ZM244.579 329.64V334.907H241.64V322.594H244.483V327.368H244.585C244.794 326.798 245.134 326.353 245.606 326.033C246.084 325.713 246.667 325.552 247.356 325.552C248.005 325.552 248.569 325.697 249.051 325.985C249.532 326.269 249.904 326.673 250.169 327.193C250.437 327.714 250.569 328.323 250.565 329.021V334.907H247.626V329.598C247.63 329.085 247.502 328.684 247.242 328.396C246.981 328.107 246.615 327.963 246.142 327.963C245.834 327.963 245.56 328.031 245.325 328.167C245.092 328.299 244.91 328.49 244.777 328.738C244.649 328.987 244.584 329.287 244.579 329.64ZM257.611 325.673V327.836H251.788V325.673H257.611ZM253.008 323.46H255.946V332.003C255.946 332.184 255.974 332.33 256.03 332.442C256.09 332.55 256.176 332.629 256.289 332.677C256.401 332.72 256.535 332.742 256.691 332.742C256.804 332.742 256.922 332.733 257.047 332.712C257.175 332.688 257.27 332.668 257.334 332.653L257.779 334.775C257.639 334.815 257.441 334.865 257.184 334.925C256.932 334.985 256.63 335.023 256.277 335.039C255.587 335.071 254.996 334.991 254.504 334.799C254.015 334.602 253.64 334.297 253.38 333.885C253.124 333.471 252.999 332.953 253.008 332.327V323.46Z" fill="#3D77A2"/>
<mask id="mask1_158_203" style="mask-type:luminance" maskUnits="userSpaceOnUse" x="180" y="314" width="27" height="27">
<path d="M206.94 314.349H180.343V340.953H206.94V314.349Z" fill="white"/>
</mask>
<g mask="url(#mask1_158_203)">
<path d="M183.668 324.325C183.668 322.678 184.076 321.057 184.855 319.604C185.634 318.153 186.761 316.917 188.134 316.008C189.507 315.098 191.084 314.542 192.724 314.391C194.364 314.239 196.016 314.496 197.532 315.138C199.049 315.782 200.383 316.789 201.414 318.073C202.447 319.358 203.145 320.877 203.446 322.497C203.749 324.116 203.645 325.785 203.144 327.355C202.645 328.924 201.764 330.347 200.58 331.492C200.243 331.818 199.983 332.157 199.827 332.521L198.56 335.463C198.496 335.612 198.39 335.739 198.254 335.828C198.119 335.918 197.96 335.965 197.798 335.965C198.018 335.965 198.229 336.052 198.385 336.208C198.541 336.364 198.629 336.576 198.629 336.797C198.629 337.017 198.541 337.229 198.385 337.385C198.229 337.541 198.018 337.628 197.798 337.628C198.018 337.628 198.229 337.715 198.385 337.871C198.541 338.027 198.629 338.238 198.629 338.46C198.629 338.68 198.541 338.891 198.385 339.047C198.229 339.203 198.018 339.291 197.798 339.291L197.425 340.034C197.287 340.31 197.075 340.542 196.813 340.704C196.55 340.867 196.248 340.953 195.939 340.953H191.344C191.036 340.953 190.733 340.867 190.471 340.704C190.208 340.542 189.996 340.31 189.858 340.034L189.486 339.291C189.266 339.291 189.054 339.203 188.898 339.047C188.742 338.891 188.655 338.68 188.655 338.46C188.655 338.238 188.742 338.027 188.898 337.871C189.054 337.715 189.266 337.628 189.486 337.628C189.266 337.628 189.054 337.541 188.898 337.385C188.742 337.229 188.655 337.017 188.655 336.797C188.655 336.576 188.742 336.364 188.898 336.208C189.054 336.052 189.266 335.965 189.486 335.965C189.323 335.965 189.164 335.918 189.028 335.828C188.892 335.739 188.786 335.612 188.721 335.463L187.456 332.52C187.274 332.131 187.018 331.783 186.703 331.492C185.741 330.563 184.977 329.449 184.455 328.218C183.934 326.987 183.666 325.663 183.668 324.325ZM193.642 316.011C191.986 316.011 190.369 316.505 188.996 317.431C187.623 318.356 186.558 319.671 185.936 321.205C185.315 322.74 185.166 324.426 185.509 326.045C185.851 327.666 186.669 329.147 187.859 330.298C188.296 330.72 188.713 331.237 188.982 331.863L190.035 334.302H197.252L198.303 331.863C198.572 331.237 198.989 330.72 199.427 330.298C200.616 329.146 201.435 327.666 201.777 326.045C202.119 324.425 201.97 322.739 201.349 321.204C200.727 319.67 199.661 318.355 198.288 317.43C196.915 316.505 195.297 316.011 193.642 316.011Z" fill="#3D77A2"/>
</g>
<path d="M460.821 297.418H376.194V357.884H431.625C441.951 357.884 447.116 357.884 451.046 355.841C454.358 354.12 457.059 351.419 458.779 348.106C460.821 344.175 460.821 339.009 460.821 328.679V297.418Z" fill="#E28FDF"/>
</g>
<g filter="url(#filter4_d_158_203)">
<path d="M209.963 212.767H116.873C109.862 212.767 104.179 218.452 104.179 225.465C104.179 232.478 109.862 238.163 116.873 238.163H209.963C216.973 238.163 222.657 232.478 222.657 225.465C222.657 218.452 216.973 212.767 209.963 212.767Z" fill="#3D77A2"/>
<path d="M119.143 223.517C119.109 223.14 118.956 222.846 118.685 222.637C118.417 222.422 118.034 222.316 117.536 222.316C117.206 222.316 116.932 222.36 116.712 222.445C116.492 222.531 116.327 222.65 116.217 222.801C116.107 222.949 116.051 223.119 116.047 223.311C116.04 223.469 116.071 223.608 116.14 223.729C116.212 223.848 116.315 223.955 116.449 224.048C116.586 224.137 116.751 224.216 116.943 224.285C117.136 224.354 117.352 224.414 117.593 224.465L118.499 224.672C119.021 224.785 119.482 224.935 119.88 225.125C120.282 225.314 120.618 225.539 120.89 225.8C121.165 226.061 121.372 226.361 121.513 226.702C121.654 227.042 121.726 227.423 121.729 227.846C121.726 228.513 121.558 229.085 121.225 229.562C120.892 230.04 120.412 230.405 119.787 230.659C119.166 230.914 118.415 231.041 117.536 231.041C116.653 231.041 115.884 230.908 115.228 230.645C114.572 230.38 114.062 229.978 113.698 229.439C113.334 228.898 113.147 228.217 113.136 227.393H115.578C115.599 227.733 115.69 228.015 115.851 228.243C116.013 228.469 116.234 228.641 116.516 228.758C116.801 228.875 117.131 228.933 117.505 228.933C117.848 228.933 118.14 228.887 118.381 228.794C118.625 228.701 118.812 228.573 118.942 228.407C119.073 228.243 119.14 228.054 119.143 227.84C119.14 227.642 119.078 227.471 118.958 227.331C118.838 227.186 118.652 227.063 118.401 226.96C118.154 226.853 117.838 226.755 117.454 226.666L116.351 226.408C115.437 226.199 114.718 225.861 114.192 225.393C113.667 224.922 113.406 224.287 113.409 223.487C113.406 222.834 113.581 222.262 113.935 221.771C114.289 221.278 114.778 220.896 115.403 220.621C116.028 220.346 116.741 220.208 117.541 220.208C118.359 220.208 119.068 220.347 119.669 220.627C120.273 220.901 120.742 221.287 121.075 221.785C121.408 222.283 121.578 222.861 121.585 223.517H119.143ZM125.537 226.393V230.907H123.018V222.992H125.413V224.444H125.501C125.676 223.961 125.975 223.581 126.397 223.305C126.82 223.027 127.323 222.888 127.907 222.888C128.463 222.888 128.945 223.014 129.354 223.264C129.766 223.512 130.086 223.859 130.312 224.305C130.543 224.749 130.656 225.268 130.652 225.862V230.907H128.133V226.356C128.137 225.917 128.025 225.573 127.798 225.326C127.575 225.078 127.264 224.955 126.866 224.955C126.601 224.955 126.368 225.013 126.165 225.13C125.966 225.244 125.812 225.407 125.702 225.62C125.595 225.833 125.54 226.09 125.537 226.393ZM134.443 231.041C133.938 231.041 133.49 230.957 133.098 230.788C132.71 230.617 132.403 230.359 132.176 230.016C131.953 229.669 131.841 229.233 131.841 228.712C131.841 228.272 131.919 227.901 132.073 227.598C132.228 227.296 132.441 227.05 132.712 226.862C132.983 226.673 133.296 226.53 133.65 226.434C134.003 226.335 134.381 226.267 134.783 226.233C135.233 226.192 135.595 226.148 135.87 226.104C136.145 226.056 136.344 225.989 136.467 225.903C136.595 225.813 136.658 225.689 136.658 225.527V225.501C136.658 225.237 136.567 225.032 136.385 224.888C136.203 224.743 135.958 224.672 135.648 224.672C135.315 224.672 135.047 224.743 134.845 224.888C134.642 225.032 134.513 225.232 134.458 225.486L132.135 225.403C132.204 224.922 132.381 224.493 132.666 224.116C132.954 223.733 133.349 223.435 133.85 223.218C134.355 222.998 134.961 222.888 135.669 222.888C136.174 222.888 136.639 222.949 137.065 223.068C137.491 223.186 137.862 223.357 138.178 223.585C138.494 223.807 138.738 224.083 138.909 224.408C139.085 224.735 139.172 225.108 139.172 225.527V230.907H136.802V229.804H136.741C136.6 230.073 136.419 230.299 136.2 230.485C135.983 230.67 135.727 230.809 135.432 230.902C135.14 230.994 134.81 231.041 134.443 231.041ZM135.221 229.392C135.492 229.392 135.736 229.337 135.952 229.227C136.172 229.117 136.347 228.966 136.478 228.774C136.608 228.578 136.674 228.35 136.674 228.093V227.341C136.601 227.378 136.514 227.413 136.411 227.443C136.311 227.475 136.201 227.504 136.081 227.532C135.961 227.56 135.837 227.583 135.71 227.603C135.583 227.625 135.461 227.643 135.344 227.66C135.107 227.699 134.905 227.757 134.737 227.835C134.572 227.915 134.445 228.018 134.355 228.145C134.269 228.268 134.226 228.416 134.226 228.587C134.226 228.849 134.319 229.048 134.505 229.186C134.694 229.323 134.932 229.392 135.221 229.392ZM140.713 230.907V222.992H143.16V224.435H143.242C143.386 223.912 143.622 223.524 143.948 223.27C144.274 223.013 144.654 222.883 145.087 222.883C145.203 222.883 145.323 222.892 145.447 222.909C145.571 222.923 145.686 222.945 145.792 222.976V225.166C145.672 225.125 145.514 225.093 145.318 225.068C145.126 225.044 144.954 225.032 144.803 225.032C144.504 225.032 144.235 225.099 143.994 225.233C143.757 225.363 143.57 225.547 143.433 225.784C143.299 226.018 143.232 226.293 143.232 226.609V230.907H140.713ZM150.107 231.057C149.279 231.057 148.565 230.894 147.964 230.567C147.366 230.237 146.906 229.768 146.583 229.159C146.264 228.549 146.104 227.822 146.104 226.98C146.104 226.163 146.265 225.448 146.588 224.836C146.911 224.222 147.366 223.744 147.954 223.403C148.541 223.06 149.233 222.888 150.03 222.888C150.593 222.888 151.108 222.976 151.575 223.152C152.042 223.327 152.446 223.586 152.786 223.929C153.126 224.273 153.39 224.697 153.579 225.203C153.768 225.703 153.863 226.279 153.863 226.928V227.557H146.985V226.094H151.519C151.515 225.825 151.452 225.587 151.328 225.378C151.204 225.168 151.034 225.004 150.818 224.888C150.605 224.767 150.359 224.708 150.081 224.708C149.799 224.708 149.547 224.771 149.324 224.898C149.101 225.022 148.924 225.192 148.793 225.408C148.663 225.621 148.594 225.864 148.587 226.135V227.625C148.587 227.948 148.651 228.231 148.778 228.475C148.905 228.714 149.085 228.902 149.319 229.036C149.552 229.17 149.83 229.237 150.153 229.237C150.377 229.237 150.579 229.207 150.761 229.145C150.943 229.082 151.099 228.991 151.23 228.872C151.36 228.751 151.458 228.603 151.524 228.428L153.837 228.496C153.741 229.014 153.529 229.465 153.203 229.85C152.88 230.232 152.456 230.528 151.931 230.742C151.405 230.952 150.797 231.057 150.107 231.057ZM158.766 226.753C158.766 225.478 158.938 224.308 159.281 223.239C159.624 222.167 160.16 221.172 160.888 220.255H163.33C163.056 220.595 162.8 221.009 162.563 221.497C162.326 221.985 162.12 222.519 161.944 223.1C161.773 223.68 161.637 224.281 161.537 224.904C161.441 225.526 161.393 226.142 161.393 226.753C161.393 227.564 161.477 228.383 161.646 229.212C161.814 230.036 162.044 230.801 162.336 231.504C162.628 232.213 162.959 232.793 163.33 233.247H160.888C160.16 232.329 159.624 231.336 159.281 230.268C158.938 229.196 158.766 228.024 158.766 226.753ZM164.429 230.907V222.992H166.948V230.907H164.429ZM165.691 222.069C165.337 222.069 165.033 221.952 164.779 221.719C164.525 221.482 164.398 221.196 164.398 220.864C164.398 220.534 164.525 220.252 164.779 220.018C165.033 219.781 165.337 219.663 165.691 219.663C166.048 219.663 166.352 219.781 166.603 220.018C166.857 220.252 166.984 220.534 166.984 220.864C166.984 221.196 166.857 221.482 166.603 221.719C166.352 221.952 166.048 222.069 165.691 222.069ZM171.071 226.393V230.907H168.552V222.992H170.947V224.444H171.035C171.21 223.961 171.509 223.581 171.931 223.305C172.354 223.027 172.857 222.888 173.441 222.888C173.997 222.888 174.48 223.014 174.888 223.264C175.3 223.512 175.62 223.859 175.847 224.305C176.077 224.749 176.19 225.268 176.187 225.862V230.907H173.667V226.356C173.671 225.917 173.559 225.573 173.333 225.326C173.109 225.078 172.798 224.955 172.4 224.955C172.136 224.955 171.902 225.013 171.699 225.13C171.5 225.244 171.346 225.407 171.236 225.62C171.129 225.833 171.074 226.09 171.071 226.393ZM184.655 225.408L182.342 225.47C182.318 225.305 182.252 225.159 182.146 225.032C182.04 224.902 181.9 224.8 181.729 224.729C181.56 224.652 181.365 224.615 181.141 224.615C180.849 224.615 180.6 224.673 180.394 224.79C180.192 224.906 180.092 225.065 180.096 225.264C180.092 225.419 180.154 225.552 180.281 225.666C180.412 225.779 180.643 225.87 180.977 225.939L182.501 226.228C183.291 226.379 183.879 226.63 184.263 226.98C184.651 227.331 184.847 227.794 184.851 228.371C184.847 228.914 184.686 229.387 184.366 229.788C184.05 230.191 183.618 230.503 183.068 230.727C182.519 230.947 181.89 231.057 181.183 231.057C180.053 231.057 179.161 230.825 178.509 230.36C177.86 229.894 177.489 229.268 177.396 228.485L179.884 228.423C179.939 228.712 180.082 228.931 180.312 229.082C180.542 229.233 180.836 229.309 181.193 229.309C181.516 229.309 181.778 229.249 181.981 229.129C182.184 229.008 182.287 228.849 182.29 228.65C182.287 228.471 182.208 228.329 182.053 228.222C181.899 228.112 181.657 228.026 181.327 227.965L179.946 227.701C179.153 227.557 178.562 227.291 178.174 226.903C177.786 226.511 177.593 226.013 177.597 225.408C177.593 224.88 177.734 224.427 178.019 224.053C178.304 223.675 178.71 223.386 179.235 223.187C179.761 222.988 180.381 222.888 181.095 222.888C182.167 222.888 183.011 223.113 183.63 223.564C184.248 224.01 184.59 224.625 184.655 225.408ZM186.091 230.907V222.992H188.61V230.907H186.091ZM187.353 222.069C186.999 222.069 186.695 221.952 186.441 221.719C186.187 221.482 186.06 221.196 186.06 220.864C186.06 220.534 186.187 220.252 186.441 220.018C186.695 219.781 186.999 219.663 187.353 219.663C187.71 219.663 188.014 219.781 188.265 220.018C188.519 220.252 188.646 220.534 188.646 220.864C188.646 221.196 188.519 221.482 188.265 221.719C188.014 221.952 187.71 222.069 187.353 222.069ZM193.104 231.021C192.52 231.021 191.989 230.869 191.512 230.567C191.035 230.265 190.653 229.811 190.368 229.207C190.083 228.602 189.941 227.851 189.941 226.955C189.941 226.024 190.088 225.257 190.384 224.656C190.679 224.055 191.065 223.61 191.543 223.321C192.024 223.033 192.541 222.888 193.094 222.888C193.509 222.888 193.865 222.961 194.16 223.105C194.455 223.246 194.699 223.427 194.891 223.651C195.084 223.875 195.23 224.106 195.329 224.346H195.381V220.353H197.9V230.907H195.407V229.624H195.329C195.223 229.868 195.072 230.097 194.876 230.31C194.68 230.522 194.435 230.694 194.139 230.825C193.847 230.955 193.502 231.021 193.104 231.021ZM193.98 229.057C194.285 229.057 194.546 228.971 194.763 228.799C194.979 228.624 195.146 228.378 195.262 228.063C195.379 227.746 195.438 227.376 195.438 226.949C195.438 226.516 195.379 226.143 195.262 225.831C195.149 225.518 194.982 225.278 194.763 225.11C194.546 224.941 194.285 224.857 193.98 224.857C193.667 224.857 193.403 224.943 193.186 225.114C192.97 225.286 192.805 225.529 192.692 225.841C192.582 226.154 192.527 226.523 192.527 226.949C192.527 227.376 192.583 227.746 192.697 228.063C192.81 228.378 192.973 228.624 193.186 228.799C193.403 228.971 193.667 229.057 193.98 229.057ZM203.193 231.057C202.364 231.057 201.65 230.894 201.049 230.567C200.452 230.237 199.991 229.768 199.669 229.159C199.349 228.549 199.189 227.822 199.189 226.98C199.189 226.163 199.351 225.448 199.674 224.836C199.997 224.222 200.452 223.744 201.039 223.403C201.626 223.06 202.318 222.888 203.115 222.888C203.679 222.888 204.194 222.976 204.66 223.152C205.128 223.327 205.532 223.586 205.872 223.929C206.211 224.273 206.476 224.697 206.665 225.203C206.853 225.703 206.948 226.279 206.948 226.928V227.557H200.07V226.094H204.603C204.601 225.825 204.537 225.587 204.414 225.378C204.29 225.168 204.12 225.004 203.903 224.888C203.691 224.767 203.445 224.708 203.167 224.708C202.885 224.708 202.633 224.771 202.409 224.898C202.185 225.022 202.009 225.192 201.878 225.408C201.748 225.621 201.679 225.864 201.673 226.135V227.625C201.673 227.948 201.736 228.231 201.863 228.475C201.991 228.714 202.171 228.902 202.404 229.036C202.638 229.17 202.916 229.237 203.238 229.237C203.462 229.237 203.664 229.207 203.847 229.145C204.029 229.082 204.185 228.991 204.316 228.872C204.446 228.751 204.544 228.603 204.609 228.428L206.922 228.496C206.827 229.014 206.615 229.465 206.289 229.85C205.966 230.232 205.542 230.528 205.016 230.742C204.491 230.952 203.883 231.057 203.193 231.057ZM212.3 226.753C212.3 228.024 212.128 229.196 211.785 230.268C211.441 231.336 210.904 232.329 210.177 233.247H207.735C208.013 232.906 208.269 232.492 208.502 232.005C208.739 231.516 208.944 230.982 209.115 230.401C209.29 229.821 209.426 229.22 209.523 228.598C209.622 227.977 209.673 227.361 209.673 226.753C209.673 225.939 209.588 225.119 209.42 224.296C209.252 223.467 209.021 222.701 208.73 221.997C208.437 221.289 208.106 220.709 207.735 220.255H210.177C210.904 221.172 211.441 222.167 211.785 223.239C212.128 224.308 212.3 225.478 212.3 226.753Z" fill="#E7F3FB"/>
</g>
<g filter="url(#filter5_d_158_203)">
<path d="M442.687 400.209H122.313C108.96 400.209 98.1343 411.038 98.1343 424.395V448.581C98.1343 461.939 108.96 472.767 122.313 472.767H442.687C456.04 472.767 466.866 461.939 466.866 448.581V424.395C466.866 411.038 456.04 400.209 442.687 400.209Z" fill="#F9FAFB"/>
<path d="M442.686 403.232H122.313C110.629 403.232 101.157 412.707 101.157 424.395V448.581C101.157 460.269 110.629 469.744 122.313 469.744H442.686C454.371 469.744 463.843 460.269 463.843 448.581V424.395C463.843 412.707 454.371 403.232 442.686 403.232Z" stroke="#D1D5DB" stroke-width="5"/>
<path d="M218.753 443.744V431.431H221.728V441.327H226.848V443.744H218.753ZM228.388 443.744V434.51H231.327V443.744H228.388ZM229.861 433.434C229.449 433.434 229.094 433.297 228.797 433.025C228.501 432.748 228.352 432.415 228.352 432.026C228.352 431.642 228.501 431.313 228.797 431.041C229.094 430.764 229.449 430.626 229.861 430.626C230.278 430.626 230.632 430.764 230.925 431.041C231.222 431.313 231.37 431.642 231.37 432.026C231.37 432.415 231.222 432.748 230.925 433.025C230.632 433.297 230.278 433.434 229.861 433.434ZM237.501 447.4C236.625 447.4 235.873 447.278 235.248 447.032C234.623 446.788 234.132 446.454 233.775 446.029C233.419 445.604 233.205 445.123 233.132 444.586L235.915 444.43C235.967 444.619 236.064 444.782 236.204 444.922C236.348 445.062 236.534 445.171 236.763 445.247C236.995 445.324 237.268 445.361 237.58 445.361C238.073 445.361 238.479 445.241 238.8 445.001C239.125 444.765 239.287 444.349 239.287 443.756V442.133H239.185C239.068 442.418 238.893 442.672 238.656 442.897C238.419 443.121 238.125 443.297 237.772 443.426C237.424 443.554 237.023 443.618 236.571 443.618C235.897 443.618 235.281 443.461 234.72 443.149C234.162 442.832 233.715 442.344 233.379 441.682C233.046 441.017 232.88 440.161 232.88 439.115C232.88 438.036 233.052 437.149 233.397 436.451C233.742 435.75 234.192 435.231 234.749 434.895C235.311 434.557 235.913 434.389 236.558 434.389C237.043 434.389 237.458 434.474 237.802 434.642C238.151 434.806 238.437 435.019 238.662 435.279C238.887 435.539 239.056 435.81 239.173 436.091H239.257V434.51H242.184V443.781C242.184 444.562 241.988 445.221 241.595 445.758C241.202 446.296 240.653 446.702 239.948 446.979C239.243 447.26 238.427 447.4 237.501 447.4ZM237.592 441.478C237.949 441.478 238.253 441.384 238.506 441.195C238.759 441.006 238.952 440.737 239.089 440.384C239.225 440.03 239.293 439.608 239.293 439.115C239.293 438.614 239.225 438.183 239.089 437.822C238.957 437.457 238.762 437.177 238.506 436.981C238.253 436.785 237.949 436.686 237.592 436.686C237.227 436.686 236.919 436.786 236.666 436.987C236.415 437.187 236.222 437.469 236.089 437.834C235.961 438.195 235.897 438.622 235.897 439.115C235.897 439.608 235.964 440.03 236.095 440.384C236.227 440.737 236.418 441.006 236.666 441.195C236.919 441.384 237.227 441.478 237.592 441.478ZM246.997 438.478V443.744H244.058V431.431H246.901V436.205H247.003C247.212 435.636 247.551 435.191 248.024 434.87C248.502 434.55 249.084 434.389 249.773 434.389C250.423 434.389 250.987 434.534 251.468 434.822C251.95 435.106 252.322 435.51 252.587 436.03C252.855 436.551 252.987 437.161 252.983 437.859V443.744H250.044V438.435C250.048 437.923 249.92 437.521 249.66 437.233C249.399 436.944 249.032 436.8 248.56 436.8C248.251 436.8 247.978 436.868 247.742 437.005C247.51 437.137 247.328 437.328 247.195 437.576C247.067 437.825 247.001 438.125 246.997 438.478ZM260.029 434.51V436.673H254.206V434.51H260.029ZM255.425 432.297H258.364V440.841C258.364 441.021 258.392 441.167 258.448 441.28C258.508 441.387 258.594 441.466 258.706 441.514C258.819 441.558 258.953 441.58 259.109 441.58C259.221 441.58 259.34 441.57 259.464 441.549C259.593 441.525 259.688 441.506 259.752 441.49L260.197 443.612C260.057 443.652 259.859 443.702 259.602 443.762C259.35 443.823 259.047 443.86 258.694 443.876C258.005 443.909 257.414 443.829 256.922 443.637C256.432 443.44 256.058 443.135 255.798 442.722C255.541 442.309 255.417 441.79 255.425 441.165V432.297Z" fill="#6B7280"/>
<mask id="mask2_158_203" style="mask-type:luminance" maskUnits="userSpaceOnUse" x="180" y="423" width="27" height="27">
<path d="M206.94 423.186H180.343V449.791H206.94V423.186Z" fill="white"/>
</mask>
<g mask="url(#mask2_158_203)">
<path d="M183.668 433.163C183.668 431.516 184.076 429.894 184.855 428.442C185.634 426.991 186.761 425.755 188.134 424.845C189.507 423.936 191.084 423.38 192.724 423.228C194.364 423.076 196.016 423.334 197.532 423.976C199.049 424.619 200.383 425.626 201.414 426.911C202.447 428.195 203.145 429.714 203.446 431.334C203.749 432.954 203.645 434.622 203.144 436.192C202.645 437.762 201.764 439.184 200.58 440.329C200.243 440.656 199.983 440.994 199.827 441.358L198.56 444.301C198.496 444.449 198.39 444.576 198.254 444.666C198.119 444.755 197.96 444.802 197.798 444.802C198.018 444.802 198.229 444.889 198.385 445.045C198.541 445.201 198.629 445.413 198.629 445.634C198.629 445.854 198.541 446.066 198.385 446.222C198.229 446.378 198.018 446.465 197.798 446.465C198.018 446.465 198.229 446.552 198.385 446.708C198.541 446.864 198.629 447.076 198.629 447.297C198.629 447.517 198.541 447.729 198.385 447.885C198.229 448.041 198.018 448.128 197.798 448.128L197.425 448.872C197.287 449.147 197.075 449.38 196.813 449.542C196.55 449.705 196.248 449.791 195.939 449.791H191.344C191.036 449.791 190.733 449.705 190.471 449.542C190.208 449.38 189.996 449.147 189.858 448.872L189.486 448.128C189.266 448.128 189.054 448.041 188.898 447.885C188.742 447.729 188.655 447.517 188.655 447.297C188.655 447.076 188.742 446.864 188.898 446.708C189.054 446.552 189.266 446.465 189.486 446.465C189.266 446.465 189.054 446.378 188.898 446.222C188.742 446.066 188.655 445.854 188.655 445.634C188.655 445.413 188.742 445.201 188.898 445.045C189.054 444.889 189.266 444.802 189.486 444.802C189.323 444.802 189.164 444.755 189.028 444.666C188.892 444.576 188.786 444.449 188.721 444.301L187.456 441.357C187.274 440.969 187.018 440.621 186.703 440.329C185.741 439.4 184.977 438.287 184.455 437.056C183.934 435.825 183.666 434.5 183.668 433.163ZM193.642 424.849C191.986 424.849 190.369 425.342 188.996 426.269C187.623 427.194 186.558 428.508 185.936 430.043C185.315 431.577 185.166 433.263 185.509 434.882C185.851 436.503 186.669 437.984 187.859 439.136C188.296 439.558 188.713 440.074 188.982 440.7L190.035 443.14H197.252L198.303 440.7C198.572 440.074 198.989 439.558 199.427 439.136C200.616 437.983 201.435 436.503 201.777 434.882C202.119 433.262 201.97 431.576 201.349 430.042C200.727 428.507 199.661 427.193 198.288 426.267C196.915 425.342 195.297 424.849 193.642 424.849Z" fill="#6B7280"/>
</g>
<path d="M460.821 435.461C460.821 425.131 460.821 419.964 458.779 416.033C457.059 412.721 454.358 410.019 451.046 408.298C447.116 406.256 441.951 406.256 431.625 406.256H376.194V466.721H431.625C441.951 466.721 447.116 466.721 451.046 464.678C454.358 462.958 457.059 460.256 458.779 456.944C460.821 453.012 460.821 447.846 460.821 437.516V435.461Z" fill="#E25B9E"/>
</g>
<g filter="url(#filter6_d_158_203)">
<path d="M220.843 388.116H116.873C109.862 388.116 104.179 393.801 104.179 400.814C104.179 407.827 109.862 413.512 116.873 413.512H220.843C227.854 413.512 233.537 407.827 233.537 400.814C233.537 393.801 227.854 388.116 220.843 388.116Z" fill="#6B7280"/>
<path d="M119.143 398.866C119.109 398.488 118.956 398.195 118.685 397.985C118.417 397.771 118.034 397.665 117.536 397.665C117.206 397.665 116.932 397.708 116.712 397.794C116.492 397.88 116.327 397.999 116.217 398.15C116.107 398.297 116.051 398.468 116.047 398.66C116.04 398.817 116.071 398.956 116.14 399.077C116.212 399.197 116.315 399.304 116.449 399.397C116.586 399.486 116.751 399.565 116.943 399.634C117.136 399.703 117.352 399.763 117.593 399.814L118.499 400.021C119.021 400.134 119.482 400.284 119.88 400.474C120.282 400.663 120.618 400.888 120.89 401.149C121.165 401.41 121.372 401.71 121.513 402.051C121.654 402.391 121.726 402.772 121.729 403.195C121.726 403.861 121.558 404.433 121.225 404.911C120.892 405.389 120.412 405.754 119.787 406.008C119.166 406.263 118.415 406.39 117.536 406.39C116.653 406.39 115.884 406.257 115.228 405.993C114.572 405.729 114.062 405.327 113.698 404.788C113.334 404.247 113.147 403.566 113.136 402.742H115.578C115.599 403.081 115.69 403.364 115.851 403.592C116.013 403.818 116.234 403.99 116.516 404.107C116.801 404.224 117.131 404.282 117.505 404.282C117.848 404.282 118.14 404.236 118.381 404.143C118.625 404.05 118.812 403.922 118.942 403.756C119.073 403.592 119.14 403.403 119.143 403.189C119.14 402.991 119.078 402.82 118.958 402.68C118.838 402.535 118.652 402.411 118.401 402.309C118.154 402.202 117.838 402.104 117.454 402.015L116.351 401.757C115.437 401.548 114.718 401.209 114.192 400.741C113.667 400.271 113.406 399.636 113.409 398.836C113.406 398.183 113.581 397.611 113.935 397.12C114.289 396.627 114.778 396.245 115.403 395.969C116.028 395.695 116.741 395.557 117.541 395.557C118.359 395.557 119.068 395.696 119.669 395.976C120.273 396.25 120.742 396.636 121.075 397.134C121.408 397.632 121.578 398.21 121.585 398.866H119.143ZM125.537 401.741V406.256H123.018V398.341H125.413V399.793H125.501C125.676 399.31 125.975 398.93 126.397 398.654C126.82 398.376 127.323 398.237 127.907 398.237C128.463 398.237 128.945 398.363 129.354 398.613C129.766 398.861 130.086 399.208 130.312 399.654C130.543 400.098 130.656 400.617 130.652 401.211V406.256H128.133V401.705C128.137 401.266 128.025 400.922 127.798 400.675C127.575 400.427 127.264 400.304 126.866 400.304C126.601 400.304 126.368 400.362 126.165 400.479C125.966 400.593 125.812 400.756 125.702 400.969C125.595 401.182 125.54 401.439 125.537 401.741ZM134.443 406.39C133.938 406.39 133.49 406.305 133.098 406.137C132.71 405.966 132.403 405.708 132.176 405.365C131.953 405.017 131.841 404.582 131.841 404.061C131.841 403.621 131.919 403.25 132.073 402.947C132.228 402.645 132.441 402.399 132.712 402.211C132.983 402.022 133.296 401.879 133.65 401.783C134.003 401.683 134.381 401.616 134.783 401.582C135.233 401.541 135.595 401.497 135.87 401.452C136.145 401.405 136.344 401.338 136.467 401.252C136.595 401.162 136.658 401.038 136.658 400.876V400.85C136.658 400.585 136.567 400.381 136.385 400.237C136.203 400.092 135.958 400.021 135.648 400.021C135.315 400.021 135.047 400.092 134.845 400.237C134.642 400.381 134.513 400.581 134.458 400.835L132.135 400.752C132.204 400.271 132.381 399.842 132.666 399.464C132.954 399.082 133.349 398.784 133.85 398.567C134.355 398.347 134.962 398.237 135.669 398.237C136.174 398.237 136.639 398.297 137.065 398.417C137.491 398.534 137.862 398.706 138.178 398.934C138.494 399.156 138.738 399.432 138.909 399.757C139.085 400.084 139.172 400.457 139.172 400.876V406.256H136.802V405.153H136.741C136.6 405.421 136.42 405.648 136.2 405.834C135.983 406.019 135.727 406.158 135.432 406.251C135.14 406.343 134.81 406.39 134.443 406.39ZM135.221 404.741C135.492 404.741 135.736 404.686 135.952 404.576C136.172 404.466 136.347 404.315 136.478 404.123C136.608 403.927 136.674 403.699 136.674 403.442V402.69C136.601 402.727 136.514 402.762 136.411 402.792C136.311 402.824 136.201 402.853 136.081 402.881C135.961 402.908 135.837 402.931 135.71 402.952C135.583 402.974 135.461 402.992 135.345 403.009C135.107 403.048 134.905 403.106 134.737 403.184C134.572 403.264 134.445 403.367 134.355 403.494C134.269 403.617 134.226 403.765 134.226 403.936C134.226 404.198 134.319 404.397 134.505 404.535C134.694 404.672 134.932 404.741 135.221 404.741ZM140.713 406.256V398.341H143.16V399.784H143.242C143.386 399.261 143.622 398.873 143.948 398.619C144.274 398.361 144.654 398.232 145.087 398.232C145.203 398.232 145.323 398.241 145.447 398.257C145.571 398.272 145.686 398.294 145.792 398.325V400.515C145.672 400.474 145.514 400.441 145.318 400.417C145.126 400.393 144.954 400.381 144.803 400.381C144.504 400.381 144.235 400.448 143.994 400.582C143.757 400.712 143.57 400.896 143.433 401.133C143.299 401.367 143.232 401.642 143.232 401.958V406.256H140.713ZM150.107 406.406C149.279 406.406 148.565 406.243 147.964 405.916C147.366 405.586 146.906 405.117 146.583 404.508C146.264 403.898 146.104 403.171 146.104 402.329C146.104 401.512 146.265 400.797 146.588 400.185C146.911 399.571 147.366 399.093 147.954 398.752C148.541 398.409 149.233 398.237 150.03 398.237C150.593 398.237 151.108 398.325 151.575 398.501C152.042 398.676 152.446 398.935 152.786 399.278C153.126 399.622 153.39 400.046 153.579 400.552C153.768 401.052 153.863 401.628 153.863 402.277V402.906H146.985V401.443H151.519C151.515 401.174 151.452 400.936 151.328 400.727C151.204 400.516 151.034 400.353 150.818 400.237C150.605 400.116 150.359 400.057 150.081 400.057C149.799 400.057 149.547 400.12 149.324 400.247C149.101 400.371 148.924 400.541 148.793 400.757C148.663 400.97 148.594 401.213 148.587 401.484V402.974C148.587 403.297 148.651 403.58 148.778 403.824C148.905 404.063 149.085 404.251 149.319 404.385C149.552 404.519 149.83 404.586 150.153 404.586C150.377 404.586 150.579 404.556 150.761 404.494C150.943 404.431 151.099 404.34 151.23 404.221C151.36 404.1 151.458 403.952 151.524 403.777L153.837 403.844C153.741 404.363 153.529 404.814 153.203 405.199C152.88 405.581 152.456 405.877 151.931 406.091C151.405 406.301 150.797 406.406 150.107 406.406ZM158.766 402.102C158.766 400.827 158.938 399.657 159.281 398.588C159.624 397.516 160.16 396.521 160.888 395.604H163.33C163.056 395.944 162.8 396.358 162.563 396.846C162.326 397.334 162.12 397.868 161.944 398.449C161.773 399.029 161.637 399.63 161.537 400.253C161.441 400.874 161.393 401.491 161.393 402.102C161.393 402.913 161.477 403.732 161.646 404.56C161.814 405.385 162.044 406.149 162.336 406.853C162.628 407.562 162.959 408.142 163.33 408.596H160.888C160.16 407.678 159.624 406.685 159.281 405.617C158.938 404.545 158.766 403.373 158.766 402.102ZM168.08 406.406C167.249 406.406 166.535 406.235 165.937 405.895C165.343 405.552 164.884 405.074 164.562 404.462C164.242 403.848 164.082 403.135 164.082 402.324C164.082 401.509 164.242 400.797 164.562 400.185C164.884 399.571 165.343 399.093 165.937 398.752C166.535 398.409 167.249 398.237 168.08 398.237C168.911 398.237 169.624 398.409 170.218 398.752C170.816 399.093 171.274 399.571 171.594 400.185C171.917 400.797 172.078 401.509 172.078 402.324C172.078 403.135 171.917 403.848 171.594 404.462C171.274 405.074 170.816 405.552 170.218 405.895C169.624 406.235 168.911 406.406 168.08 406.406ZM168.096 404.504C168.398 404.504 168.654 404.41 168.863 404.225C169.073 404.04 169.233 403.783 169.342 403.453C169.456 403.123 169.512 402.742 169.512 402.309C169.512 401.868 169.456 401.484 169.342 401.154C169.233 400.825 169.073 400.566 168.863 400.381C168.654 400.196 168.398 400.103 168.096 400.103C167.783 400.103 167.519 400.196 167.302 400.381C167.089 400.566 166.926 400.825 166.813 401.154C166.703 401.484 166.648 401.868 166.648 402.309C166.648 402.742 166.703 403.123 166.813 403.453C166.926 403.783 167.089 404.04 167.302 404.225C167.519 404.41 167.783 404.504 168.096 404.504ZM178.474 402.84V398.341H180.988V406.256H178.587V404.782H178.505C178.33 405.267 178.031 405.651 177.608 405.937C177.189 406.218 176.683 406.359 176.089 406.359C175.55 406.359 175.076 406.235 174.667 405.987C174.258 405.741 173.94 405.395 173.714 404.952C173.487 404.506 173.372 403.984 173.369 403.385V398.341H175.888V402.89C175.891 403.32 176.005 403.658 176.228 403.906C176.451 404.153 176.755 404.277 177.14 404.277C177.39 404.277 177.615 404.222 177.815 404.112C178.017 403.999 178.177 403.836 178.294 403.622C178.414 403.405 178.474 403.145 178.474 402.84ZM187.058 398.341V400.196H182.066V398.341H187.058ZM183.112 396.444H185.631V403.767C185.631 403.922 185.655 404.046 185.703 404.143C185.755 404.236 185.829 404.303 185.925 404.344C186.021 404.381 186.136 404.401 186.27 404.401C186.366 404.401 186.467 404.392 186.574 404.375C186.684 404.355 186.766 404.337 186.821 404.323L187.203 406.142C187.082 406.177 186.912 406.22 186.692 406.272C186.476 406.322 186.217 406.355 185.914 406.369C185.324 406.396 184.817 406.328 184.395 406.163C183.976 405.995 183.655 405.733 183.431 405.38C183.212 405.026 183.105 404.581 183.112 404.045V396.444ZM195.153 400.757L192.84 400.819C192.816 400.654 192.751 400.508 192.644 400.381C192.538 400.25 192.398 400.149 192.227 400.077C192.058 400.001 191.863 399.964 191.64 399.964C191.348 399.964 191.098 400.022 190.892 400.139C190.69 400.255 190.59 400.414 190.594 400.613C190.59 400.768 190.652 400.901 190.779 401.015C190.91 401.128 191.141 401.219 191.475 401.288L193 401.577C193.79 401.728 194.377 401.979 194.761 402.329C195.15 402.68 195.345 403.143 195.349 403.72C195.345 404.263 195.184 404.736 194.865 405.137C194.548 405.54 194.116 405.852 193.566 406.076C193.017 406.296 192.388 406.406 191.681 406.406C190.551 406.406 189.659 406.174 189.007 405.709C188.358 405.242 187.987 404.617 187.894 403.834L190.382 403.772C190.437 404.061 190.58 404.28 190.81 404.431C191.04 404.582 191.334 404.658 191.691 404.658C192.014 404.658 192.277 404.598 192.479 404.478C192.682 404.357 192.785 404.198 192.788 403.999C192.785 403.82 192.706 403.678 192.551 403.571C192.397 403.461 192.155 403.375 191.825 403.314L190.444 403.05C189.651 402.906 189.06 402.64 188.672 402.252C188.284 401.86 188.092 401.362 188.095 400.757C188.092 400.229 188.232 399.776 188.517 399.401C188.803 399.024 189.208 398.735 189.733 398.536C190.259 398.337 190.879 398.237 191.593 398.237C192.665 398.237 193.51 398.462 194.128 398.913C194.746 399.359 195.088 399.973 195.153 400.757ZM196.589 406.256V398.341H199.108V406.256H196.589ZM197.851 397.418C197.497 397.418 197.194 397.301 196.939 397.068C196.685 396.831 196.558 396.545 196.558 396.213C196.558 395.882 196.685 395.601 196.939 395.367C197.194 395.13 197.497 395.012 197.851 395.012C198.208 395.012 198.512 395.13 198.763 395.367C199.017 395.601 199.144 395.882 199.144 396.213C199.144 396.545 199.017 396.831 198.763 397.068C198.512 397.301 198.208 397.418 197.851 397.418ZM203.602 406.369C203.018 406.369 202.488 406.218 202.01 405.916C201.533 405.614 201.152 405.16 200.866 404.556C200.581 403.951 200.439 403.2 200.439 402.304C200.439 401.373 200.586 400.606 200.882 400.005C201.177 399.404 201.564 398.959 202.04 398.67C202.522 398.382 203.039 398.237 203.591 398.237C204.007 398.237 204.363 398.309 204.658 398.453C204.954 398.595 205.197 398.776 205.389 399C205.581 399.224 205.728 399.455 205.828 399.695H205.879V395.702H208.398V406.256H205.904V404.973H205.828C205.72 405.217 205.569 405.446 205.375 405.658C205.179 405.871 204.932 406.043 204.637 406.174C204.346 406.304 204 406.369 203.602 406.369ZM204.478 404.406C204.783 404.406 205.045 404.32 205.261 404.148C205.477 403.973 205.644 403.727 205.76 403.412C205.878 403.095 205.936 402.725 205.936 402.298C205.936 401.865 205.878 401.492 205.76 401.18C205.647 400.867 205.481 400.627 205.261 400.458C205.045 400.29 204.783 400.206 204.478 400.206C204.166 400.206 203.901 400.292 203.685 400.463C203.468 400.635 203.303 400.878 203.19 401.19C203.08 401.503 203.024 401.872 203.024 402.298C203.024 402.725 203.081 403.095 203.195 403.412C203.309 403.727 203.472 403.973 203.685 404.148C203.901 404.32 204.166 404.406 204.478 404.406ZM213.69 406.406C212.863 406.406 212.148 406.243 211.548 405.916C210.949 405.586 210.49 405.117 210.167 404.508C209.847 403.898 209.687 403.171 209.687 402.329C209.687 401.512 209.849 400.797 210.172 400.185C210.495 399.571 210.949 399.093 211.537 398.752C212.124 398.409 212.816 398.237 213.614 398.237C214.176 398.237 214.692 398.325 215.159 398.501C215.625 398.676 216.029 398.935 216.369 399.278C216.71 399.622 216.973 400.046 217.163 400.552C217.352 401.052 217.446 401.628 217.446 402.277V402.906H210.568V401.443H215.102C215.098 401.174 215.035 400.936 214.911 400.727C214.788 400.516 214.617 400.353 214.402 400.237C214.188 400.116 213.943 400.057 213.664 400.057C213.383 400.057 213.13 400.12 212.908 400.247C212.684 400.371 212.508 400.541 212.377 400.757C212.246 400.97 212.177 401.213 212.17 401.484V402.974C212.17 403.297 212.234 403.58 212.361 403.824C212.488 404.063 212.668 404.251 212.902 404.385C213.136 404.519 213.414 404.586 213.737 404.586C213.959 404.586 214.163 404.556 214.345 404.494C214.526 404.431 214.682 404.34 214.813 404.221C214.944 404.1 215.041 403.952 215.107 403.777L217.421 403.844C217.324 404.363 217.112 404.814 216.787 405.199C216.463 405.581 216.04 405.877 215.514 406.091C214.988 406.301 214.38 406.406 213.69 406.406ZM222.797 402.102C222.797 403.373 222.625 404.545 222.282 405.617C221.939 406.685 221.403 407.678 220.675 408.596H218.233C218.511 408.255 218.767 407.841 219.001 407.354C219.238 406.865 219.442 406.331 219.614 405.75C219.789 405.17 219.924 404.569 220.021 403.947C220.12 403.326 220.17 402.71 220.17 402.102C220.17 401.288 220.086 400.468 219.917 399.645C219.749 398.816 219.519 398.049 219.227 397.346C218.936 396.638 218.604 396.058 218.233 395.604H220.675C221.403 396.521 221.939 397.516 222.282 398.588C222.625 399.657 222.797 400.827 222.797 402.102Z" fill="#F9FAFB"/>
</g>
<g filter="url(#filter7_d_158_203)">
<mask id="mask3_158_203" style="mask-type:luminance" maskUnits="userSpaceOnUse" x="104" y="37" width="357" height="55">
<path d="M436.642 37.4187H128.358C115.004 37.4187 104.179 48.2472 104.179 61.6047V67.6513C104.179 81.0088 115.004 91.8373 128.358 91.8373H436.642C449.996 91.8373 460.821 81.0088 460.821 67.6513V61.6047C460.821 48.2472 449.996 37.4187 436.642 37.4187Z" fill="white"/>
</mask>
<g mask="url(#mask3_158_203)">
<path d="M436.642 37.4187H128.358C115.004 37.4187 104.179 48.2472 104.179 61.6047V67.6513C104.179 81.0088 115.004 91.8373 128.358 91.8373H436.642C449.996 91.8373 460.821 81.0088 460.821 67.6513V61.6047C460.821 48.2472 449.996 37.4187 436.642 37.4187Z" fill="#B9DBF2"/>
<path d="M247.276 73.6977V56.1078H250.993V70.6316H258.532V73.6977H247.276ZM260.926 73.6977V60.5053H264.583V73.6977H260.926ZM262.764 58.8048C262.22 58.8048 261.753 58.6244 261.364 58.2637C260.981 57.8972 260.788 57.4592 260.788 56.9496C260.788 56.4457 260.981 56.0134 261.364 55.6527C261.753 55.2862 262.22 55.103 262.764 55.103C263.307 55.103 263.771 55.2862 264.154 55.6527C264.543 56.0134 264.738 56.4457 264.738 56.9496C264.738 57.4592 264.543 57.8972 264.154 58.2637C263.771 58.6244 263.307 58.8048 262.764 58.8048ZM273.456 78.9198C272.271 78.9198 271.254 78.7565 270.407 78.4302C269.565 78.1095 268.896 77.6715 268.398 77.1161C267.899 76.5606 267.577 75.9365 267.428 75.2437L270.811 74.7885C270.913 75.0519 271.077 75.2981 271.3 75.5272C271.524 75.7562 271.818 75.9394 272.185 76.0768C272.556 76.22 273.008 76.2916 273.542 76.2916C274.337 76.2916 274.992 76.0969 275.507 75.7075C276.028 75.3239 276.288 74.6797 276.288 73.775V71.3616H276.135C275.974 71.728 275.733 72.0745 275.413 72.4009C275.093 72.7272 274.68 72.9934 274.176 73.1996C273.673 73.4057 273.071 73.5088 272.374 73.5088C271.384 73.5088 270.482 73.2798 269.669 72.8217C268.862 72.3578 268.217 71.6508 267.737 70.7002C267.262 69.744 267.024 68.5358 267.024 67.0757C267.024 65.5814 267.267 64.3331 267.754 63.3311C268.24 62.3291 268.887 61.579 269.695 61.0808C270.507 60.5826 271.397 60.3336 272.365 60.3336C273.103 60.3336 273.722 60.4595 274.22 60.7115C274.718 60.9577 275.118 61.2668 275.422 61.6391C275.731 62.0055 275.968 62.3662 276.135 62.7213H276.271V60.5053H279.903V73.8265C279.903 74.9489 279.629 75.8879 279.08 76.6437C278.53 77.3995 277.768 77.9663 276.795 78.3442C275.828 78.728 274.714 78.9198 273.456 78.9198ZM273.533 70.7603C274.122 70.7603 274.62 70.6144 275.026 70.3223C275.438 70.0246 275.754 69.6009 275.972 69.0512C276.194 68.4958 276.307 67.8315 276.307 67.0586C276.307 66.2856 276.198 65.6157 275.98 65.0488C275.762 64.4762 275.447 64.0325 275.035 63.7176C274.624 63.4026 274.122 63.2451 273.533 63.2451C272.931 63.2451 272.425 63.4084 272.012 63.7348C271.601 64.0554 271.289 64.502 271.077 65.0746C270.865 65.6472 270.76 66.3085 270.76 67.0586C270.76 67.8202 270.865 68.4786 271.077 69.0341C271.294 69.5837 271.606 70.0103 272.012 70.3138C272.425 70.6115 272.931 70.7603 273.533 70.7603ZM286.473 66.0709V73.6977H282.814V56.1078H286.369V62.8329H286.523C286.822 62.0542 287.302 61.4444 287.966 61.0035C288.631 60.5569 289.464 60.3336 290.465 60.3336C291.381 60.3336 292.179 60.534 292.861 60.9348C293.547 61.3298 294.079 61.8995 294.458 62.644C294.841 63.3826 295.03 64.2672 295.025 65.2979V73.6977H291.366V65.9507C291.373 65.1376 291.166 64.5049 290.749 64.0525C290.336 63.6002 289.757 63.3741 289.014 63.3741C288.516 63.3741 288.074 63.48 287.691 63.6919C287.314 63.9036 287.015 64.2128 286.799 64.6194C286.586 65.0202 286.477 65.504 286.473 66.0709ZM304.918 60.5053V63.2537H296.976V60.5053H304.918ZM298.779 57.3447H302.437V69.6438C302.437 69.9817 302.488 70.2451 302.59 70.434C302.694 70.6173 302.837 70.7461 303.021 70.8205C303.209 70.8949 303.427 70.9322 303.672 70.9322C303.844 70.9322 304.016 70.9178 304.187 70.8893C304.359 70.8548 304.491 70.829 304.583 70.8119L305.158 73.5346C304.974 73.5918 304.717 73.6577 304.386 73.7321C304.053 73.8123 303.649 73.8609 303.174 73.8781C302.293 73.9125 301.52 73.7951 300.857 73.526C300.198 73.2568 299.685 72.8389 299.319 72.272C298.953 71.7052 298.773 70.9894 298.779 70.1249V57.3447ZM318.109 64.2672L314.76 64.4734C314.703 64.1871 314.58 63.9294 314.391 63.7004C314.201 63.4656 313.953 63.2795 313.644 63.1421C313.34 62.9989 312.977 62.9275 312.553 62.9275C311.986 62.9275 311.509 63.0477 311.12 63.2881C310.73 63.5229 310.536 63.8378 310.536 64.2329C310.536 64.5478 310.661 64.8141 310.913 65.0316C311.166 65.2492 311.597 65.4238 312.21 65.5555L314.597 66.0366C315.879 66.3 316.836 66.7237 317.464 67.3077C318.094 67.8918 318.41 68.6589 318.41 69.6095C318.41 70.4741 318.155 71.2327 317.644 71.8855C317.141 72.5383 316.449 73.0479 315.567 73.4143C314.691 73.775 313.681 73.9554 312.536 73.9554C310.791 73.9554 309.399 73.5918 308.363 72.8647C307.333 72.1317 306.729 71.1355 306.551 69.8757L310.149 69.6867C310.258 70.2193 310.521 70.6259 310.939 70.9064C311.357 71.1812 311.892 71.3187 312.545 71.3187C313.186 71.3187 313.701 71.1956 314.09 70.9494C314.485 70.6973 314.686 70.3739 314.691 69.9788C314.686 69.6467 314.546 69.3747 314.27 69.1629C313.996 68.9453 313.573 68.7793 313 68.6647L310.716 68.2094C309.428 67.9519 308.47 67.5053 307.84 66.8697C307.216 66.2341 306.904 65.4238 306.904 64.4391C306.904 63.5916 307.132 62.8615 307.591 62.2489C308.054 61.6362 308.704 61.1638 309.539 60.8317C310.381 60.4997 311.365 60.3336 312.493 60.3336C314.159 60.3336 315.469 60.6858 316.426 61.3899C317.387 62.0942 317.948 63.0533 318.109 64.2672Z" fill="#274765"/>
</g>
<path d="M436.642 38.0234H128.358C115.338 38.0234 104.784 48.5812 104.784 61.6048V67.6513C104.784 80.675 115.338 91.2327 128.358 91.2327H436.642C449.662 91.2327 460.216 80.675 460.216 67.6513V61.6048C460.216 48.5812 449.662 38.0234 436.642 38.0234Z" stroke="#E7E7EA"/>
</g>
<defs>
<filter id="filter0_d_158_203" x="0.604492" y="0.348877" width="563.791" height="582.047" filterUnits="userSpaceOnUse" color-interpolation-filters="sRGB">
<feFlood flood-opacity="0" result="BackgroundImageFix"/>
<feColorMatrix in="SourceAlpha" type="matrix" values="0 0 0 0 0 0 0 0 0 0 0 0 0 0 0 0 0 0 127 0" result="hardAlpha"/>
<feOffset/>
<feGaussianBlur stdDeviation="40"/>
<feComposite in2="hardAlpha" operator="out"/>
<feColorMatrix type="matrix" values="0 0 0 0 0.603922 0 0 0 0 0.784314 0 0 0 0 0.921569 0 0 0 1 0"/>
<feBlend mode="normal" in2="BackgroundImageFix" result="effect1_dropShadow_158_203"/>
<feBlend mode="normal" in="SourceGraphic" in2="effect1_dropShadow_158_203" result="shape"/>
</filter>
<filter id="filter1_d_158_203" x="94.1343" y="122.07" width="376.731" height="80.5581" filterUnits="userSpaceOnUse" color-interpolation-filters="sRGB">
<feFlood flood-opacity="0" result="BackgroundImageFix"/>
<feColorMatrix in="SourceAlpha" type="matrix" values="0 0 0 0 0 0 0 0 0 0 0 0 0 0 0 0 0 0 127 0" result="hardAlpha"/>
<feOffset dy="4"/>
<feGaussianBlur stdDeviation="2"/>
<feComposite in2="hardAlpha" operator="out"/>
<feColorMatrix type="matrix" values="0 0 0 0 0 0 0 0 0 0 0 0 0 0 0 0 0 0 0.25 0"/>
<feBlend mode="normal" in2="BackgroundImageFix" result="effect1_dropShadow_158_203"/>
<feBlend mode="normal" in="SourceGraphic" in2="effect1_dropShadow_158_203" result="shape"/>
</filter>
<filter id="filter2_d_158_203" x="100.179" y="109.977" width="57.5671" height="33.3953" filterUnits="userSpaceOnUse" color-interpolation-filters="sRGB">
<feFlood flood-opacity="0" result="BackgroundImageFix"/>
<feColorMatrix in="SourceAlpha" type="matrix" values="0 0 0 0 0 0 0 0 0 0 0 0 0 0 0 0 0 0 127 0" result="hardAlpha"/>
<feOffset dy="4"/>
<feGaussianBlur stdDeviation="2"/>
<feComposite in2="hardAlpha" operator="out"/>
<feColorMatrix type="matrix" values="0 0 0 0 0 0 0 0 0 0 0 0 0 0 0 0 0 0 0.25 0"/>
<feBlend mode="normal" in2="BackgroundImageFix" result="effect1_dropShadow_158_203"/>
<feBlend mode="normal" in="SourceGraphic" in2="effect1_dropShadow_158_203" result="shape"/>
</filter>
<filter id="filter3_d_158_203" x="94.1343" y="224.86" width="376.731" height="147.07" filterUnits="userSpaceOnUse" color-interpolation-filters="sRGB">
<feFlood flood-opacity="0" result="BackgroundImageFix"/>
<feColorMatrix in="SourceAlpha" type="matrix" values="0 0 0 0 0 0 0 0 0 0 0 0 0 0 0 0 0 0 127 0" result="hardAlpha"/>
<feOffset dy="4"/>
<feGaussianBlur stdDeviation="2"/>
<feComposite in2="hardAlpha" operator="out"/>
<feColorMatrix type="matrix" values="0 0 0 0 0 0 0 0 0 0 0 0 0 0 0 0 0 0 0.25 0"/>
<feBlend mode="normal" in2="BackgroundImageFix" result="effect1_dropShadow_158_203"/>
<feBlend mode="normal" in="SourceGraphic" in2="effect1_dropShadow_158_203" result="shape"/>
</filter>
<filter id="filter4_d_158_203" x="100.179" y="212.767" width="126.478" height="33.3953" filterUnits="userSpaceOnUse" color-interpolation-filters="sRGB">
<feFlood flood-opacity="0" result="BackgroundImageFix"/>
<feColorMatrix in="SourceAlpha" type="matrix" values="0 0 0 0 0 0 0 0 0 0 0 0 0 0 0 0 0 0 127 0" result="hardAlpha"/>
<feOffset dy="4"/>
<feGaussianBlur stdDeviation="2"/>
<feComposite in2="hardAlpha" operator="out"/>
<feColorMatrix type="matrix" values="0 0 0 0 0 0 0 0 0 0 0 0 0 0 0 0 0 0 0.25 0"/>
<feBlend mode="normal" in2="BackgroundImageFix" result="effect1_dropShadow_158_203"/>
<feBlend mode="normal" in="SourceGraphic" in2="effect1_dropShadow_158_203" result="shape"/>
</filter>
<filter id="filter5_d_158_203" x="94.1343" y="400.209" width="376.731" height="80.5581" filterUnits="userSpaceOnUse" color-interpolation-filters="sRGB">
<feFlood flood-opacity="0" result="BackgroundImageFix"/>
<feColorMatrix in="SourceAlpha" type="matrix" values="0 0 0 0 0 0 0 0 0 0 0 0 0 0 0 0 0 0 127 0" result="hardAlpha"/>
<feOffset dy="4"/>
<feGaussianBlur stdDeviation="2"/>
<feComposite in2="hardAlpha" operator="out"/>
<feColorMatrix type="matrix" values="0 0 0 0 0 0 0 0 0 0 0 0 0 0 0 0 0 0 0.25 0"/>
<feBlend mode="normal" in2="BackgroundImageFix" result="effect1_dropShadow_158_203"/>
<feBlend mode="normal" in="SourceGraphic" in2="effect1_dropShadow_158_203" result="shape"/>
</filter>
<filter id="filter6_d_158_203" x="100.179" y="388.116" width="137.358" height="33.3953" filterUnits="userSpaceOnUse" color-interpolation-filters="sRGB">
<feFlood flood-opacity="0" result="BackgroundImageFix"/>
<feColorMatrix in="SourceAlpha" type="matrix" values="0 0 0 0 0 0 0 0 0 0 0 0 0 0 0 0 0 0 127 0" result="hardAlpha"/>
<feOffset dy="4"/>
<feGaussianBlur stdDeviation="2"/>
<feComposite in2="hardAlpha" operator="out"/>
<feColorMatrix type="matrix" values="0 0 0 0 0 0 0 0 0 0 0 0 0 0 0 0 0 0 0.25 0"/>
<feBlend mode="normal" in2="BackgroundImageFix" result="effect1_dropShadow_158_203"/>
<feBlend mode="normal" in="SourceGraphic" in2="effect1_dropShadow_158_203" result="shape"/>
</filter>
<filter id="filter7_d_158_203" x="99.1791" y="35.4187" width="366.642" height="64.4187" filterUnits="userSpaceOnUse" color-interpolation-filters="sRGB">
<feFlood flood-opacity="0" result="BackgroundImageFix"/>
<feColorMatrix in="SourceAlpha" type="matrix" values="0 0 0 0 0 0 0 0 0 0 0 0 0 0 0 0 0 0 127 0" result="hardAlpha"/>
<feOffset dy="3"/>
<feGaussianBlur stdDeviation="2.5"/>
<feComposite in2="hardAlpha" operator="out"/>
<feColorMatrix type="matrix" values="0 0 0 0 0.804769 0 0 0 0 0.804769 0 0 0 0 0.804769 0 0 0 0.25 0"/>
<feBlend mode="normal" in2="BackgroundImageFix" result="effect1_dropShadow_158_203"/>
<feBlend mode="normal" in="SourceGraphic" in2="effect1_dropShadow_158_203" result="shape"/>
</filter>
</defs>
</svg>
