<svg width="393" height="705" viewBox="0 0 393 705" fill="none" xmlns="http://www.w3.org/2000/svg">
<path d="M0 20C0 8.95429 8.95431 0 20 0H373C384.046 0 393 8.9543 393 20V685C393 696.046 384.046 705 373 705H20C8.9543 705 0 696.046 0 685V20Z" fill="#F7F7F8"/>
<path d="M40 55.5H353C363.77 55.5 372.5 64.2304 372.5 75V665C372.5 675.77 363.77 684.5 353 684.5H40C29.2304 684.5 20.5 675.77 20.5 665V75C20.5 64.2304 29.2304 55.5 40 55.5Z" fill="white"/>
<path d="M40 55.5H353C363.77 55.5 372.5 64.2304 372.5 75V665C372.5 675.77 363.77 684.5 353 684.5H40C29.2304 684.5 20.5 675.77 20.5 665V75C20.5 64.2304 29.2304 55.5 40 55.5Z" stroke="#E5E5E5"/>
<g clip-path="url(#clip0_540_6260)">
<rect x="39" y="80" width="150" height="60" rx="20" fill="#F9FAFB"/>
<path d="M90.777 107.71C90.7315 107.252 90.5365 106.896 90.1918 106.642C89.8471 106.388 89.3793 106.261 88.7884 106.261C88.3868 106.261 88.0478 106.318 87.7713 106.432C87.4948 106.542 87.2827 106.695 87.1349 106.892C86.991 107.089 86.919 107.312 86.919 107.562C86.9115 107.771 86.955 107.953 87.0497 108.108C87.1482 108.263 87.2827 108.398 87.4531 108.511C87.6236 108.621 87.8205 108.718 88.044 108.801C88.2675 108.881 88.5062 108.949 88.7599 109.006L89.8054 109.256C90.313 109.369 90.7789 109.521 91.2031 109.71C91.6274 109.9 91.9948 110.133 92.3054 110.409C92.616 110.686 92.8565 111.011 93.027 111.386C93.2012 111.761 93.2902 112.191 93.294 112.676C93.2902 113.388 93.1084 114.006 92.7486 114.528C92.3925 115.047 91.8774 115.451 91.2031 115.739C90.5327 116.023 89.724 116.165 88.777 116.165C87.8376 116.165 87.0194 116.021 86.3224 115.733C85.6293 115.445 85.0876 115.019 84.6974 114.455C84.3111 113.886 84.1084 113.184 84.0895 112.347H86.4702C86.4967 112.737 86.6084 113.062 86.8054 113.324C87.0062 113.581 87.2732 113.777 87.6065 113.909C87.9437 114.038 88.3243 114.102 88.7486 114.102C89.1652 114.102 89.527 114.042 89.8338 113.92C90.1444 113.799 90.3849 113.631 90.5554 113.415C90.7259 113.199 90.8111 112.951 90.8111 112.67C90.8111 112.409 90.7334 112.189 90.5781 112.011C90.4266 111.833 90.2031 111.682 89.9077 111.557C89.616 111.432 89.258 111.318 88.8338 111.216L87.5668 110.898C86.5857 110.659 85.8111 110.286 85.2429 109.778C84.6747 109.271 84.3925 108.587 84.3963 107.727C84.3925 107.023 84.58 106.407 84.9588 105.881C85.3414 105.354 85.866 104.943 86.5327 104.648C87.1993 104.352 87.9569 104.205 88.8054 104.205C89.669 104.205 90.4228 104.352 91.0668 104.648C91.7145 104.943 92.2183 105.354 92.5781 105.881C92.938 106.407 93.1236 107.017 93.1349 107.71H90.777ZM94.9034 116V107.273H97.2102V108.812H97.3125C97.4943 108.301 97.7973 107.898 98.2216 107.602C98.6458 107.307 99.1534 107.159 99.7443 107.159C100.343 107.159 100.852 107.309 101.273 107.608C101.693 107.903 101.973 108.305 102.114 108.812H102.205C102.383 108.312 102.705 107.913 103.17 107.614C103.64 107.311 104.195 107.159 104.835 107.159C105.65 107.159 106.311 107.419 106.818 107.938C107.33 108.453 107.585 109.184 107.585 110.131V116H105.17V110.608C105.17 110.123 105.042 109.759 104.784 109.517C104.527 109.275 104.205 109.153 103.818 109.153C103.379 109.153 103.036 109.294 102.79 109.574C102.544 109.85 102.42 110.216 102.42 110.67V116H100.074V110.557C100.074 110.129 99.9508 109.788 99.7045 109.534C99.4621 109.28 99.142 109.153 98.7443 109.153C98.4754 109.153 98.233 109.222 98.017 109.358C97.8049 109.491 97.6364 109.678 97.5114 109.92C97.3864 110.159 97.3239 110.439 97.3239 110.761V116H94.9034ZM113.44 116.17C112.558 116.17 111.795 115.983 111.151 115.608C110.51 115.229 110.016 114.703 109.668 114.028C109.319 113.35 109.145 112.564 109.145 111.67C109.145 110.769 109.319 109.981 109.668 109.307C110.016 108.629 110.51 108.102 111.151 107.727C111.795 107.348 112.558 107.159 113.44 107.159C114.323 107.159 115.084 107.348 115.724 107.727C116.368 108.102 116.865 108.629 117.213 109.307C117.562 109.981 117.736 110.769 117.736 111.67C117.736 112.564 117.562 113.35 117.213 114.028C116.865 114.703 116.368 115.229 115.724 115.608C115.084 115.983 114.323 116.17 113.44 116.17ZM113.452 114.295C113.853 114.295 114.188 114.182 114.457 113.955C114.726 113.723 114.929 113.409 115.065 113.011C115.205 112.614 115.276 112.161 115.276 111.653C115.276 111.146 115.205 110.693 115.065 110.295C114.929 109.898 114.726 109.583 114.457 109.352C114.188 109.121 113.853 109.006 113.452 109.006C113.046 109.006 112.705 109.121 112.429 109.352C112.156 109.583 111.95 109.898 111.81 110.295C111.673 110.693 111.605 111.146 111.605 111.653C111.605 112.161 111.673 112.614 111.81 113.011C111.95 113.409 112.156 113.723 112.429 113.955C112.705 114.182 113.046 114.295 113.452 114.295ZM123.253 116.17C122.37 116.17 121.607 115.983 120.963 115.608C120.323 115.229 119.829 114.703 119.48 114.028C119.132 113.35 118.957 112.564 118.957 111.67C118.957 110.769 119.132 109.981 119.48 109.307C119.829 108.629 120.323 108.102 120.963 107.727C121.607 107.348 122.37 107.159 123.253 107.159C124.135 107.159 124.897 107.348 125.537 107.727C126.181 108.102 126.677 108.629 127.026 109.307C127.374 109.981 127.548 110.769 127.548 111.67C127.548 112.564 127.374 113.35 127.026 114.028C126.677 114.703 126.181 115.229 125.537 115.608C124.897 115.983 124.135 116.17 123.253 116.17ZM123.264 114.295C123.666 114.295 124.001 114.182 124.27 113.955C124.539 113.723 124.741 113.409 124.878 113.011C125.018 112.614 125.088 112.161 125.088 111.653C125.088 111.146 125.018 110.693 124.878 110.295C124.741 109.898 124.539 109.583 124.27 109.352C124.001 109.121 123.666 109.006 123.264 109.006C122.859 109.006 122.518 109.121 122.241 109.352C121.969 109.583 121.762 109.898 121.622 110.295C121.486 110.693 121.418 111.146 121.418 111.653C121.418 112.161 121.486 112.614 121.622 113.011C121.762 113.409 121.969 113.723 122.241 113.955C122.518 114.182 122.859 114.295 123.264 114.295ZM133.764 107.273V109.091H128.509V107.273H133.764ZM129.702 105.182H132.122V113.318C132.122 113.542 132.156 113.716 132.224 113.841C132.293 113.962 132.387 114.047 132.509 114.097C132.634 114.146 132.777 114.17 132.94 114.17C133.054 114.17 133.168 114.161 133.281 114.142C133.395 114.119 133.482 114.102 133.543 114.091L133.923 115.892C133.802 115.93 133.632 115.973 133.412 116.023C133.192 116.076 132.925 116.108 132.611 116.119C132.027 116.142 131.516 116.064 131.077 115.886C130.641 115.708 130.302 115.432 130.06 115.057C129.817 114.682 129.698 114.208 129.702 113.636V105.182ZM137.949 110.955V116H135.528V104.364H137.881V108.812H137.983C138.18 108.297 138.498 107.894 138.938 107.602C139.377 107.307 139.928 107.159 140.591 107.159C141.197 107.159 141.725 107.292 142.176 107.557C142.631 107.818 142.983 108.195 143.233 108.688C143.487 109.176 143.612 109.761 143.608 110.443V116H141.188V110.875C141.191 110.337 141.055 109.919 140.778 109.619C140.506 109.32 140.123 109.17 139.631 109.17C139.301 109.17 139.009 109.241 138.756 109.381C138.506 109.521 138.309 109.725 138.165 109.994C138.025 110.259 137.953 110.58 137.949 110.955Z" fill="#6B7280"/>
</g>
<rect x="41.5" y="82.5" width="145" height="55" rx="17.5" stroke="#D1D5DB" stroke-width="5"/>
<g clip-path="url(#clip1_540_6260)">
<rect x="204" y="80" width="150" height="60" rx="20" fill="#F9FAFB"/>
<path d="M260.129 107.71C260.083 107.252 259.888 106.896 259.543 106.642C259.199 106.388 258.731 106.261 258.14 106.261C257.738 106.261 257.399 106.318 257.123 106.432C256.846 106.542 256.634 106.695 256.487 106.892C256.343 107.089 256.271 107.312 256.271 107.562C256.263 107.771 256.307 107.953 256.401 108.108C256.5 108.263 256.634 108.398 256.805 108.511C256.975 108.621 257.172 108.718 257.396 108.801C257.619 108.881 257.858 108.949 258.112 109.006L259.157 109.256C259.665 109.369 260.13 109.521 260.555 109.71C260.979 109.9 261.346 110.133 261.657 110.409C261.968 110.686 262.208 111.011 262.379 111.386C262.553 111.761 262.642 112.191 262.646 112.676C262.642 113.388 262.46 114.006 262.1 114.528C261.744 115.047 261.229 115.451 260.555 115.739C259.884 116.023 259.076 116.165 258.129 116.165C257.189 116.165 256.371 116.021 255.674 115.733C254.981 115.445 254.439 115.019 254.049 114.455C253.663 113.886 253.46 113.184 253.441 112.347H255.822C255.848 112.737 255.96 113.062 256.157 113.324C256.358 113.581 256.625 113.777 256.958 113.909C257.295 114.038 257.676 114.102 258.1 114.102C258.517 114.102 258.879 114.042 259.185 113.92C259.496 113.799 259.737 113.631 259.907 113.415C260.077 113.199 260.163 112.951 260.163 112.67C260.163 112.409 260.085 112.189 259.93 112.011C259.778 111.833 259.555 111.682 259.259 111.557C258.968 111.432 258.61 111.318 258.185 111.216L256.918 110.898C255.937 110.659 255.163 110.286 254.594 109.778C254.026 109.271 253.744 108.587 253.748 107.727C253.744 107.023 253.932 106.407 254.31 105.881C254.693 105.354 255.218 104.943 255.884 104.648C256.551 104.352 257.308 104.205 258.157 104.205C259.021 104.205 259.774 104.352 260.418 104.648C261.066 104.943 261.57 105.354 261.93 105.881C262.29 106.407 262.475 107.017 262.487 107.71H260.129ZM268.897 107.273V109.091H263.641V107.273H268.897ZM264.835 105.182H267.255V113.318C267.255 113.542 267.289 113.716 267.357 113.841C267.425 113.962 267.52 114.047 267.641 114.097C267.766 114.146 267.91 114.17 268.073 114.17C268.187 114.17 268.3 114.161 268.414 114.142C268.528 114.119 268.615 114.102 268.675 114.091L269.056 115.892C268.935 115.93 268.764 115.973 268.545 116.023C268.325 116.076 268.058 116.108 267.744 116.119C267.16 116.142 266.649 116.064 266.21 115.886C265.774 115.708 265.435 115.432 265.192 115.057C264.95 114.682 264.831 114.208 264.835 113.636V105.182ZM270.474 116V107.273H272.82V108.795H272.911C273.07 108.254 273.337 107.845 273.712 107.568C274.087 107.288 274.519 107.148 275.008 107.148C275.129 107.148 275.26 107.155 275.4 107.17C275.54 107.186 275.663 107.206 275.769 107.233V109.381C275.656 109.347 275.498 109.316 275.298 109.29C275.097 109.263 274.913 109.25 274.746 109.25C274.39 109.25 274.072 109.328 273.792 109.483C273.515 109.634 273.296 109.847 273.133 110.119C272.974 110.392 272.894 110.706 272.894 111.062V116H270.474ZM280.558 116.17C279.675 116.17 278.912 115.983 278.268 115.608C277.628 115.229 277.133 114.703 276.785 114.028C276.436 113.35 276.262 112.564 276.262 111.67C276.262 110.769 276.436 109.981 276.785 109.307C277.133 108.629 277.628 108.102 278.268 107.727C278.912 107.348 279.675 107.159 280.558 107.159C281.44 107.159 282.201 107.348 282.842 107.727C283.486 108.102 283.982 108.629 284.33 109.307C284.679 109.981 284.853 110.769 284.853 111.67C284.853 112.564 284.679 113.35 284.33 114.028C283.982 114.703 283.486 115.229 282.842 115.608C282.201 115.983 281.44 116.17 280.558 116.17ZM280.569 114.295C280.97 114.295 281.306 114.182 281.575 113.955C281.844 113.723 282.046 113.409 282.183 113.011C282.323 112.614 282.393 112.161 282.393 111.653C282.393 111.146 282.323 110.693 282.183 110.295C282.046 109.898 281.844 109.583 281.575 109.352C281.306 109.121 280.97 109.006 280.569 109.006C280.164 109.006 279.823 109.121 279.546 109.352C279.273 109.583 279.067 109.898 278.927 110.295C278.79 110.693 278.722 111.146 278.722 111.653C278.722 112.161 278.79 112.614 278.927 113.011C279.067 113.409 279.273 113.723 279.546 113.955C279.823 114.182 280.164 114.295 280.569 114.295ZM286.472 116V104.364H288.893V108.739H288.967C289.073 108.504 289.226 108.265 289.427 108.023C289.631 107.777 289.897 107.572 290.222 107.409C290.552 107.242 290.961 107.159 291.45 107.159C292.086 107.159 292.673 107.326 293.211 107.659C293.749 107.989 294.179 108.487 294.501 109.153C294.823 109.816 294.984 110.648 294.984 111.648C294.984 112.621 294.826 113.443 294.512 114.114C294.201 114.78 293.777 115.286 293.239 115.631C292.705 115.972 292.107 116.142 291.444 116.142C290.974 116.142 290.575 116.064 290.245 115.909C289.919 115.754 289.652 115.559 289.444 115.324C289.236 115.085 289.076 114.845 288.967 114.602H288.859V116H286.472ZM288.842 111.636C288.842 112.155 288.914 112.608 289.058 112.994C289.201 113.381 289.41 113.682 289.683 113.898C289.955 114.11 290.287 114.216 290.677 114.216C291.071 114.216 291.404 114.108 291.677 113.892C291.95 113.672 292.156 113.369 292.296 112.983C292.44 112.593 292.512 112.144 292.512 111.636C292.512 111.133 292.442 110.689 292.302 110.307C292.162 109.924 291.955 109.625 291.683 109.409C291.41 109.193 291.075 109.085 290.677 109.085C290.283 109.085 289.95 109.189 289.677 109.398C289.408 109.606 289.201 109.902 289.058 110.284C288.914 110.667 288.842 111.117 288.842 111.636ZM300.576 116.17C299.678 116.17 298.906 115.989 298.258 115.625C297.614 115.258 297.118 114.739 296.769 114.068C296.421 113.394 296.246 112.597 296.246 111.676C296.246 110.778 296.421 109.991 296.769 109.312C297.118 108.634 297.608 108.106 298.241 107.727C298.877 107.348 299.623 107.159 300.479 107.159C301.055 107.159 301.591 107.252 302.087 107.438C302.587 107.619 303.023 107.894 303.394 108.261C303.769 108.629 304.061 109.091 304.269 109.648C304.478 110.201 304.582 110.848 304.582 111.591V112.256H297.212V110.756H302.303C302.303 110.407 302.228 110.098 302.076 109.83C301.924 109.561 301.714 109.35 301.445 109.199C301.18 109.044 300.871 108.966 300.519 108.966C300.152 108.966 299.826 109.051 299.542 109.222C299.262 109.388 299.042 109.614 298.883 109.898C298.724 110.178 298.642 110.491 298.638 110.835V112.261C298.638 112.693 298.718 113.066 298.877 113.381C299.04 113.695 299.269 113.938 299.565 114.108C299.86 114.278 300.21 114.364 300.616 114.364C300.885 114.364 301.131 114.326 301.354 114.25C301.578 114.174 301.769 114.061 301.928 113.909C302.087 113.758 302.209 113.572 302.292 113.352L304.531 113.5C304.417 114.038 304.184 114.508 303.832 114.909C303.483 115.307 303.032 115.617 302.479 115.841C301.93 116.061 301.296 116.17 300.576 116.17Z" fill="#6B7280"/>
</g>
<rect x="206.5" y="82.5" width="145" height="55" rx="17.5" stroke="#D1D5DB" stroke-width="5"/>
<g clip-path="url(#clip2_540_6260)">
<rect x="39" y="155" width="150" height="60" rx="20" fill="#F9FAFB"/>
<path d="M95.1286 191V179.364H97.5888V188.972H102.577V191H95.1286ZM104.161 191V182.273H106.582V191H104.161ZM105.377 181.148C105.017 181.148 104.709 181.028 104.451 180.79C104.197 180.547 104.07 180.258 104.07 179.92C104.07 179.587 104.197 179.301 104.451 179.062C104.709 178.82 105.017 178.699 105.377 178.699C105.737 178.699 106.044 178.82 106.298 179.062C106.555 179.301 106.684 179.587 106.684 179.92C106.684 180.258 106.555 180.547 106.298 180.79C106.044 181.028 105.737 181.148 105.377 181.148ZM112.452 194.455C111.668 194.455 110.996 194.347 110.435 194.131C109.879 193.919 109.435 193.629 109.106 193.261C108.776 192.894 108.562 192.481 108.464 192.023L110.702 191.722C110.771 191.896 110.879 192.059 111.026 192.21C111.174 192.362 111.369 192.483 111.612 192.574C111.858 192.669 112.157 192.716 112.509 192.716C113.036 192.716 113.469 192.587 113.81 192.33C114.155 192.076 114.327 191.65 114.327 191.051V189.455H114.225C114.119 189.697 113.96 189.926 113.748 190.142C113.536 190.358 113.263 190.534 112.93 190.67C112.596 190.807 112.199 190.875 111.737 190.875C111.081 190.875 110.485 190.723 109.947 190.42C109.413 190.114 108.987 189.646 108.668 189.017C108.354 188.384 108.197 187.585 108.197 186.619C108.197 185.631 108.358 184.805 108.68 184.142C109.002 183.479 109.43 182.983 109.964 182.653C110.502 182.324 111.091 182.159 111.731 182.159C112.219 182.159 112.629 182.242 112.958 182.409C113.288 182.572 113.553 182.777 113.754 183.023C113.958 183.265 114.115 183.504 114.225 183.739H114.316V182.273H116.719V191.085C116.719 191.828 116.538 192.449 116.174 192.949C115.81 193.449 115.307 193.824 114.663 194.074C114.022 194.328 113.286 194.455 112.452 194.455ZM112.504 189.057C112.894 189.057 113.223 188.96 113.492 188.767C113.765 188.57 113.973 188.29 114.117 187.926C114.265 187.559 114.339 187.119 114.339 186.608C114.339 186.097 114.267 185.653 114.123 185.278C113.979 184.9 113.771 184.606 113.498 184.398C113.225 184.189 112.894 184.085 112.504 184.085C112.106 184.085 111.771 184.193 111.498 184.409C111.225 184.621 111.019 184.917 110.879 185.295C110.738 185.674 110.668 186.112 110.668 186.608C110.668 187.112 110.738 187.547 110.879 187.915C111.022 188.278 111.229 188.561 111.498 188.761C111.771 188.958 112.106 189.057 112.504 189.057ZM121.066 185.955V191H118.646V179.364H120.998V183.812H121.1C121.297 183.297 121.615 182.894 122.055 182.602C122.494 182.307 123.045 182.159 123.708 182.159C124.314 182.159 124.843 182.292 125.293 182.557C125.748 182.818 126.1 183.195 126.35 183.688C126.604 184.176 126.729 184.761 126.725 185.443V191H124.305V185.875C124.308 185.337 124.172 184.919 123.896 184.619C123.623 184.32 123.24 184.17 122.748 184.17C122.418 184.17 122.127 184.241 121.873 184.381C121.623 184.521 121.426 184.725 121.282 184.994C121.142 185.259 121.07 185.58 121.066 185.955ZM133.272 182.273V184.091H128.016V182.273H133.272ZM129.21 180.182H131.63V188.318C131.63 188.542 131.664 188.716 131.732 188.841C131.8 188.962 131.895 189.047 132.016 189.097C132.141 189.146 132.285 189.17 132.448 189.17C132.562 189.17 132.675 189.161 132.789 189.142C132.903 189.119 132.99 189.102 133.05 189.091L133.431 190.892C133.31 190.93 133.139 190.973 132.92 191.023C132.7 191.076 132.433 191.108 132.119 191.119C131.535 191.142 131.024 191.064 130.585 190.886C130.149 190.708 129.81 190.432 129.567 190.057C129.325 189.682 129.206 189.208 129.21 188.636V180.182Z" fill="#6B7280"/>
</g>
<rect x="41.5" y="157.5" width="145" height="55" rx="17.5" stroke="#D1D5DB" stroke-width="5"/>
<g clip-path="url(#clip3_540_6260)">
<rect x="204" y="155" width="150" height="60" rx="20" fill="#E7F3FB"/>
<path d="M258.536 183.438H256.048C256.002 183.116 255.909 182.83 255.769 182.58C255.629 182.326 255.449 182.11 255.229 181.932C255.01 181.754 254.756 181.617 254.468 181.523C254.184 181.428 253.875 181.381 253.542 181.381C252.94 181.381 252.415 181.53 251.968 181.83C251.521 182.125 251.174 182.557 250.928 183.125C250.682 183.689 250.559 184.375 250.559 185.182C250.559 186.011 250.682 186.708 250.928 187.273C251.178 187.837 251.527 188.263 251.974 188.551C252.421 188.839 252.938 188.983 253.525 188.983C253.854 188.983 254.159 188.939 254.44 188.852C254.724 188.765 254.976 188.638 255.195 188.472C255.415 188.301 255.597 188.095 255.741 187.852C255.888 187.61 255.991 187.333 256.048 187.023L258.536 187.034C258.472 187.568 258.311 188.083 258.053 188.58C257.799 189.072 257.457 189.513 257.025 189.903C256.597 190.29 256.085 190.597 255.491 190.824C254.9 191.047 254.231 191.159 253.485 191.159C252.447 191.159 251.519 190.924 250.701 190.455C249.887 189.985 249.243 189.305 248.769 188.415C248.299 187.525 248.065 186.447 248.065 185.182C248.065 183.913 248.303 182.833 248.781 181.943C249.258 181.053 249.906 180.375 250.724 179.909C251.542 179.439 252.462 179.205 253.485 179.205C254.159 179.205 254.784 179.299 255.36 179.489C255.94 179.678 256.453 179.955 256.9 180.318C257.347 180.678 257.71 181.119 257.991 181.642C258.275 182.165 258.457 182.763 258.536 183.438ZM264.198 191.17C263.316 191.17 262.552 190.983 261.908 190.608C261.268 190.229 260.774 189.703 260.425 189.028C260.077 188.35 259.903 187.564 259.903 186.67C259.903 185.769 260.077 184.981 260.425 184.307C260.774 183.629 261.268 183.102 261.908 182.727C262.552 182.348 263.316 182.159 264.198 182.159C265.081 182.159 265.842 182.348 266.482 182.727C267.126 183.102 267.622 183.629 267.971 184.307C268.319 184.981 268.494 185.769 268.494 186.67C268.494 187.564 268.319 188.35 267.971 189.028C267.622 189.703 267.126 190.229 266.482 190.608C265.842 190.983 265.081 191.17 264.198 191.17ZM264.21 189.295C264.611 189.295 264.946 189.182 265.215 188.955C265.484 188.723 265.687 188.409 265.823 188.011C265.963 187.614 266.033 187.161 266.033 186.653C266.033 186.146 265.963 185.693 265.823 185.295C265.687 184.898 265.484 184.583 265.215 184.352C264.946 184.121 264.611 184.006 264.21 184.006C263.804 184.006 263.463 184.121 263.187 184.352C262.914 184.583 262.708 184.898 262.567 185.295C262.431 185.693 262.363 186.146 262.363 186.653C262.363 187.161 262.431 187.614 262.567 188.011C262.708 188.409 262.914 188.723 263.187 188.955C263.463 189.182 263.804 189.295 264.21 189.295ZM272.488 179.364V191H270.067V179.364H272.488ZM278.37 191.17C277.487 191.17 276.724 190.983 276.08 190.608C275.44 190.229 274.946 189.703 274.597 189.028C274.249 188.35 274.075 187.564 274.075 186.67C274.075 185.769 274.249 184.981 274.597 184.307C274.946 183.629 275.44 183.102 276.08 182.727C276.724 182.348 277.487 182.159 278.37 182.159C279.253 182.159 280.014 182.348 280.654 182.727C281.298 183.102 281.794 183.629 282.143 184.307C282.491 184.981 282.665 185.769 282.665 186.67C282.665 187.564 282.491 188.35 282.143 189.028C281.794 189.703 281.298 190.229 280.654 190.608C280.014 190.983 279.253 191.17 278.37 191.17ZM278.381 189.295C278.783 189.295 279.118 189.182 279.387 188.955C279.656 188.723 279.859 188.409 279.995 188.011C280.135 187.614 280.205 187.161 280.205 186.653C280.205 186.146 280.135 185.693 279.995 185.295C279.859 184.898 279.656 184.583 279.387 184.352C279.118 184.121 278.783 184.006 278.381 184.006C277.976 184.006 277.635 184.121 277.359 184.352C277.086 184.583 276.879 184.898 276.739 185.295C276.603 185.693 276.535 186.146 276.535 186.653C276.535 187.161 276.603 187.614 276.739 188.011C276.879 188.409 277.086 188.723 277.359 188.955C277.635 189.182 277.976 189.295 278.381 189.295ZM284.239 191V182.273H286.586V183.795H286.677C286.836 183.254 287.103 182.845 287.478 182.568C287.853 182.288 288.285 182.148 288.773 182.148C288.895 182.148 289.025 182.155 289.165 182.17C289.306 182.186 289.429 182.206 289.535 182.233V184.381C289.421 184.347 289.264 184.316 289.063 184.29C288.862 184.263 288.679 184.25 288.512 184.25C288.156 184.25 287.838 184.328 287.558 184.483C287.281 184.634 287.061 184.847 286.898 185.119C286.739 185.392 286.66 185.706 286.66 186.062V191H284.239ZM295.917 182.273V184.091H290.531V182.273H295.917ZM291.763 191V181.642C291.763 181.009 291.887 180.485 292.133 180.068C292.383 179.652 292.724 179.339 293.156 179.131C293.587 178.922 294.078 178.818 294.627 178.818C294.998 178.818 295.337 178.847 295.644 178.903C295.955 178.96 296.186 179.011 296.337 179.057L295.906 180.875C295.811 180.845 295.693 180.816 295.553 180.79C295.417 180.763 295.277 180.75 295.133 180.75C294.777 180.75 294.529 180.833 294.388 181C294.248 181.163 294.178 181.392 294.178 181.688V191H291.763ZM302.992 187.284V182.273H305.413V191H303.089V189.415H302.998C302.801 189.926 302.473 190.337 302.015 190.648C301.56 190.958 301.005 191.114 300.35 191.114C299.767 191.114 299.254 190.981 298.81 190.716C298.367 190.451 298.021 190.074 297.771 189.585C297.524 189.097 297.399 188.511 297.396 187.83V182.273H299.816V187.398C299.82 187.913 299.958 188.32 300.231 188.619C300.504 188.919 300.869 189.068 301.327 189.068C301.619 189.068 301.892 189.002 302.146 188.869C302.399 188.733 302.604 188.532 302.759 188.267C302.918 188.002 302.996 187.674 302.992 187.284ZM309.769 179.364V191H307.349V179.364H309.769Z" fill="#6B7280"/>
</g>
<rect x="206.5" y="157.5" width="145" height="55" rx="17.5" stroke="#9AC8EB" stroke-width="5"/>
<g clip-path="url(#clip4_540_6260)">
<rect x="39" y="230" width="150" height="60" rx="20" fill="#F9FAFB"/>
<path d="M77.4567 266V254.364H85.2976V256.392H79.9169V259.165H84.8942V261.193H79.9169V263.972H85.3203V266H77.4567ZM89.6286 260.955V266H87.2081V257.273H89.5149V258.812H89.6172C89.8104 258.305 90.1342 257.903 90.5888 257.608C91.0433 257.309 91.5945 257.159 92.2422 257.159C92.8482 257.159 93.3767 257.292 93.8274 257.557C94.2782 257.822 94.6286 258.201 94.8786 258.693C95.1286 259.182 95.2536 259.765 95.2536 260.443V266H92.8331V260.875C92.8369 260.341 92.7005 259.924 92.424 259.625C92.1475 259.322 91.7668 259.17 91.282 259.17C90.9562 259.17 90.6683 259.241 90.4183 259.381C90.1721 259.521 89.9789 259.725 89.8388 259.994C89.7024 260.259 89.6323 260.58 89.6286 260.955ZM101.138 266.17C100.241 266.17 99.468 265.989 98.8203 265.625C98.1764 265.258 97.6802 264.739 97.3317 264.068C96.9832 263.394 96.8089 262.597 96.8089 261.676C96.8089 260.778 96.9832 259.991 97.3317 259.312C97.6802 258.634 98.1707 258.106 98.8033 257.727C99.4396 257.348 100.186 257.159 101.042 257.159C101.618 257.159 102.154 257.252 102.65 257.438C103.15 257.619 103.585 257.894 103.957 258.261C104.332 258.629 104.623 259.091 104.832 259.648C105.04 260.201 105.144 260.848 105.144 261.591V262.256H97.7749V260.756H102.866C102.866 260.407 102.79 260.098 102.638 259.83C102.487 259.561 102.277 259.35 102.008 259.199C101.743 259.044 101.434 258.966 101.082 258.966C100.714 258.966 100.388 259.051 100.104 259.222C99.8241 259.388 99.6044 259.614 99.4453 259.898C99.2862 260.178 99.2048 260.491 99.201 260.835V262.261C99.201 262.693 99.2805 263.066 99.4396 263.381C99.6025 263.695 99.8317 263.938 100.127 264.108C100.423 264.278 100.773 264.364 101.178 264.364C101.447 264.364 101.693 264.326 101.917 264.25C102.14 264.174 102.332 264.061 102.491 263.909C102.65 263.758 102.771 263.572 102.854 263.352L105.093 263.5C104.979 264.038 104.746 264.508 104.394 264.909C104.046 265.307 103.595 265.617 103.042 265.841C102.493 266.061 101.858 266.17 101.138 266.17ZM106.724 266V257.273H109.07V258.795H109.161C109.32 258.254 109.587 257.845 109.962 257.568C110.337 257.288 110.769 257.148 111.258 257.148C111.379 257.148 111.51 257.155 111.65 257.17C111.79 257.186 111.913 257.206 112.019 257.233V259.381C111.906 259.347 111.748 259.316 111.548 259.29C111.347 259.263 111.163 259.25 110.996 259.25C110.64 259.25 110.322 259.328 110.042 259.483C109.765 259.634 109.546 259.847 109.383 260.119C109.224 260.392 109.144 260.706 109.144 261.062V266H106.724ZM116.796 269.455C116.012 269.455 115.34 269.347 114.779 269.131C114.222 268.919 113.779 268.629 113.45 268.261C113.12 267.894 112.906 267.481 112.808 267.023L115.046 266.722C115.114 266.896 115.222 267.059 115.37 267.21C115.518 267.362 115.713 267.483 115.955 267.574C116.201 267.669 116.501 267.716 116.853 267.716C117.379 267.716 117.813 267.587 118.154 267.33C118.499 267.076 118.671 266.65 118.671 266.051V264.455H118.569C118.463 264.697 118.304 264.926 118.092 265.142C117.879 265.358 117.607 265.534 117.273 265.67C116.94 265.807 116.542 265.875 116.08 265.875C115.425 265.875 114.828 265.723 114.29 265.42C113.756 265.114 113.33 264.646 113.012 264.017C112.698 263.384 112.54 262.585 112.54 261.619C112.54 260.631 112.701 259.805 113.023 259.142C113.345 258.479 113.773 257.983 114.308 257.653C114.845 257.324 115.434 257.159 116.075 257.159C116.563 257.159 116.972 257.242 117.302 257.409C117.631 257.572 117.897 257.777 118.097 258.023C118.302 258.265 118.459 258.504 118.569 258.739H118.66V257.273H121.063V266.085C121.063 266.828 120.881 267.449 120.518 267.949C120.154 268.449 119.65 268.824 119.006 269.074C118.366 269.328 117.629 269.455 116.796 269.455ZM116.847 264.057C117.237 264.057 117.567 263.96 117.836 263.767C118.109 263.57 118.317 263.29 118.461 262.926C118.609 262.559 118.683 262.119 118.683 261.608C118.683 261.097 118.611 260.653 118.467 260.278C118.323 259.9 118.114 259.606 117.842 259.398C117.569 259.189 117.237 259.085 116.847 259.085C116.45 259.085 116.114 259.193 115.842 259.409C115.569 259.621 115.362 259.917 115.222 260.295C115.082 260.674 115.012 261.112 115.012 261.608C115.012 262.112 115.082 262.547 115.222 262.915C115.366 263.278 115.573 263.561 115.842 263.761C116.114 263.958 116.45 264.057 116.847 264.057ZM126.967 266.17C126.069 266.17 125.296 265.989 124.648 265.625C124.004 265.258 123.508 264.739 123.16 264.068C122.811 263.394 122.637 262.597 122.637 261.676C122.637 260.778 122.811 259.991 123.16 259.312C123.508 258.634 123.999 258.106 124.631 257.727C125.268 257.348 126.014 257.159 126.87 257.159C127.446 257.159 127.982 257.252 128.478 257.438C128.978 257.619 129.414 257.894 129.785 258.261C130.16 258.629 130.451 259.091 130.66 259.648C130.868 260.201 130.972 260.848 130.972 261.591V262.256H123.603V260.756H128.694C128.694 260.407 128.618 260.098 128.467 259.83C128.315 259.561 128.105 259.35 127.836 259.199C127.571 259.044 127.262 258.966 126.91 258.966C126.542 258.966 126.217 259.051 125.933 259.222C125.652 259.388 125.433 259.614 125.273 259.898C125.114 260.178 125.033 260.491 125.029 260.835V262.261C125.029 262.693 125.109 263.066 125.268 263.381C125.431 263.695 125.66 263.938 125.955 264.108C126.251 264.278 126.601 264.364 127.006 264.364C127.275 264.364 127.522 264.326 127.745 264.25C127.969 264.174 128.16 264.061 128.319 263.909C128.478 263.758 128.599 263.572 128.683 263.352L130.921 263.5C130.808 264.038 130.575 264.508 130.222 264.909C129.874 265.307 129.423 265.617 128.87 265.841C128.321 266.061 127.686 266.17 126.967 266.17ZM137.194 257.273V259.091H131.938V257.273H137.194ZM133.131 255.182H135.552V263.318C135.552 263.542 135.586 263.716 135.654 263.841C135.722 263.962 135.817 264.047 135.938 264.097C136.063 264.146 136.207 264.17 136.37 264.17C136.484 264.17 136.597 264.161 136.711 264.142C136.825 264.119 136.912 264.102 136.972 264.091L137.353 265.892C137.232 265.93 137.061 265.973 136.842 266.023C136.622 266.076 136.355 266.108 136.04 266.119C135.457 266.142 134.946 266.064 134.506 265.886C134.071 265.708 133.732 265.432 133.489 265.057C133.247 264.682 133.128 264.208 133.131 263.636V255.182ZM138.771 266V257.273H141.191V266H138.771ZM139.987 256.148C139.627 256.148 139.318 256.028 139.06 255.79C138.807 255.547 138.68 255.258 138.68 254.92C138.68 254.587 138.807 254.301 139.06 254.062C139.318 253.82 139.627 253.699 139.987 253.699C140.346 253.699 140.653 253.82 140.907 254.062C141.165 254.301 141.293 254.587 141.293 254.92C141.293 255.258 141.165 255.547 140.907 255.79C140.653 256.028 140.346 256.148 139.987 256.148ZM147.073 266.17C146.179 266.17 145.41 265.981 144.766 265.602C144.126 265.22 143.634 264.689 143.289 264.011C142.948 263.333 142.778 262.553 142.778 261.67C142.778 260.777 142.95 259.992 143.295 259.318C143.643 258.64 144.138 258.112 144.778 257.733C145.418 257.35 146.179 257.159 147.062 257.159C147.823 257.159 148.49 257.297 149.062 257.574C149.634 257.85 150.086 258.239 150.42 258.739C150.753 259.239 150.937 259.826 150.971 260.5H148.687C148.622 260.064 148.452 259.714 148.175 259.449C147.903 259.18 147.545 259.045 147.102 259.045C146.727 259.045 146.399 259.148 146.119 259.352C145.842 259.553 145.626 259.847 145.471 260.233C145.316 260.619 145.238 261.087 145.238 261.636C145.238 262.193 145.314 262.667 145.465 263.057C145.621 263.447 145.838 263.744 146.119 263.949C146.399 264.153 146.727 264.256 147.102 264.256C147.378 264.256 147.626 264.199 147.846 264.085C148.069 263.972 148.253 263.807 148.397 263.591C148.545 263.371 148.641 263.108 148.687 262.801H150.971C150.933 263.468 150.751 264.055 150.425 264.562C150.103 265.066 149.658 265.46 149.09 265.744C148.522 266.028 147.85 266.17 147.073 266.17Z" fill="#6B7280"/>
</g>
<rect x="41.5" y="232.5" width="145" height="55" rx="17.5" stroke="#D1D5DB" stroke-width="5"/>
<g clip-path="url(#clip5_540_6260)">
<rect x="204" y="230" width="150" height="60" rx="20" fill="#F9FAFB"/>
<path d="M263.144 266V254.364H270.849V256.392H265.604V259.165H270.337V261.193H265.604V266H263.144ZM274.837 266.165C274.281 266.165 273.784 266.068 273.349 265.875C272.913 265.678 272.568 265.388 272.315 265.006C272.065 264.619 271.94 264.138 271.94 263.562C271.94 263.078 272.029 262.67 272.207 262.341C272.385 262.011 272.627 261.746 272.934 261.545C273.241 261.345 273.589 261.193 273.979 261.091C274.373 260.989 274.786 260.917 275.218 260.875C275.726 260.822 276.135 260.773 276.445 260.727C276.756 260.678 276.981 260.606 277.121 260.511C277.262 260.417 277.332 260.277 277.332 260.091V260.057C277.332 259.697 277.218 259.419 276.991 259.222C276.767 259.025 276.449 258.926 276.036 258.926C275.601 258.926 275.254 259.023 274.996 259.216C274.739 259.405 274.568 259.644 274.485 259.932L272.246 259.75C272.36 259.22 272.584 258.761 272.917 258.375C273.25 257.985 273.68 257.686 274.207 257.477C274.737 257.265 275.351 257.159 276.048 257.159C276.532 257.159 276.996 257.216 277.44 257.33C277.887 257.443 278.282 257.619 278.627 257.858C278.976 258.097 279.25 258.403 279.451 258.778C279.652 259.15 279.752 259.595 279.752 260.114V266H277.457V264.79H277.388C277.248 265.062 277.061 265.303 276.826 265.511C276.591 265.716 276.309 265.877 275.979 265.994C275.65 266.108 275.269 266.165 274.837 266.165ZM275.531 264.494C275.887 264.494 276.201 264.424 276.474 264.284C276.746 264.14 276.96 263.947 277.116 263.705C277.271 263.462 277.349 263.187 277.349 262.881V261.955C277.273 262.004 277.169 262.049 277.036 262.091C276.907 262.129 276.762 262.165 276.599 262.199C276.436 262.229 276.273 262.258 276.11 262.284C275.947 262.307 275.799 262.328 275.667 262.347C275.383 262.388 275.135 262.455 274.923 262.545C274.71 262.636 274.546 262.759 274.428 262.915C274.311 263.066 274.252 263.256 274.252 263.483C274.252 263.812 274.371 264.064 274.61 264.239C274.853 264.409 275.159 264.494 275.531 264.494ZM288.891 259.761L286.675 259.898C286.638 259.708 286.556 259.538 286.431 259.386C286.306 259.231 286.141 259.108 285.937 259.017C285.736 258.922 285.496 258.875 285.215 258.875C284.84 258.875 284.524 258.955 284.266 259.114C284.009 259.269 283.88 259.477 283.88 259.739C283.88 259.947 283.963 260.123 284.13 260.267C284.297 260.411 284.583 260.527 284.988 260.614L286.567 260.932C287.416 261.106 288.049 261.386 288.465 261.773C288.882 262.159 289.09 262.667 289.09 263.295C289.09 263.867 288.922 264.369 288.585 264.801C288.251 265.233 287.793 265.57 287.21 265.812C286.63 266.051 285.961 266.17 285.204 266.17C284.049 266.17 283.128 265.93 282.442 265.449C281.761 264.964 281.361 264.305 281.244 263.472L283.624 263.347C283.696 263.699 283.871 263.968 284.147 264.153C284.424 264.335 284.778 264.426 285.21 264.426C285.634 264.426 285.975 264.345 286.232 264.182C286.494 264.015 286.626 263.801 286.63 263.54C286.626 263.32 286.533 263.14 286.352 263C286.17 262.856 285.889 262.746 285.511 262.67L283.999 262.369C283.147 262.199 282.513 261.903 282.096 261.483C281.683 261.062 281.477 260.527 281.477 259.875C281.477 259.314 281.628 258.831 281.931 258.426C282.238 258.021 282.668 257.708 283.221 257.489C283.778 257.269 284.429 257.159 285.175 257.159C286.278 257.159 287.145 257.392 287.778 257.858C288.414 258.324 288.785 258.958 288.891 259.761ZM295.256 257.273V259.091H290.001V257.273H295.256ZM291.194 255.182H293.614V263.318C293.614 263.542 293.648 263.716 293.717 263.841C293.785 263.962 293.879 264.047 294.001 264.097C294.126 264.146 294.27 264.17 294.433 264.17C294.546 264.17 294.66 264.161 294.773 264.142C294.887 264.119 294.974 264.102 295.035 264.091L295.415 265.892C295.294 265.93 295.124 265.973 294.904 266.023C294.684 266.076 294.417 266.108 294.103 266.119C293.52 266.142 293.008 266.064 292.569 265.886C292.133 265.708 291.794 265.432 291.552 265.057C291.309 264.682 291.19 264.208 291.194 263.636V255.182Z" fill="#6B7280"/>
</g>
<rect x="206.5" y="232.5" width="145" height="55" rx="17.5" stroke="#D1D5DB" stroke-width="5"/>
<g clip-path="url(#clip6_540_6260)">
<rect x="39" y="305" width="150" height="60" rx="20" fill="#F9FAFB"/>
<path d="M93.402 341V329.364H97.9929C98.8755 329.364 99.6274 329.532 100.249 329.869C100.87 330.203 101.343 330.667 101.669 331.261C101.999 331.852 102.163 332.534 102.163 333.307C102.163 334.08 101.997 334.761 101.663 335.352C101.33 335.943 100.847 336.403 100.214 336.733C99.5857 337.062 98.8243 337.227 97.9304 337.227H95.0043V335.256H97.5327C98.0062 335.256 98.3963 335.174 98.7031 335.011C99.0137 334.845 99.2448 334.616 99.3963 334.324C99.5516 334.028 99.6293 333.689 99.6293 333.307C99.6293 332.92 99.5516 332.583 99.3963 332.295C99.2448 332.004 99.0137 331.778 98.7031 331.619C98.3925 331.456 97.9986 331.375 97.5213 331.375H95.8622V341H93.402ZM109.312 337.284V332.273H111.733V341H109.409V339.415H109.318C109.121 339.926 108.794 340.337 108.335 340.648C107.881 340.958 107.326 341.114 106.67 341.114C106.087 341.114 105.574 340.981 105.131 340.716C104.688 340.451 104.341 340.074 104.091 339.585C103.845 339.097 103.72 338.511 103.716 337.83V332.273H106.136V337.398C106.14 337.913 106.278 338.32 106.551 338.619C106.824 338.919 107.189 339.068 107.648 339.068C107.939 339.068 108.212 339.002 108.466 338.869C108.72 338.733 108.924 338.532 109.08 338.267C109.239 338.002 109.316 337.674 109.312 337.284ZM116.089 329.364V341H113.669V329.364H116.089ZM125.29 334.761L123.074 334.898C123.036 334.708 122.955 334.538 122.83 334.386C122.705 334.231 122.54 334.108 122.335 334.017C122.134 333.922 121.894 333.875 121.614 333.875C121.239 333.875 120.922 333.955 120.665 334.114C120.407 334.269 120.278 334.477 120.278 334.739C120.278 334.947 120.362 335.123 120.528 335.267C120.695 335.411 120.981 335.527 121.386 335.614L122.966 335.932C123.814 336.106 124.447 336.386 124.864 336.773C125.28 337.159 125.489 337.667 125.489 338.295C125.489 338.867 125.32 339.369 124.983 339.801C124.65 340.233 124.191 340.57 123.608 340.812C123.028 341.051 122.36 341.17 121.602 341.17C120.447 341.17 119.527 340.93 118.841 340.449C118.159 339.964 117.759 339.305 117.642 338.472L120.023 338.347C120.095 338.699 120.269 338.968 120.545 339.153C120.822 339.335 121.176 339.426 121.608 339.426C122.032 339.426 122.373 339.345 122.631 339.182C122.892 339.015 123.025 338.801 123.028 338.54C123.025 338.32 122.932 338.14 122.75 338C122.568 337.856 122.288 337.746 121.909 337.67L120.398 337.369C119.545 337.199 118.911 336.903 118.494 336.483C118.081 336.062 117.875 335.527 117.875 334.875C117.875 334.314 118.027 333.831 118.33 333.426C118.636 333.021 119.066 332.708 119.619 332.489C120.176 332.269 120.828 332.159 121.574 332.159C122.676 332.159 123.544 332.392 124.176 332.858C124.813 333.324 125.184 333.958 125.29 334.761ZM130.99 341.17C130.092 341.17 129.32 340.989 128.672 340.625C128.028 340.258 127.532 339.739 127.183 339.068C126.835 338.394 126.661 337.597 126.661 336.676C126.661 335.778 126.835 334.991 127.183 334.312C127.532 333.634 128.022 333.106 128.655 332.727C129.291 332.348 130.037 332.159 130.893 332.159C131.469 332.159 132.005 332.252 132.501 332.438C133.001 332.619 133.437 332.894 133.808 333.261C134.183 333.629 134.475 334.091 134.683 334.648C134.892 335.201 134.996 335.848 134.996 336.591V337.256H127.626V335.756H132.717C132.717 335.407 132.642 335.098 132.49 334.83C132.339 334.561 132.128 334.35 131.859 334.199C131.594 334.044 131.286 333.966 130.933 333.966C130.566 333.966 130.24 334.051 129.956 334.222C129.676 334.388 129.456 334.614 129.297 334.898C129.138 335.178 129.056 335.491 129.053 335.835V337.261C129.053 337.693 129.132 338.066 129.291 338.381C129.454 338.695 129.683 338.938 129.979 339.108C130.274 339.278 130.625 339.364 131.03 339.364C131.299 339.364 131.545 339.326 131.768 339.25C131.992 339.174 132.183 339.061 132.342 338.909C132.501 338.758 132.623 338.572 132.706 338.352L134.945 338.5C134.831 339.038 134.598 339.508 134.246 339.909C133.897 340.307 133.446 340.617 132.893 340.841C132.344 341.061 131.71 341.17 130.99 341.17Z" fill="#6B7280"/>
</g>
<rect x="41.5" y="307.5" width="145" height="55" rx="17.5" stroke="#D1D5DB" stroke-width="5"/>
<g clip-path="url(#clip7_540_6260)">
<rect x="204" y="305" width="150" height="60" rx="20" fill="#F9FAFB"/>
<path d="M259.027 341V329.364H266.732V331.392H261.487V334.165H266.22V336.193H261.487V341H259.027ZM270.761 329.364V341H268.341V329.364H270.761ZM275.189 341.165C274.632 341.165 274.136 341.068 273.7 340.875C273.265 340.678 272.92 340.388 272.666 340.006C272.416 339.619 272.291 339.138 272.291 338.562C272.291 338.078 272.38 337.67 272.558 337.341C272.736 337.011 272.979 336.746 273.286 336.545C273.592 336.345 273.941 336.193 274.331 336.091C274.725 335.989 275.138 335.917 275.57 335.875C276.077 335.822 276.486 335.773 276.797 335.727C277.107 335.678 277.333 335.606 277.473 335.511C277.613 335.417 277.683 335.277 277.683 335.091V335.057C277.683 334.697 277.57 334.419 277.342 334.222C277.119 334.025 276.801 333.926 276.388 333.926C275.952 333.926 275.606 334.023 275.348 334.216C275.09 334.405 274.92 334.644 274.837 334.932L272.598 334.75C272.712 334.22 272.935 333.761 273.268 333.375C273.602 332.985 274.032 332.686 274.558 332.477C275.089 332.265 275.702 332.159 276.399 332.159C276.884 332.159 277.348 332.216 277.791 332.33C278.238 332.443 278.634 332.619 278.979 332.858C279.327 333.097 279.602 333.403 279.803 333.778C280.003 334.15 280.104 334.595 280.104 335.114V341H277.808V339.79H277.74C277.6 340.062 277.412 340.303 277.178 340.511C276.943 340.716 276.661 340.877 276.331 340.994C276.001 341.108 275.621 341.165 275.189 341.165ZM275.882 339.494C276.238 339.494 276.553 339.424 276.825 339.284C277.098 339.14 277.312 338.947 277.467 338.705C277.623 338.462 277.7 338.187 277.7 337.881V336.955C277.625 337.004 277.52 337.049 277.388 337.091C277.259 337.129 277.113 337.165 276.95 337.199C276.787 337.229 276.625 337.258 276.462 337.284C276.299 337.307 276.151 337.328 276.018 337.347C275.734 337.388 275.486 337.455 275.274 337.545C275.062 337.636 274.897 337.759 274.78 337.915C274.662 338.066 274.604 338.256 274.604 338.483C274.604 338.812 274.723 339.064 274.962 339.239C275.204 339.409 275.511 339.494 275.882 339.494ZM289.243 334.761L287.027 334.898C286.989 334.708 286.908 334.538 286.783 334.386C286.658 334.231 286.493 334.108 286.288 334.017C286.088 333.922 285.847 333.875 285.567 333.875C285.192 333.875 284.875 333.955 284.618 334.114C284.36 334.269 284.232 334.477 284.232 334.739C284.232 334.947 284.315 335.123 284.482 335.267C284.648 335.411 284.934 335.527 285.339 335.614L286.919 335.932C287.768 336.106 288.4 336.386 288.817 336.773C289.233 337.159 289.442 337.667 289.442 338.295C289.442 338.867 289.273 339.369 288.936 339.801C288.603 340.233 288.144 340.57 287.561 340.812C286.982 341.051 286.313 341.17 285.555 341.17C284.4 341.17 283.48 340.93 282.794 340.449C282.112 339.964 281.713 339.305 281.595 338.472L283.976 338.347C284.048 338.699 284.222 338.968 284.499 339.153C284.775 339.335 285.129 339.426 285.561 339.426C285.985 339.426 286.326 339.345 286.584 339.182C286.845 339.015 286.978 338.801 286.982 338.54C286.978 338.32 286.885 338.14 286.703 338C286.521 337.856 286.241 337.746 285.862 337.67L284.351 337.369C283.499 337.199 282.864 336.903 282.447 336.483C282.035 336.062 281.828 335.527 281.828 334.875C281.828 334.314 281.98 333.831 282.283 333.426C282.589 333.021 283.019 332.708 283.572 332.489C284.129 332.269 284.781 332.159 285.527 332.159C286.629 332.159 287.497 332.392 288.129 332.858C288.766 333.324 289.137 333.958 289.243 334.761ZM293.386 335.955V341H290.966V329.364H293.318V333.812H293.42C293.617 333.297 293.936 332.894 294.375 332.602C294.814 332.307 295.366 332.159 296.028 332.159C296.634 332.159 297.163 332.292 297.614 332.557C298.068 332.818 298.42 333.195 298.67 333.688C298.924 334.176 299.049 334.761 299.045 335.443V341H296.625V335.875C296.629 335.337 296.492 334.919 296.216 334.619C295.943 334.32 295.561 334.17 295.068 334.17C294.739 334.17 294.447 334.241 294.193 334.381C293.943 334.521 293.746 334.725 293.602 334.994C293.462 335.259 293.39 335.58 293.386 335.955Z" fill="#6B7280"/>
</g>
<rect x="206.5" y="307.5" width="145" height="55" rx="17.5" stroke="#D1D5DB" stroke-width="5"/>
<g clip-path="url(#clip8_540_6260)">
<rect x="39" y="380" width="150" height="60" rx="20" fill="#F9FAFB"/>
<path d="M96.0973 416V404.364H100.756C101.612 404.364 102.326 404.491 102.898 404.744C103.47 404.998 103.9 405.35 104.188 405.801C104.476 406.248 104.62 406.763 104.62 407.347C104.62 407.801 104.529 408.201 104.347 408.545C104.165 408.886 103.915 409.167 103.597 409.386C103.283 409.602 102.923 409.756 102.518 409.847V409.96C102.961 409.979 103.376 410.104 103.762 410.335C104.152 410.566 104.469 410.89 104.711 411.307C104.953 411.72 105.075 412.212 105.075 412.784C105.075 413.402 104.921 413.953 104.614 414.438C104.311 414.919 103.862 415.299 103.268 415.58C102.673 415.86 101.94 416 101.069 416H96.0973ZM98.5575 413.989H100.563C101.249 413.989 101.749 413.858 102.063 413.597C102.378 413.331 102.535 412.979 102.535 412.54C102.535 412.218 102.457 411.934 102.302 411.688C102.147 411.441 101.925 411.248 101.637 411.108C101.353 410.968 101.014 410.898 100.62 410.898H98.5575V413.989ZM98.5575 409.233H100.381C100.719 409.233 101.018 409.174 101.279 409.057C101.544 408.936 101.753 408.765 101.904 408.545C102.059 408.326 102.137 408.062 102.137 407.756C102.137 407.335 101.987 406.996 101.688 406.739C101.393 406.481 100.972 406.352 100.427 406.352H98.5575V409.233ZM109.119 416.165C108.562 416.165 108.066 416.068 107.63 415.875C107.194 415.678 106.85 415.388 106.596 415.006C106.346 414.619 106.221 414.138 106.221 413.562C106.221 413.078 106.31 412.67 106.488 412.341C106.666 412.011 106.908 411.746 107.215 411.545C107.522 411.345 107.871 411.193 108.261 411.091C108.655 410.989 109.067 410.917 109.499 410.875C110.007 410.822 110.416 410.773 110.727 410.727C111.037 410.678 111.263 410.606 111.403 410.511C111.543 410.417 111.613 410.277 111.613 410.091V410.057C111.613 409.697 111.499 409.419 111.272 409.222C111.049 409.025 110.73 408.926 110.317 408.926C109.882 408.926 109.535 409.023 109.278 409.216C109.02 409.405 108.85 409.644 108.766 409.932L106.528 409.75C106.641 409.22 106.865 408.761 107.198 408.375C107.531 407.985 107.961 407.686 108.488 407.477C109.018 407.265 109.632 407.159 110.329 407.159C110.814 407.159 111.278 407.216 111.721 407.33C112.168 407.443 112.564 407.619 112.908 407.858C113.257 408.097 113.531 408.403 113.732 408.778C113.933 409.15 114.033 409.595 114.033 410.114V416H111.738V414.79H111.67C111.53 415.062 111.342 415.303 111.107 415.511C110.872 415.716 110.59 415.877 110.261 415.994C109.931 416.108 109.55 416.165 109.119 416.165ZM109.812 414.494C110.168 414.494 110.482 414.424 110.755 414.284C111.028 414.14 111.242 413.947 111.397 413.705C111.552 413.462 111.63 413.187 111.63 412.881V411.955C111.554 412.004 111.45 412.049 111.317 412.091C111.189 412.129 111.043 412.165 110.88 412.199C110.717 412.229 110.554 412.258 110.391 412.284C110.228 412.307 110.081 412.328 109.948 412.347C109.664 412.388 109.416 412.455 109.204 412.545C108.992 412.636 108.827 412.759 108.71 412.915C108.592 413.066 108.533 413.256 108.533 413.483C108.533 413.812 108.653 414.064 108.891 414.239C109.134 414.409 109.441 414.494 109.812 414.494ZM123.173 409.761L120.957 409.898C120.919 409.708 120.837 409.538 120.712 409.386C120.587 409.231 120.423 409.108 120.218 409.017C120.017 408.922 119.777 408.875 119.496 408.875C119.121 408.875 118.805 408.955 118.548 409.114C118.29 409.269 118.161 409.477 118.161 409.739C118.161 409.947 118.245 410.123 118.411 410.267C118.578 410.411 118.864 410.527 119.269 410.614L120.849 410.932C121.697 411.106 122.33 411.386 122.746 411.773C123.163 412.159 123.371 412.667 123.371 413.295C123.371 413.867 123.203 414.369 122.866 414.801C122.532 415.233 122.074 415.57 121.491 415.812C120.911 416.051 120.243 416.17 119.485 416.17C118.33 416.17 117.409 415.93 116.724 415.449C116.042 414.964 115.642 414.305 115.525 413.472L117.906 413.347C117.978 413.699 118.152 413.968 118.428 414.153C118.705 414.335 119.059 414.426 119.491 414.426C119.915 414.426 120.256 414.345 120.513 414.182C120.775 414.015 120.907 413.801 120.911 413.54C120.907 413.32 120.815 413.14 120.633 413C120.451 412.856 120.171 412.746 119.792 412.67L118.281 412.369C117.428 412.199 116.794 411.903 116.377 411.483C115.964 411.062 115.758 410.527 115.758 409.875C115.758 409.314 115.909 408.831 116.212 408.426C116.519 408.021 116.949 407.708 117.502 407.489C118.059 407.269 118.71 407.159 119.457 407.159C120.559 407.159 121.426 407.392 122.059 407.858C122.695 408.324 123.067 408.958 123.173 409.761ZM132.157 409.761L129.941 409.898C129.903 409.708 129.822 409.538 129.697 409.386C129.572 409.231 129.407 409.108 129.202 409.017C129.002 408.922 128.761 408.875 128.481 408.875C128.106 408.875 127.79 408.955 127.532 409.114C127.274 409.269 127.146 409.477 127.146 409.739C127.146 409.947 127.229 410.123 127.396 410.267C127.562 410.411 127.848 410.527 128.254 410.614L129.833 410.932C130.682 411.106 131.314 411.386 131.731 411.773C132.147 412.159 132.356 412.667 132.356 413.295C132.356 413.867 132.187 414.369 131.85 414.801C131.517 415.233 131.058 415.57 130.475 415.812C129.896 416.051 129.227 416.17 128.469 416.17C127.314 416.17 126.394 415.93 125.708 415.449C125.026 414.964 124.627 414.305 124.509 413.472L126.89 413.347C126.962 413.699 127.136 413.968 127.413 414.153C127.689 414.335 128.043 414.426 128.475 414.426C128.899 414.426 129.24 414.345 129.498 414.182C129.759 414.015 129.892 413.801 129.896 413.54C129.892 413.32 129.799 413.14 129.617 413C129.435 412.856 129.155 412.746 128.776 412.67L127.265 412.369C126.413 412.199 125.778 411.903 125.362 411.483C124.949 411.062 124.742 410.527 124.742 409.875C124.742 409.314 124.894 408.831 125.197 408.426C125.504 408.021 125.933 407.708 126.487 407.489C127.043 407.269 127.695 407.159 128.441 407.159C129.543 407.159 130.411 407.392 131.043 407.858C131.68 408.324 132.051 408.958 132.157 409.761Z" fill="#6B7280"/>
</g>
<rect x="41.5" y="382.5" width="145" height="55" rx="17.5" stroke="#D1D5DB" stroke-width="5"/>
<g clip-path="url(#clip9_540_6260)">
<rect x="204" y="380" width="150" height="60" rx="20" fill="#F9FAFB"/>
<path d="M260.879 416V404.364H268.583V406.392H263.339V409.165H268.072V411.193H263.339V416H260.879ZM272.572 416.165C272.015 416.165 271.519 416.068 271.083 415.875C270.647 415.678 270.303 415.388 270.049 415.006C269.799 414.619 269.674 414.138 269.674 413.562C269.674 413.078 269.763 412.67 269.941 412.341C270.119 412.011 270.362 411.746 270.668 411.545C270.975 411.345 271.324 411.193 271.714 411.091C272.108 410.989 272.521 410.917 272.952 410.875C273.46 410.822 273.869 410.773 274.18 410.727C274.49 410.678 274.716 410.606 274.856 410.511C274.996 410.417 275.066 410.277 275.066 410.091V410.057C275.066 409.697 274.952 409.419 274.725 409.222C274.502 409.025 274.183 408.926 273.771 408.926C273.335 408.926 272.988 409.023 272.731 409.216C272.473 409.405 272.303 409.644 272.219 409.932L269.981 409.75C270.094 409.22 270.318 408.761 270.651 408.375C270.985 407.985 271.415 407.686 271.941 407.477C272.471 407.265 273.085 407.159 273.782 407.159C274.267 407.159 274.731 407.216 275.174 407.33C275.621 407.443 276.017 407.619 276.362 407.858C276.71 408.097 276.985 408.403 277.185 408.778C277.386 409.15 277.487 409.595 277.487 410.114V416H275.191V414.79H275.123C274.983 415.062 274.795 415.303 274.56 415.511C274.326 415.716 274.043 415.877 273.714 415.994C273.384 416.108 273.004 416.165 272.572 416.165ZM273.265 414.494C273.621 414.494 273.935 414.424 274.208 414.284C274.481 414.14 274.695 413.947 274.85 413.705C275.005 413.462 275.083 413.187 275.083 412.881V411.955C275.007 412.004 274.903 412.049 274.771 412.091C274.642 412.129 274.496 412.165 274.333 412.199C274.17 412.229 274.007 412.258 273.844 412.284C273.682 412.307 273.534 412.328 273.401 412.347C273.117 412.388 272.869 412.455 272.657 412.545C272.445 412.636 272.28 412.759 272.163 412.915C272.045 413.066 271.987 413.256 271.987 413.483C271.987 413.812 272.106 414.064 272.344 414.239C272.587 414.409 272.894 414.494 273.265 414.494ZM282.58 416.142C281.917 416.142 281.317 415.972 280.779 415.631C280.245 415.286 279.821 414.78 279.506 414.114C279.196 413.443 279.04 412.621 279.04 411.648C279.04 410.648 279.201 409.816 279.523 409.153C279.845 408.487 280.273 407.989 280.808 407.659C281.345 407.326 281.934 407.159 282.575 407.159C283.063 407.159 283.47 407.242 283.796 407.409C284.126 407.572 284.391 407.777 284.592 408.023C284.796 408.265 284.951 408.504 285.058 408.739H285.131V404.364H287.546V416H285.16V414.602H285.058C284.944 414.845 284.783 415.085 284.575 415.324C284.37 415.559 284.103 415.754 283.773 415.909C283.448 416.064 283.05 416.142 282.58 416.142ZM283.347 414.216C283.737 414.216 284.067 414.11 284.336 413.898C284.609 413.682 284.817 413.381 284.961 412.994C285.109 412.608 285.183 412.155 285.183 411.636C285.183 411.117 285.111 410.667 284.967 410.284C284.823 409.902 284.614 409.606 284.342 409.398C284.069 409.189 283.737 409.085 283.347 409.085C282.95 409.085 282.614 409.193 282.342 409.409C282.069 409.625 281.862 409.924 281.722 410.307C281.582 410.689 281.512 411.133 281.512 411.636C281.512 412.144 281.582 412.593 281.722 412.983C281.866 413.369 282.073 413.672 282.342 413.892C282.614 414.108 282.95 414.216 283.347 414.216ZM293.513 416.17C292.616 416.17 291.843 415.989 291.195 415.625C290.551 415.258 290.055 414.739 289.707 414.068C289.358 413.394 289.184 412.597 289.184 411.676C289.184 410.778 289.358 409.991 289.707 409.312C290.055 408.634 290.546 408.106 291.178 407.727C291.815 407.348 292.561 407.159 293.417 407.159C293.993 407.159 294.529 407.252 295.025 407.438C295.525 407.619 295.96 407.894 296.332 408.261C296.707 408.629 296.998 409.091 297.207 409.648C297.415 410.201 297.519 410.848 297.519 411.591V412.256H290.15V410.756H295.241C295.241 410.407 295.165 410.098 295.013 409.83C294.862 409.561 294.652 409.35 294.383 409.199C294.118 409.044 293.809 408.966 293.457 408.966C293.089 408.966 292.763 409.051 292.479 409.222C292.199 409.388 291.979 409.614 291.82 409.898C291.661 410.178 291.58 410.491 291.576 410.835V412.261C291.576 412.693 291.656 413.066 291.815 413.381C291.978 413.695 292.207 413.938 292.502 414.108C292.798 414.278 293.148 414.364 293.553 414.364C293.822 414.364 294.068 414.326 294.292 414.25C294.515 414.174 294.707 414.061 294.866 413.909C295.025 413.758 295.146 413.572 295.229 413.352L297.468 413.5C297.354 414.038 297.121 414.508 296.769 414.909C296.421 415.307 295.97 415.617 295.417 415.841C294.868 416.061 294.233 416.17 293.513 416.17Z" fill="#6B7280"/>
</g>
<rect x="206.5" y="382.5" width="145" height="55" rx="17.5" stroke="#D1D5DB" stroke-width="5"/>
<g clip-path="url(#clip10_540_6260)">
<rect x="39" y="455" width="150" height="60" rx="20" fill="#F9FAFB"/>
<path d="M105.146 483.438H102.657C102.612 483.116 102.519 482.83 102.379 482.58C102.238 482.326 102.058 482.11 101.839 481.932C101.619 481.754 101.365 481.617 101.077 481.523C100.793 481.428 100.485 481.381 100.151 481.381C99.549 481.381 99.0244 481.53 98.5774 481.83C98.1304 482.125 97.7839 482.557 97.5376 483.125C97.2914 483.689 97.1683 484.375 97.1683 485.182C97.1683 486.011 97.2914 486.708 97.5376 487.273C97.7876 487.837 98.1361 488.263 98.5831 488.551C99.0301 488.839 99.5471 488.983 100.134 488.983C100.464 488.983 100.769 488.939 101.049 488.852C101.333 488.765 101.585 488.638 101.805 488.472C102.024 488.301 102.206 488.095 102.35 487.852C102.498 487.61 102.6 487.333 102.657 487.023L105.146 487.034C105.081 487.568 104.92 488.083 104.663 488.58C104.409 489.072 104.066 489.513 103.634 489.903C103.206 490.29 102.695 490.597 102.1 490.824C101.509 491.047 100.841 491.159 100.094 491.159C99.0566 491.159 98.1286 490.924 97.3104 490.455C96.496 489.985 95.852 489.305 95.3786 488.415C94.9089 487.525 94.674 486.447 94.674 485.182C94.674 483.913 94.9126 482.833 95.3899 481.943C95.8672 481.053 96.5149 480.375 97.3331 479.909C98.1513 479.439 99.0717 479.205 100.094 479.205C100.769 479.205 101.394 479.299 101.969 479.489C102.549 479.678 103.062 479.955 103.509 480.318C103.956 480.678 104.32 481.119 104.6 481.642C104.884 482.165 105.066 482.763 105.146 483.438ZM109.353 491.165C108.796 491.165 108.3 491.068 107.864 490.875C107.429 490.678 107.084 490.388 106.83 490.006C106.58 489.619 106.455 489.138 106.455 488.562C106.455 488.078 106.544 487.67 106.722 487.341C106.9 487.011 107.143 486.746 107.45 486.545C107.756 486.345 108.105 486.193 108.495 486.091C108.889 485.989 109.302 485.917 109.734 485.875C110.241 485.822 110.65 485.773 110.961 485.727C111.272 485.678 111.497 485.606 111.637 485.511C111.777 485.417 111.847 485.277 111.847 485.091V485.057C111.847 484.697 111.734 484.419 111.506 484.222C111.283 484.025 110.965 483.926 110.552 483.926C110.116 483.926 109.77 484.023 109.512 484.216C109.254 484.405 109.084 484.644 109.001 484.932L106.762 484.75C106.876 484.22 107.099 483.761 107.433 483.375C107.766 482.985 108.196 482.686 108.722 482.477C109.253 482.265 109.866 482.159 110.563 482.159C111.048 482.159 111.512 482.216 111.955 482.33C112.402 482.443 112.798 482.619 113.143 482.858C113.491 483.097 113.766 483.403 113.967 483.778C114.167 484.15 114.268 484.595 114.268 485.114V491H111.972V489.79H111.904C111.764 490.062 111.576 490.303 111.342 490.511C111.107 490.716 110.825 490.877 110.495 490.994C110.165 491.108 109.785 491.165 109.353 491.165ZM110.046 489.494C110.402 489.494 110.717 489.424 110.989 489.284C111.262 489.14 111.476 488.947 111.631 488.705C111.787 488.462 111.864 488.187 111.864 487.881V486.955C111.789 487.004 111.684 487.049 111.552 487.091C111.423 487.129 111.277 487.165 111.114 487.199C110.951 487.229 110.789 487.258 110.626 487.284C110.463 487.307 110.315 487.328 110.183 487.347C109.898 487.388 109.65 487.455 109.438 487.545C109.226 487.636 109.061 487.759 108.944 487.915C108.826 488.066 108.768 488.256 108.768 488.483C108.768 488.812 108.887 489.064 109.126 489.239C109.368 489.409 109.675 489.494 110.046 489.494ZM118.566 479.364V491H116.146V479.364H118.566ZM120.505 491V482.273H122.812V483.812H122.914C123.096 483.301 123.399 482.898 123.823 482.602C124.247 482.307 124.755 482.159 125.346 482.159C125.944 482.159 126.454 482.309 126.874 482.608C127.295 482.903 127.575 483.305 127.715 483.812H127.806C127.984 483.312 128.306 482.913 128.772 482.614C129.242 482.311 129.797 482.159 130.437 482.159C131.251 482.159 131.912 482.419 132.42 482.938C132.931 483.453 133.187 484.184 133.187 485.131V491H130.772V485.608C130.772 485.123 130.643 484.759 130.386 484.517C130.128 484.275 129.806 484.153 129.42 484.153C128.98 484.153 128.638 484.294 128.391 484.574C128.145 484.85 128.022 485.216 128.022 485.67V491H125.675V485.557C125.675 485.129 125.552 484.788 125.306 484.534C125.064 484.28 124.744 484.153 124.346 484.153C124.077 484.153 123.835 484.222 123.619 484.358C123.406 484.491 123.238 484.678 123.113 484.92C122.988 485.159 122.925 485.439 122.925 485.761V491H120.505Z" fill="#6B7280"/>
</g>
<rect x="41.5" y="457.5" width="145" height="55" rx="17.5" stroke="#D1D5DB" stroke-width="5"/>
<g clip-path="url(#clip11_540_6260)">
<rect x="204" y="455" width="150" height="60" rx="20" fill="#F9FAFB"/>
<path d="M259.571 483.125C259.491 482.848 259.38 482.604 259.236 482.392C259.092 482.176 258.916 481.994 258.707 481.847C258.503 481.695 258.268 481.58 258.003 481.5C257.741 481.42 257.452 481.381 257.134 481.381C256.539 481.381 256.016 481.528 255.565 481.824C255.118 482.119 254.77 482.549 254.52 483.114C254.27 483.674 254.145 484.36 254.145 485.17C254.145 485.981 254.268 486.67 254.514 487.239C254.76 487.807 255.109 488.241 255.56 488.54C256.01 488.835 256.543 488.983 257.156 488.983C257.713 488.983 258.188 488.884 258.582 488.688C258.98 488.487 259.283 488.205 259.491 487.841C259.704 487.477 259.81 487.047 259.81 486.551L260.31 486.625H257.31V484.773H262.179V486.239C262.179 487.261 261.963 488.14 261.531 488.875C261.099 489.606 260.505 490.17 259.747 490.568C258.99 490.962 258.122 491.159 257.145 491.159C256.054 491.159 255.096 490.919 254.27 490.438C253.444 489.953 252.8 489.265 252.338 488.375C251.88 487.481 251.651 486.42 251.651 485.193C251.651 484.25 251.787 483.409 252.06 482.67C252.336 481.928 252.723 481.299 253.219 480.784C253.715 480.269 254.293 479.877 254.952 479.608C255.611 479.339 256.325 479.205 257.094 479.205C257.753 479.205 258.366 479.301 258.935 479.494C259.503 479.684 260.007 479.953 260.446 480.301C260.889 480.65 261.251 481.064 261.531 481.545C261.812 482.023 261.991 482.549 262.071 483.125H259.571ZM263.982 491V482.273H266.328V483.795H266.419C266.578 483.254 266.845 482.845 267.22 482.568C267.595 482.288 268.027 482.148 268.516 482.148C268.637 482.148 268.768 482.155 268.908 482.17C269.048 482.186 269.171 482.206 269.277 482.233V484.381C269.163 484.347 269.006 484.316 268.805 484.29C268.605 484.263 268.421 484.25 268.254 484.25C267.898 484.25 267.58 484.328 267.3 484.483C267.023 484.634 266.804 484.847 266.641 485.119C266.482 485.392 266.402 485.706 266.402 486.062V491H263.982ZM274.065 491.17C273.183 491.17 272.42 490.983 271.776 490.608C271.135 490.229 270.641 489.703 270.293 489.028C269.944 488.35 269.77 487.564 269.77 486.67C269.77 485.769 269.944 484.981 270.293 484.307C270.641 483.629 271.135 483.102 271.776 482.727C272.42 482.348 273.183 482.159 274.065 482.159C274.948 482.159 275.709 482.348 276.349 482.727C276.993 483.102 277.49 483.629 277.838 484.307C278.187 484.981 278.361 485.769 278.361 486.67C278.361 487.564 278.187 488.35 277.838 489.028C277.49 489.703 276.993 490.229 276.349 490.608C275.709 490.983 274.948 491.17 274.065 491.17ZM274.077 489.295C274.478 489.295 274.813 489.182 275.082 488.955C275.351 488.723 275.554 488.409 275.69 488.011C275.83 487.614 275.901 487.161 275.901 486.653C275.901 486.146 275.83 485.693 275.69 485.295C275.554 484.898 275.351 484.583 275.082 484.352C274.813 484.121 274.478 484.006 274.077 484.006C273.671 484.006 273.33 484.121 273.054 484.352C272.781 484.583 272.575 484.898 272.435 485.295C272.298 485.693 272.23 486.146 272.23 486.653C272.23 487.161 272.298 487.614 272.435 488.011C272.575 488.409 272.781 488.723 273.054 488.955C273.33 489.182 273.671 489.295 274.077 489.295ZM283.878 491.17C282.995 491.17 282.232 490.983 281.588 490.608C280.948 490.229 280.454 489.703 280.105 489.028C279.757 488.35 279.582 487.564 279.582 486.67C279.582 485.769 279.757 484.981 280.105 484.307C280.454 483.629 280.948 483.102 281.588 482.727C282.232 482.348 282.995 482.159 283.878 482.159C284.76 482.159 285.522 482.348 286.162 482.727C286.806 483.102 287.302 483.629 287.651 484.307C287.999 484.981 288.173 485.769 288.173 486.67C288.173 487.564 287.999 488.35 287.651 489.028C287.302 489.703 286.806 490.229 286.162 490.608C285.522 490.983 284.76 491.17 283.878 491.17ZM283.889 489.295C284.291 489.295 284.626 489.182 284.895 488.955C285.164 488.723 285.366 488.409 285.503 488.011C285.643 487.614 285.713 487.161 285.713 486.653C285.713 486.146 285.643 485.693 285.503 485.295C285.366 484.898 285.164 484.583 284.895 484.352C284.626 484.121 284.291 484.006 283.889 484.006C283.484 484.006 283.143 484.121 282.866 484.352C282.594 484.583 282.387 484.898 282.247 485.295C282.111 485.693 282.043 486.146 282.043 486.653C282.043 487.161 282.111 487.614 282.247 488.011C282.387 488.409 282.594 488.723 282.866 488.955C283.143 489.182 283.484 489.295 283.889 489.295ZM297.602 482.273L294.551 491H291.824L288.773 482.273H291.33L293.142 488.517H293.233L295.04 482.273H297.602ZM302.537 491.17C301.639 491.17 300.866 490.989 300.219 490.625C299.575 490.258 299.079 489.739 298.73 489.068C298.382 488.394 298.207 487.597 298.207 486.676C298.207 485.778 298.382 484.991 298.73 484.312C299.079 483.634 299.569 483.106 300.202 482.727C300.838 482.348 301.584 482.159 302.44 482.159C303.016 482.159 303.552 482.252 304.048 482.438C304.548 482.619 304.984 482.894 305.355 483.261C305.73 483.629 306.022 484.091 306.23 484.648C306.438 485.201 306.543 485.848 306.543 486.591V487.256H299.173V485.756H304.264C304.264 485.407 304.188 485.098 304.037 484.83C303.885 484.561 303.675 484.35 303.406 484.199C303.141 484.044 302.832 483.966 302.48 483.966C302.113 483.966 301.787 484.051 301.503 484.222C301.223 484.388 301.003 484.614 300.844 484.898C300.685 485.178 300.603 485.491 300.599 485.835V487.261C300.599 487.693 300.679 488.066 300.838 488.381C301.001 488.695 301.23 488.938 301.526 489.108C301.821 489.278 302.171 489.364 302.577 489.364C302.846 489.364 303.092 489.326 303.315 489.25C303.539 489.174 303.73 489.061 303.889 488.909C304.048 488.758 304.17 488.572 304.253 488.352L306.491 488.5C306.378 489.038 306.145 489.508 305.793 489.909C305.444 490.307 304.993 490.617 304.44 490.841C303.891 491.061 303.257 491.17 302.537 491.17Z" fill="#6B7280"/>
</g>
<rect x="206.5" y="457.5" width="145" height="55" rx="17.5" stroke="#D1D5DB" stroke-width="5"/>
<g clip-path="url(#clip12_540_6260)">
<rect x="39" y="530" width="150" height="60" rx="20" fill="#F9FAFB"/>
<path d="M84.7457 566V554.364H89.3366C90.2154 554.364 90.9654 554.521 91.5866 554.835C92.2116 555.146 92.687 555.587 93.0128 556.159C93.3423 556.727 93.5071 557.396 93.5071 558.165C93.5071 558.937 93.3404 559.602 93.0071 560.159C92.6738 560.712 92.1908 561.136 91.5582 561.432C90.9295 561.727 90.1681 561.875 89.2741 561.875H86.2003V559.898H88.8764C89.3461 559.898 89.7363 559.833 90.0469 559.705C90.3575 559.576 90.5885 559.383 90.7401 559.125C90.8954 558.867 90.973 558.547 90.973 558.165C90.973 557.778 90.8954 557.453 90.7401 557.188C90.5885 556.922 90.3556 556.722 90.0412 556.585C89.7306 556.445 89.3385 556.375 88.8651 556.375H87.206V566H84.7457ZM91.0298 560.705L93.9219 566H91.206L88.3764 560.705H91.0298ZM97.6207 560.955V566H95.2003V554.364H97.5526V558.812H97.6548C97.8518 558.297 98.17 557.894 98.6094 557.602C99.0488 557.307 99.5999 557.159 100.263 557.159C100.869 557.159 101.397 557.292 101.848 557.557C102.303 557.818 102.655 558.195 102.905 558.688C103.159 559.176 103.284 559.761 103.28 560.443V566H100.859V560.875C100.863 560.337 100.727 559.919 100.45 559.619C100.178 559.32 99.795 559.17 99.3026 559.17C98.973 559.17 98.6813 559.241 98.4276 559.381C98.1776 559.521 97.9806 559.725 97.8366 559.994C97.6965 560.259 97.6245 560.58 97.6207 560.955ZM106.366 569.273C106.06 569.273 105.772 569.248 105.503 569.199C105.238 569.153 105.018 569.095 104.844 569.023L105.389 567.216C105.673 567.303 105.929 567.35 106.156 567.358C106.387 567.366 106.586 567.313 106.753 567.199C106.923 567.085 107.062 566.892 107.168 566.619L107.31 566.25L104.179 557.273H106.724L108.531 563.682H108.622L110.446 557.273H113.009L109.616 566.943C109.454 567.413 109.232 567.822 108.952 568.17C108.675 568.523 108.325 568.794 107.901 568.983C107.476 569.176 106.965 569.273 106.366 569.273ZM118.889 557.273V559.091H113.634V557.273H118.889ZM114.827 555.182H117.247V563.318C117.247 563.542 117.281 563.716 117.349 563.841C117.418 563.962 117.512 564.047 117.634 564.097C117.759 564.146 117.902 564.17 118.065 564.17C118.179 564.17 118.293 564.161 118.406 564.142C118.52 564.119 118.607 564.102 118.668 564.091L119.048 565.892C118.927 565.93 118.757 565.973 118.537 566.023C118.317 566.076 118.05 566.108 117.736 566.119C117.152 566.142 116.641 566.064 116.202 565.886C115.766 565.708 115.427 565.432 115.185 565.057C114.942 564.682 114.823 564.208 114.827 563.636V555.182ZM123.074 560.955V566H120.653V554.364H123.006V558.812H123.108C123.305 558.297 123.623 557.894 124.062 557.602C124.502 557.307 125.053 557.159 125.716 557.159C126.322 557.159 126.85 557.292 127.301 557.557C127.756 557.818 128.108 558.195 128.358 558.688C128.612 559.176 128.737 559.761 128.733 560.443V566H126.312V560.875C126.316 560.337 126.18 559.919 125.903 559.619C125.631 559.32 125.248 559.17 124.756 559.17C124.426 559.17 124.134 559.241 123.881 559.381C123.631 559.521 123.434 559.725 123.29 559.994C123.15 560.259 123.078 560.58 123.074 560.955ZM130.638 566V557.273H132.945V558.812H133.047C133.229 558.301 133.532 557.898 133.956 557.602C134.38 557.307 134.888 557.159 135.479 557.159C136.077 557.159 136.587 557.309 137.007 557.608C137.428 557.903 137.708 558.305 137.848 558.812H137.939C138.117 558.312 138.439 557.913 138.905 557.614C139.375 557.311 139.929 557.159 140.57 557.159C141.384 557.159 142.045 557.419 142.553 557.938C143.064 558.453 143.32 559.184 143.32 560.131V566H140.905V560.608C140.905 560.123 140.776 559.759 140.518 559.517C140.261 559.275 139.939 559.153 139.553 559.153C139.113 559.153 138.77 559.294 138.524 559.574C138.278 559.85 138.155 560.216 138.155 560.67V566H135.808V560.557C135.808 560.129 135.685 559.788 135.439 559.534C135.196 559.28 134.876 559.153 134.479 559.153C134.21 559.153 133.967 559.222 133.751 559.358C133.539 559.491 133.371 559.678 133.246 559.92C133.121 560.159 133.058 560.439 133.058 560.761V566H130.638Z" fill="#6B7280"/>
</g>
<rect x="41.5" y="532.5" width="145" height="55" rx="17.5" stroke="#D1D5DB" stroke-width="5"/>
<g clip-path="url(#clip13_540_6260)">
<rect x="204" y="530" width="150" height="60" rx="20" fill="#F9FAFB"/>
<path d="M264.082 554.364L266.895 563.205H267.003L269.821 554.364H272.548L268.537 566H265.366L261.349 554.364H264.082ZM273.903 566V557.273H276.324V566H273.903ZM275.119 556.148C274.759 556.148 274.451 556.028 274.193 555.79C273.939 555.547 273.812 555.258 273.812 554.92C273.812 554.587 273.939 554.301 274.193 554.062C274.451 553.82 274.759 553.699 275.119 553.699C275.479 553.699 275.786 553.82 276.04 554.062C276.297 554.301 276.426 554.587 276.426 554.92C276.426 555.258 276.297 555.547 276.04 555.79C275.786 556.028 275.479 556.148 275.119 556.148ZM278.308 566V554.364H280.729V558.739H280.803C280.909 558.504 281.062 558.265 281.263 558.023C281.467 557.777 281.732 557.572 282.058 557.409C282.388 557.242 282.797 557.159 283.286 557.159C283.922 557.159 284.509 557.326 285.047 557.659C285.585 557.989 286.015 558.487 286.337 559.153C286.659 559.816 286.82 560.648 286.82 561.648C286.82 562.621 286.662 563.443 286.348 564.114C286.037 564.78 285.613 565.286 285.075 565.631C284.541 565.972 283.943 566.142 283.28 566.142C282.81 566.142 282.411 566.064 282.081 565.909C281.755 565.754 281.488 565.559 281.28 565.324C281.071 565.085 280.912 564.845 280.803 564.602H280.695V566H278.308ZM280.678 561.636C280.678 562.155 280.75 562.608 280.893 562.994C281.037 563.381 281.246 563.682 281.518 563.898C281.791 564.11 282.123 564.216 282.513 564.216C282.907 564.216 283.24 564.108 283.513 563.892C283.786 563.672 283.992 563.369 284.132 562.983C284.276 562.593 284.348 562.144 284.348 561.636C284.348 561.133 284.278 560.689 284.138 560.307C283.998 559.924 283.791 559.625 283.518 559.409C283.246 559.193 282.911 559.085 282.513 559.085C282.119 559.085 281.786 559.189 281.513 559.398C281.244 559.606 281.037 559.902 280.893 560.284C280.75 560.667 280.678 561.117 280.678 561.636ZM292.412 566.17C291.514 566.17 290.741 565.989 290.094 565.625C289.45 565.258 288.954 564.739 288.605 564.068C288.257 563.394 288.082 562.597 288.082 561.676C288.082 560.778 288.257 559.991 288.605 559.312C288.954 558.634 289.444 558.106 290.077 557.727C290.713 557.348 291.459 557.159 292.315 557.159C292.891 557.159 293.427 557.252 293.923 557.438C294.423 557.619 294.859 557.894 295.23 558.261C295.605 558.629 295.897 559.091 296.105 559.648C296.313 560.201 296.418 560.848 296.418 561.591V562.256H289.048V560.756H294.139C294.139 560.407 294.063 560.098 293.912 559.83C293.76 559.561 293.55 559.35 293.281 559.199C293.016 559.044 292.707 558.966 292.355 558.966C291.988 558.966 291.662 559.051 291.378 559.222C291.098 559.388 290.878 559.614 290.719 559.898C290.56 560.178 290.478 560.491 290.474 560.835V562.261C290.474 562.693 290.554 563.066 290.713 563.381C290.876 563.695 291.105 563.938 291.401 564.108C291.696 564.278 292.046 564.364 292.452 564.364C292.721 564.364 292.967 564.326 293.19 564.25C293.414 564.174 293.605 564.061 293.764 563.909C293.923 563.758 294.045 563.572 294.128 563.352L296.366 563.5C296.253 564.038 296.02 564.508 295.668 564.909C295.319 565.307 294.868 565.617 294.315 565.841C293.766 566.061 293.132 566.17 292.412 566.17Z" fill="#6B7280"/>
</g>
<rect x="206.5" y="532.5" width="145" height="55" rx="17.5" stroke="#D1D5DB" stroke-width="5"/>
<g clip-path="url(#clip14_540_6260)">
<rect x="41.5" y="605" width="310" height="60" rx="20" fill="#F9FAFB"/>
<path d="M190.232 633.438H187.743C187.697 633.116 187.605 632.83 187.464 632.58C187.324 632.326 187.144 632.11 186.925 631.932C186.705 631.754 186.451 631.617 186.163 631.523C185.879 631.428 185.571 631.381 185.237 631.381C184.635 631.381 184.11 631.53 183.663 631.83C183.216 632.125 182.87 632.557 182.624 633.125C182.377 633.689 182.254 634.375 182.254 635.182C182.254 636.011 182.377 636.708 182.624 637.273C182.874 637.837 183.222 638.263 183.669 638.551C184.116 638.839 184.633 638.983 185.22 638.983C185.55 638.983 185.855 638.939 186.135 638.852C186.419 638.765 186.671 638.638 186.891 638.472C187.11 638.301 187.292 638.095 187.436 637.852C187.584 637.61 187.686 637.333 187.743 637.023L190.232 637.034C190.167 637.568 190.006 638.083 189.749 638.58C189.495 639.072 189.152 639.513 188.72 639.903C188.292 640.29 187.781 640.597 187.186 640.824C186.595 641.047 185.927 641.159 185.18 641.159C184.143 641.159 183.214 640.924 182.396 640.455C181.582 639.985 180.938 639.305 180.464 638.415C179.995 637.525 179.76 636.447 179.76 635.182C179.76 633.913 179.999 632.833 180.476 631.943C180.953 631.053 181.601 630.375 182.419 629.909C183.237 629.439 184.158 629.205 185.18 629.205C185.855 629.205 186.48 629.299 187.055 629.489C187.635 629.678 188.148 629.955 188.595 630.318C189.042 630.678 189.406 631.119 189.686 631.642C189.97 632.165 190.152 632.763 190.232 633.438ZM194.371 635.955V641H191.95V629.364H194.303V633.812H194.405C194.602 633.297 194.92 632.894 195.359 632.602C195.799 632.307 196.35 632.159 197.013 632.159C197.619 632.159 198.147 632.292 198.598 632.557C199.053 632.818 199.405 633.195 199.655 633.688C199.909 634.176 200.034 634.761 200.03 635.443V641H197.609V635.875C197.613 635.337 197.477 634.919 197.2 634.619C196.928 634.32 196.545 634.17 196.053 634.17C195.723 634.17 195.431 634.241 195.178 634.381C194.928 634.521 194.731 634.725 194.587 634.994C194.446 635.259 194.375 635.58 194.371 635.955ZM201.935 641V632.273H204.355V641H201.935ZM203.151 631.148C202.791 631.148 202.482 631.028 202.224 630.79C201.971 630.547 201.844 630.258 201.844 629.92C201.844 629.587 201.971 629.301 202.224 629.062C202.482 628.82 202.791 628.699 203.151 628.699C203.51 628.699 203.817 628.82 204.071 629.062C204.329 629.301 204.457 629.587 204.457 629.92C204.457 630.258 204.329 630.547 204.071 630.79C203.817 631.028 203.51 631.148 203.151 631.148ZM208.714 629.364V641H206.294V629.364H208.714ZM213.074 629.364V641H210.653V629.364H213.074Z" fill="#6B7280"/>
</g>
<rect x="44" y="607.5" width="305" height="55" rx="17.5" stroke="#D1D5DB" stroke-width="5"/>
<g filter="url(#filter0_d_540_6260)">
<g clip-path="url(#clip15_540_6260)">
<rect x="47" y="20" width="295" height="45" rx="20" fill="#B9DBF2"/>
<path d="M167.444 39.6378C167.387 39.0649 167.143 38.6198 166.712 38.3026C166.281 37.9853 165.697 37.8267 164.958 37.8267C164.456 37.8267 164.032 37.8977 163.687 38.0398C163.341 38.1771 163.076 38.3688 162.891 38.6151C162.711 38.8613 162.621 39.1406 162.621 39.4531C162.612 39.7135 162.666 39.9408 162.785 40.1349C162.908 40.3291 163.076 40.4972 163.289 40.6392C163.502 40.7765 163.748 40.8973 164.028 41.0014C164.307 41.1009 164.605 41.1861 164.923 41.2571L166.229 41.5696C166.864 41.7116 167.446 41.901 167.977 42.1378C168.507 42.3745 168.966 42.6657 169.354 43.0114C169.743 43.357 170.043 43.7642 170.256 44.233C170.474 44.7017 170.585 45.2391 170.59 45.8452C170.585 46.7353 170.358 47.5071 169.908 48.1605C169.463 48.8092 168.819 49.3134 167.977 49.6733C167.138 50.0284 166.128 50.206 164.944 50.206C163.77 50.206 162.747 50.026 161.876 49.6662C161.009 49.3063 160.332 48.7737 159.844 48.0682C159.362 47.358 159.108 46.4796 159.085 45.4332H162.06C162.094 45.9209 162.233 46.3281 162.479 46.6548C162.73 46.9768 163.064 47.2206 163.481 47.3864C163.902 47.5473 164.378 47.6278 164.908 47.6278C165.429 47.6278 165.881 47.5521 166.265 47.4006C166.653 47.2491 166.954 47.0384 167.167 46.7685C167.38 46.4986 167.487 46.1884 167.487 45.8381C167.487 45.5114 167.389 45.2367 167.195 45.0142C167.006 44.7917 166.727 44.6023 166.357 44.446C165.993 44.2898 165.545 44.1477 165.015 44.0199L163.431 43.6222C162.205 43.3239 161.237 42.8575 160.526 42.223C159.816 41.5885 159.463 40.7339 159.468 39.6591C159.463 38.7784 159.698 38.009 160.171 37.3509C160.649 36.6927 161.305 36.179 162.138 35.8097C162.972 35.4403 163.919 35.2557 164.979 35.2557C166.059 35.2557 167.001 35.4403 167.806 35.8097C168.616 36.179 169.246 36.6927 169.695 37.3509C170.145 38.009 170.377 38.7713 170.391 39.6378H167.444ZM177.531 50.2131C176.413 50.2131 175.452 49.9763 174.647 49.5028C173.847 49.0246 173.232 48.3617 172.801 47.5142C172.375 46.6667 172.162 45.6913 172.162 44.5881C172.162 43.4706 172.377 42.4905 172.808 41.6477C173.243 40.8002 173.861 40.1397 174.662 39.6662C175.462 39.188 176.413 38.9489 177.517 38.9489C178.468 38.9489 179.302 39.1217 180.017 39.4673C180.732 39.813 181.297 40.2983 181.714 40.9233C182.131 41.5483 182.36 42.2822 182.403 43.125H179.548C179.467 42.5805 179.254 42.1425 178.909 41.8111C178.568 41.4749 178.12 41.3068 177.566 41.3068C177.098 41.3068 176.688 41.4347 176.338 41.6903C175.992 41.9413 175.722 42.3082 175.528 42.7912C175.334 43.2741 175.237 43.8589 175.237 44.5455C175.237 45.2415 175.332 45.8333 175.521 46.321C175.715 46.8087 175.987 47.1804 176.338 47.4361C176.688 47.6918 177.098 47.8196 177.566 47.8196C177.912 47.8196 178.222 47.7486 178.497 47.6065C178.776 47.4645 179.006 47.2585 179.186 46.9886C179.37 46.714 179.491 46.3849 179.548 46.0014H182.403C182.356 46.8348 182.128 47.5687 181.721 48.2031C181.319 48.8329 180.762 49.3253 180.052 49.6804C179.342 50.0355 178.502 50.2131 177.531 50.2131ZM189.312 50.2131C188.19 50.2131 187.224 49.9858 186.414 49.5312C185.609 49.072 184.989 48.4233 184.553 47.5852C184.118 46.7424 183.9 45.7457 183.9 44.5952C183.9 43.473 184.118 42.4882 184.553 41.6406C184.989 40.7931 185.602 40.1326 186.393 39.6591C187.188 39.1856 188.121 38.9489 189.191 38.9489C189.911 38.9489 190.581 39.0649 191.201 39.2969C191.826 39.5241 192.371 39.8674 192.835 40.3267C193.303 40.786 193.668 41.3636 193.928 42.0597C194.189 42.7509 194.319 43.5606 194.319 44.4886V45.3196H185.107V43.4446H191.471C191.471 43.009 191.376 42.6231 191.187 42.2869C190.997 41.9508 190.735 41.688 190.398 41.4986C190.067 41.3045 189.681 41.2074 189.241 41.2074C188.781 41.2074 188.374 41.3139 188.019 41.527C187.669 41.7353 187.394 42.017 187.195 42.3722C186.996 42.7225 186.895 43.1132 186.89 43.544V45.3267C186.89 45.8665 186.989 46.3329 187.188 46.7259C187.392 47.1188 187.678 47.4219 188.048 47.6349C188.417 47.848 188.855 47.9545 189.362 47.9545C189.698 47.9545 190.005 47.9072 190.285 47.8125C190.564 47.7178 190.803 47.5758 191.002 47.3864C191.201 47.197 191.353 46.965 191.457 46.6903L194.255 46.875C194.113 47.5473 193.822 48.1345 193.381 48.6364C192.946 49.1335 192.382 49.5218 191.691 49.8011C191.004 50.0758 190.211 50.2131 189.312 50.2131ZM199.319 43.6932V50H196.293V39.0909H199.177V41.0156H199.305C199.546 40.3812 199.951 39.8793 200.519 39.5099C201.087 39.1359 201.776 38.9489 202.586 38.9489C203.344 38.9489 204.004 39.1146 204.567 39.446C205.131 39.7775 205.569 40.2509 205.881 40.8665C206.194 41.4773 206.35 42.2064 206.35 43.054V50H203.325V43.5938C203.329 42.9261 203.159 42.4053 202.813 42.0312C202.468 41.6525 201.992 41.4631 201.386 41.4631C200.978 41.4631 200.619 41.5507 200.306 41.7259C199.998 41.901 199.757 42.1567 199.582 42.4929C199.411 42.8243 199.324 43.2244 199.319 43.6932ZM213.706 50.2131C212.584 50.2131 211.618 49.9858 210.809 49.5312C210.004 49.072 209.383 48.4233 208.948 47.5852C208.512 46.7424 208.294 45.7457 208.294 44.5952C208.294 43.473 208.512 42.4882 208.948 41.6406C209.383 40.7931 209.997 40.1326 210.787 39.6591C211.583 39.1856 212.516 38.9489 213.586 38.9489C214.305 38.9489 214.975 39.0649 215.596 39.2969C216.221 39.5241 216.765 39.8674 217.229 40.3267C217.698 40.786 218.062 41.3636 218.323 42.0597C218.583 42.7509 218.713 43.5606 218.713 44.4886V45.3196H209.502V43.4446H215.865C215.865 43.009 215.771 42.6231 215.581 42.2869C215.392 41.9508 215.129 41.688 214.793 41.4986C214.462 41.3045 214.076 41.2074 213.635 41.2074C213.176 41.2074 212.769 41.3139 212.414 41.527C212.063 41.7353 211.789 42.017 211.59 42.3722C211.391 42.7225 211.289 43.1132 211.284 43.544V45.3267C211.284 45.8665 211.384 46.3329 211.583 46.7259C211.786 47.1188 212.073 47.4219 212.442 47.6349C212.811 47.848 213.249 47.9545 213.756 47.9545C214.092 47.9545 214.4 47.9072 214.679 47.8125C214.959 47.7178 215.198 47.5758 215.397 47.3864C215.596 47.197 215.747 46.965 215.851 46.6903L218.65 46.875C218.507 47.5473 218.216 48.1345 217.776 48.6364C217.34 49.1335 216.777 49.5218 216.086 49.8011C215.399 50.0758 214.606 50.2131 213.706 50.2131ZM229.765 42.2017L226.995 42.3722C226.947 42.1354 226.846 41.9223 226.689 41.733C226.533 41.5388 226.327 41.3849 226.071 41.2713C225.82 41.1529 225.52 41.0938 225.169 41.0938C224.701 41.0938 224.305 41.1932 223.983 41.392C223.661 41.5862 223.5 41.8466 223.5 42.1733C223.5 42.4337 223.605 42.6539 223.813 42.8338C224.021 43.0137 224.379 43.1581 224.885 43.267L226.86 43.6648C227.92 43.8826 228.711 44.233 229.232 44.7159C229.753 45.1989 230.013 45.8333 230.013 46.6193C230.013 47.3343 229.802 47.9616 229.381 48.5014C228.964 49.0412 228.391 49.4626 227.662 49.7656C226.938 50.0639 226.102 50.2131 225.155 50.2131C223.711 50.2131 222.56 49.9124 221.703 49.3111C220.851 48.705 220.352 47.8812 220.205 46.8395L223.181 46.6832C223.271 47.1236 223.489 47.4598 223.834 47.6918C224.18 47.919 224.623 48.0327 225.162 48.0327C225.693 48.0327 226.119 47.9309 226.441 47.7273C226.767 47.5189 226.933 47.2514 226.938 46.9247C226.933 46.6501 226.817 46.4252 226.59 46.25C226.363 46.0701 226.012 45.9328 225.539 45.8381L223.65 45.4616C222.584 45.2486 221.791 44.8793 221.27 44.3537C220.754 43.8281 220.496 43.1581 220.496 42.3438C220.496 41.643 220.685 41.0393 221.064 40.5327C221.448 40.026 221.985 39.6354 222.676 39.3608C223.373 39.0862 224.187 38.9489 225.12 38.9489C226.498 38.9489 227.582 39.2401 228.373 39.8224C229.168 40.4048 229.632 41.1979 229.765 42.2017Z" fill="#274765"/>
</g>
<rect x="47.5" y="20.5" width="294" height="44" rx="19.5" stroke="#E7E7EA"/>
</g>
<defs>
<filter id="filter0_d_540_6260" x="42" y="18" width="305" height="55" filterUnits="userSpaceOnUse" color-interpolation-filters="sRGB">
<feFlood flood-opacity="0" result="BackgroundImageFix"/>
<feColorMatrix in="SourceAlpha" type="matrix" values="0 0 0 0 0 0 0 0 0 0 0 0 0 0 0 0 0 0 127 0" result="hardAlpha"/>
<feOffset dy="3"/>
<feGaussianBlur stdDeviation="2.5"/>
<feComposite in2="hardAlpha" operator="out"/>
<feColorMatrix type="matrix" values="0 0 0 0 0.804769 0 0 0 0 0.804769 0 0 0 0 0.804769 0 0 0 0.25 0"/>
<feBlend mode="normal" in2="BackgroundImageFix" result="effect1_dropShadow_540_6260"/>
<feBlend mode="normal" in="SourceGraphic" in2="effect1_dropShadow_540_6260" result="shape"/>
</filter>
<clipPath id="clip0_540_6260">
<rect x="39" y="80" width="150" height="60" rx="20" fill="white"/>
</clipPath>
<clipPath id="clip1_540_6260">
<rect x="204" y="80" width="150" height="60" rx="20" fill="white"/>
</clipPath>
<clipPath id="clip2_540_6260">
<rect x="39" y="155" width="150" height="60" rx="20" fill="white"/>
</clipPath>
<clipPath id="clip3_540_6260">
<rect x="204" y="155" width="150" height="60" rx="20" fill="white"/>
</clipPath>
<clipPath id="clip4_540_6260">
<rect x="39" y="230" width="150" height="60" rx="20" fill="white"/>
</clipPath>
<clipPath id="clip5_540_6260">
<rect x="204" y="230" width="150" height="60" rx="20" fill="white"/>
</clipPath>
<clipPath id="clip6_540_6260">
<rect x="39" y="305" width="150" height="60" rx="20" fill="white"/>
</clipPath>
<clipPath id="clip7_540_6260">
<rect x="204" y="305" width="150" height="60" rx="20" fill="white"/>
</clipPath>
<clipPath id="clip8_540_6260">
<rect x="39" y="380" width="150" height="60" rx="20" fill="white"/>
</clipPath>
<clipPath id="clip9_540_6260">
<rect x="204" y="380" width="150" height="60" rx="20" fill="white"/>
</clipPath>
<clipPath id="clip10_540_6260">
<rect x="39" y="455" width="150" height="60" rx="20" fill="white"/>
</clipPath>
<clipPath id="clip11_540_6260">
<rect x="204" y="455" width="150" height="60" rx="20" fill="white"/>
</clipPath>
<clipPath id="clip12_540_6260">
<rect x="39" y="530" width="150" height="60" rx="20" fill="white"/>
</clipPath>
<clipPath id="clip13_540_6260">
<rect x="204" y="530" width="150" height="60" rx="20" fill="white"/>
</clipPath>
<clipPath id="clip14_540_6260">
<rect x="41.5" y="605" width="310" height="60" rx="20" fill="white"/>
</clipPath>
<clipPath id="clip15_540_6260">
<rect x="47" y="20" width="295" height="45" rx="20" fill="white"/>
</clipPath>
</defs>
</svg>
