<svg xmlns="http://www.w3.org/2000/svg" width="393" height="813" fill="none"><path fill="#F7F7F8" d="M0 20C0 8.954 8.954 0 20 0h353c11.046 0 20 8.954 20 20v773c0 11.046-8.954 20-20 20H20c-11.046 0-20-8.954-20-20V20Z"/><path fill="#fff" d="M40 55.5h313c10.77 0 19.5 8.73 19.5 19.5v698c0 10.77-8.73 19.5-19.5 19.5H40c-10.77 0-19.5-8.73-19.5-19.5V75c0-10.77 8.73-19.5 19.5-19.5Z"/><path stroke="#E5E5E5" d="M40 55.5h313c10.77 0 19.5 8.73 19.5 19.5v698c0 10.77-8.73 19.5-19.5 19.5H40c-10.77 0-19.5-8.73-19.5-19.5V75c0-10.77 8.73-19.5 19.5-19.5Z"/><g filter="url(#a)"><rect width="305" height="60" x="44" y="89.5" fill="#F9FAFB" rx="20" shape-rendering="crispEdges"/><rect width="300" height="55" x="46.5" y="92" stroke="#D1D5DB" stroke-width="5" rx="17.5" shape-rendering="crispEdges"/><path fill="#6B7280" d="M143.771 125.5v-10.182h2.461v8.183h4.235v1.999h-6.696Zm7.97 0v-7.636h2.431v7.636h-2.431Zm1.218-8.526a1.26 1.26 0 0 1-.88-.338 1.09 1.09 0 0 1-.368-.826c0-.318.123-.59.368-.815.246-.229.539-.343.88-.343.345 0 .638.114.88.343.246.225.368.497.368.815 0 .322-.122.597-.368.826a1.246 1.246 0 0 1-.88.338Zm6.32 11.549c-.725 0-1.347-.101-1.864-.304-.517-.202-.923-.478-1.218-.83a2.3 2.3 0 0 1-.532-1.193l2.302-.129a.908.908 0 0 0 .239.407c.119.116.273.206.462.269.192.063.418.094.676.094.408 0 .744-.099 1.009-.298.269-.195.403-.539.403-1.029v-1.342h-.084a1.82 1.82 0 0 1-.438.631 2.086 2.086 0 0 1-.731.438c-.288.106-.62.159-.994.159-.557 0-1.067-.13-1.531-.388-.461-.262-.831-.666-1.109-1.213-.275-.55-.413-1.258-.413-2.123 0-.892.143-1.626.428-2.203.285-.58.658-1.009 1.118-1.287a2.857 2.857 0 0 1 1.497-.418c.401 0 .744.07 1.029.209.288.136.525.312.711.527a2.5 2.5 0 0 1 .423.671h.069v-1.307h2.421v7.666c0 .646-.162 1.191-.487 1.635-.325.445-.779.781-1.362 1.01-.583.232-1.258.348-2.024.348Zm.075-4.897c.295 0 .547-.078.756-.234.209-.156.369-.379.482-.671.113-.292.169-.641.169-1.049 0-.414-.056-.771-.169-1.069a1.48 1.48 0 0 0-.482-.696 1.198 1.198 0 0 0-.756-.244c-.302 0-.557.083-.766.249a1.547 1.547 0 0 0-.477.701 3.165 3.165 0 0 0-.159 1.059c0 .408.055.757.164 1.049.109.292.267.515.472.671.209.156.464.234.766.234Zm7.779-2.481v4.355h-2.431v-10.182h2.352v3.948h.084c.173-.471.454-.839.845-1.104.395-.265.877-.398 1.447-.398.537 0 1.004.12 1.402.358.398.235.706.569.925.999.222.431.331.935.328 1.512v4.867h-2.431v-4.39c.003-.424-.103-.756-.318-.994-.216-.239-.519-.358-.91-.358-.255 0-.481.056-.676.169a1.159 1.159 0 0 0-.453.472c-.106.206-.16.454-.164.746Zm10.78-3.281v1.789h-4.817v-1.789h4.817Zm-3.808-1.83h2.431v7.065c0 .149.023.27.069.363.05.089.121.154.214.194a.922.922 0 0 0 .333.054c.093 0 .191-.008.294-.025.106-.02.185-.036.238-.049l.368 1.755c-.116.033-.28.074-.492.124-.209.05-.459.081-.751.094-.57.027-1.059-.039-1.466-.198a1.904 1.904 0 0 1-.93-.756c-.212-.342-.315-.771-.308-1.288v-7.333Z"/><g clip-path="url(#b)"><path fill="#6B7280" d="M114.75 116.75a8.25 8.25 0 1 1 13.989 5.926c-.279.27-.493.55-.623.851l-1.047 2.433a.683.683 0 0 1-.631.415.687.687 0 1 1 0 1.375.687.687 0 1 1 0 1.375l-.308.615a1.381 1.381 0 0 1-1.23.76h-3.8a1.372 1.372 0 0 1-1.229-.76l-.308-.615a.688.688 0 1 1 0-1.375.688.688 0 1 1 0-1.375.687.687 0 0 1-.633-.415l-1.046-2.434a2.763 2.763 0 0 0-.623-.85 8.226 8.226 0 0 1-2.511-5.926Zm8.25-6.875a6.873 6.873 0 0 0-6.727 8.297 6.874 6.874 0 0 0 1.943 3.517c.362.349.707.776.93 1.294l.87 2.017h5.971l.869-2.017c.222-.518.567-.945.929-1.294a6.873 6.873 0 0 0-.942-10.641 6.877 6.877 0 0 0-3.843-1.173Z"/></g><path fill="#5BB3E2" d="M344 118.65c0-8.542 0-12.814-1.689-16.065a15.002 15.002 0 0 0-6.396-6.396c-3.251-1.689-7.523-1.689-16.065-1.689H274v50h45.85c8.542 0 12.814 0 16.065-1.689a15.003 15.003 0 0 0 6.396-6.396C344 133.164 344 128.892 344 120.35v-1.7Z"/></g><g filter="url(#c)"><rect width="41" height="21" x="49" y="79.5" fill="#6B7280" rx="10.5"/><path fill="#F9FAFB" d="M56.66 94.5v-8.727h2.11v3.69h.115l2.885-3.69h2.484l-3.094 3.895 3.15 4.832h-2.523l-2.173-3.43-.844 1.065V94.5h-2.11Zm8.836 0v-6.546h2.084V94.5h-2.084Zm1.044-7.308c-.292 0-.544-.097-.754-.29a.933.933 0 0 1-.315-.707c0-.273.105-.506.315-.7.21-.195.462-.293.754-.293.296 0 .547.098.755.294.21.193.315.426.315.699a.933.933 0 0 1-.315.707c-.208.193-.46.29-.755.29Zm5.422 7.432c-.69 0-1.283-.142-1.777-.427a2.882 2.882 0 0 1-1.133-1.184c-.265-.509-.397-1.097-.397-1.764 0-.67.132-1.259.397-1.765a2.903 2.903 0 0 1 1.137-1.188c.495-.285 1.084-.427 1.769-.427.605 0 1.132.11 1.58.328.452.22.805.529 1.058.93.255.397.39.865.404 1.401h-1.947c-.04-.335-.153-.598-.341-.788-.185-.19-.426-.285-.724-.285-.242 0-.454.068-.635.204-.182.134-.324.332-.426.597-.1.261-.15.585-.15.971 0 .387.05.713.15.98.102.265.244.465.426.601.181.134.393.2.635.2a.983.983 0 0 0 .882-.486c.096-.161.157-.357.183-.587H75c-.02.54-.154 1.011-.404 1.414a2.508 2.508 0 0 1-1.044.942c-.447.222-.976.333-1.59.333Zm5.984-1.841.008-2.485h.29l1.841-2.344h2.361l-2.736 3.359h-.55l-1.214 1.47Zm-1.88 1.717v-8.727h2.085V94.5h-2.084Zm4.066 0-1.713-2.719 1.372-1.478L82.54 94.5h-2.408Z"/></g><g filter="url(#d)"><rect width="305" height="115" x="44" y="174.5" fill="#F9FAFB" rx="20" shape-rendering="crispEdges"/><rect width="300" height="110" x="46.5" y="177" stroke="#D1D5DB" stroke-width="5" rx="17.5" shape-rendering="crispEdges"/><path fill="#6B7280" d="M141.771 210.5v-10.182h6.95v1.999h-4.489v2.088h4.046v2.003h-4.046v4.092h-2.461Zm10.219.129c-.488 0-.92-.081-1.298-.243a2.031 2.031 0 0 1-.89-.746c-.215-.335-.323-.754-.323-1.258 0-.424.075-.782.224-1.074.149-.291.354-.528.616-.711.262-.182.564-.32.905-.412a5.868 5.868 0 0 1 1.094-.194c.434-.04.784-.081 1.049-.125.265-.046.457-.111.577-.193a.42.42 0 0 0 .183-.363v-.025c0-.255-.087-.453-.263-.592-.176-.139-.413-.209-.711-.209-.321 0-.58.07-.776.209a.922.922 0 0 0-.372.577l-2.243-.08c.067-.464.237-.878.513-1.243.278-.367.659-.656 1.143-.865.487-.212 1.072-.318 1.755-.318.487 0 .936.058 1.347.174.411.113.769.279 1.074.497.305.216.54.481.706.796.169.315.254.674.254 1.079v5.19h-2.287v-1.064h-.06c-.136.259-.31.477-.522.656a2.076 2.076 0 0 1-.741.403c-.281.09-.6.134-.954.134Zm.75-1.591c.262 0 .498-.053.706-.159.212-.106.382-.252.507-.437.126-.189.189-.408.189-.656v-.726a1.485 1.485 0 0 1-.253.099 4.473 4.473 0 0 1-.676.154l-.353.055a2.184 2.184 0 0 0-.587.169.929.929 0 0 0-.368.298.732.732 0 0 0-.124.428c0 .252.089.444.268.576.183.133.413.199.691.199Zm11.967-3.843-2.232.06a.832.832 0 0 0-.189-.423 1.02 1.02 0 0 0-.403-.293 1.369 1.369 0 0 0-.567-.109c-.281 0-.522.056-.72.169-.196.112-.292.265-.289.457a.491.491 0 0 0 .179.388c.126.109.35.197.671.263l1.472.279c.762.146 1.329.388 1.7.726.375.338.564.785.567 1.342a2.153 2.153 0 0 1-.467 1.367c-.305.388-.723.69-1.253.905-.531.212-1.137.318-1.82.318-1.09 0-1.95-.224-2.58-.671-.626-.451-.984-1.054-1.074-1.81l2.401-.059c.053.278.191.49.413.636.222.146.505.219.85.219.312 0 .565-.058.761-.174.195-.116.295-.27.298-.463a.487.487 0 0 0-.229-.412c-.149-.106-.382-.189-.701-.249l-1.332-.253c-.766-.14-1.336-.396-1.71-.771-.375-.378-.56-.858-.557-1.442-.003-.51.133-.946.408-1.307.275-.365.666-.643 1.173-.835.507-.193 1.105-.289 1.795-.289 1.034 0 1.849.217 2.446.651.596.431.926 1.025.989 1.78Zm5.696-2.331v1.789h-4.817v-1.789h4.817Zm-3.808-1.83h2.431v7.065c0 .149.023.27.07.363a.437.437 0 0 0 .213.194.924.924 0 0 0 .334.054c.092 0 .19-.008.293-.025.106-.02.186-.036.239-.049l.367 1.755c-.116.033-.28.074-.492.124-.209.05-.459.081-.75.094-.571.027-1.059-.039-1.467-.198a1.913 1.913 0 0 1-.93-.756c-.212-.342-.315-.771-.308-1.288v-7.333ZM130.819 201.654l-1.128 1.696a7.335 7.335 0 0 1-.201 6.949h-12.705a7.338 7.338 0 0 1-.931-4.515 7.33 7.33 0 0 1 10.565-5.706l1.696-1.128a9.172 9.172 0 0 0-11.263 1.072 9.164 9.164 0 0 0-1.644 11.193 1.831 1.831 0 0 0 1.577.917h12.696a1.833 1.833 0 0 0 1.595-.917 9.168 9.168 0 0 0-.248-9.57l-.009.009Zm-8.974 6.27c.17.171.372.306.595.398a1.817 1.817 0 0 0 1.404 0c.222-.092.425-.227.595-.398l5.188-7.782-7.782 5.188a1.824 1.824 0 0 0-.538 1.297 1.836 1.836 0 0 0 .538 1.297Z"/><path fill="#CB59AD" d="M344 203.65c0-8.542 0-12.814-1.689-16.065a15.003 15.003 0 0 0-6.396-6.396c-3.251-1.689-7.523-1.689-16.065-1.689H274v50h70v-25.85Z"/><path fill="#D1D5DB" d="M49 229.5h295v5H49z"/><path fill="#6B7280" d="M141.771 265.5v-10.182h2.461v8.183h4.235v1.999h-6.696Zm7.97 0v-7.636h2.431v7.636h-2.431Zm1.218-8.526a1.26 1.26 0 0 1-.88-.338 1.09 1.09 0 0 1-.368-.826c0-.318.123-.59.368-.815.246-.229.539-.343.88-.343.345 0 .638.114.88.343.246.225.368.497.368.815 0 .322-.122.597-.368.826a1.246 1.246 0 0 1-.88.338Zm6.32 11.549c-.725 0-1.347-.101-1.864-.304-.517-.202-.923-.478-1.218-.83a2.3 2.3 0 0 1-.532-1.193l2.302-.129a.908.908 0 0 0 .239.407c.119.116.273.206.462.269.192.063.418.094.676.094.408 0 .744-.099 1.009-.298.269-.195.403-.539.403-1.029v-1.342h-.084a1.82 1.82 0 0 1-.438.631 2.086 2.086 0 0 1-.731.438c-.288.106-.62.159-.994.159-.557 0-1.067-.13-1.531-.388-.461-.262-.831-.666-1.109-1.213-.275-.55-.413-1.258-.413-2.123 0-.892.143-1.626.428-2.203.285-.58.658-1.009 1.118-1.287a2.857 2.857 0 0 1 1.497-.418c.401 0 .744.07 1.029.209.288.136.525.312.711.527a2.5 2.5 0 0 1 .423.671h.069v-1.307h2.421v7.666c0 .646-.162 1.191-.487 1.635-.325.445-.779.781-1.362 1.01-.583.232-1.258.348-2.024.348Zm.075-4.897c.295 0 .547-.078.756-.234.209-.156.369-.379.482-.671.113-.292.169-.641.169-1.049 0-.414-.056-.771-.169-1.069a1.48 1.48 0 0 0-.482-.696 1.198 1.198 0 0 0-.756-.244c-.302 0-.557.083-.766.249a1.547 1.547 0 0 0-.477.701 3.165 3.165 0 0 0-.159 1.059c0 .408.055.757.164 1.049.109.292.267.515.472.671.209.156.464.234.766.234Zm7.779-2.481v4.355h-2.431v-10.182h2.352v3.948h.084c.173-.471.454-.839.845-1.104.395-.265.877-.398 1.447-.398.537 0 1.004.12 1.402.358.398.235.706.569.925.999.222.431.331.935.328 1.512v4.867h-2.431v-4.39c.003-.424-.103-.756-.318-.994-.216-.239-.519-.358-.91-.358-.255 0-.481.056-.676.169a1.159 1.159 0 0 0-.453.472c-.106.206-.16.454-.164.746Zm10.78-3.281v1.789h-4.817v-1.789h4.817Zm-3.808-1.83h2.431v7.065c0 .149.023.27.069.363.05.089.121.154.214.194a.922.922 0 0 0 .333.054c.093 0 .191-.008.294-.025.106-.02.185-.036.238-.049l.368 1.755c-.116.033-.28.074-.492.124-.209.05-.459.081-.751.094-.57.027-1.059-.039-1.466-.198a1.904 1.904 0 0 1-.93-.756c-.212-.342-.315-.771-.308-1.288v-7.333Z"/><g clip-path="url(#e)"><path fill="#6B7280" d="M114.75 256.75a8.25 8.25 0 1 1 13.989 5.926c-.279.27-.493.55-.623.851l-1.047 2.433a.683.683 0 0 1-.631.415.687.687 0 1 1 0 1.375.687.687 0 1 1 0 1.375l-.308.615a1.381 1.381 0 0 1-1.23.76h-3.8a1.372 1.372 0 0 1-1.229-.76l-.308-.615a.688.688 0 1 1 0-1.375.688.688 0 1 1 0-1.375.687.687 0 0 1-.633-.415l-1.046-2.434a2.763 2.763 0 0 0-.623-.85 8.226 8.226 0 0 1-2.511-5.926Zm8.25-6.875a6.873 6.873 0 0 0-6.727 8.297 6.874 6.874 0 0 0 1.943 3.517c.362.349.707.776.93 1.294l.87 2.017h5.971l.869-2.017c.222-.518.567-.945.929-1.294a6.873 6.873 0 0 0-.942-10.641 6.877 6.877 0 0 0-3.843-1.173Z"/></g><path fill="#E28FDF" d="M344 234.5h-70v50h45.85c8.542 0 12.814 0 16.065-1.689a15.003 15.003 0 0 0 6.396-6.396C344 273.164 344 268.892 344 260.35V234.5Z"/></g><g filter="url(#f)"><rect width="98" height="21" x="49" y="164.5" fill="#6B7280" rx="10.5"/><path fill="#F9FAFB" d="M61.378 173.389c-.029-.312-.155-.555-.38-.728-.221-.177-.538-.265-.95-.265-.272 0-.5.036-.681.107a.888.888 0 0 0-.41.294.71.71 0 0 0-.14.422c-.006.13.02.245.077.345.06.099.144.187.255.264.114.074.25.139.41.196.158.057.337.107.536.149l.75.171c.432.094.813.218 1.142.375.333.156.611.342.835.558.228.216.4.464.516.746.117.281.176.596.179.946-.003.551-.142 1.024-.418 1.419-.275.395-.671.697-1.188.907-.515.211-1.135.316-1.863.316-.73 0-1.366-.11-1.909-.328-.542-.219-.964-.551-1.265-.997-.302-.447-.456-1.01-.465-1.692h2.02c.017.281.092.515.226.703.133.187.317.329.55.426.235.097.508.145.818.145.284 0 .525-.038.724-.115.202-.077.357-.183.465-.32a.752.752 0 0 0 .166-.469.644.644 0 0 0-.154-.421c-.099-.12-.252-.222-.46-.307a4.742 4.742 0 0 0-.784-.243l-.912-.213c-.755-.173-1.35-.453-1.785-.84-.435-.389-.65-.914-.648-1.576a2.342 2.342 0 0 1 .435-1.419c.292-.407.697-.723 1.214-.951.517-.227 1.107-.341 1.769-.341.676 0 1.262.115 1.76.346.5.227.887.546 1.163.958.275.412.416.89.422 1.432h-2.02Zm5.288 2.378v3.733h-2.084v-6.545h1.982v1.201h.072c.145-.4.392-.714.742-.942.35-.23.766-.345 1.248-.345.46 0 .86.104 1.198.311.34.205.605.492.793.861.19.367.284.796.28 1.287v4.172h-2.083v-3.763c.003-.363-.09-.648-.277-.852-.185-.205-.442-.307-.771-.307-.22 0-.412.048-.58.145a.963.963 0 0 0-.383.405 1.452 1.452 0 0 0-.137.639Zm7.367 3.844c-.418 0-.788-.07-1.112-.209a1.733 1.733 0 0 1-.763-.639c-.185-.287-.277-.647-.277-1.078 0-.364.064-.671.192-.921s.304-.453.528-.609c.225-.156.483-.274.776-.354.292-.082.605-.138.937-.166.372-.034.672-.07.9-.107.227-.039.392-.095.494-.166a.358.358 0 0 0 .157-.311v-.021c0-.219-.075-.388-.225-.507-.151-.12-.354-.179-.61-.179-.275 0-.497.059-.665.179a.788.788 0 0 0-.32.494l-1.921-.068c.057-.398.203-.753.439-1.065.239-.316.565-.563.98-.742.418-.182.919-.273 1.504-.273.418 0 .803.05 1.155.149.352.097.66.239.92.427.262.184.464.412.606.681.145.27.217.579.217.925v4.449h-1.96v-.912h-.051a1.795 1.795 0 0 1-1.082.908 2.72 2.72 0 0 1-.819.115Zm.644-1.364c.224 0 .426-.045.605-.136a1.12 1.12 0 0 0 .434-.375.993.993 0 0 0 .162-.563v-.622c-.06.031-.132.06-.217.085a4.67 4.67 0 0 1-.58.132c-.105.018-.206.033-.302.047-.196.032-.364.08-.503.145a.8.8 0 0 0-.315.256.625.625 0 0 0-.107.366c0 .216.077.381.23.495.156.113.354.17.593.17Zm4.542 1.253v-6.545h2.024v1.193h.068c.12-.432.314-.753.584-.963.27-.213.584-.32.942-.32a2.2 2.2 0 0 1 .298.021c.103.012.198.03.286.056v1.811c-.1-.034-.23-.061-.392-.081-.16-.02-.301-.03-.426-.03-.247 0-.47.055-.67.166-.195.108-.35.26-.464.456-.11.193-.166.421-.166.682v3.554h-2.084Zm7.77.124c-.684 0-1.275-.135-1.772-.405a2.803 2.803 0 0 1-1.142-1.164c-.264-.505-.396-1.106-.396-1.802 0-.676.133-1.267.4-1.773a2.9 2.9 0 0 1 1.13-1.185c.485-.284 1.058-.426 1.717-.426.466 0 .892.073 1.278.218.387.145.72.359 1.002.643.28.284.5.635.656 1.053.156.414.234.89.234 1.427v.52h-5.689v-1.21h3.75a1.17 1.17 0 0 0-.157-.592 1.063 1.063 0 0 0-.422-.405c-.176-.1-.38-.149-.61-.149-.233 0-.441.052-.626.157a1.187 1.187 0 0 0-.61 1.023v1.232c0 .267.053.501.158.703.105.198.254.353.448.464.193.111.423.166.69.166.185 0 .352-.025.503-.076.15-.052.28-.127.388-.226a.938.938 0 0 0 .243-.367l1.913.056c-.08.429-.254.802-.524 1.12a2.66 2.66 0 0 1-1.053.738c-.434.173-.937.26-1.508.26Zm7.163-3.559c0-1.054.142-2.022.426-2.906a7.744 7.744 0 0 1 1.33-2.467h2.02a5.324 5.324 0 0 0-.635 1.027 8.925 8.925 0 0 0-.512 1.325c-.142.48-.254.977-.336 1.492a9.994 9.994 0 0 0-.12 1.529c0 .671.07 1.348.21 2.033.138.682.329 1.314.57 1.896.242.586.516 1.066.823 1.441h-2.02a7.768 7.768 0 0 1-1.33-2.463c-.284-.887-.426-1.856-.426-2.907Zm4.684 3.435v-6.545h2.084v6.545h-2.084Zm1.044-7.308c-.292 0-.544-.097-.754-.29a.933.933 0 0 1-.315-.707c0-.273.105-.506.315-.699.21-.196.462-.294.754-.294.296 0 .547.098.755.294.21.193.315.426.315.699a.933.933 0 0 1-.315.707 1.07 1.07 0 0 1-.755.29Zm4.45 3.575v3.733h-2.084v-6.545h1.982v1.201h.072c.145-.4.392-.714.742-.942.349-.23.766-.345 1.248-.345.461 0 .86.104 1.198.311.341.205.605.492.793.861.19.367.284.796.281 1.287v4.172h-2.084v-3.763c.003-.363-.09-.648-.277-.852-.185-.205-.442-.307-.771-.307-.219 0-.412.048-.58.145a.961.961 0 0 0-.383.405 1.456 1.456 0 0 0-.137.639Zm11.236-.814-1.913.051a.716.716 0 0 0-.162-.362.863.863 0 0 0-.345-.251 1.167 1.167 0 0 0-.486-.094c-.241 0-.447.048-.618.145-.167.096-.25.227-.247.392a.415.415 0 0 0 .154.332c.107.094.299.169.575.226l1.261.239c.654.125 1.139.332 1.458.622.321.29.482.673.485 1.15-.003.449-.136.84-.4 1.172-.262.333-.62.591-1.074.776-.455.182-.975.273-1.56.273-.934 0-1.672-.192-2.211-.576a2.148 2.148 0 0 1-.921-1.551l2.058-.051c.046.239.164.42.354.545.19.125.433.188.729.188.267 0 .484-.05.652-.149.167-.1.253-.232.255-.396a.418.418 0 0 0-.196-.354c-.127-.091-.328-.162-.6-.213l-1.142-.218c-.657-.119-1.145-.339-1.466-.66-.321-.324-.481-.736-.478-1.236-.003-.437.114-.811.35-1.121.236-.312.571-.551 1.005-.716.435-.164.948-.247 1.539-.247.886 0 1.585.186 2.096.559.512.369.794.877.848 1.525Zm1.188 4.547v-6.545h2.084v6.545h-2.084Zm1.044-7.308c-.292 0-.544-.097-.754-.29a.933.933 0 0 1-.315-.707c0-.273.105-.506.315-.699.21-.196.462-.294.754-.294.296 0 .547.098.755.294.21.193.315.426.315.699a.933.933 0 0 1-.315.707 1.07 1.07 0 0 1-.755.29Zm4.757 7.402c-.483 0-.922-.125-1.317-.375-.395-.25-.71-.625-.946-1.125s-.353-1.121-.353-1.862c0-.77.122-1.404.366-1.901.244-.497.564-.865.959-1.104a2.456 2.456 0 0 1 1.283-.358c.343 0 .637.06.882.179.244.117.446.267.605.452.159.185.28.376.362.575h.043v-3.302h2.083v8.727h-2.062v-1.061h-.064a2.038 2.038 0 0 1-.375.567 1.81 1.81 0 0 1-.609.426 2.087 2.087 0 0 1-.857.162Zm.724-1.624c.253 0 .469-.071.648-.213a1.38 1.38 0 0 0 .414-.609 2.67 2.67 0 0 0 .144-.921c0-.358-.048-.666-.144-.924a1.274 1.274 0 0 0-.414-.597 1.025 1.025 0 0 0-.648-.209c-.258 0-.477.071-.656.213a1.322 1.322 0 0 0-.409.601 2.766 2.766 0 0 0-.136.916c0 .353.047.659.14.921.094.261.229.464.405.609.179.142.398.213.656.213Zm7.621 1.654c-.685 0-1.276-.135-1.773-.405a2.804 2.804 0 0 1-1.142-1.164c-.264-.505-.396-1.106-.396-1.802 0-.676.133-1.267.4-1.773a2.9 2.9 0 0 1 1.13-1.185c.485-.284 1.058-.426 1.717-.426.466 0 .892.073 1.278.218.387.145.721.359 1.002.643.281.284.5.635.656 1.053.156.414.234.89.234 1.427v.52h-5.689v-1.21h3.75a1.165 1.165 0 0 0-.157-.592 1.061 1.061 0 0 0-.422-.405 1.21 1.21 0 0 0-.609-.149c-.233 0-.442.052-.627.157a1.18 1.18 0 0 0-.609 1.023v1.232c0 .267.052.501.157.703.106.198.255.353.448.464.193.111.423.166.69.166.185 0 .352-.025.503-.076a1.09 1.09 0 0 0 .388-.226.937.937 0 0 0 .243-.367l1.913.056a2.357 2.357 0 0 1-.524 1.12 2.658 2.658 0 0 1-1.053.738c-.434.173-.937.26-1.508.26Zm7.533-3.559c0 1.051-.142 2.02-.426 2.907a7.773 7.773 0 0 1-1.33 2.463h-2.02c.23-.282.442-.624.635-1.027.196-.404.365-.846.507-1.326.145-.48.257-.977.337-1.491a9.68 9.68 0 0 0 .124-1.526c0-.673-.07-1.351-.209-2.032a10.332 10.332 0 0 0-.571-1.901c-.242-.585-.516-1.065-.823-1.44h2.02a7.75 7.75 0 0 1 1.33 2.467c.284.884.426 1.852.426 2.906Z"/></g><g filter="url(#g)"><rect width="305" height="115" x="44" y="319.5" fill="#F9FAFB" rx="20" shape-rendering="crispEdges"/><rect width="300" height="110" x="46.5" y="322" stroke="#D1D5DB" stroke-width="5" rx="17.5" shape-rendering="crispEdges"/><path fill="#6B7280" d="M141.771 355.5v-10.182h6.95v1.999h-4.489v2.088h4.046v2.003h-4.046v4.092h-2.461Zm10.219.129c-.488 0-.92-.081-1.298-.243a2.031 2.031 0 0 1-.89-.746c-.215-.335-.323-.754-.323-1.258 0-.424.075-.782.224-1.074.149-.291.354-.528.616-.711.262-.182.564-.32.905-.412a5.868 5.868 0 0 1 1.094-.194c.434-.04.784-.081 1.049-.125.265-.046.457-.111.577-.193a.42.42 0 0 0 .183-.363v-.025c0-.255-.087-.453-.263-.592-.176-.139-.413-.209-.711-.209-.321 0-.58.07-.776.209a.922.922 0 0 0-.372.577l-2.243-.08c.067-.464.237-.878.513-1.243.278-.367.659-.656 1.143-.865.487-.212 1.072-.318 1.755-.318.487 0 .936.058 1.347.174.411.113.769.279 1.074.497.305.216.54.481.706.796.169.315.254.674.254 1.079v5.19h-2.287v-1.064h-.06c-.136.259-.31.477-.522.656a2.076 2.076 0 0 1-.741.403c-.281.09-.6.134-.954.134Zm.75-1.591c.262 0 .498-.053.706-.159.212-.106.382-.252.507-.437.126-.189.189-.408.189-.656v-.726a1.485 1.485 0 0 1-.253.099 4.473 4.473 0 0 1-.676.154l-.353.055a2.184 2.184 0 0 0-.587.169.929.929 0 0 0-.368.298.732.732 0 0 0-.124.428c0 .252.089.444.268.576.183.133.413.199.691.199Zm11.967-3.843-2.232.06a.832.832 0 0 0-.189-.423 1.02 1.02 0 0 0-.403-.293 1.369 1.369 0 0 0-.567-.109c-.281 0-.522.056-.72.169-.196.112-.292.265-.289.457a.491.491 0 0 0 .179.388c.126.109.35.197.671.263l1.472.279c.762.146 1.329.388 1.7.726.375.338.564.785.567 1.342a2.153 2.153 0 0 1-.467 1.367c-.305.388-.723.69-1.253.905-.531.212-1.137.318-1.82.318-1.09 0-1.95-.224-2.58-.671-.626-.451-.984-1.054-1.074-1.81l2.401-.059c.053.278.191.49.413.636.222.146.505.219.85.219.312 0 .565-.058.761-.174.195-.116.295-.27.298-.463a.487.487 0 0 0-.229-.412c-.149-.106-.382-.189-.701-.249l-1.332-.253c-.766-.14-1.336-.396-1.71-.771-.375-.378-.56-.858-.557-1.442-.003-.51.133-.946.408-1.307.275-.365.666-.643 1.173-.835.507-.193 1.105-.289 1.795-.289 1.034 0 1.849.217 2.446.651.596.431.926 1.025.989 1.78Zm5.696-2.331v1.789h-4.817v-1.789h4.817Zm-3.808-1.83h2.431v7.065c0 .149.023.27.07.363a.437.437 0 0 0 .213.194.924.924 0 0 0 .334.054c.092 0 .19-.008.293-.025.106-.02.186-.036.239-.049l.367 1.755c-.116.033-.28.074-.492.124-.209.05-.459.081-.75.094-.571.027-1.059-.039-1.467-.198a1.913 1.913 0 0 1-.93-.756c-.212-.342-.315-.771-.308-1.288v-7.333ZM130.819 346.654l-1.128 1.696a7.335 7.335 0 0 1-.201 6.949h-12.705a7.338 7.338 0 0 1-.931-4.515 7.33 7.33 0 0 1 10.565-5.706l1.696-1.128a9.172 9.172 0 0 0-11.263 1.072 9.164 9.164 0 0 0-1.644 11.193 1.831 1.831 0 0 0 1.577.917h12.696a1.833 1.833 0 0 0 1.595-.917 9.168 9.168 0 0 0-.248-9.57l-.009.009Zm-8.974 6.27c.17.171.372.306.595.398a1.817 1.817 0 0 0 1.404 0c.222-.092.425-.227.595-.398l5.188-7.782-7.782 5.188a1.824 1.824 0 0 0-.538 1.297 1.836 1.836 0 0 0 .538 1.297Z"/><path fill="#5BE2B7" d="M344 348.65c0-8.542 0-12.814-1.689-16.065a15.003 15.003 0 0 0-6.396-6.396c-3.251-1.689-7.523-1.689-16.065-1.689H274v50h70v-25.85Z"/><path fill="#D1D5DB" d="M49 374.5h295v5H49z"/><path fill="#6B7280" d="M141.771 410.5v-10.182h2.461v8.183h4.235v1.999h-6.696Zm7.97 0v-7.636h2.431v7.636h-2.431Zm1.218-8.526a1.26 1.26 0 0 1-.88-.338 1.09 1.09 0 0 1-.368-.826c0-.318.123-.59.368-.815.246-.229.539-.343.88-.343.345 0 .638.114.88.343.246.225.368.497.368.815 0 .322-.122.597-.368.826a1.246 1.246 0 0 1-.88.338Zm6.32 11.549c-.725 0-1.347-.101-1.864-.304-.517-.202-.923-.478-1.218-.83a2.3 2.3 0 0 1-.532-1.193l2.302-.129a.908.908 0 0 0 .239.407c.119.116.273.206.462.269.192.063.418.094.676.094.408 0 .744-.099 1.009-.298.269-.195.403-.539.403-1.029v-1.342h-.084a1.82 1.82 0 0 1-.438.631 2.086 2.086 0 0 1-.731.438c-.288.106-.62.159-.994.159-.557 0-1.067-.13-1.531-.388-.461-.262-.831-.666-1.109-1.213-.275-.55-.413-1.258-.413-2.123 0-.892.143-1.626.428-2.203.285-.58.658-1.009 1.118-1.287a2.857 2.857 0 0 1 1.497-.418c.401 0 .744.07 1.029.209.288.136.525.312.711.527a2.5 2.5 0 0 1 .423.671h.069v-1.307h2.421v7.666c0 .646-.162 1.191-.487 1.635-.325.445-.779.781-1.362 1.01-.583.232-1.258.348-2.024.348Zm.075-4.897c.295 0 .547-.078.756-.234.209-.156.369-.379.482-.671.113-.292.169-.641.169-1.049 0-.414-.056-.771-.169-1.069a1.48 1.48 0 0 0-.482-.696 1.198 1.198 0 0 0-.756-.244c-.302 0-.557.083-.766.249a1.547 1.547 0 0 0-.477.701 3.165 3.165 0 0 0-.159 1.059c0 .408.055.757.164 1.049.109.292.267.515.472.671.209.156.464.234.766.234Zm7.779-2.481v4.355h-2.431v-10.182h2.352v3.948h.084c.173-.471.454-.839.845-1.104.395-.265.877-.398 1.447-.398.537 0 1.004.12 1.402.358.398.235.706.569.925.999.222.431.331.935.328 1.512v4.867h-2.431v-4.39c.003-.424-.103-.756-.318-.994-.216-.239-.519-.358-.91-.358-.255 0-.481.056-.676.169a1.159 1.159 0 0 0-.453.472c-.106.206-.16.454-.164.746Zm10.78-3.281v1.789h-4.817v-1.789h4.817Zm-3.808-1.83h2.431v7.065c0 .149.023.27.069.363.05.089.121.154.214.194a.922.922 0 0 0 .333.054c.093 0 .191-.008.294-.025.106-.02.185-.036.238-.049l.368 1.755c-.116.033-.28.074-.492.124-.209.05-.459.081-.751.094-.57.027-1.059-.039-1.466-.198a1.904 1.904 0 0 1-.93-.756c-.212-.342-.315-.771-.308-1.288v-7.333Z"/><g clip-path="url(#h)"><path fill="#6B7280" d="M114.75 401.75a8.25 8.25 0 1 1 13.989 5.926c-.279.27-.493.55-.623.851l-1.047 2.433a.683.683 0 0 1-.631.415.687.687 0 1 1 0 1.375.687.687 0 1 1 0 1.375l-.308.615a1.381 1.381 0 0 1-1.23.76h-3.8a1.372 1.372 0 0 1-1.229-.76l-.308-.615a.688.688 0 1 1 0-1.375.688.688 0 1 1 0-1.375.687.687 0 0 1-.633-.415l-1.046-2.434a2.763 2.763 0 0 0-.623-.85 8.226 8.226 0 0 1-2.511-5.926Zm8.25-6.875a6.873 6.873 0 0 0-6.727 8.297 6.874 6.874 0 0 0 1.943 3.517c.362.349.707.776.93 1.294l.87 2.017h5.971l.869-2.017c.222-.518.567-.945.929-1.294a6.873 6.873 0 0 0-.942-10.641 6.877 6.877 0 0 0-3.843-1.173Z"/></g><path fill="#E2DD5B" d="M344 379.5h-70v50h45.85c8.542 0 12.814 0 16.065-1.689a15.003 15.003 0 0 0 6.396-6.396C344 418.164 344 413.892 344 405.35V379.5Z"/></g><g filter="url(#i)"><rect width="107" height="21" x="49" y="309.5" fill="#6B7280" rx="10.5"/><path fill="#F9FAFB" d="M61.378 318.389c-.029-.312-.155-.555-.38-.728-.221-.177-.538-.265-.95-.265-.272 0-.5.036-.681.107a.888.888 0 0 0-.41.294.71.71 0 0 0-.14.422c-.006.13.02.245.077.345.06.099.144.187.255.264.114.074.25.139.41.196.158.057.337.107.536.149l.75.171c.432.094.813.218 1.142.375.333.156.611.342.835.558.228.216.4.464.516.746.117.281.176.596.179.946-.003.551-.142 1.024-.418 1.419-.275.395-.671.697-1.188.907-.515.211-1.135.316-1.863.316-.73 0-1.366-.11-1.909-.328-.542-.219-.964-.551-1.265-.997-.302-.447-.456-1.01-.465-1.692h2.02c.017.281.092.515.226.703.133.187.317.329.55.426.235.097.508.145.818.145.284 0 .525-.038.724-.115.202-.077.357-.183.465-.32a.752.752 0 0 0 .166-.469.644.644 0 0 0-.154-.421c-.099-.12-.252-.222-.46-.307a4.742 4.742 0 0 0-.784-.243l-.912-.213c-.755-.173-1.35-.453-1.785-.84-.435-.389-.65-.914-.648-1.576a2.342 2.342 0 0 1 .435-1.419c.292-.407.697-.723 1.214-.951.517-.227 1.107-.341 1.769-.341.676 0 1.262.115 1.76.346.5.227.887.546 1.163.958.275.412.416.89.422 1.432h-2.02Zm5.288 2.378v3.733h-2.084v-6.545h1.982v1.201h.072c.145-.4.392-.714.742-.942.35-.23.766-.345 1.248-.345.46 0 .86.104 1.198.311.34.205.605.492.793.861.19.367.284.796.28 1.287v4.172h-2.083v-3.763c.003-.363-.09-.648-.277-.852-.185-.205-.442-.307-.771-.307-.22 0-.412.048-.58.145a.963.963 0 0 0-.383.405 1.452 1.452 0 0 0-.137.639Zm7.367 3.844c-.418 0-.788-.07-1.112-.209a1.733 1.733 0 0 1-.763-.639c-.185-.287-.277-.647-.277-1.078 0-.364.064-.671.192-.921s.304-.453.528-.609c.225-.156.483-.274.776-.354.292-.082.605-.138.937-.166.372-.034.672-.07.9-.107.227-.039.392-.095.494-.166a.358.358 0 0 0 .157-.311v-.021c0-.219-.075-.388-.225-.507-.151-.12-.354-.179-.61-.179-.275 0-.497.059-.665.179a.788.788 0 0 0-.32.494l-1.921-.068c.057-.398.203-.753.439-1.065.239-.316.565-.563.98-.742.418-.182.919-.273 1.504-.273.418 0 .803.05 1.155.149.352.097.66.239.92.427.262.184.464.412.606.681.145.27.217.579.217.925v4.449h-1.96v-.912h-.051a1.795 1.795 0 0 1-1.082.908 2.72 2.72 0 0 1-.819.115Zm.644-1.364c.224 0 .426-.045.605-.136a1.12 1.12 0 0 0 .434-.375.993.993 0 0 0 .162-.563v-.622c-.06.031-.132.06-.217.085a4.67 4.67 0 0 1-.58.132c-.105.018-.206.033-.302.047-.196.032-.364.08-.503.145a.8.8 0 0 0-.315.256.625.625 0 0 0-.107.366c0 .216.077.381.23.495.156.113.354.17.593.17Zm4.542 1.253v-6.545h2.024v1.193h.068c.12-.432.314-.753.584-.963.27-.213.584-.32.942-.32a2.2 2.2 0 0 1 .298.021c.103.012.198.03.286.056v1.811c-.1-.034-.23-.061-.392-.081-.16-.02-.301-.03-.426-.03-.247 0-.47.055-.67.166-.195.108-.35.26-.464.456-.11.193-.166.421-.166.682v3.554h-2.084Zm7.77.124c-.684 0-1.275-.135-1.772-.405a2.803 2.803 0 0 1-1.142-1.164c-.264-.505-.396-1.106-.396-1.802 0-.676.133-1.267.4-1.773a2.9 2.9 0 0 1 1.13-1.185c.485-.284 1.058-.426 1.717-.426.466 0 .892.073 1.278.218.387.145.72.359 1.002.643.28.284.5.635.656 1.053.156.414.234.89.234 1.427v.52h-5.689v-1.21h3.75a1.17 1.17 0 0 0-.157-.592 1.063 1.063 0 0 0-.422-.405c-.176-.1-.38-.149-.61-.149-.233 0-.441.052-.626.157a1.187 1.187 0 0 0-.61 1.023v1.232c0 .267.053.501.158.703.105.198.254.353.448.464.193.111.423.166.69.166.185 0 .352-.025.503-.076.15-.052.28-.127.388-.226a.938.938 0 0 0 .243-.367l1.913.056c-.08.429-.254.802-.524 1.12a2.66 2.66 0 0 1-1.053.738c-.434.173-.937.26-1.508.26Zm7.163-3.559c0-1.054.142-2.022.426-2.906a7.744 7.744 0 0 1 1.33-2.467h2.02a5.324 5.324 0 0 0-.635 1.027 8.925 8.925 0 0 0-.512 1.325c-.142.48-.254.977-.336 1.492a9.994 9.994 0 0 0-.12 1.529c0 .671.07 1.348.21 2.033.138.682.329 1.314.57 1.896.242.586.516 1.066.823 1.441h-2.02a7.768 7.768 0 0 1-1.33-2.463c-.284-.887-.426-1.856-.426-2.907Zm7.705 3.559c-.688 0-1.279-.141-1.773-.422a2.909 2.909 0 0 1-1.138-1.185c-.264-.508-.396-1.098-.396-1.768 0-.674.132-1.263.396-1.769a2.884 2.884 0 0 1 1.138-1.185c.494-.284 1.085-.426 1.773-.426.687 0 1.277.142 1.768.426.494.282.874.677 1.138 1.185.267.506.4 1.095.4 1.769 0 .67-.133 1.26-.4 1.768a2.875 2.875 0 0 1-1.138 1.185c-.491.281-1.081.422-1.768.422Zm.012-1.573c.25 0 .462-.077.635-.23a1.43 1.43 0 0 0 .397-.639 2.93 2.93 0 0 0 .14-.946 2.96 2.96 0 0 0-.14-.955 1.436 1.436 0 0 0-.397-.639.925.925 0 0 0-.635-.23.976.976 0 0 0-.656.23 1.455 1.455 0 0 0-.405.639 3.022 3.022 0 0 0-.136.955c0 .358.045.673.136.946.094.273.229.486.405.639.179.153.398.23.656.23Zm8.585-1.376v-3.72h2.079v6.545h-1.985v-1.219h-.069a1.9 1.9 0 0 1-.741.955c-.347.233-.766.349-1.257.349-.446 0-.838-.102-1.176-.307a2.094 2.094 0 0 1-.789-.856c-.187-.369-.282-.801-.285-1.296v-4.171h2.084v3.762c.002.355.096.635.281.84.185.204.436.307.754.307.208 0 .394-.046.558-.137a1 1 0 0 0 .397-.405c.099-.179.149-.394.149-.647Zm7.1-3.72v1.534h-4.129v-1.534h4.129Zm-3.264-1.569h2.084v6.056c0 .128.02.231.06.311a.365.365 0 0 0 .183.166.784.784 0 0 0 .285.047c.08 0 .164-.007.252-.021.091-.017.159-.032.204-.043l.316 1.504c-.1.029-.24.064-.422.107a3.621 3.621 0 0 1-.644.081c-.488.022-.907-.034-1.257-.171a1.635 1.635 0 0 1-.797-.647c-.181-.293-.27-.661-.264-1.104v-6.286Zm9.96 3.567-1.913.051a.716.716 0 0 0-.162-.362.863.863 0 0 0-.345-.251 1.174 1.174 0 0 0-.486-.094c-.242 0-.448.048-.618.145-.168.096-.25.227-.247.392a.417.417 0 0 0 .153.332c.108.094.3.169.575.226l1.262.239c.653.125 1.139.332 1.457.622.321.29.483.673.486 1.15-.003.449-.136.84-.401 1.172-.261.333-.619.591-1.073.776-.455.182-.975.273-1.56.273-.935 0-1.672-.192-2.212-.576a2.144 2.144 0 0 1-.92-1.551l2.058-.051c.045.239.163.42.354.545.19.125.433.188.728.188.267 0 .485-.05.652-.149.168-.1.253-.232.256-.396a.42.42 0 0 0-.196-.354c-.128-.091-.328-.162-.601-.213l-1.142-.218c-.656-.119-1.145-.339-1.466-.66-.321-.324-.48-.736-.477-1.236-.003-.437.114-.811.349-1.121.236-.312.571-.551 1.006-.716.435-.164.947-.247 1.538-.247.887 0 1.586.186 2.097.559.511.369.794.877.848 1.525Zm1.188 4.547v-6.545h2.084v6.545h-2.084Zm1.044-7.308c-.293 0-.544-.097-.754-.29a.931.931 0 0 1-.316-.707c0-.273.105-.506.316-.699.21-.196.461-.294.754-.294.295 0 .547.098.754.294.21.193.315.426.315.699a.933.933 0 0 1-.315.707c-.207.193-.459.29-.754.29Zm4.757 7.402c-.483 0-.922-.125-1.317-.375-.395-.25-.71-.625-.946-1.125s-.354-1.121-.354-1.862c0-.77.122-1.404.367-1.901.244-.497.564-.865.958-1.104a2.459 2.459 0 0 1 1.283-.358c.344 0 .638.06.882.179.245.117.446.267.605.452.159.185.28.376.363.575h.042v-3.302h2.084v8.727h-2.063v-1.061h-.063a2.084 2.084 0 0 1-.375.567 1.815 1.815 0 0 1-.61.426 2.082 2.082 0 0 1-.856.162Zm.724-1.624c.253 0 .469-.071.648-.213a1.37 1.37 0 0 0 .413-.609c.097-.262.145-.568.145-.921 0-.358-.048-.666-.145-.924a1.272 1.272 0 0 0-.413-.597 1.025 1.025 0 0 0-.648-.209c-.258 0-.477.071-.656.213a1.314 1.314 0 0 0-.409.601 2.764 2.764 0 0 0-.137.916c0 .353.047.659.141.921.094.261.229.464.405.609.179.142.398.213.656.213Zm7.62 1.654c-.684 0-1.275-.135-1.772-.405a2.798 2.798 0 0 1-1.142-1.164c-.265-.505-.397-1.106-.397-1.802 0-.676.134-1.267.401-1.773a2.899 2.899 0 0 1 1.129-1.185c.486-.284 1.058-.426 1.718-.426.465 0 .892.073 1.278.218.386.145.72.359 1.001.643.282.284.5.635.657 1.053.156.414.234.89.234 1.427v.52h-5.689v-1.21h3.75a1.165 1.165 0 0 0-.158-.592 1.065 1.065 0 0 0-.421-.405c-.177-.1-.38-.149-.61-.149-.233 0-.442.052-.626.157a1.19 1.19 0 0 0-.61 1.023v1.232c0 .267.053.501.158.703.105.198.254.353.447.464.194.111.424.166.691.166.184 0 .352-.025.503-.076.15-.052.279-.127.387-.226a.937.937 0 0 0 .243-.367l1.914.056c-.08.429-.255.802-.524 1.12a2.665 2.665 0 0 1-1.053.738c-.435.173-.938.26-1.509.26Zm7.533-3.559c0 1.051-.142 2.02-.426 2.907a7.77 7.77 0 0 1-1.329 2.463h-2.02c.23-.282.442-.624.635-1.027.196-.404.365-.846.507-1.326.145-.48.257-.977.337-1.491a9.677 9.677 0 0 0 .123-1.526c0-.673-.069-1.351-.209-2.032a10.255 10.255 0 0 0-.571-1.901c-.241-.585-.515-1.065-.822-1.44h2.02a7.746 7.746 0 0 1 1.329 2.467c.284.884.426 1.852.426 2.906Z"/></g><g filter="url(#j)"><rect width="305" height="129" x="44" y="464.5" fill="#fff" rx="20" shape-rendering="crispEdges"/><rect width="300" height="124" x="46.5" y="467" stroke="#9AC8EB" stroke-width="5" rx="17.5" shape-rendering="crispEdges"/><path fill="#3D77A2" d="M141.771 500.5v-10.182h6.95v1.999h-4.489v2.088h4.046v2.003h-4.046v4.092h-2.461Zm10.219.129c-.488 0-.92-.081-1.298-.243a2.031 2.031 0 0 1-.89-.746c-.215-.335-.323-.754-.323-1.258 0-.424.075-.782.224-1.074.149-.291.354-.528.616-.711.262-.182.564-.32.905-.412a5.868 5.868 0 0 1 1.094-.194c.434-.04.784-.081 1.049-.125.265-.046.457-.111.577-.193a.42.42 0 0 0 .183-.363v-.025c0-.255-.087-.453-.263-.592-.176-.139-.413-.209-.711-.209-.321 0-.58.07-.776.209a.922.922 0 0 0-.372.577l-2.243-.08c.067-.464.237-.878.513-1.243.278-.367.659-.656 1.143-.865.487-.212 1.072-.318 1.755-.318.487 0 .936.058 1.347.174.411.113.769.279 1.074.497.305.216.54.481.706.796.169.315.254.674.254 1.079v5.19h-2.287v-1.064h-.06c-.136.259-.31.477-.522.656a2.076 2.076 0 0 1-.741.403c-.281.09-.6.134-.954.134Zm.75-1.591c.262 0 .498-.053.706-.159.212-.106.382-.252.507-.437.126-.189.189-.408.189-.656v-.726a1.485 1.485 0 0 1-.253.099 4.473 4.473 0 0 1-.676.154l-.353.055a2.184 2.184 0 0 0-.587.169.929.929 0 0 0-.368.298.732.732 0 0 0-.124.428c0 .252.089.444.268.576.183.133.413.199.691.199Zm11.967-3.843-2.232.06a.832.832 0 0 0-.189-.423 1.02 1.02 0 0 0-.403-.293 1.369 1.369 0 0 0-.567-.109c-.281 0-.522.056-.72.169-.196.112-.292.265-.289.457a.491.491 0 0 0 .179.388c.126.109.35.197.671.263l1.472.279c.762.146 1.329.388 1.7.726.375.338.564.785.567 1.342a2.153 2.153 0 0 1-.467 1.367c-.305.388-.723.69-1.253.905-.531.212-1.137.318-1.82.318-1.09 0-1.95-.224-2.58-.671-.626-.451-.984-1.054-1.074-1.81l2.401-.059c.053.278.191.49.413.636.222.146.505.219.85.219.312 0 .565-.058.761-.174.195-.116.295-.27.298-.463a.487.487 0 0 0-.229-.412c-.149-.106-.382-.189-.701-.249l-1.332-.253c-.766-.14-1.336-.396-1.71-.771-.375-.378-.56-.858-.557-1.442-.003-.51.133-.946.408-1.307.275-.365.666-.643 1.173-.835.507-.193 1.105-.289 1.795-.289 1.034 0 1.849.217 2.446.651.596.431.926 1.025.989 1.78Zm5.696-2.331v1.789h-4.817v-1.789h4.817Zm-3.808-1.83h2.431v7.065c0 .149.023.27.07.363a.437.437 0 0 0 .213.194.924.924 0 0 0 .334.054c.092 0 .19-.008.293-.025.106-.02.186-.036.239-.049l.367 1.755c-.116.033-.28.074-.492.124-.209.05-.459.081-.75.094-.571.027-1.059-.039-1.467-.198a1.913 1.913 0 0 1-.93-.756c-.212-.342-.315-.771-.308-1.288v-7.333ZM130.819 491.654l-1.128 1.696a7.335 7.335 0 0 1-.201 6.949h-12.705a7.338 7.338 0 0 1-.931-4.515 7.33 7.33 0 0 1 10.565-5.706l1.696-1.128a9.172 9.172 0 0 0-11.263 1.072 9.164 9.164 0 0 0-1.644 11.193 1.831 1.831 0 0 0 1.577.917h12.696a1.833 1.833 0 0 0 1.595-.917 9.168 9.168 0 0 0-.248-9.57l-.009.009Zm-8.974 6.27c.17.171.372.306.595.398a1.817 1.817 0 0 0 1.404 0c.222-.092.425-.227.595-.398l5.188-7.782-7.782 5.188a1.824 1.824 0 0 0-.538 1.297 1.836 1.836 0 0 0 .538 1.297Z"/><path fill="#FAB800" d="M344 493.65c0-8.542 0-12.814-1.689-16.065a15.003 15.003 0 0 0-6.396-6.396c-3.251-1.689-7.523-1.689-16.065-1.689H274v50h70v-25.85Z"/><path fill="#9AC8EB" d="M49 519.5h295v5H49z"/><path fill="#3D77A2" d="M141.771 562.5v-10.182h4.206c.762 0 1.42.138 1.973.413.557.272.986.663 1.288 1.173.302.507.452 1.109.452 1.805 0 .706-.154 1.306-.462 1.8a2.95 2.95 0 0 1-1.313 1.123c-.566.255-1.237.383-2.013.383h-2.66v-1.939h2.203c.371 0 .681-.048.929-.144.252-.1.443-.249.572-.448.129-.202.194-.46.194-.775s-.065-.575-.194-.781a1.166 1.166 0 0 0-.572-.467c-.252-.106-.561-.159-.929-.159h-1.213v8.198h-2.461Zm5.732-4.653 2.535 4.653h-2.684l-2.486-4.653h2.635Zm6.951 4.797c-.802 0-1.491-.164-2.068-.492a3.39 3.39 0 0 1-1.327-1.382c-.308-.593-.463-1.281-.463-2.063 0-.786.155-1.474.463-2.064a3.354 3.354 0 0 1 1.327-1.382c.577-.331 1.266-.497 2.068-.497s1.49.166 2.064.497a3.318 3.318 0 0 1 1.327 1.382c.312.59.467 1.278.467 2.064 0 .782-.155 1.47-.467 2.063a3.353 3.353 0 0 1-1.327 1.382c-.574.328-1.262.492-2.064.492Zm.015-1.834c.292 0 .539-.09.741-.269.202-.179.356-.427.462-.746.11-.318.164-.686.164-1.103 0-.424-.054-.796-.164-1.114-.106-.318-.26-.567-.462-.746a1.077 1.077 0 0 0-.741-.268c-.301 0-.557.089-.765.268-.206.179-.363.428-.473.746a3.53 3.53 0 0 0-.159 1.114c0 .417.053.785.159 1.103.11.319.267.567.473.746.208.179.464.269.765.269Zm9.399-5.946v1.789h-4.817v-1.789h4.817Zm-3.808-1.83h2.431v7.065c0 .149.023.27.07.363a.437.437 0 0 0 .213.194.922.922 0 0 0 .333.054c.093 0 .191-.008.294-.025.106-.02.185-.036.238-.049l.368 1.755c-.116.033-.28.074-.492.124-.209.05-.459.081-.751.094-.57.027-1.059-.039-1.466-.198a1.908 1.908 0 0 1-.93-.756c-.212-.342-.315-.771-.308-1.288v-7.333Zm7.201 9.595c-.487 0-.92-.081-1.297-.243a2.02 2.02 0 0 1-.89-.746c-.216-.335-.323-.754-.323-1.258 0-.424.074-.782.223-1.074.149-.291.355-.528.617-.711.262-.182.563-.32.905-.412a5.872 5.872 0 0 1 1.093-.194c.434-.04.784-.081 1.049-.125.265-.046.458-.111.577-.193a.42.42 0 0 0 .184-.363v-.025c0-.255-.088-.453-.264-.592-.175-.139-.412-.209-.71-.209-.322 0-.58.07-.776.209a.919.919 0 0 0-.373.577l-2.242-.08c.066-.464.237-.878.512-1.243.278-.367.66-.656 1.143-.865.488-.212 1.073-.318 1.755-.318.488 0 .937.058 1.348.174.411.113.769.279 1.074.497.305.216.54.481.706.796.169.315.253.674.253 1.079v5.19h-2.287v-1.064h-.059c-.136.259-.31.477-.523.656a2.063 2.063 0 0 1-.74.403c-.282.09-.6.134-.955.134Zm.751-1.591c.262 0 .497-.053.706-.159.212-.106.381-.252.507-.437.126-.189.189-.408.189-.656v-.726c-.07.036-.154.069-.254.099a4.473 4.473 0 0 1-.676.154l-.353.055a2.188 2.188 0 0 0-.586.169.922.922 0 0 0-.368.298.732.732 0 0 0-.125.428c0 .252.09.444.269.576.182.133.412.199.691.199Zm9.61-6.174v1.789h-4.817v-1.789h4.817Zm-3.808-1.83h2.431v7.065c0 .149.023.27.069.363.05.089.121.154.214.194a.922.922 0 0 0 .333.054c.093 0 .191-.008.294-.025.106-.02.185-.036.238-.049l.368 1.755c-.116.033-.28.074-.492.124-.209.05-.459.081-.751.094-.57.027-1.059-.039-1.466-.198a1.904 1.904 0 0 1-.93-.756c-.212-.342-.315-.771-.308-1.288v-7.333Zm5.048 9.466v-7.636h2.432v7.636h-2.432Zm1.218-8.526a1.26 1.26 0 0 1-.88-.338 1.09 1.09 0 0 1-.367-.826c0-.318.122-.59.367-.815.246-.229.539-.343.88-.343.345 0 .638.114.88.343.246.225.368.497.368.815 0 .322-.122.597-.368.826a1.246 1.246 0 0 1-.88.338Zm6.326 8.67c-.803 0-1.492-.164-2.069-.492a3.39 3.39 0 0 1-1.327-1.382c-.308-.593-.462-1.281-.462-2.063 0-.786.154-1.474.462-2.064a3.354 3.354 0 0 1 1.327-1.382c.577-.331 1.266-.497 2.069-.497.802 0 1.489.166 2.063.497a3.318 3.318 0 0 1 1.327 1.382c.312.59.467 1.278.467 2.064 0 .782-.155 1.47-.467 2.063a3.353 3.353 0 0 1-1.327 1.382c-.574.328-1.261.492-2.063.492Zm.014-1.834c.292 0 .539-.09.741-.269.202-.179.357-.427.463-.746a3.4 3.4 0 0 0 .164-1.103 3.44 3.44 0 0 0-.164-1.114c-.106-.318-.261-.567-.463-.746a1.077 1.077 0 0 0-.741-.268c-.301 0-.556.089-.765.268-.206.179-.363.428-.472.746a3.5 3.5 0 0 0-.16 1.114c0 .417.053.785.16 1.103.109.319.266.567.472.746.209.179.464.269.765.269Zm7.52-2.665v4.355h-2.431v-7.636h2.312v1.402h.084c.169-.468.458-.834.865-1.099.408-.269.893-.403 1.457-.403.537 0 1.003.121 1.397.363.398.239.706.574.925 1.004.222.428.331.928.328 1.502v4.867h-2.431v-4.39c.003-.424-.105-.756-.323-.994-.216-.239-.516-.358-.9-.358-.256 0-.481.056-.676.169a1.117 1.117 0 0 0-.448.472 1.691 1.691 0 0 0-.159.746ZM119.939 548.77a1.028 1.028 0 0 1 .378-1.083 1.02 1.02 0 0 1 .362-.174 9.282 9.282 0 0 1 4.641 0 1.029 1.029 0 0 1 .587 1.63 1.028 1.028 0 0 1-1.103.366 7.232 7.232 0 0 0-3.609 0 1.03 1.03 0 0 1-1.256-.739Zm-3.562 1.228a9.29 9.29 0 0 0-2.32 4.018 1.039 1.039 0 0 0 .719 1.27 1.026 1.026 0 0 0 .899-.174c.18-.137.31-.328.37-.546a7.21 7.21 0 0 1 1.804-3.123 1.037 1.037 0 0 0 .296-.732 1.042 1.042 0 0 0-.309-.727 1.031 1.031 0 0 0-1.459.014Zm-.333 8.434a1.033 1.033 0 0 0-1.987.552 9.28 9.28 0 0 0 2.32 4.02 1.035 1.035 0 0 0 1.418-.029 1.034 1.034 0 0 0 .048-1.418 7.222 7.222 0 0 1-1.799-3.125Zm8.76 5.059a7.209 7.209 0 0 1-3.609 0 1.021 1.021 0 0 0-.796.097 1.04 1.04 0 0 0-.486.637 1.039 1.039 0 0 0 .394 1.093c.112.081.238.138.372.169a9.282 9.282 0 0 0 4.641 0 1.029 1.029 0 0 0 .587-1.63 1.028 1.028 0 0 0-1.103-.366Zm6.422-5.777a1.033 1.033 0 0 0-1.265.72 7.221 7.221 0 0 1-1.805 3.123 1.035 1.035 0 0 0 .013 1.459 1.03 1.03 0 0 0 1.458-.013 9.293 9.293 0 0 0 2.32-4.019 1.034 1.034 0 0 0-.098-.785 1.029 1.029 0 0 0-.624-.485h.001Zm-1.27-3.146a1.033 1.033 0 0 0 1.987-.552 9.28 9.28 0 0 0-2.32-4.02 1.037 1.037 0 0 0-1.145-.273 1.03 1.03 0 0 0-.322 1.72 7.212 7.212 0 0 1 1.799 3.125h.001Z"/><path fill="#5BE271" d="M344 572.5h-70v16h54c.929 0 1.393 0 1.785-.021 7.667-.401 13.793-6.527 14.194-14.194.021-.392.021-.856.021-1.785Z"/><path fill="#E2DD5B" d="M344 540.5h-70v16h70v-16Z"/><path fill="#5BA1E2" d="M344 556.5h-70v16h70v-16Z"/><path fill="#E25B5B" d="M344 524.5h-70v16h70v-16Z"/></g><g filter="url(#k)"><rect width="117" height="21" x="49" y="454.5" fill="#3D77A2" rx="10.5"/><path fill="#E7F3FB" d="M56.66 469.5v-8.727h2.11v3.503h3.439v-3.503h2.105v8.727h-2.105v-3.507h-3.44v3.507h-2.108Zm8.977 0v-6.545h2.084v6.545h-2.084Zm1.044-7.308c-.293 0-.544-.097-.754-.29a.933.933 0 0 1-.316-.707c0-.273.106-.506.316-.699.21-.196.461-.294.754-.294.296 0 .547.098.754.294.21.193.316.426.316.699a.933.933 0 0 1-.316.707c-.207.193-.458.29-.754.29Zm5.417 9.899c-.622 0-1.154-.087-1.598-.26-.443-.173-.79-.411-1.044-.712a1.97 1.97 0 0 1-.456-1.022l1.973-.111a.78.78 0 0 0 .205.349c.102.1.234.176.396.23.165.054.358.081.58.081.35 0 .638-.085.865-.255.23-.168.345-.462.345-.882v-1.151h-.073a1.543 1.543 0 0 1-.374.541 1.781 1.781 0 0 1-.627.375 2.458 2.458 0 0 1-.852.137c-.477 0-.915-.111-1.313-.333-.394-.224-.711-.571-.95-1.04-.236-.471-.354-1.078-.354-1.819 0-.764.123-1.394.367-1.888.244-.497.564-.865.959-1.104a2.456 2.456 0 0 1 1.282-.358c.344 0 .638.06.882.179.248.117.45.267.61.452.159.185.28.376.362.575h.06v-1.12h2.075v6.571c0 .554-.14 1.021-.418 1.402-.278.38-.667.669-1.167.865-.5.198-1.078.298-1.735.298Zm.064-4.198c.253 0 .469-.066.648-.2.179-.133.317-.325.413-.575.097-.25.145-.55.145-.899 0-.355-.048-.661-.145-.916a1.273 1.273 0 0 0-.413-.597 1.025 1.025 0 0 0-.648-.209c-.258 0-.477.071-.656.213a1.321 1.321 0 0 0-.41.601c-.09.256-.135.558-.135.908 0 .349.046.649.14.899.094.25.229.442.405.575.179.134.398.2.656.2Zm6.668-2.126v3.733h-2.084v-8.727h2.016v3.383h.073c.147-.403.389-.719.724-.946.338-.227.751-.341 1.24-.341.46 0 .86.103 1.202.307.34.202.605.487.792.857.19.369.284.801.282 1.295v4.172H80.99v-3.763c.003-.363-.088-.648-.273-.852-.185-.205-.445-.307-.78-.307-.219 0-.412.048-.58.145a.99.99 0 0 0-.387.405c-.091.176-.138.389-.14.639Zm11.818-2.812v1.534h-4.13v-1.534h4.13Zm-3.264-1.569h2.084v6.056c0 .128.02.231.06.311a.37.37 0 0 0 .183.166c.08.031.174.047.285.047.08 0 .163-.007.252-.021.09-.017.159-.032.204-.043l.315 1.504c-.099.029-.24.064-.421.107a3.614 3.614 0 0 1-.644.081c-.489.022-.908-.034-1.257-.171a1.63 1.63 0 0 1-.797-.647c-.182-.293-.27-.661-.264-1.104v-6.286Zm7.312 8.238c-.687 0-1.278-.141-1.772-.422a2.909 2.909 0 0 1-1.138-1.185c-.264-.508-.396-1.098-.396-1.768 0-.674.132-1.263.396-1.769a2.885 2.885 0 0 1 1.138-1.185c.494-.284 1.085-.426 1.772-.426.688 0 1.277.142 1.769.426a2.85 2.85 0 0 1 1.138 1.185c.267.506.4 1.095.4 1.769 0 .67-.133 1.26-.4 1.768a2.873 2.873 0 0 1-1.138 1.185c-.492.281-1.081.422-1.769.422Zm.013-1.573c.25 0 .462-.077.635-.23.173-.153.306-.366.396-.639.094-.273.141-.588.141-.946 0-.364-.047-.682-.14-.955a1.44 1.44 0 0 0-.397-.639.926.926 0 0 0-.635-.23.976.976 0 0 0-.656.23 1.452 1.452 0 0 0-.405.639c-.09.273-.136.591-.136.955 0 .358.045.673.136.946.094.273.229.486.405.639.179.153.398.23.656.23Zm4.362 1.449v-6.545h1.981v1.201h.073c.136-.397.366-.711.69-.942.324-.23.71-.345 1.159-.345.455 0 .844.117 1.168.35.324.233.53.545.618.937h.068a1.7 1.7 0 0 1 .716-.933c.355-.236.774-.354 1.257-.354.619 0 1.122.199 1.508.597.387.395.58.937.58 1.628v4.406h-2.084v-3.929c0-.327-.084-.575-.251-.746a.868.868 0 0 0-.652-.26c-.287 0-.513.094-.678.282-.162.184-.243.433-.243.745v3.908h-2.003v-3.95c0-.304-.082-.544-.247-.72a.849.849 0 0 0-.652-.265.88.88 0 0 0-.809.499 1.279 1.279 0 0 0-.116.562v3.874h-2.083Zm14.101-3.435c0-1.054.142-2.022.426-2.906a7.746 7.746 0 0 1 1.329-2.467h2.02a5.339 5.339 0 0 0-.635 1.027 8.936 8.936 0 0 0-.511 1.325c-.142.48-.254.977-.337 1.492a10.057 10.057 0 0 0-.119 1.529c0 .671.069 1.348.209 2.033.139.682.329 1.314.571 1.896.241.586.515 1.066.822 1.441h-2.02a7.77 7.77 0 0 1-1.329-2.463c-.284-.887-.426-1.856-.426-2.907Zm4.684 3.435v-6.545h2.084v6.545h-2.084Zm1.044-7.308c-.293 0-.544-.097-.754-.29a.931.931 0 0 1-.316-.707c0-.273.105-.506.316-.699.21-.196.461-.294.754-.294.295 0 .547.098.754.294.21.193.315.426.315.699a.933.933 0 0 1-.315.707c-.207.193-.459.29-.754.29Zm4.45 3.575v3.733h-2.084v-6.545h1.982v1.201h.072c.145-.4.392-.714.741-.942.35-.23.766-.345 1.249-.345.46 0 .859.104 1.197.311.341.205.606.492.793.861.19.367.284.796.281 1.287v4.172h-2.083v-3.763c.002-.363-.09-.648-.277-.852-.185-.205-.442-.307-.772-.307-.219 0-.412.048-.579.145a.963.963 0 0 0-.384.405 1.457 1.457 0 0 0-.136.639Zm11.236-.814-1.913.051a.716.716 0 0 0-.162-.362.86.86 0 0 0-.346-.251 1.166 1.166 0 0 0-.485-.094c-.242 0-.448.048-.618.145-.168.096-.25.227-.247.392a.417.417 0 0 0 .153.332c.108.094.3.169.575.226l1.262.239c.653.125 1.139.332 1.457.622.321.29.483.673.486 1.15-.003.449-.136.84-.401 1.172-.261.333-.619.591-1.074.776-.454.182-.974.273-1.559.273-.935 0-1.672-.192-2.212-.576a2.144 2.144 0 0 1-.92-1.551l2.058-.051c.045.239.163.42.354.545.19.125.433.188.728.188.267 0 .485-.05.652-.149.168-.1.253-.232.256-.396a.42.42 0 0 0-.196-.354c-.128-.091-.328-.162-.601-.213l-1.142-.218c-.656-.119-1.145-.339-1.466-.66-.321-.324-.48-.736-.477-1.236-.003-.437.114-.811.349-1.121.236-.312.571-.551 1.006-.716.435-.164.947-.247 1.538-.247.887 0 1.586.186 2.097.559.511.369.794.877.848 1.525Zm1.188 4.547v-6.545h2.084v6.545h-2.084Zm1.044-7.308c-.293 0-.544-.097-.754-.29a.931.931 0 0 1-.316-.707c0-.273.105-.506.316-.699.21-.196.461-.294.754-.294.295 0 .547.098.754.294.21.193.315.426.315.699a.933.933 0 0 1-.315.707c-.207.193-.459.29-.754.29Zm4.757 7.402c-.483 0-.922-.125-1.317-.375-.395-.25-.71-.625-.946-1.125s-.354-1.121-.354-1.862c0-.77.122-1.404.367-1.901.244-.497.563-.865.958-1.104a2.459 2.459 0 0 1 1.283-.358c.344 0 .638.06.882.179.244.117.446.267.605.452.159.185.28.376.362.575h.043v-3.302h2.084v8.727h-2.063v-1.061h-.064a2.038 2.038 0 0 1-.375.567 1.8 1.8 0 0 1-.609.426 2.082 2.082 0 0 1-.856.162Zm.724-1.624c.253 0 .469-.071.648-.213.179-.145.316-.348.413-.609.097-.262.145-.568.145-.921 0-.358-.048-.666-.145-.924a1.272 1.272 0 0 0-.413-.597 1.025 1.025 0 0 0-.648-.209c-.259 0-.477.071-.656.213a1.314 1.314 0 0 0-.409.601 2.764 2.764 0 0 0-.137.916c0 .353.047.659.141.921.094.261.229.464.405.609.179.142.397.213.656.213Zm7.62 1.654c-.684 0-1.275-.135-1.772-.405a2.798 2.798 0 0 1-1.142-1.164c-.265-.505-.397-1.106-.397-1.802 0-.676.134-1.267.401-1.773a2.899 2.899 0 0 1 1.129-1.185c.486-.284 1.058-.426 1.717-.426.466 0 .893.073 1.279.218.386.145.72.359 1.001.643.282.284.5.635.657 1.053.156.414.234.89.234 1.427v.52h-5.689v-1.21h3.75a1.165 1.165 0 0 0-.158-.592 1.061 1.061 0 0 0-.422-.405 1.21 1.21 0 0 0-.609-.149c-.233 0-.442.052-.626.157a1.19 1.19 0 0 0-.61 1.023v1.232c0 .267.053.501.158.703.105.198.254.353.447.464.194.111.424.166.691.166.184 0 .352-.025.503-.076.15-.052.279-.127.387-.226a.937.937 0 0 0 .243-.367l1.914.056c-.08.429-.255.802-.525 1.12a2.654 2.654 0 0 1-1.052.738c-.435.173-.938.26-1.509.26Zm7.533-3.559c0 1.051-.142 2.02-.426 2.907a7.77 7.77 0 0 1-1.329 2.463h-2.02c.23-.282.442-.624.635-1.027.196-.404.365-.846.507-1.326.145-.48.257-.977.337-1.491a9.677 9.677 0 0 0 .123-1.526c0-.673-.069-1.351-.209-2.032a10.255 10.255 0 0 0-.571-1.901c-.241-.585-.515-1.065-.822-1.44h2.02a7.746 7.746 0 0 1 1.329 2.467c.284.884.426 1.852.426 2.906Z"/></g><g filter="url(#l)"><rect width="305" height="60" x="44" y="623.5" fill="#F9FAFB" rx="20" shape-rendering="crispEdges"/><rect width="300" height="55" x="46.5" y="626" stroke="#D1D5DB" stroke-width="5" rx="17.5" shape-rendering="crispEdges"/><path fill="#6B7280" d="M143.771 659.5v-10.182h4.206c.762 0 1.42.138 1.973.413.557.272.986.663 1.288 1.173.302.507.452 1.109.452 1.805 0 .706-.154 1.306-.462 1.8a2.95 2.95 0 0 1-1.313 1.123c-.566.255-1.237.383-2.013.383h-2.66v-1.939h2.203c.371 0 .681-.048.929-.144.252-.1.443-.249.572-.448.129-.202.194-.46.194-.775s-.065-.575-.194-.781a1.166 1.166 0 0 0-.572-.467c-.252-.106-.561-.159-.929-.159h-1.213v8.198h-2.461Zm5.732-4.653 2.535 4.653h-2.684l-2.486-4.653h2.635Zm6.951 4.797c-.802 0-1.491-.164-2.068-.492a3.39 3.39 0 0 1-1.327-1.382c-.308-.593-.463-1.281-.463-2.063 0-.786.155-1.474.463-2.064a3.354 3.354 0 0 1 1.327-1.382c.577-.331 1.266-.497 2.068-.497s1.49.166 2.064.497a3.318 3.318 0 0 1 1.327 1.382c.312.59.467 1.278.467 2.064 0 .782-.155 1.47-.467 2.063a3.353 3.353 0 0 1-1.327 1.382c-.574.328-1.262.492-2.064.492Zm.015-1.834c.292 0 .539-.09.741-.269.202-.179.356-.427.462-.746.11-.318.164-.686.164-1.103 0-.424-.054-.796-.164-1.114-.106-.318-.26-.567-.462-.746a1.077 1.077 0 0 0-.741-.268c-.301 0-.557.089-.765.268-.206.179-.363.428-.473.746a3.53 3.53 0 0 0-.159 1.114c0 .417.053.785.159 1.103.11.319.267.567.473.746.208.179.464.269.765.269Zm9.399-5.946v1.789h-4.817v-1.789h4.817Zm-3.808-1.83h2.431v7.065c0 .149.023.27.07.363a.437.437 0 0 0 .213.194.922.922 0 0 0 .333.054c.093 0 .191-.008.294-.025.106-.02.185-.036.238-.049l.368 1.755c-.116.033-.28.074-.492.124-.209.05-.459.081-.751.094-.57.027-1.059-.039-1.466-.198a1.908 1.908 0 0 1-.93-.756c-.212-.342-.315-.771-.308-1.288v-7.333Zm7.201 9.595c-.487 0-.92-.081-1.297-.243a2.02 2.02 0 0 1-.89-.746c-.216-.335-.323-.754-.323-1.258 0-.424.074-.782.223-1.074.149-.291.355-.528.617-.711.262-.182.563-.32.905-.412a5.872 5.872 0 0 1 1.093-.194c.434-.04.784-.081 1.049-.125.265-.046.458-.111.577-.193a.42.42 0 0 0 .184-.363v-.025c0-.255-.088-.453-.264-.592-.175-.139-.412-.209-.71-.209-.322 0-.58.07-.776.209a.919.919 0 0 0-.373.577l-2.242-.08c.066-.464.237-.878.512-1.243.278-.367.66-.656 1.143-.865.488-.212 1.073-.318 1.755-.318.488 0 .937.058 1.348.174.411.113.769.279 1.074.497.305.216.54.481.706.796.169.315.253.674.253 1.079v5.19h-2.287v-1.064h-.059c-.136.259-.31.477-.523.656a2.063 2.063 0 0 1-.74.403c-.282.09-.6.134-.955.134Zm.751-1.591c.262 0 .497-.053.706-.159.212-.106.381-.252.507-.437.126-.189.189-.408.189-.656v-.726c-.07.036-.154.069-.254.099a4.473 4.473 0 0 1-.676.154l-.353.055a2.188 2.188 0 0 0-.586.169.922.922 0 0 0-.368.298.732.732 0 0 0-.125.428c0 .252.09.444.269.576.182.133.412.199.691.199Zm9.61-6.174v1.789h-4.817v-1.789h4.817Zm-3.808-1.83h2.431v7.065c0 .149.023.27.069.363.05.089.121.154.214.194a.922.922 0 0 0 .333.054c.093 0 .191-.008.294-.025.106-.02.185-.036.238-.049l.368 1.755c-.116.033-.28.074-.492.124-.209.05-.459.081-.751.094-.57.027-1.059-.039-1.466-.198a1.904 1.904 0 0 1-.93-.756c-.212-.342-.315-.771-.308-1.288v-7.333Zm5.048 9.466v-7.636h2.432v7.636h-2.432Zm1.218-8.526a1.26 1.26 0 0 1-.88-.338 1.09 1.09 0 0 1-.367-.826c0-.318.122-.59.367-.815.246-.229.539-.343.88-.343.345 0 .638.114.88.343.246.225.368.497.368.815 0 .322-.122.597-.368.826a1.246 1.246 0 0 1-.88.338Zm6.326 8.67c-.803 0-1.492-.164-2.069-.492a3.39 3.39 0 0 1-1.327-1.382c-.308-.593-.462-1.281-.462-2.063 0-.786.154-1.474.462-2.064a3.354 3.354 0 0 1 1.327-1.382c.577-.331 1.266-.497 2.069-.497.802 0 1.489.166 2.063.497a3.318 3.318 0 0 1 1.327 1.382c.312.59.467 1.278.467 2.064 0 .782-.155 1.47-.467 2.063a3.353 3.353 0 0 1-1.327 1.382c-.574.328-1.261.492-2.063.492Zm.014-1.834c.292 0 .539-.09.741-.269.202-.179.357-.427.463-.746a3.4 3.4 0 0 0 .164-1.103 3.44 3.44 0 0 0-.164-1.114c-.106-.318-.261-.567-.463-.746a1.077 1.077 0 0 0-.741-.268c-.301 0-.556.089-.765.268-.206.179-.363.428-.472.746a3.5 3.5 0 0 0-.16 1.114c0 .417.053.785.16 1.103.109.319.266.567.472.746.209.179.464.269.765.269Zm7.52-2.665v4.355h-2.431v-7.636h2.312v1.402h.084c.169-.468.458-.834.865-1.099.408-.269.893-.403 1.457-.403.537 0 1.003.121 1.397.363.398.239.706.574.925 1.004.222.428.331.928.328 1.502v4.867h-2.431v-4.39c.003-.424-.105-.756-.323-.994-.216-.239-.516-.358-.9-.358-.256 0-.481.056-.676.169a1.117 1.117 0 0 0-.448.472 1.691 1.691 0 0 0-.159.746ZM119.939 645.77a1.028 1.028 0 0 1 .378-1.083 1.02 1.02 0 0 1 .362-.174 9.282 9.282 0 0 1 4.641 0 1.029 1.029 0 0 1 .587 1.63 1.028 1.028 0 0 1-1.103.366 7.232 7.232 0 0 0-3.609 0 1.03 1.03 0 0 1-1.256-.739Zm-3.562 1.228a9.29 9.29 0 0 0-2.32 4.018 1.039 1.039 0 0 0 .719 1.27 1.026 1.026 0 0 0 .899-.174c.18-.137.31-.328.37-.546a7.21 7.21 0 0 1 1.804-3.123 1.037 1.037 0 0 0 .296-.732 1.042 1.042 0 0 0-.309-.727 1.031 1.031 0 0 0-1.459.014Zm-.333 8.434a1.033 1.033 0 0 0-1.987.552 9.28 9.28 0 0 0 2.32 4.02 1.035 1.035 0 0 0 1.418-.029 1.034 1.034 0 0 0 .048-1.418 7.222 7.222 0 0 1-1.799-3.125Zm8.76 5.059a7.209 7.209 0 0 1-3.609 0 1.021 1.021 0 0 0-.796.097 1.04 1.04 0 0 0-.486.637 1.039 1.039 0 0 0 .394 1.093c.112.081.238.138.372.169a9.282 9.282 0 0 0 4.641 0 1.029 1.029 0 0 0 .587-1.63 1.028 1.028 0 0 0-1.103-.366Zm6.422-5.777a1.033 1.033 0 0 0-1.265.72 7.221 7.221 0 0 1-1.805 3.123 1.035 1.035 0 0 0 .013 1.459 1.03 1.03 0 0 0 1.458-.013 9.293 9.293 0 0 0 2.32-4.019 1.034 1.034 0 0 0-.098-.785 1.029 1.029 0 0 0-.624-.485h.001Zm-1.27-3.146a1.033 1.033 0 0 0 1.987-.552 9.28 9.28 0 0 0-2.32-4.02 1.037 1.037 0 0 0-1.145-.273 1.03 1.03 0 0 0-.322 1.72 7.212 7.212 0 0 1 1.799 3.125h.001Z"/><path fill="#00B5F6" d="M344 652.65c0-8.542 0-12.814-1.689-16.065a15.003 15.003 0 0 0-6.396-6.396c-3.251-1.689-7.523-1.689-16.065-1.689H274v25h70v-.85Z"/><path fill="#5BE2AA" d="M344 653.5h-70v25h45.85c8.542 0 12.814 0 16.065-1.689a15.003 15.003 0 0 0 6.396-6.396C344 667.164 344 662.892 344 654.35v-.85Z"/></g><g filter="url(#m)"><rect width="126" height="21" x="49" y="613.5" fill="#6B7280" rx="10.5"/><path fill="#E7F3FB" d="M56.66 628.5v-8.727h2.11v3.503h3.439v-3.503h2.105v8.727h-2.105v-3.507h-3.44v3.507h-2.108Zm8.977 0v-6.545h2.084v6.545h-2.084Zm1.044-7.308c-.293 0-.544-.097-.754-.29a.933.933 0 0 1-.316-.707c0-.273.106-.506.316-.699.21-.196.461-.294.754-.294.296 0 .547.098.754.294.21.193.316.426.316.699a.933.933 0 0 1-.316.707c-.207.193-.458.29-.754.29Zm5.417 9.899c-.622 0-1.154-.087-1.598-.26-.443-.173-.79-.411-1.044-.712a1.97 1.97 0 0 1-.456-1.022l1.973-.111a.78.78 0 0 0 .205.349c.102.1.234.176.396.23.165.054.358.081.58.081.35 0 .638-.085.865-.255.23-.168.345-.462.345-.882v-1.151h-.073a1.543 1.543 0 0 1-.374.541 1.781 1.781 0 0 1-.627.375 2.458 2.458 0 0 1-.852.137c-.477 0-.915-.111-1.313-.333-.394-.224-.711-.571-.95-1.04-.236-.471-.354-1.078-.354-1.819 0-.764.123-1.394.367-1.888.244-.497.564-.865.959-1.104a2.456 2.456 0 0 1 1.282-.358c.344 0 .638.06.882.179.248.117.45.267.61.452.159.185.28.376.362.575h.06v-1.12h2.075v6.571c0 .554-.14 1.021-.418 1.402-.278.38-.667.669-1.167.865-.5.198-1.078.298-1.735.298Zm.064-4.198c.253 0 .469-.066.648-.2.179-.133.317-.325.413-.575.097-.25.145-.55.145-.899 0-.355-.048-.661-.145-.916a1.273 1.273 0 0 0-.413-.597 1.025 1.025 0 0 0-.648-.209c-.258 0-.477.071-.656.213a1.321 1.321 0 0 0-.41.601c-.09.256-.135.558-.135.908 0 .349.046.649.14.899.094.25.229.442.405.575.179.134.398.2.656.2Zm6.668-2.126v3.733h-2.084v-8.727h2.016v3.383h.073c.147-.403.389-.719.724-.946.338-.227.751-.341 1.24-.341.46 0 .86.103 1.202.307.34.202.605.487.792.857.19.369.284.801.282 1.295v4.172H80.99v-3.763c.003-.363-.088-.648-.273-.852-.185-.205-.445-.307-.78-.307-.219 0-.412.048-.58.145a.99.99 0 0 0-.387.405c-.091.176-.138.389-.14.639Zm11.818-2.812v1.534h-4.13v-1.534h4.13Zm-3.264-1.569h2.084v6.056c0 .128.02.231.06.311a.37.37 0 0 0 .183.166c.08.031.174.047.285.047.08 0 .163-.007.252-.021.09-.017.159-.032.204-.043l.315 1.504c-.099.029-.24.064-.421.107a3.614 3.614 0 0 1-.644.081c-.489.022-.908-.034-1.257-.171a1.63 1.63 0 0 1-.797-.647c-.182-.293-.27-.661-.264-1.104v-6.286Zm7.312 8.238c-.687 0-1.278-.141-1.772-.422a2.909 2.909 0 0 1-1.138-1.185c-.264-.508-.396-1.098-.396-1.768 0-.674.132-1.263.396-1.769a2.885 2.885 0 0 1 1.138-1.185c.494-.284 1.085-.426 1.772-.426.688 0 1.277.142 1.769.426a2.85 2.85 0 0 1 1.138 1.185c.267.506.4 1.095.4 1.769 0 .67-.133 1.26-.4 1.768a2.873 2.873 0 0 1-1.138 1.185c-.492.281-1.081.422-1.769.422Zm.013-1.573c.25 0 .462-.077.635-.23.173-.153.306-.366.396-.639.094-.273.141-.588.141-.946 0-.364-.047-.682-.14-.955a1.44 1.44 0 0 0-.397-.639.926.926 0 0 0-.635-.23.976.976 0 0 0-.656.23 1.452 1.452 0 0 0-.405.639c-.09.273-.136.591-.136.955 0 .358.045.673.136.946.094.273.229.486.405.639.179.153.398.23.656.23Zm4.362 1.449v-6.545h1.981v1.201h.073c.136-.397.366-.711.69-.942.324-.23.71-.345 1.159-.345.455 0 .844.117 1.168.35.324.233.53.545.618.937h.068a1.7 1.7 0 0 1 .716-.933c.355-.236.774-.354 1.257-.354.619 0 1.122.199 1.508.597.387.395.58.937.58 1.628v4.406h-2.084v-3.929c0-.327-.084-.575-.251-.746a.868.868 0 0 0-.652-.26c-.287 0-.513.094-.678.282-.162.184-.243.433-.243.745v3.908h-2.003v-3.95c0-.304-.082-.544-.247-.72a.849.849 0 0 0-.652-.265.88.88 0 0 0-.809.499 1.279 1.279 0 0 0-.116.562v3.874h-2.083Zm14.101-3.435c0-1.054.142-2.022.426-2.906a7.746 7.746 0 0 1 1.329-2.467h2.02a5.339 5.339 0 0 0-.635 1.027 8.936 8.936 0 0 0-.511 1.325c-.142.48-.254.977-.337 1.492a10.057 10.057 0 0 0-.119 1.529c0 .671.069 1.348.209 2.033.139.682.329 1.314.571 1.896.241.586.515 1.066.822 1.441h-2.02a7.77 7.77 0 0 1-1.329-2.463c-.284-.887-.426-1.856-.426-2.907Zm7.704 3.559c-.687 0-1.278-.141-1.773-.422a2.91 2.91 0 0 1-1.137-1.185c-.265-.508-.397-1.098-.397-1.768 0-.674.132-1.263.397-1.769a2.886 2.886 0 0 1 1.137-1.185c.495-.284 1.086-.426 1.773-.426.688 0 1.277.142 1.769.426.494.282.873.677 1.137 1.185.267.506.401 1.095.401 1.769 0 .67-.134 1.26-.401 1.768a2.872 2.872 0 0 1-1.137 1.185c-.492.281-1.081.422-1.769.422Zm.013-1.573c.25 0 .461-.077.635-.23.173-.153.305-.366.396-.639.094-.273.141-.588.141-.946 0-.364-.047-.682-.141-.955a1.443 1.443 0 0 0-.396-.639.927.927 0 0 0-.635-.23.974.974 0 0 0-.656.23 1.447 1.447 0 0 0-.405.639 3.02 3.02 0 0 0-.137.955c0 .358.046.673.137.946.094.273.228.486.405.639.179.153.397.23.656.23Zm8.584-1.376v-3.72h2.08v6.545h-1.986v-1.219h-.068a1.902 1.902 0 0 1-.742.955c-.346.233-.765.349-1.257.349-.446 0-.838-.102-1.176-.307a2.085 2.085 0 0 1-.788-.856c-.188-.369-.283-.801-.286-1.296v-4.171h2.084v3.762c.003.355.097.635.281.84.185.204.436.307.755.307.207 0 .393-.046.558-.137a.99.99 0 0 0 .396-.405c.1-.179.149-.394.149-.647Zm7.101-3.72v1.534h-4.129v-1.534h4.129Zm-3.264-1.569h2.083v6.056c0 .128.02.231.06.311a.374.374 0 0 0 .183.166.79.79 0 0 0 .286.047c.079 0 .163-.007.251-.021.091-.017.159-.032.205-.043l.315 1.504a9.06 9.06 0 0 1-.422.107 3.61 3.61 0 0 1-.643.081c-.489.022-.908-.034-1.257-.171a1.631 1.631 0 0 1-.797-.647c-.182-.293-.27-.661-.264-1.104v-6.286Zm9.96 3.567-1.914.051a.716.716 0 0 0-.162-.362.863.863 0 0 0-.345-.251 1.167 1.167 0 0 0-.486-.094c-.241 0-.447.048-.618.145-.167.096-.25.227-.247.392a.418.418 0 0 0 .154.332c.108.094.299.169.575.226l1.261.239c.654.125 1.139.332 1.458.622.321.29.483.673.485 1.15-.002.449-.136.84-.4 1.172-.261.333-.619.591-1.074.776-.455.182-.974.273-1.56.273-.934 0-1.672-.192-2.211-.576a2.148 2.148 0 0 1-.921-1.551l2.059-.051a.8.8 0 0 0 .353.545c.191.125.433.188.729.188.267 0 .484-.05.652-.149.167-.1.253-.232.256-.396a.423.423 0 0 0-.196-.354c-.128-.091-.329-.162-.601-.213l-1.142-.218c-.657-.119-1.145-.339-1.466-.66-.321-.324-.48-.736-.478-1.236-.002-.437.114-.811.35-1.121.236-.312.571-.551 1.006-.716.434-.164.947-.247 1.538-.247.886 0 1.585.186 2.097.559.511.369.794.877.848 1.525Zm1.187 4.547v-6.545h2.084v6.545h-2.084Zm1.044-7.308c-.292 0-.544-.097-.754-.29a.933.933 0 0 1-.315-.707c0-.273.105-.506.315-.699.21-.196.462-.294.754-.294.296 0 .547.098.755.294.21.193.315.426.315.699a.933.933 0 0 1-.315.707 1.07 1.07 0 0 1-.755.29Zm4.757 7.402c-.483 0-.922-.125-1.317-.375-.394-.25-.71-.625-.946-1.125-.235-.5-.353-1.121-.353-1.862 0-.77.122-1.404.366-1.901.244-.497.564-.865.959-1.104a2.456 2.456 0 0 1 1.283-.358c.343 0 .637.06.882.179.244.117.446.267.605.452.159.185.28.376.362.575h.043v-3.302h2.083v8.727h-2.062v-1.061h-.064a2.038 2.038 0 0 1-.375.567 1.81 1.81 0 0 1-.609.426 2.087 2.087 0 0 1-.857.162Zm.725-1.624c.252 0 .468-.071.647-.213a1.38 1.38 0 0 0 .414-.609 2.67 2.67 0 0 0 .145-.921c0-.358-.049-.666-.145-.924a1.274 1.274 0 0 0-.414-.597 1.024 1.024 0 0 0-.647-.209c-.259 0-.478.071-.657.213a1.322 1.322 0 0 0-.409.601 2.766 2.766 0 0 0-.136.916c0 .353.047.659.141.921.093.261.228.464.404.609.179.142.398.213.657.213Zm7.62 1.654c-.685 0-1.276-.135-1.773-.405a2.804 2.804 0 0 1-1.142-1.164c-.264-.505-.396-1.106-.396-1.802 0-.676.133-1.267.4-1.773a2.907 2.907 0 0 1 1.13-1.185c.486-.284 1.058-.426 1.717-.426.466 0 .892.073 1.278.218.387.145.721.359 1.002.643.281.284.5.635.656 1.053.156.414.235.89.235 1.427v.52h-5.689v-1.21h3.75a1.175 1.175 0 0 0-.158-.592 1.061 1.061 0 0 0-.422-.405 1.21 1.21 0 0 0-.609-.149c-.233 0-.442.052-.627.157a1.17 1.17 0 0 0-.609 1.023v1.232c0 .267.052.501.158.703.105.198.254.353.447.464.193.111.423.166.69.166.185 0 .353-.025.503-.076a1.09 1.09 0 0 0 .388-.226.937.937 0 0 0 .243-.367l1.913.056a2.357 2.357 0 0 1-.524 1.12 2.661 2.661 0 0 1-1.052.738c-.435.173-.938.26-1.509.26Zm7.533-3.559c0 1.051-.142 2.02-.426 2.907a7.753 7.753 0 0 1-1.33 2.463h-2.02a5.07 5.07 0 0 0 .635-1.027c.196-.404.365-.846.507-1.326.145-.48.258-.977.337-1.491a9.562 9.562 0 0 0 .124-1.526c0-.673-.07-1.351-.209-2.032a10.332 10.332 0 0 0-.571-1.901c-.242-.585-.516-1.065-.823-1.44h2.02a7.73 7.73 0 0 1 1.33 2.467c.284.884.426 1.852.426 2.906Z"/></g><g filter="url(#n)"><rect width="305" height="60" x="44" y="708.5" fill="#F9FAFB" rx="20" shape-rendering="crispEdges"/><rect width="300" height="55" x="46.5" y="711" stroke="#D1D5DB" stroke-width="5" rx="17.5" shape-rendering="crispEdges"/><path fill="#6B7280" d="M143.771 744.5v-10.182h2.461v8.183h4.235v1.999h-6.696Zm7.97 0v-7.636h2.431v7.636h-2.431Zm1.218-8.526a1.26 1.26 0 0 1-.88-.338 1.09 1.09 0 0 1-.368-.826c0-.318.123-.59.368-.815.246-.229.539-.343.88-.343.345 0 .638.114.88.343.246.225.368.497.368.815 0 .322-.122.597-.368.826a1.246 1.246 0 0 1-.88.338Zm6.32 11.549c-.725 0-1.347-.101-1.864-.304-.517-.202-.923-.478-1.218-.83a2.3 2.3 0 0 1-.532-1.193l2.302-.129a.908.908 0 0 0 .239.407c.119.116.273.206.462.269.192.063.418.094.676.094.408 0 .744-.099 1.009-.298.269-.195.403-.539.403-1.029v-1.342h-.084a1.82 1.82 0 0 1-.438.631 2.086 2.086 0 0 1-.731.438c-.288.106-.62.159-.994.159-.557 0-1.067-.13-1.531-.388-.461-.262-.831-.666-1.109-1.213-.275-.55-.413-1.258-.413-2.123 0-.892.143-1.626.428-2.203.285-.58.658-1.009 1.118-1.287a2.857 2.857 0 0 1 1.497-.418c.401 0 .744.07 1.029.209.288.136.525.312.711.527a2.5 2.5 0 0 1 .423.671h.069v-1.307h2.421v7.666c0 .646-.162 1.191-.487 1.635-.325.445-.779.781-1.362 1.01-.583.232-1.258.348-2.024.348Zm.075-4.897c.295 0 .547-.078.756-.234.209-.156.369-.379.482-.671.113-.292.169-.641.169-1.049 0-.414-.056-.771-.169-1.069a1.48 1.48 0 0 0-.482-.696 1.198 1.198 0 0 0-.756-.244c-.302 0-.557.083-.766.249a1.547 1.547 0 0 0-.477.701 3.165 3.165 0 0 0-.159 1.059c0 .408.055.757.164 1.049.109.292.267.515.472.671.209.156.464.234.766.234Zm7.779-2.481v4.355h-2.431v-10.182h2.352v3.948h.084c.173-.471.454-.839.845-1.104.395-.265.877-.398 1.447-.398.537 0 1.004.12 1.402.358.398.235.706.569.925.999.222.431.331.935.328 1.512v4.867h-2.431v-4.39c.003-.424-.103-.756-.318-.994-.216-.239-.519-.358-.91-.358-.255 0-.481.056-.676.169a1.159 1.159 0 0 0-.453.472c-.106.206-.16.454-.164.746Zm10.78-3.281v1.789h-4.817v-1.789h4.817Zm-3.808-1.83h2.431v7.065c0 .149.023.27.069.363.05.089.121.154.214.194a.922.922 0 0 0 .333.054c.093 0 .191-.008.294-.025.106-.02.185-.036.238-.049l.368 1.755c-.116.033-.28.074-.492.124-.209.05-.459.081-.751.094-.57.027-1.059-.039-1.466-.198a1.904 1.904 0 0 1-.93-.756c-.212-.342-.315-.771-.308-1.288v-7.333Z"/><g clip-path="url(#o)"><path fill="#6B7280" d="M114.75 735.75a8.25 8.25 0 1 1 13.989 5.926c-.279.27-.493.55-.623.851l-1.047 2.433a.683.683 0 0 1-.631.415.687.687 0 1 1 0 1.375.687.687 0 1 1 0 1.375l-.308.615a1.381 1.381 0 0 1-1.23.76h-3.8a1.372 1.372 0 0 1-1.229-.76l-.308-.615a.688.688 0 1 1 0-1.375.688.688 0 1 1 0-1.375.687.687 0 0 1-.633-.415l-1.046-2.434a2.763 2.763 0 0 0-.623-.85 8.226 8.226 0 0 1-2.511-5.926Zm8.25-6.875a6.873 6.873 0 0 0-6.727 8.297 6.878 6.878 0 0 0 1.943 3.517c.362.349.707.776.93 1.294l.87 2.017h5.971l.869-2.017c.222-.518.567-.945.929-1.294a6.873 6.873 0 0 0-.942-10.641 6.87 6.87 0 0 0-3.843-1.173Z"/></g><path fill="#E25B9E" d="M344 737.65c0-8.542 0-12.814-1.689-16.065a15.003 15.003 0 0 0-6.396-6.396c-3.251-1.689-7.523-1.689-16.065-1.689H274v50h45.85c8.542 0 12.814 0 16.065-1.689a15.003 15.003 0 0 0 6.396-6.396C344 752.164 344 747.892 344 739.35v-1.7Z"/></g><g filter="url(#p)"><rect width="111" height="21" x="49" y="698.5" fill="#6B7280" rx="10.5"/><path fill="#F9FAFB" d="M56.66 704.773h2.613l2.216 5.403h.102l2.216-5.403h2.612v8.727h-2.054v-5.361h-.072l-2.097 5.306h-1.313l-2.096-5.336h-.072v5.391H56.66v-8.727Zm11.075 8.727v-6.545h2.084v6.545h-2.084Zm1.044-7.308c-.293 0-.544-.097-.754-.29a.933.933 0 0 1-.316-.707c0-.273.105-.506.316-.699.21-.196.461-.294.754-.294.295 0 .547.098.754.294.21.193.315.426.315.699a.933.933 0 0 1-.315.707c-.207.193-.459.29-.754.29Zm4.757 7.402a2.41 2.41 0 0 1-1.317-.375c-.395-.25-.71-.625-.946-1.125s-.354-1.121-.354-1.862c0-.77.122-1.404.367-1.901.244-.497.563-.865.958-1.104a2.456 2.456 0 0 1 1.283-.358c.344 0 .638.06.882.179.244.117.446.267.605.452.16.185.28.376.362.575h.043v-3.302h2.084v8.727H75.44v-1.061h-.064a2.038 2.038 0 0 1-.375.567 1.807 1.807 0 0 1-.609.426 2.084 2.084 0 0 1-.856.162Zm.724-1.624c.253 0 .469-.071.648-.213.179-.145.316-.348.413-.609.097-.262.145-.568.145-.921 0-.358-.048-.666-.145-.924a1.272 1.272 0 0 0-.413-.597 1.025 1.025 0 0 0-.648-.209c-.259 0-.477.071-.656.213a1.32 1.32 0 0 0-.41.601c-.09.259-.136.564-.136.916 0 .353.047.659.14.921.095.261.23.464.406.609.179.142.397.213.656.213Zm10.833-5.015v1.534h-4.129v-1.534h4.13Zm-3.264-1.569h2.084v6.056c0 .128.02.231.06.311a.37.37 0 0 0 .183.166c.08.031.175.047.285.047.08 0 .164-.007.252-.021.09-.017.159-.032.204-.043l.316 1.504c-.1.029-.24.064-.422.107a3.613 3.613 0 0 1-.644.081c-.488.022-.907-.034-1.257-.171a1.631 1.631 0 0 1-.797-.647c-.181-.293-.27-.661-.264-1.104v-6.286Zm7.313 8.238c-.688 0-1.279-.141-1.773-.422a2.909 2.909 0 0 1-1.138-1.185c-.264-.508-.396-1.098-.396-1.768 0-.674.132-1.263.396-1.769a2.885 2.885 0 0 1 1.138-1.185c.494-.284 1.085-.426 1.773-.426.687 0 1.277.142 1.768.426a2.85 2.85 0 0 1 1.138 1.185c.267.506.4 1.095.4 1.769 0 .67-.133 1.26-.4 1.768a2.873 2.873 0 0 1-1.138 1.185c-.491.281-1.08.422-1.768.422Zm.013-1.573c.25 0 .461-.077.634-.23.174-.153.306-.366.397-.639.093-.273.14-.588.14-.946 0-.364-.046-.682-.14-.955a1.44 1.44 0 0 0-.397-.639.926.926 0 0 0-.635-.23.976.976 0 0 0-.656.23 1.452 1.452 0 0 0-.405.639c-.09.273-.136.591-.136.955 0 .358.046.673.136.946.094.273.23.486.405.639.18.153.398.23.656.23Zm4.361 1.449v-6.545h1.981v1.201h.073c.136-.397.366-.711.69-.942.324-.23.71-.345 1.16-.345.454 0 .843.117 1.167.35.324.233.53.545.618.937h.068a1.7 1.7 0 0 1 .716-.933c.355-.236.774-.354 1.257-.354.619 0 1.122.199 1.509.597.386.395.579.937.579 1.628v4.406h-2.084v-3.929c0-.327-.083-.575-.251-.746a.868.868 0 0 0-.652-.26c-.287 0-.513.094-.678.282-.162.184-.242.433-.242.745v3.908h-2.003v-3.95c0-.304-.083-.544-.248-.72a.849.849 0 0 0-.651-.265.882.882 0 0 0-.81.499 1.283 1.283 0 0 0-.115.562v3.874h-2.084Zm14.101-3.435c0-1.054.142-2.022.426-2.906a7.73 7.73 0 0 1 1.33-2.467h2.019a5.339 5.339 0 0 0-.635 1.027 8.936 8.936 0 0 0-.511 1.325c-.142.48-.254.977-.337 1.492a10.057 10.057 0 0 0-.119 1.529c0 .671.07 1.348.209 2.033.139.682.329 1.314.571 1.896.241.586.516 1.066.822 1.441h-2.019a7.753 7.753 0 0 1-1.33-2.463c-.284-.887-.426-1.856-.426-2.907Zm4.684 3.435v-6.545h2.084v6.545h-2.084Zm1.044-7.308c-.292 0-.544-.097-.754-.29a.933.933 0 0 1-.315-.707c0-.273.105-.506.315-.699.21-.196.462-.294.754-.294.296 0 .547.098.754.294a.913.913 0 0 1 .316.699.931.931 0 0 1-.316.707c-.207.193-.458.29-.754.29Zm4.45 3.575v3.733h-2.084v-6.545h1.982v1.201h.072c.145-.4.392-.714.742-.942.349-.23.765-.345 1.248-.345.461 0 .86.104 1.198.311.341.205.605.492.792.861.191.367.284.796.282 1.287v4.172h-2.084v-3.763c.003-.363-.09-.648-.277-.852-.185-.205-.442-.307-.771-.307-.219 0-.412.048-.58.145a.963.963 0 0 0-.384.405 1.457 1.457 0 0 0-.136.639Zm11.236-.814-1.913.051a.716.716 0 0 0-.162-.362.863.863 0 0 0-.345-.251 1.167 1.167 0 0 0-.486-.094c-.241 0-.447.048-.618.145-.168.096-.25.227-.247.392a.417.417 0 0 0 .153.332c.108.094.3.169.576.226l1.261.239c.653.125 1.139.332 1.457.622.321.29.483.673.486 1.15-.003.449-.136.84-.4 1.172-.262.333-.62.591-1.074.776-.455.182-.975.273-1.56.273-.935 0-1.672-.192-2.212-.576a2.15 2.15 0 0 1-.92-1.551l2.058-.051c.046.239.164.42.354.545.19.125.433.188.729.188.267 0 .484-.05.652-.149.167-.1.252-.232.255-.396a.42.42 0 0 0-.196-.354c-.128-.091-.328-.162-.601-.213l-1.142-.218c-.656-.119-1.145-.339-1.466-.66-.321-.324-.48-.736-.477-1.236-.003-.437.114-.811.35-1.121.235-.312.571-.551 1.005-.716.435-.164.948-.247 1.539-.247.886 0 1.585.186 2.096.559.512.369.794.877.848 1.525Zm1.188 4.547v-6.545h2.084v6.545h-2.084Zm1.044-7.308c-.292 0-.544-.097-.754-.29a.933.933 0 0 1-.315-.707c0-.273.105-.506.315-.699.21-.196.462-.294.754-.294.296 0 .547.098.754.294a.913.913 0 0 1 .316.699.931.931 0 0 1-.316.707c-.207.193-.458.29-.754.29Zm4.757 7.402c-.483 0-.922-.125-1.317-.375-.395-.25-.71-.625-.946-1.125s-.354-1.121-.354-1.862c0-.77.123-1.404.367-1.901.244-.497.564-.865.959-1.104a2.453 2.453 0 0 1 1.282-.358c.344 0 .638.06.882.179.245.117.446.267.606.452.159.185.279.376.362.575h.042v-3.302h2.084v8.727h-2.062v-1.061h-.064a2.038 2.038 0 0 1-.375.567 1.805 1.805 0 0 1-.61.426 2.082 2.082 0 0 1-.856.162Zm.724-1.624c.253 0 .469-.071.648-.213a1.37 1.37 0 0 0 .413-.609c.097-.262.145-.568.145-.921 0-.358-.048-.666-.145-.924a1.265 1.265 0 0 0-.413-.597 1.025 1.025 0 0 0-.648-.209c-.258 0-.477.071-.656.213a1.322 1.322 0 0 0-.409.601 2.766 2.766 0 0 0-.136.916c0 .353.046.659.14.921.094.261.229.464.405.609.179.142.398.213.656.213Zm7.621 1.654c-.685 0-1.276-.135-1.773-.405a2.804 2.804 0 0 1-1.142-1.164c-.264-.505-.396-1.106-.396-1.802 0-.676.133-1.267.4-1.773a2.905 2.905 0 0 1 1.129-1.185c.486-.284 1.059-.426 1.718-.426.466 0 .892.073 1.278.218.387.145.72.359 1.002.643.281.284.5.635.656 1.053.156.414.234.89.234 1.427v.52h-5.689v-1.21h3.75a1.175 1.175 0 0 0-.157-.592 1.068 1.068 0 0 0-.422-.405 1.212 1.212 0 0 0-.61-.149c-.233 0-.441.052-.626.157a1.18 1.18 0 0 0-.609 1.023v1.232c0 .267.052.501.157.703.105.198.255.353.448.464.193.111.423.166.69.166.185 0 .352-.025.503-.076a1.1 1.1 0 0 0 .388-.226.937.937 0 0 0 .243-.367l1.913.056c-.08.429-.254.802-.524 1.12a2.658 2.658 0 0 1-1.053.738c-.434.173-.937.26-1.508.26Zm7.533-3.559c0 1.051-.142 2.02-.426 2.907a7.773 7.773 0 0 1-1.33 2.463h-2.02c.23-.282.442-.624.635-1.027.196-.404.365-.846.507-1.326.145-.48.257-.977.337-1.491a9.677 9.677 0 0 0 .123-1.526c0-.673-.069-1.351-.208-2.032a10.41 10.41 0 0 0-.571-1.901c-.242-.585-.516-1.065-.823-1.44h2.02a7.75 7.75 0 0 1 1.33 2.467c.284.884.426 1.852.426 2.906Z"/></g><g filter="url(#q)"><g clip-path="url(#r)"><rect width="295" height="45" x="49" y="20" fill="#B9DBF2" rx="20"/><path fill="#274765" d="M155.586 35.455h3.793l4.006 9.772h.17l4.006-9.772h3.793V50h-2.983v-9.467h-.121l-3.764 9.396h-2.032l-3.764-9.432h-.121V50h-2.983V35.455Zm23.173 14.758c-1.103 0-2.057-.234-2.862-.703a4.807 4.807 0 0 1-1.853-1.974c-.436-.848-.654-1.83-.654-2.948 0-1.127.218-2.112.654-2.955a4.75 4.75 0 0 1 1.853-1.974c.805-.473 1.759-.71 2.862-.71 1.104 0 2.055.237 2.856.71a4.741 4.741 0 0 1 1.86 1.974c.436.843.654 1.828.654 2.955 0 1.117-.218 2.1-.654 2.947a4.797 4.797 0 0 1-1.86 1.975c-.801.469-1.752.703-2.856.703Zm.015-2.344c.502 0 .921-.142 1.257-.426.336-.289.589-.682.76-1.179.175-.497.262-1.063.262-1.697 0-.635-.087-1.2-.262-1.698-.171-.497-.424-.89-.76-1.179-.336-.288-.755-.433-1.257-.433-.507 0-.933.145-1.279.433-.341.29-.599.682-.774 1.18-.17.497-.256 1.062-.256 1.697 0 .634.086 1.2.256 1.697.175.497.433.89.774 1.18.346.283.772.425 1.279.425Zm11.342 2.309a4.115 4.115 0 0 1-2.251-.64c-.668-.43-1.198-1.063-1.591-1.896-.389-.838-.583-1.866-.583-3.082 0-1.25.201-2.29.604-3.118.402-.834.937-1.456 1.605-1.868a4.113 4.113 0 0 1 2.209-.625c.611 0 1.12.104 1.527.312.412.204.743.46.994.767.256.303.45.602.583.895h.092v-5.468h3.018V50h-2.983v-1.747h-.127a3.944 3.944 0 0 1-.604.902c-.256.293-.59.537-1.002.731-.407.194-.904.292-1.491.292Zm.959-2.408c.487 0 .899-.133 1.236-.398.34-.27.601-.646.781-1.13.184-.482.277-1.048.277-1.697 0-.648-.09-1.212-.27-1.69-.18-.478-.44-.847-.781-1.108-.341-.26-.756-.39-1.243-.39-.497 0-.916.135-1.257.404-.341.27-.599.644-.774 1.122-.176.479-.263 1.033-.263 1.662 0 .635.087 1.196.263 1.684.179.483.437.861.774 1.136.341.27.76.405 1.257.405Zm14.732-2.415v-6.264h3.025V50h-2.905v-1.981h-.113a3.22 3.22 0 0 1-1.229 1.54c-.568.389-1.262.583-2.081.583-.729 0-1.371-.166-1.925-.497a3.413 3.413 0 0 1-1.299-1.414c-.308-.61-.464-1.342-.469-2.194V39.09h3.025v6.406c.005.644.178 1.153.519 1.527.341.374.798.561 1.371.561.364 0 .705-.083 1.022-.248.318-.17.573-.422.767-.753.199-.332.296-.741.292-1.229Zm8.471-9.9V50h-3.026V35.455h3.026Zm7.395 14.758c-1.122 0-2.088-.227-2.898-.682a4.663 4.663 0 0 1-1.86-1.946c-.436-.843-.654-1.84-.654-2.99 0-1.122.218-2.107.654-2.954a4.823 4.823 0 0 1 1.839-1.982c.796-.473 1.728-.71 2.798-.71.72 0 1.39.116 2.01.348a4.46 4.46 0 0 1 1.634 1.03c.469.459.833 1.037 1.094 1.733.26.69.39 1.5.39 2.429v.83h-9.211v-1.874h6.363c0-.436-.094-.822-.284-1.158a2.033 2.033 0 0 0-.788-.788 2.252 2.252 0 0 0-1.158-.292c-.459 0-.866.107-1.221.32-.351.208-.625.49-.824.845-.199.35-.301.741-.306 1.172v1.783c0 .54.1 1.006.299 1.399.203.393.49.696.859.909.369.213.807.32 1.314.32.336 0 .644-.048.923-.142a1.91 1.91 0 0 0 .717-.427 1.85 1.85 0 0 0 .455-.696l2.798.185a3.823 3.823 0 0 1-.873 1.761c-.436.497-.999.886-1.691 1.165-.686.275-1.479.412-2.379.412Zm16.058-8.011-2.77.17a1.43 1.43 0 0 0-.305-.639 1.616 1.616 0 0 0-.618-.462 2.097 2.097 0 0 0-.902-.177c-.469 0-.864.1-1.186.298-.322.194-.483.455-.483.781 0 .26.104.48.313.66.208.18.565.325 1.072.434l1.975.398c1.06.218 1.851.568 2.372 1.05.521.484.781 1.118.781 1.904 0 .715-.211 1.343-.632 1.882-.417.54-.99.962-1.719 1.265-.724.298-1.56.447-2.507.447-1.444 0-2.595-.3-3.452-.902-.852-.606-1.352-1.43-1.498-2.471l2.976-.157c.09.44.307.777.653 1.009.346.227.788.34 1.328.34.53 0 .957-.101 1.278-.305.327-.208.493-.476.498-.802a.836.836 0 0 0-.348-.675c-.228-.18-.578-.317-1.051-.412l-1.89-.376c-1.065-.213-1.858-.583-2.379-1.108-.516-.526-.774-1.196-.774-2.01 0-.701.189-1.305.568-1.811.384-.507.921-.898 1.612-1.172.696-.275 1.511-.412 2.443-.412 1.378 0 2.463.291 3.253.873.796.583 1.26 1.376 1.392 2.38Z"/></g><rect width="294" height="44" x="49.5" y="20.5" stroke="#E7E7EA" rx="19.5"/></g><defs><filter id="a" width="313" height="68" x="40" y="89.5" color-interpolation-filters="sRGB" filterUnits="userSpaceOnUse"><feFlood flood-opacity="0" result="BackgroundImageFix"/><feColorMatrix in="SourceAlpha" result="hardAlpha" values="0 0 0 0 0 0 0 0 0 0 0 0 0 0 0 0 0 0 127 0"/><feOffset dy="4"/><feGaussianBlur stdDeviation="2"/><feComposite in2="hardAlpha" operator="out"/><feColorMatrix values="0 0 0 0 0 0 0 0 0 0 0 0 0 0 0 0 0 0 0.25 0"/><feBlend in2="BackgroundImageFix" result="effect1_dropShadow_539_5955"/><feBlend in="SourceGraphic" in2="effect1_dropShadow_539_5955" result="shape"/></filter><filter id="c" width="49" height="29" x="45" y="79.5" color-interpolation-filters="sRGB" filterUnits="userSpaceOnUse"><feFlood flood-opacity="0" result="BackgroundImageFix"/><feColorMatrix in="SourceAlpha" result="hardAlpha" values="0 0 0 0 0 0 0 0 0 0 0 0 0 0 0 0 0 0 127 0"/><feOffset dy="4"/><feGaussianBlur stdDeviation="2"/><feComposite in2="hardAlpha" operator="out"/><feColorMatrix values="0 0 0 0 0 0 0 0 0 0 0 0 0 0 0 0 0 0 0.25 0"/><feBlend in2="BackgroundImageFix" result="effect1_dropShadow_539_5955"/><feBlend in="SourceGraphic" in2="effect1_dropShadow_539_5955" result="shape"/></filter><filter id="d" width="313" height="123" x="40" y="174.5" color-interpolation-filters="sRGB" filterUnits="userSpaceOnUse"><feFlood flood-opacity="0" result="BackgroundImageFix"/><feColorMatrix in="SourceAlpha" result="hardAlpha" values="0 0 0 0 0 0 0 0 0 0 0 0 0 0 0 0 0 0 127 0"/><feOffset dy="4"/><feGaussianBlur stdDeviation="2"/><feComposite in2="hardAlpha" operator="out"/><feColorMatrix values="0 0 0 0 0 0 0 0 0 0 0 0 0 0 0 0 0 0 0.25 0"/><feBlend in2="BackgroundImageFix" result="effect1_dropShadow_539_5955"/><feBlend in="SourceGraphic" in2="effect1_dropShadow_539_5955" result="shape"/></filter><filter id="f" width="106" height="29" x="45" y="164.5" color-interpolation-filters="sRGB" filterUnits="userSpaceOnUse"><feFlood flood-opacity="0" result="BackgroundImageFix"/><feColorMatrix in="SourceAlpha" result="hardAlpha" values="0 0 0 0 0 0 0 0 0 0 0 0 0 0 0 0 0 0 127 0"/><feOffset dy="4"/><feGaussianBlur stdDeviation="2"/><feComposite in2="hardAlpha" operator="out"/><feColorMatrix values="0 0 0 0 0 0 0 0 0 0 0 0 0 0 0 0 0 0 0.25 0"/><feBlend in2="BackgroundImageFix" result="effect1_dropShadow_539_5955"/><feBlend in="SourceGraphic" in2="effect1_dropShadow_539_5955" result="shape"/></filter><filter id="g" width="313" height="123" x="40" y="319.5" color-interpolation-filters="sRGB" filterUnits="userSpaceOnUse"><feFlood flood-opacity="0" result="BackgroundImageFix"/><feColorMatrix in="SourceAlpha" result="hardAlpha" values="0 0 0 0 0 0 0 0 0 0 0 0 0 0 0 0 0 0 127 0"/><feOffset dy="4"/><feGaussianBlur stdDeviation="2"/><feComposite in2="hardAlpha" operator="out"/><feColorMatrix values="0 0 0 0 0 0 0 0 0 0 0 0 0 0 0 0 0 0 0.25 0"/><feBlend in2="BackgroundImageFix" result="effect1_dropShadow_539_5955"/><feBlend in="SourceGraphic" in2="effect1_dropShadow_539_5955" result="shape"/></filter><filter id="i" width="115" height="29" x="45" y="309.5" color-interpolation-filters="sRGB" filterUnits="userSpaceOnUse"><feFlood flood-opacity="0" result="BackgroundImageFix"/><feColorMatrix in="SourceAlpha" result="hardAlpha" values="0 0 0 0 0 0 0 0 0 0 0 0 0 0 0 0 0 0 127 0"/><feOffset dy="4"/><feGaussianBlur stdDeviation="2"/><feComposite in2="hardAlpha" operator="out"/><feColorMatrix values="0 0 0 0 0 0 0 0 0 0 0 0 0 0 0 0 0 0 0.25 0"/><feBlend in2="BackgroundImageFix" result="effect1_dropShadow_539_5955"/><feBlend in="SourceGraphic" in2="effect1_dropShadow_539_5955" result="shape"/></filter><filter id="j" width="313" height="137" x="40" y="464.5" color-interpolation-filters="sRGB" filterUnits="userSpaceOnUse"><feFlood flood-opacity="0" result="BackgroundImageFix"/><feColorMatrix in="SourceAlpha" result="hardAlpha" values="0 0 0 0 0 0 0 0 0 0 0 0 0 0 0 0 0 0 127 0"/><feOffset dy="4"/><feGaussianBlur stdDeviation="2"/><feComposite in2="hardAlpha" operator="out"/><feColorMatrix values="0 0 0 0 0 0 0 0 0 0 0 0 0 0 0 0 0 0 0.25 0"/><feBlend in2="BackgroundImageFix" result="effect1_dropShadow_539_5955"/><feBlend in="SourceGraphic" in2="effect1_dropShadow_539_5955" result="shape"/></filter><filter id="k" width="125" height="29" x="45" y="454.5" color-interpolation-filters="sRGB" filterUnits="userSpaceOnUse"><feFlood flood-opacity="0" result="BackgroundImageFix"/><feColorMatrix in="SourceAlpha" result="hardAlpha" values="0 0 0 0 0 0 0 0 0 0 0 0 0 0 0 0 0 0 127 0"/><feOffset dy="4"/><feGaussianBlur stdDeviation="2"/><feComposite in2="hardAlpha" operator="out"/><feColorMatrix values="0 0 0 0 0 0 0 0 0 0 0 0 0 0 0 0 0 0 0.25 0"/><feBlend in2="BackgroundImageFix" result="effect1_dropShadow_539_5955"/><feBlend in="SourceGraphic" in2="effect1_dropShadow_539_5955" result="shape"/></filter><filter id="l" width="313" height="68" x="40" y="623.5" color-interpolation-filters="sRGB" filterUnits="userSpaceOnUse"><feFlood flood-opacity="0" result="BackgroundImageFix"/><feColorMatrix in="SourceAlpha" result="hardAlpha" values="0 0 0 0 0 0 0 0 0 0 0 0 0 0 0 0 0 0 127 0"/><feOffset dy="4"/><feGaussianBlur stdDeviation="2"/><feComposite in2="hardAlpha" operator="out"/><feColorMatrix values="0 0 0 0 0 0 0 0 0 0 0 0 0 0 0 0 0 0 0.25 0"/><feBlend in2="BackgroundImageFix" result="effect1_dropShadow_539_5955"/><feBlend in="SourceGraphic" in2="effect1_dropShadow_539_5955" result="shape"/></filter><filter id="m" width="134" height="29" x="45" y="613.5" color-interpolation-filters="sRGB" filterUnits="userSpaceOnUse"><feFlood flood-opacity="0" result="BackgroundImageFix"/><feColorMatrix in="SourceAlpha" result="hardAlpha" values="0 0 0 0 0 0 0 0 0 0 0 0 0 0 0 0 0 0 127 0"/><feOffset dy="4"/><feGaussianBlur stdDeviation="2"/><feComposite in2="hardAlpha" operator="out"/><feColorMatrix values="0 0 0 0 0 0 0 0 0 0 0 0 0 0 0 0 0 0 0.25 0"/><feBlend in2="BackgroundImageFix" result="effect1_dropShadow_539_5955"/><feBlend in="SourceGraphic" in2="effect1_dropShadow_539_5955" result="shape"/></filter><filter id="n" width="313" height="68" x="40" y="708.5" color-interpolation-filters="sRGB" filterUnits="userSpaceOnUse"><feFlood flood-opacity="0" result="BackgroundImageFix"/><feColorMatrix in="SourceAlpha" result="hardAlpha" values="0 0 0 0 0 0 0 0 0 0 0 0 0 0 0 0 0 0 127 0"/><feOffset dy="4"/><feGaussianBlur stdDeviation="2"/><feComposite in2="hardAlpha" operator="out"/><feColorMatrix values="0 0 0 0 0 0 0 0 0 0 0 0 0 0 0 0 0 0 0.25 0"/><feBlend in2="BackgroundImageFix" result="effect1_dropShadow_539_5955"/><feBlend in="SourceGraphic" in2="effect1_dropShadow_539_5955" result="shape"/></filter><filter id="p" width="119" height="29" x="45" y="698.5" color-interpolation-filters="sRGB" filterUnits="userSpaceOnUse"><feFlood flood-opacity="0" result="BackgroundImageFix"/><feColorMatrix in="SourceAlpha" result="hardAlpha" values="0 0 0 0 0 0 0 0 0 0 0 0 0 0 0 0 0 0 127 0"/><feOffset dy="4"/><feGaussianBlur stdDeviation="2"/><feComposite in2="hardAlpha" operator="out"/><feColorMatrix values="0 0 0 0 0 0 0 0 0 0 0 0 0 0 0 0 0 0 0.25 0"/><feBlend in2="BackgroundImageFix" result="effect1_dropShadow_539_5955"/><feBlend in="SourceGraphic" in2="effect1_dropShadow_539_5955" result="shape"/></filter><filter id="q" width="305" height="55" x="44" y="18" color-interpolation-filters="sRGB" filterUnits="userSpaceOnUse"><feFlood flood-opacity="0" result="BackgroundImageFix"/><feColorMatrix in="SourceAlpha" result="hardAlpha" values="0 0 0 0 0 0 0 0 0 0 0 0 0 0 0 0 0 0 127 0"/><feOffset dy="3"/><feGaussianBlur stdDeviation="2.5"/><feComposite in2="hardAlpha" operator="out"/><feColorMatrix values="0 0 0 0 0.804769 0 0 0 0 0.804769 0 0 0 0 0.804769 0 0 0 0.25 0"/><feBlend in2="BackgroundImageFix" result="effect1_dropShadow_539_5955"/><feBlend in="SourceGraphic" in2="effect1_dropShadow_539_5955" result="shape"/></filter><clipPath id="b"><path fill="#fff" d="M112 108.5h22v22h-22z"/></clipPath><clipPath id="e"><path fill="#fff" d="M112 248.5h22v22h-22z"/></clipPath><clipPath id="h"><path fill="#fff" d="M112 393.5h22v22h-22z"/></clipPath><clipPath id="o"><path fill="#fff" d="M112 727.5h22v22h-22z"/></clipPath><clipPath id="r"><rect width="295" height="45" x="49" y="20" fill="#fff" rx="20"/></clipPath></defs></svg>